# Blender 3.6.0
# www.blender.org
mtllib 1.mtl
o Cube.019
v -0.104829 0.081763 -0.232344
v -0.104829 0.127009 -0.232344
v -0.100187 0.081763 -0.283085
v -0.100187 0.127009 -0.283085
v -0.117492 0.081763 -0.284668
v -0.117492 0.127009 -0.284668
v -0.100187 0.104386 -0.283085
v -0.104089 0.073816 -0.283442
v -0.102508 0.127009 -0.257715
v -0.104829 0.104386 -0.232344
v -0.117227 0.168128 -0.239874
v -0.119813 0.081763 -0.259298
v -0.102508 0.104386 -0.257715
v -0.117492 0.104386 -0.284668
v -0.108839 0.127009 -0.283877
v -0.100187 0.093075 -0.283085
v -0.104669 0.073816 -0.277100
v -0.103668 0.127009 -0.245029
v -0.104829 0.093075 -0.232344
v -0.113481 0.081763 -0.233136
v -0.108839 0.081763 -0.283877
v -0.100187 0.115698 -0.283085
v -0.103668 0.081763 -0.245029
v -0.101347 0.127009 -0.270400
v -0.104829 0.115698 -0.232344
v -0.113481 0.127009 -0.233136
v -0.108575 0.168128 -0.239083
v -0.118652 0.127009 -0.271983
v -0.107414 0.168128 -0.251768
v -0.116067 0.168128 -0.252559
v -0.120973 0.081763 -0.246612
v -0.118652 0.081763 -0.271983
v -0.111160 0.081763 -0.258506
v -0.113481 0.104386 -0.233136
v -0.103668 0.104386 -0.245029
v -0.101347 0.104386 -0.270400
v -0.102508 0.115698 -0.257715
v -0.108839 0.104386 -0.283877
v -0.117492 0.093075 -0.284668
v -0.117492 0.115698 -0.284668
v -0.108839 0.093075 -0.283877
v -0.101347 0.115698 -0.270400
v -0.103668 0.093075 -0.245029
v -0.113481 0.115698 -0.233136
v -0.113481 0.093075 -0.233136
v -0.110000 0.081763 -0.271192
v -0.110000 0.127009 -0.271192
v -0.112321 0.081763 -0.245821
v -0.103668 0.115698 -0.245029
v -0.108839 0.115698 -0.283877
v -0.104513 0.127009 -0.283481
v -0.100187 0.087419 -0.283085
v -0.104249 0.127009 -0.238687
v -0.104829 0.087419 -0.232344
v -0.109155 0.081763 -0.232740
v -0.113166 0.081763 -0.284273
v -0.100187 0.110042 -0.283085
v -0.103088 0.081763 -0.251372
v -0.101928 0.127009 -0.264057
v -0.104829 0.110042 -0.232344
v -0.121553 0.081763 -0.240270
v -0.119232 0.081763 -0.265640
v -0.115486 0.081763 -0.258902
v -0.104249 0.104386 -0.238687
v -0.101928 0.104386 -0.264057
v -0.102508 0.110042 -0.257715
v -0.104513 0.104386 -0.283481
v -0.117492 0.087419 -0.284668
v -0.117492 0.110042 -0.284668
v -0.113166 0.127009 -0.284273
v -0.100187 0.098730 -0.283085
v -0.106990 0.073816 -0.251729
v -0.103088 0.127009 -0.251372
v -0.104829 0.098730 -0.232344
v -0.100187 0.121353 -0.283085
v -0.104249 0.081763 -0.238687
v -0.100767 0.127009 -0.276743
v -0.104829 0.121353 -0.232344
v -0.109155 0.127009 -0.232740
v -0.118072 0.127009 -0.278326
v -0.120393 0.081763 -0.252955
v -0.118072 0.081763 -0.278326
v -0.109155 0.104386 -0.232740
v -0.103088 0.104386 -0.251372
v -0.100767 0.104386 -0.276743
v -0.102508 0.098730 -0.257715
v -0.102508 0.121353 -0.257715
v -0.113166 0.104386 -0.284273
v -0.111387 0.104386 -0.303717
v -0.117492 0.121353 -0.284668
v -0.104513 0.093075 -0.283481
v -0.113166 0.093075 -0.284273
v -0.108839 0.087419 -0.283877
v -0.108839 0.098730 -0.283877
v -0.101928 0.115698 -0.264057
v -0.100767 0.115698 -0.276743
v -0.101347 0.110042 -0.270400
v -0.101347 0.121353 -0.270400
v -0.101347 0.098730 -0.270400
v -0.104249 0.093075 -0.238687
v -0.103088 0.093075 -0.251372
v -0.103668 0.087419 -0.245029
v -0.103668 0.098730 -0.245029
v -0.109155 0.115698 -0.232740
v -0.113481 0.110042 -0.233136
v -0.113481 0.121353 -0.233136
v -0.109155 0.093075 -0.232740
v -0.113481 0.087419 -0.233136
v -0.113481 0.098730 -0.233136
v -0.110580 0.081763 -0.264849
v -0.109420 0.081763 -0.277534
v -0.114326 0.081763 -0.271587
v -0.116647 0.168128 -0.246217
v -0.107994 0.168128 -0.245425
v -0.109420 0.127009 -0.277534
v -0.105674 0.127009 -0.270796
v -0.114326 0.127009 -0.271587
v -0.112321 0.168128 -0.245821
v -0.111740 0.168128 -0.252164
v -0.112901 0.168128 -0.239478
v -0.120973 0.168128 -0.246612
v -0.120393 0.168128 -0.252955
v -0.113481 0.168128 -0.233136
v -0.109155 0.168128 -0.232740
v -0.112901 0.081763 -0.239478
v -0.111740 0.081763 -0.252164
v -0.116647 0.081763 -0.246217
v -0.107994 0.081763 -0.245425
v -0.104249 0.115698 -0.238687
v -0.103088 0.115698 -0.251372
v -0.103668 0.110042 -0.245029
v -0.103668 0.121353 -0.245029
v -0.104513 0.115698 -0.283481
v -0.113166 0.115698 -0.284273
v -0.108839 0.110042 -0.283877
v -0.108839 0.121353 -0.283877
v -0.113166 0.121353 -0.284273
v -0.113166 0.110042 -0.284273
v -0.104513 0.110042 -0.283481
v -0.103088 0.121353 -0.251372
v -0.103088 0.110042 -0.251372
v -0.104249 0.110042 -0.238687
v -0.116067 0.081763 -0.252559
v -0.117227 0.081763 -0.239874
v -0.103668 0.168128 -0.245029
v -0.103088 0.168128 -0.251372
v -0.121553 0.168128 -0.240270
v -0.113746 0.127009 -0.277930
v -0.105093 0.127009 -0.277138
v -0.122133 0.168128 -0.233927
v -0.117807 0.168128 -0.233531
v -0.113746 0.081763 -0.277930
v -0.114906 0.081763 -0.265245
v -0.109155 0.098730 -0.232740
v -0.109155 0.087419 -0.232740
v -0.109155 0.121353 -0.232740
v -0.109155 0.110042 -0.232740
v -0.103088 0.098730 -0.251372
v -0.103088 0.087419 -0.251372
v -0.104249 0.087419 -0.238687
v -0.100767 0.098730 -0.276743
v -0.100767 0.121353 -0.276743
v -0.100767 0.110042 -0.276743
v -0.101928 0.110042 -0.264057
v -0.115713 0.098730 -0.304113
v -0.113166 0.087419 -0.284273
v -0.104513 0.087419 -0.283481
v -0.104513 0.098730 -0.283481
v -0.101928 0.121353 -0.264057
v -0.101928 0.098730 -0.264057
v -0.104249 0.098730 -0.238687
v -0.104829 0.168128 -0.232344
v -0.104249 0.168128 -0.238687
v -0.108575 0.081763 -0.239083
v -0.104249 0.121353 -0.238687
v -0.104513 0.121353 -0.283481
v -0.104249 0.131952 -0.238687
v -0.104829 0.131952 -0.232344
v -0.101928 0.131952 -0.264057
v -0.102508 0.131952 -0.257715
v -0.119232 0.131952 -0.265640
v -0.119813 0.131952 -0.259298
v -0.106834 0.131952 -0.258110
v -0.103088 0.131952 -0.251372
v -0.103668 0.131952 -0.245029
v -0.109155 0.131952 -0.232740
v -0.120393 0.131952 -0.252955
v -0.115486 0.131952 -0.258902
v -0.111160 0.131952 -0.258506
v -0.118652 0.131952 -0.271983
v -0.110580 0.131952 -0.264849
v -0.105674 0.131952 -0.270796
v -0.101347 0.131952 -0.270400
v -0.114326 0.131952 -0.271587
v -0.110000 0.131952 -0.271192
v -0.111740 0.131952 -0.252164
v -0.116067 0.131952 -0.252559
v -0.107414 0.131952 -0.251768
v -0.106254 0.131952 -0.264453
v -0.114906 0.131952 -0.265245
v -0.104829 0.153563 -0.232344
v -0.107414 0.153563 -0.251768
v -0.109155 0.153563 -0.232740
v -0.113481 0.153563 -0.233136
v -0.122133 0.153563 -0.233927
v -0.117807 0.153563 -0.233531
v -0.103088 0.153563 -0.251372
v -0.111740 0.153563 -0.252164
v -0.116067 0.153563 -0.252559
v -0.104249 0.153563 -0.238687
v -0.103668 0.153563 -0.245029
v -0.120393 0.153563 -0.252955
v -0.119274 0.127009 -0.217502
v -0.123600 0.127009 -0.217898
v -0.110621 0.127009 -0.216710
v -0.114947 0.127009 -0.217106
v -0.123600 0.131952 -0.217898
v -0.110621 0.131952 -0.216710
v -0.119274 0.131952 -0.217502
v -0.114947 0.131952 -0.217106
v -0.106295 0.131952 -0.216315
v -0.123600 0.153563 -0.217898
v -0.106295 0.153563 -0.216315
v -0.110621 0.153563 -0.216710
v -0.114947 0.153563 -0.217106
v -0.119274 0.153563 -0.217502
v -0.115329 0.081763 -0.284470
v -0.117650 0.081763 -0.259100
v -0.116489 0.081763 -0.271785
v -0.118230 0.168128 -0.252757
v -0.118810 0.081763 -0.246415
v -0.115329 0.127009 -0.284470
v -0.115329 0.104386 -0.284470
v -0.115329 0.093075 -0.284470
v -0.116489 0.127009 -0.271785
v -0.118810 0.168128 -0.246415
v -0.115329 0.115698 -0.284470
v -0.115329 0.121353 -0.284470
v -0.115329 0.110042 -0.284470
v -0.118230 0.081763 -0.252757
v -0.119390 0.081763 -0.240072
v -0.119970 0.168128 -0.233729
v -0.115909 0.127009 -0.278128
v -0.115909 0.081763 -0.278128
v -0.117069 0.081763 -0.265443
v -0.107061 0.104386 -0.303321
v -0.115329 0.087419 -0.284470
v -0.117650 0.131952 -0.259100
v -0.116489 0.131952 -0.271785
v -0.118230 0.131952 -0.252757
v -0.117069 0.131952 -0.265443
v -0.119390 0.168128 -0.240072
v -0.118230 0.153563 -0.252757
v -0.119970 0.153563 -0.233729
v -0.121437 0.127009 -0.217700
v -0.121437 0.131952 -0.217700
v -0.121437 0.153563 -0.217700
v -0.117227 0.171929 -0.239874
v -0.112901 0.171929 -0.239478
v -0.117807 0.171929 -0.233531
v -0.108575 0.171929 -0.239083
v -0.104249 0.171929 -0.238687
v -0.109155 0.171929 -0.232740
v -0.104829 0.171929 -0.232344
v -0.113481 0.171929 -0.233136
v -0.119390 0.171929 -0.240072
v -0.119970 0.171929 -0.233729
v -0.104829 0.162874 -0.232344
v -0.107414 0.162874 -0.251768
v -0.109155 0.162874 -0.232740
v -0.113481 0.162874 -0.233136
v -0.117807 0.162874 -0.233531
v -0.103088 0.162874 -0.251372
v -0.116067 0.162874 -0.252559
v -0.103668 0.162874 -0.245029
v -0.122133 0.162874 -0.233927
v -0.111740 0.162874 -0.252164
v -0.104249 0.162874 -0.238687
v -0.120393 0.162874 -0.252955
v -0.118230 0.162874 -0.252757
v -0.119970 0.162874 -0.233729
v -0.122133 0.157052 -0.233927
v -0.111740 0.157052 -0.252164
v -0.104249 0.157052 -0.238687
v -0.120393 0.157052 -0.252955
v -0.104829 0.157052 -0.232344
v -0.107414 0.157052 -0.251768
v -0.109155 0.157052 -0.232740
v -0.113481 0.157052 -0.233136
v -0.117807 0.157052 -0.233531
v -0.103088 0.157052 -0.251372
v -0.116067 0.157052 -0.252559
v -0.103668 0.157052 -0.245029
v -0.118230 0.157052 -0.252757
v -0.119970 0.157052 -0.233729
v -0.119030 0.141041 -0.220165
v -0.119030 0.144474 -0.220165
v -0.114704 0.141041 -0.219769
v -0.114704 0.144474 -0.219769
v -0.111740 0.141041 -0.252164
v -0.111740 0.144474 -0.252164
v -0.104249 0.141041 -0.238687
v -0.104249 0.144474 -0.238687
v -0.120393 0.144474 -0.252955
v -0.120393 0.141041 -0.252955
v -0.104829 0.144474 -0.232344
v -0.104829 0.141041 -0.232344
v -0.107414 0.144474 -0.251768
v -0.107414 0.141041 -0.251768
v -0.103088 0.144474 -0.251372
v -0.103088 0.141041 -0.251372
v -0.116067 0.144474 -0.252559
v -0.116067 0.141041 -0.252559
v -0.103668 0.144474 -0.245029
v -0.103668 0.141041 -0.245029
v -0.123600 0.141041 -0.217898
v -0.123600 0.144474 -0.217898
v -0.106295 0.141041 -0.216315
v -0.106295 0.144474 -0.216315
v -0.110621 0.144474 -0.216710
v -0.110621 0.141041 -0.216710
v -0.114947 0.144474 -0.217106
v -0.114947 0.141041 -0.217106
v -0.119274 0.144474 -0.217502
v -0.119274 0.141041 -0.217502
v -0.121437 0.141041 -0.217700
v -0.121437 0.144474 -0.217700
v -0.118230 0.141041 -0.252757
v -0.118230 0.144474 -0.252757
v -0.111740 0.136497 -0.252164
v -0.116067 0.136497 -0.252559
v -0.107414 0.136497 -0.251768
v -0.104249 0.136497 -0.238687
v -0.103668 0.136497 -0.245029
v -0.104829 0.136497 -0.232344
v -0.118230 0.136497 -0.252757
v -0.120393 0.136497 -0.252955
v -0.106295 0.136497 -0.216315
v -0.103088 0.136497 -0.251372
v -0.123600 0.136497 -0.217898
v -0.121437 0.136497 -0.217700
v -0.110621 0.136497 -0.216710
v -0.114947 0.136497 -0.217106
v -0.119274 0.136497 -0.217502
v -0.120299 0.127009 -0.230137
v -0.122462 0.127009 -0.230335
v -0.120299 0.104386 -0.230137
v -0.122462 0.104386 -0.230335
v -0.122462 0.087419 -0.230335
v -0.122462 0.081763 -0.230335
v -0.122462 0.110042 -0.230335
v -0.118136 0.081763 -0.229939
v -0.113810 0.081763 -0.229544
v -0.122462 0.098730 -0.230335
v -0.122462 0.093075 -0.230335
v -0.122462 0.121353 -0.230335
v -0.122462 0.115698 -0.230335
v -0.120299 0.115698 -0.230137
v -0.113810 0.110042 -0.229544
v -0.113810 0.104386 -0.229544
v -0.113810 0.121353 -0.229544
v -0.113810 0.115698 -0.229544
v -0.120299 0.093075 -0.230137
v -0.113810 0.087419 -0.229544
v -0.113810 0.098730 -0.229544
v -0.113810 0.093075 -0.229544
v -0.113810 0.127009 -0.229544
v -0.118136 0.127009 -0.229939
v -0.118136 0.104386 -0.229939
v -0.120299 0.081763 -0.230137
v -0.118136 0.115698 -0.229939
v -0.118136 0.093075 -0.229939
v -0.120299 0.087419 -0.230137
v -0.118136 0.087419 -0.229939
v -0.120299 0.110042 -0.230137
v -0.118136 0.110042 -0.229939
v -0.120299 0.121353 -0.230137
v -0.118136 0.121353 -0.229939
v -0.120299 0.098730 -0.230137
v -0.118136 0.098730 -0.229939
v -0.110255 0.131952 -0.220718
v -0.109888 0.131952 -0.224725
v -0.109522 0.131952 -0.228732
v -0.105195 0.131952 -0.228337
v -0.105562 0.131952 -0.224329
v -0.105929 0.131952 -0.220322
v -0.114581 0.153563 -0.221114
v -0.114214 0.153563 -0.225121
v -0.113848 0.153563 -0.229128
v -0.118174 0.153563 -0.229524
v -0.118540 0.153563 -0.225517
v -0.118907 0.153563 -0.221509
v -0.123233 0.153563 -0.221905
v -0.122867 0.153563 -0.225912
v -0.122500 0.153563 -0.229920
v -0.105929 0.153563 -0.220322
v -0.105562 0.153563 -0.224329
v -0.105195 0.153563 -0.228337
v -0.109522 0.153563 -0.228732
v -0.109888 0.153563 -0.224725
v -0.110255 0.153563 -0.220718
v -0.109522 0.127009 -0.228732
v -0.109888 0.127009 -0.224725
v -0.110255 0.127009 -0.220718
v -0.120337 0.153563 -0.229722
v -0.120704 0.153563 -0.225715
v -0.121070 0.153563 -0.221707
v -0.105195 0.144474 -0.228337
v -0.105562 0.144474 -0.224329
v -0.105929 0.144474 -0.220322
v -0.105929 0.141041 -0.220322
v -0.105562 0.141041 -0.224329
v -0.105195 0.141041 -0.228337
v -0.105195 0.136497 -0.228337
v -0.105562 0.136497 -0.224329
v -0.105929 0.136497 -0.220322
v -0.112223 0.104386 -0.294571
v -0.107897 0.104386 -0.294175
v -0.116550 0.093075 -0.294967
v -0.112223 0.093075 -0.294571
v -0.107897 0.093075 -0.294175
v -0.107897 0.098730 -0.294175
v -0.114387 0.104386 -0.294769
v -0.116550 0.104386 -0.294967
v -0.114387 0.093075 -0.294769
v -0.115713 0.093075 -0.304113
v -0.111387 0.093075 -0.303717
v -0.107061 0.093075 -0.303321
v -0.107061 0.098730 -0.303321
v -0.113550 0.104386 -0.303915
v -0.115713 0.104386 -0.304113
v -0.113550 0.093075 -0.303915
v -0.111387 0.098730 -0.303717
v -0.113550 0.098730 -0.303915
v -0.112223 0.108718 -0.294571
v -0.107897 0.108718 -0.294175
v -0.114387 0.108718 -0.294769
v -0.113550 0.108718 -0.303915
v -0.107061 0.108718 -0.303321
v -0.116550 0.108718 -0.294967
v -0.115713 0.108718 -0.304113
v -0.111387 0.108718 -0.303717
v -0.112995 0.108718 -0.309982
v -0.112995 0.104386 -0.309982
v -0.110832 0.104386 -0.309784
v -0.106506 0.104386 -0.309388
v -0.115158 0.104386 -0.310180
v -0.115158 0.108718 -0.310180
v -0.110832 0.108718 -0.309784
v -0.106506 0.108718 -0.309388
v -0.106506 0.115212 -0.309388
v -0.107061 0.115212 -0.303321
v -0.113550 0.115212 -0.303915
v -0.112995 0.115212 -0.309982
v -0.111387 0.115212 -0.303717
v -0.115713 0.115212 -0.304113
v -0.110832 0.115212 -0.309784
v -0.115158 0.115212 -0.310180
v -0.112397 0.108718 -0.316519
v -0.112397 0.115212 -0.316519
v -0.110234 0.108718 -0.316321
v -0.105908 0.108718 -0.315926
v -0.114560 0.108718 -0.316717
v -0.105908 0.115212 -0.315926
v -0.110234 0.115212 -0.316321
v -0.114560 0.115212 -0.316717
v -0.112397 0.121005 -0.316519
v -0.112995 0.121005 -0.309982
v -0.110832 0.121005 -0.309784
v -0.106506 0.121005 -0.309388
v -0.115158 0.121005 -0.310180
v -0.110234 0.121005 -0.316321
v -0.105908 0.121005 -0.315926
v -0.114560 0.121005 -0.316717
v -0.112397 0.126563 -0.316519
v -0.112995 0.126563 -0.309982
v -0.110832 0.126563 -0.309784
v -0.115158 0.126563 -0.310180
v -0.110234 0.126563 -0.316321
v -0.114560 0.126563 -0.316717
v -0.112397 0.130573 -0.316519
v -0.112995 0.130573 -0.309982
v -0.115158 0.130573 -0.310180
v -0.114560 0.130573 -0.316717
v -0.092014 0.087419 -0.282338
v -0.092014 0.081763 -0.282338
v -0.092595 0.081763 -0.275995
v -0.094915 0.081763 -0.250624
v -0.094335 0.081763 -0.256967
v -0.094335 0.087419 -0.256967
v -0.092014 0.098730 -0.282338
v -0.092014 0.093075 -0.282338
v -0.093755 0.081763 -0.263310
v -0.093175 0.081763 -0.269652
v -0.094335 0.098730 -0.256967
v -0.094335 0.093075 -0.256967
v -0.093755 0.093075 -0.263310
v -0.092595 0.093075 -0.275995
v -0.093175 0.093075 -0.269652
v -0.093175 0.087419 -0.269652
v -0.093175 0.098730 -0.269652
v -0.094915 0.093075 -0.250624
v -0.094915 0.098730 -0.250624
v -0.094915 0.087419 -0.250624
v -0.092595 0.098730 -0.275995
v -0.092595 0.087419 -0.275995
v -0.093755 0.087419 -0.263310
v -0.093755 0.098730 -0.263310
v -0.104669 0.049427 -0.277100
v -0.104089 0.049427 -0.283442
v -0.103453 0.073816 -0.290388
v -0.105249 0.064596 -0.270757
v -0.105829 0.064596 -0.264414
v -0.105829 0.058087 -0.264414
v -0.092595 0.073816 -0.275995
v -0.092014 0.073816 -0.282338
v -0.094915 0.073816 -0.250624
v -0.094335 0.073816 -0.256967
v -0.093755 0.073816 -0.263310
v -0.093175 0.073816 -0.269652
v -0.104089 0.064596 -0.283442
v -0.106410 0.073816 -0.258072
v -0.091379 0.081763 -0.289283
v -0.091379 0.073816 -0.289283
v -0.104089 0.058087 -0.283442
v -0.103453 0.081763 -0.290388
v -0.105249 0.073816 -0.270757
v -0.103453 0.064596 -0.290388
v -0.092595 0.064596 -0.275995
v -0.092014 0.064596 -0.282338
v -0.093755 0.064596 -0.263310
v -0.093175 0.064596 -0.269652
v -0.091379 0.064596 -0.289283
v -0.104669 0.064596 -0.277100
v -0.104669 0.058087 -0.277100
v -0.105829 0.073816 -0.264414
v -0.105249 0.058087 -0.270757
v -0.092595 0.058087 -0.275995
v -0.092014 0.058087 -0.282338
v -0.093755 0.058087 -0.263310
v -0.093175 0.058087 -0.269652
v -0.105829 0.081763 -0.264414
v -0.106410 0.081763 -0.258072
v -0.105249 0.081763 -0.270757
v -0.104669 0.081763 -0.277100
v -0.092595 0.049427 -0.275995
v -0.092014 0.049427 -0.282338
v -0.093755 0.049427 -0.263310
v -0.093175 0.049427 -0.269652
v -0.104094 0.081763 -0.283443
v -0.106995 0.081763 -0.251729
v -0.105829 0.049427 -0.264414
v -0.105249 0.049427 -0.270757
v -0.099647 0.058087 -0.253675
v -0.099647 0.049427 -0.253675
v -0.101948 0.049427 -0.253885
v -0.101948 0.058087 -0.253885
v -0.106752 0.049427 -0.254325
v -0.106752 0.058087 -0.254325
v -0.094678 0.058087 -0.253220
v -0.094678 0.049427 -0.253220
v -0.099885 0.073816 -0.251079
v -0.102185 0.073816 -0.251289
v -0.101605 0.073816 -0.257632
v -0.099304 0.073816 -0.257422
v -0.098724 0.073816 -0.263764
v -0.101025 0.073816 -0.263975
v -0.098649 0.081763 -0.289948
v -0.096348 0.081763 -0.289738
v -0.098649 0.073816 -0.289948
v -0.096348 0.073816 -0.289738
v -0.099284 0.064596 -0.283003
v -0.096984 0.064596 -0.282792
v -0.098724 0.064596 -0.263764
v -0.101025 0.064596 -0.263975
v -0.096348 0.064596 -0.289738
v -0.098649 0.064596 -0.289948
v -0.096984 0.058087 -0.282792
v -0.099284 0.058087 -0.283003
v -0.098724 0.058087 -0.263764
v -0.101025 0.058087 -0.263975
v -0.099864 0.049427 -0.276660
v -0.097564 0.049427 -0.276450
v -0.099284 0.049427 -0.283003
v -0.096984 0.049427 -0.282792
v -0.101025 0.049427 -0.263975
v -0.098724 0.049427 -0.263764
v -0.098144 0.049427 -0.270107
v -0.100445 0.049427 -0.270317
v -0.102185 0.098730 -0.251289
v -0.099885 0.098730 -0.251079
v -0.099284 0.093075 -0.283003
v -0.096984 0.093075 -0.282792
v -0.099885 0.093075 -0.251079
v -0.102185 0.093075 -0.251289
v -0.099885 0.087419 -0.251079
v -0.102185 0.087419 -0.251289
v -0.096984 0.098730 -0.282792
v -0.099284 0.098730 -0.283003
v -0.096984 0.081763 -0.282792
v -0.099284 0.081763 -0.283003
v -0.099284 0.087419 -0.283003
v -0.096984 0.087419 -0.282792
v -0.097564 0.098730 -0.276450
v -0.099864 0.098730 -0.276660
v -0.100445 0.098730 -0.270317
v -0.098144 0.098730 -0.270107
v -0.102185 0.081763 -0.251289
v -0.099885 0.081763 -0.251079
v -0.098724 0.098730 -0.263764
v -0.101025 0.098730 -0.263975
v -0.101605 0.098730 -0.257632
v -0.099304 0.098730 -0.257422
v -0.109926 0.115698 -0.224314
v -0.114252 0.115698 -0.224709
v -0.105600 0.115698 -0.223918
v -0.105600 0.110042 -0.223918
v -0.114252 0.110042 -0.224709
v -0.109926 0.110042 -0.224314
v -0.109540 0.115698 -0.228527
v -0.105214 0.115698 -0.228131
v -0.105214 0.110042 -0.228131
v -0.109540 0.110042 -0.228527
v -0.113867 0.110042 -0.228923
v -0.113867 0.115698 -0.228923
v -0.109926 0.104020 -0.224314
v -0.114252 0.104020 -0.224709
v -0.105600 0.104020 -0.223918
v -0.109540 0.104020 -0.228527
v -0.105214 0.104020 -0.228131
v -0.113867 0.104020 -0.228923
v -0.110299 0.110042 -0.220235
v -0.114625 0.110042 -0.220631
v -0.105973 0.110042 -0.219839
v -0.114625 0.104020 -0.220631
v -0.110299 0.104020 -0.220235
v -0.105973 0.104020 -0.219839
v -0.109926 0.099567 -0.224314
v -0.114252 0.099567 -0.224709
v -0.105600 0.099567 -0.223918
v -0.110299 0.099567 -0.220235
v -0.114625 0.099567 -0.220631
v -0.105973 0.099567 -0.219839
v -0.099186 0.049427 -0.258720
v -0.094216 0.049427 -0.258265
v -0.099186 0.058087 -0.258720
v -0.094216 0.058087 -0.258265
v -0.106291 0.058087 -0.259370
v -0.106291 0.049427 -0.259370
v -0.101486 0.049427 -0.258930
v -0.101486 0.058087 -0.258930
v -0.139438 0.081763 -0.235510
v -0.139438 0.127009 -0.235510
v -0.134796 0.081763 -0.286251
v -0.134796 0.127009 -0.286251
v -0.134796 0.104386 -0.286251
v -0.130895 0.073816 -0.285894
v -0.137117 0.127009 -0.260881
v -0.139438 0.104386 -0.235510
v -0.125879 0.168128 -0.240666
v -0.137117 0.104386 -0.260881
v -0.126144 0.127009 -0.285460
v -0.134796 0.093075 -0.286251
v -0.131475 0.073816 -0.279552
v -0.138278 0.127009 -0.248195
v -0.139438 0.093075 -0.235510
v -0.130786 0.081763 -0.234719
v -0.126144 0.081763 -0.285460
v -0.134796 0.115698 -0.286251
v -0.138278 0.081763 -0.248195
v -0.135957 0.127009 -0.273566
v -0.139438 0.115698 -0.235510
v -0.130786 0.127009 -0.234719
v -0.134532 0.168128 -0.241457
v -0.133371 0.168128 -0.254142
v -0.124719 0.168128 -0.253351
v -0.128465 0.081763 -0.260089
v -0.130786 0.104386 -0.234719
v -0.138278 0.104386 -0.248195
v -0.135957 0.104386 -0.273566
v -0.137117 0.115698 -0.260881
v -0.126144 0.104386 -0.285460
v -0.126144 0.093075 -0.285460
v -0.135957 0.115698 -0.273566
v -0.138278 0.093075 -0.248195
v -0.130786 0.115698 -0.234719
v -0.130786 0.093075 -0.234719
v -0.127305 0.081763 -0.272775
v -0.127305 0.127009 -0.272775
v -0.129625 0.081763 -0.247404
v -0.138278 0.115698 -0.248195
v -0.126144 0.115698 -0.285460
v -0.130470 0.127009 -0.285856
v -0.134796 0.087419 -0.286251
v -0.138858 0.127009 -0.241853
v -0.139438 0.087419 -0.235510
v -0.135112 0.081763 -0.235114
v -0.121818 0.081763 -0.285064
v -0.134796 0.110042 -0.286251
v -0.137698 0.081763 -0.254538
v -0.136537 0.127009 -0.267223
v -0.139438 0.110042 -0.235510
v -0.124139 0.081763 -0.259694
v -0.138858 0.104386 -0.241853
v -0.136537 0.104386 -0.267223
v -0.137117 0.110042 -0.260881
v -0.130470 0.104386 -0.285856
v -0.121818 0.127009 -0.285064
v -0.134796 0.098730 -0.286251
v -0.133796 0.073816 -0.254181
v -0.137698 0.127009 -0.254538
v -0.139438 0.098730 -0.235510
v -0.134796 0.121353 -0.286251
v -0.138858 0.081763 -0.241853
v -0.135377 0.127009 -0.279909
v -0.139438 0.121353 -0.235510
v -0.135112 0.127009 -0.235114
v -0.135112 0.104386 -0.235114
v -0.137698 0.104386 -0.254538
v -0.135377 0.104386 -0.279909
v -0.137117 0.098730 -0.260881
v -0.137117 0.121353 -0.260881
v -0.121818 0.104386 -0.285064
v -0.120039 0.104386 -0.304508
v -0.130470 0.093075 -0.285856
v -0.121818 0.093075 -0.285064
v -0.126144 0.087419 -0.285460
v -0.126144 0.098730 -0.285460
v -0.136537 0.115698 -0.267223
v -0.135377 0.115698 -0.279909
v -0.135957 0.110042 -0.273566
v -0.135957 0.121353 -0.273566
v -0.135957 0.098730 -0.273566
v -0.138858 0.093075 -0.241853
v -0.137698 0.093075 -0.254538
v -0.138278 0.087419 -0.248195
v -0.138278 0.098730 -0.248195
v -0.135112 0.115698 -0.235114
v -0.130786 0.110042 -0.234719
v -0.130786 0.121353 -0.234719
v -0.135112 0.093075 -0.235114
v -0.130786 0.087419 -0.234719
v -0.130786 0.098730 -0.234719
v -0.127885 0.081763 -0.266432
v -0.126724 0.081763 -0.279117
v -0.122978 0.081763 -0.272379
v -0.125299 0.168128 -0.247008
v -0.133952 0.168128 -0.247800
v -0.126724 0.127009 -0.279117
v -0.131631 0.127009 -0.273170
v -0.122978 0.127009 -0.272379
v -0.129625 0.168128 -0.247404
v -0.129045 0.168128 -0.253747
v -0.130206 0.168128 -0.241061
v -0.130786 0.168128 -0.234719
v -0.135112 0.168128 -0.235114
v -0.130206 0.081763 -0.241061
v -0.129045 0.081763 -0.253747
v -0.125299 0.081763 -0.247008
v -0.133952 0.081763 -0.247800
v -0.138858 0.115698 -0.241853
v -0.137698 0.115698 -0.254538
v -0.138278 0.110042 -0.248195
v -0.138278 0.121353 -0.248195
v -0.130470 0.115698 -0.285856
v -0.121818 0.115698 -0.285064
v -0.126144 0.110042 -0.285460
v -0.126144 0.121353 -0.285460
v -0.121818 0.121353 -0.285064
v -0.121818 0.110042 -0.285064
v -0.130470 0.110042 -0.285856
v -0.137698 0.121353 -0.254538
v -0.137698 0.110042 -0.254538
v -0.138858 0.110042 -0.241853
v -0.124719 0.081763 -0.253351
v -0.125879 0.081763 -0.240666
v -0.138278 0.168128 -0.248195
v -0.137698 0.168128 -0.254538
v -0.122398 0.127009 -0.278721
v -0.131050 0.127009 -0.279513
v -0.126460 0.168128 -0.234323
v -0.122398 0.081763 -0.278721
v -0.123559 0.081763 -0.266036
v -0.135112 0.098730 -0.235114
v -0.135112 0.087419 -0.235114
v -0.135112 0.121353 -0.235114
v -0.135112 0.110042 -0.235114
v -0.137698 0.098730 -0.254538
v -0.137698 0.087419 -0.254538
v -0.138858 0.087419 -0.241853
v -0.135377 0.098730 -0.279909
v -0.135377 0.121353 -0.279909
v -0.135377 0.110042 -0.279909
v -0.136537 0.110042 -0.267223
v -0.121818 0.087419 -0.285064
v -0.130470 0.087419 -0.285856
v -0.130470 0.098730 -0.285856
v -0.136537 0.121353 -0.267223
v -0.136537 0.098730 -0.267223
v -0.138858 0.098730 -0.241853
v -0.139438 0.168128 -0.235510
v -0.138858 0.168128 -0.241853
v -0.134532 0.081763 -0.241457
v -0.138858 0.121353 -0.241853
v -0.130470 0.121353 -0.285856
v -0.138858 0.131952 -0.241853
v -0.139438 0.131952 -0.235510
v -0.136537 0.131952 -0.267223
v -0.137117 0.131952 -0.260881
v -0.132791 0.131952 -0.260485
v -0.137698 0.131952 -0.254538
v -0.138278 0.131952 -0.248195
v -0.135112 0.131952 -0.235114
v -0.124139 0.131952 -0.259694
v -0.128465 0.131952 -0.260089
v -0.127885 0.131952 -0.266432
v -0.131631 0.131952 -0.273170
v -0.135957 0.131952 -0.273566
v -0.122978 0.131952 -0.272379
v -0.127305 0.131952 -0.272775
v -0.129045 0.131952 -0.253747
v -0.124719 0.131952 -0.253351
v -0.133371 0.131952 -0.254142
v -0.132211 0.131952 -0.266828
v -0.123559 0.131952 -0.266036
v -0.139438 0.153563 -0.235510
v -0.133371 0.153563 -0.254142
v -0.135112 0.153563 -0.235114
v -0.130786 0.153563 -0.234719
v -0.126460 0.153563 -0.234323
v -0.137698 0.153563 -0.254538
v -0.129045 0.153563 -0.253747
v -0.124719 0.153563 -0.253351
v -0.138858 0.153563 -0.241853
v -0.138278 0.153563 -0.248195
v -0.127926 0.127009 -0.218293
v -0.136578 0.127009 -0.219085
v -0.132252 0.127009 -0.218689
v -0.136578 0.131952 -0.219085
v -0.127926 0.131952 -0.218293
v -0.132252 0.131952 -0.218689
v -0.140905 0.131952 -0.219481
v -0.140905 0.153563 -0.219481
v -0.136578 0.153563 -0.219085
v -0.132252 0.153563 -0.218689
v -0.127926 0.153563 -0.218293
v -0.119655 0.081763 -0.284866
v -0.121976 0.081763 -0.259496
v -0.120815 0.081763 -0.272181
v -0.122556 0.168128 -0.253153
v -0.123136 0.081763 -0.246810
v -0.119655 0.127009 -0.284866
v -0.119655 0.104386 -0.284866
v -0.119655 0.093075 -0.284866
v -0.120815 0.127009 -0.272181
v -0.123136 0.168128 -0.246810
v -0.119655 0.115698 -0.284866
v -0.119655 0.121353 -0.284866
v -0.119655 0.110042 -0.284866
v -0.122556 0.081763 -0.253153
v -0.123716 0.081763 -0.240468
v -0.124297 0.168128 -0.234125
v -0.120235 0.127009 -0.278524
v -0.120235 0.081763 -0.278524
v -0.121395 0.081763 -0.265838
v -0.124365 0.104386 -0.304904
v -0.119655 0.087419 -0.284866
v -0.121976 0.131952 -0.259496
v -0.120815 0.131952 -0.272181
v -0.122556 0.131952 -0.253153
v -0.121395 0.131952 -0.265838
v -0.123716 0.168128 -0.240468
v -0.122556 0.153563 -0.253153
v -0.124297 0.153563 -0.234125
v -0.125763 0.127009 -0.218096
v -0.125763 0.131952 -0.218096
v -0.125763 0.153563 -0.218096
v -0.125879 0.171929 -0.240666
v -0.130206 0.171929 -0.241061
v -0.126460 0.171929 -0.234323
v -0.134532 0.171929 -0.241457
v -0.138858 0.171929 -0.241853
v -0.135112 0.171929 -0.235114
v -0.139438 0.171929 -0.235510
v -0.130786 0.171929 -0.234719
v -0.123716 0.171929 -0.240468
v -0.124297 0.171929 -0.234125
v -0.139438 0.162874 -0.235510
v -0.133371 0.162874 -0.254142
v -0.135112 0.162874 -0.235114
v -0.130786 0.162874 -0.234719
v -0.126460 0.162874 -0.234323
v -0.137698 0.162874 -0.254538
v -0.124719 0.162874 -0.253351
v -0.138278 0.162874 -0.248195
v -0.129045 0.162874 -0.253747
v -0.138858 0.162874 -0.241853
v -0.122556 0.162874 -0.253153
v -0.124297 0.162874 -0.234125
v -0.129045 0.157052 -0.253747
v -0.138858 0.157052 -0.241853
v -0.139438 0.157052 -0.235510
v -0.133371 0.157052 -0.254142
v -0.135112 0.157052 -0.235114
v -0.130786 0.157052 -0.234719
v -0.126460 0.157052 -0.234323
v -0.137698 0.157052 -0.254538
v -0.124719 0.157052 -0.253351
v -0.138278 0.157052 -0.248195
v -0.122556 0.157052 -0.253153
v -0.124297 0.157052 -0.234125
v -0.127682 0.141041 -0.220956
v -0.127682 0.144474 -0.220956
v -0.132009 0.141041 -0.221352
v -0.132009 0.144474 -0.221352
v -0.129045 0.141041 -0.253747
v -0.129045 0.144474 -0.253747
v -0.138858 0.141041 -0.241853
v -0.138858 0.144474 -0.241853
v -0.139438 0.144474 -0.235510
v -0.139438 0.141041 -0.235510
v -0.133371 0.144474 -0.254142
v -0.133371 0.141041 -0.254142
v -0.137698 0.144474 -0.254538
v -0.137698 0.141041 -0.254538
v -0.124719 0.144474 -0.253351
v -0.124719 0.141041 -0.253351
v -0.138278 0.144474 -0.248195
v -0.138278 0.141041 -0.248195
v -0.140905 0.141041 -0.219481
v -0.140905 0.144474 -0.219481
v -0.136578 0.144474 -0.219085
v -0.136578 0.141041 -0.219085
v -0.132252 0.144474 -0.218689
v -0.132252 0.141041 -0.218689
v -0.127926 0.144474 -0.218293
v -0.127926 0.141041 -0.218293
v -0.125763 0.141041 -0.218096
v -0.125763 0.144474 -0.218096
v -0.122556 0.141041 -0.253153
v -0.122556 0.144474 -0.253153
v -0.129045 0.136497 -0.253747
v -0.124719 0.136497 -0.253351
v -0.133371 0.136497 -0.254142
v -0.138858 0.136497 -0.241853
v -0.138278 0.136497 -0.248195
v -0.139438 0.136497 -0.235510
v -0.122556 0.136497 -0.253153
v -0.140905 0.136497 -0.219481
v -0.137698 0.136497 -0.254538
v -0.125763 0.136497 -0.218096
v -0.136578 0.136497 -0.219085
v -0.132252 0.136497 -0.218689
v -0.127926 0.136497 -0.218293
v -0.124625 0.127009 -0.230533
v -0.124625 0.104386 -0.230533
v -0.126788 0.081763 -0.230731
v -0.131114 0.081763 -0.231127
v -0.124625 0.115698 -0.230533
v -0.131114 0.110042 -0.231127
v -0.131114 0.104386 -0.231127
v -0.131114 0.121353 -0.231127
v -0.131114 0.115698 -0.231127
v -0.124625 0.093075 -0.230533
v -0.131114 0.087419 -0.231127
v -0.131114 0.098730 -0.231127
v -0.131114 0.093075 -0.231127
v -0.131114 0.127009 -0.231127
v -0.126788 0.127009 -0.230731
v -0.126788 0.104386 -0.230731
v -0.124625 0.081763 -0.230533
v -0.126788 0.115698 -0.230731
v -0.126788 0.093075 -0.230731
v -0.124625 0.087419 -0.230533
v -0.126788 0.087419 -0.230731
v -0.124625 0.110042 -0.230533
v -0.126788 0.110042 -0.230731
v -0.124625 0.121353 -0.230533
v -0.126788 0.121353 -0.230731
v -0.124625 0.098730 -0.230533
v -0.126788 0.098730 -0.230731
v -0.136212 0.131952 -0.223092
v -0.135845 0.131952 -0.227100
v -0.135479 0.131952 -0.231107
v -0.139805 0.131952 -0.231503
v -0.140171 0.131952 -0.227495
v -0.140538 0.131952 -0.223488
v -0.131886 0.153563 -0.222697
v -0.131519 0.153563 -0.226704
v -0.131152 0.153563 -0.230711
v -0.126826 0.153563 -0.230316
v -0.127193 0.153563 -0.226308
v -0.127559 0.153563 -0.222301
v -0.140538 0.153563 -0.223488
v -0.140171 0.153563 -0.227495
v -0.139805 0.153563 -0.231503
v -0.135479 0.153563 -0.231107
v -0.135845 0.153563 -0.227100
v -0.136212 0.153563 -0.223092
v -0.135479 0.127009 -0.231107
v -0.135845 0.127009 -0.227100
v -0.136212 0.127009 -0.223092
v -0.124663 0.153563 -0.230118
v -0.125030 0.153563 -0.226110
v -0.125396 0.153563 -0.222103
v -0.139805 0.144474 -0.231503
v -0.140171 0.144474 -0.227495
v -0.140538 0.144474 -0.223488
v -0.140538 0.141041 -0.223488
v -0.140171 0.141041 -0.227495
v -0.139805 0.141041 -0.231503
v -0.139805 0.136497 -0.231503
v -0.140171 0.136497 -0.227495
v -0.140538 0.136497 -0.223488
v -0.120876 0.104386 -0.295362
v -0.125202 0.104386 -0.295758
v -0.120876 0.093075 -0.295362
v -0.125202 0.093075 -0.295758
v -0.125202 0.098730 -0.295758
v -0.118713 0.104386 -0.295164
v -0.118713 0.093075 -0.295164
v -0.120039 0.093075 -0.304508
v -0.124365 0.093075 -0.304904
v -0.124365 0.098730 -0.304904
v -0.117876 0.104386 -0.304310
v -0.117876 0.093075 -0.304310
v -0.120039 0.098730 -0.304508
v -0.117876 0.098730 -0.304310
v -0.120876 0.108718 -0.295362
v -0.125202 0.108718 -0.295758
v -0.118713 0.108718 -0.295164
v -0.117876 0.108718 -0.304310
v -0.124365 0.108718 -0.304904
v -0.120039 0.108718 -0.304508
v -0.117321 0.108718 -0.310378
v -0.117321 0.104386 -0.310378
v -0.119484 0.104386 -0.310576
v -0.123810 0.104386 -0.310971
v -0.119484 0.108718 -0.310576
v -0.123810 0.108718 -0.310971
v -0.123810 0.115212 -0.310971
v -0.124365 0.115212 -0.304904
v -0.117876 0.115212 -0.304310
v -0.117321 0.115212 -0.310378
v -0.120039 0.115212 -0.304508
v -0.119484 0.115212 -0.310576
v -0.116723 0.108718 -0.316915
v -0.116723 0.115212 -0.316915
v -0.118886 0.108718 -0.317113
v -0.123212 0.108718 -0.317509
v -0.123212 0.115212 -0.317509
v -0.118886 0.115212 -0.317113
v -0.116723 0.121005 -0.316915
v -0.117321 0.121005 -0.310378
v -0.119484 0.121005 -0.310576
v -0.123810 0.121005 -0.310971
v -0.118886 0.121005 -0.317113
v -0.123212 0.121005 -0.317509
v -0.116723 0.126563 -0.316915
v -0.117321 0.126563 -0.310378
v -0.119484 0.126563 -0.310576
v -0.118886 0.126563 -0.317113
v -0.116723 0.130573 -0.316915
v -0.117321 0.130573 -0.310378
v -0.142969 0.087419 -0.286999
v -0.142969 0.081763 -0.286999
v -0.143549 0.081763 -0.280656
v -0.145870 0.081763 -0.255286
v -0.145290 0.081763 -0.261628
v -0.145290 0.087419 -0.261628
v -0.142969 0.098730 -0.286999
v -0.142969 0.093075 -0.286999
v -0.144710 0.081763 -0.267971
v -0.144130 0.081763 -0.274314
v -0.145290 0.098730 -0.261628
v -0.145290 0.093075 -0.261628
v -0.144710 0.093075 -0.267971
v -0.143549 0.093075 -0.280656
v -0.144130 0.093075 -0.274314
v -0.144130 0.087419 -0.274314
v -0.144130 0.098730 -0.274314
v -0.145870 0.093075 -0.255286
v -0.145870 0.098730 -0.255286
v -0.145870 0.087419 -0.255286
v -0.143549 0.098730 -0.280656
v -0.143549 0.087419 -0.280656
v -0.144710 0.087419 -0.267971
v -0.144710 0.098730 -0.267971
v -0.131475 0.049427 -0.279552
v -0.130895 0.049427 -0.285894
v -0.130259 0.073816 -0.292840
v -0.132055 0.064596 -0.273209
v -0.132635 0.064596 -0.266867
v -0.132635 0.058087 -0.266867
v -0.143549 0.073816 -0.280656
v -0.142969 0.073816 -0.286999
v -0.145870 0.073816 -0.255286
v -0.145290 0.073816 -0.261628
v -0.144710 0.073816 -0.267971
v -0.144130 0.073816 -0.274314
v -0.130895 0.064596 -0.285894
v -0.133216 0.073816 -0.260524
v -0.142334 0.081763 -0.293944
v -0.142334 0.073816 -0.293944
v -0.130895 0.058087 -0.285894
v -0.130259 0.081763 -0.292840
v -0.132055 0.073816 -0.273209
v -0.130259 0.064596 -0.292840
v -0.143549 0.064596 -0.280656
v -0.142969 0.064596 -0.286999
v -0.144710 0.064596 -0.267971
v -0.144130 0.064596 -0.274314
v -0.142334 0.064596 -0.293944
v -0.131475 0.064596 -0.279552
v -0.131475 0.058087 -0.279552
v -0.132635 0.073816 -0.266867
v -0.132055 0.058087 -0.273209
v -0.143549 0.058087 -0.280656
v -0.142969 0.058087 -0.286999
v -0.144710 0.058087 -0.267971
v -0.144130 0.058087 -0.274314
v -0.132635 0.081763 -0.266867
v -0.133216 0.081763 -0.260524
v -0.132055 0.081763 -0.273209
v -0.131475 0.081763 -0.279552
v -0.143549 0.049427 -0.280656
v -0.142969 0.049427 -0.286999
v -0.144710 0.049427 -0.267971
v -0.144130 0.049427 -0.274314
v -0.130890 0.081763 -0.285894
v -0.133791 0.081763 -0.254181
v -0.132635 0.049427 -0.266867
v -0.132055 0.049427 -0.273209
v -0.140664 0.058087 -0.257427
v -0.140664 0.049427 -0.257427
v -0.138363 0.049427 -0.257216
v -0.138363 0.058087 -0.257216
v -0.133558 0.049427 -0.256777
v -0.133558 0.058087 -0.256777
v -0.145633 0.058087 -0.257881
v -0.145633 0.049427 -0.257881
v -0.140901 0.073816 -0.254831
v -0.138600 0.073816 -0.254621
v -0.138020 0.073816 -0.260963
v -0.140321 0.073816 -0.261174
v -0.139741 0.073816 -0.267516
v -0.137440 0.073816 -0.267306
v -0.135064 0.081763 -0.293279
v -0.137365 0.081763 -0.293490
v -0.135064 0.073816 -0.293279
v -0.137365 0.073816 -0.293490
v -0.135699 0.064596 -0.286334
v -0.138000 0.064596 -0.286544
v -0.139741 0.064596 -0.267516
v -0.137440 0.064596 -0.267306
v -0.137365 0.064596 -0.293490
v -0.135064 0.064596 -0.293279
v -0.138000 0.058087 -0.286544
v -0.135699 0.058087 -0.286334
v -0.139741 0.058087 -0.267516
v -0.137440 0.058087 -0.267306
v -0.136280 0.049427 -0.279991
v -0.138580 0.049427 -0.280202
v -0.135699 0.049427 -0.286334
v -0.138000 0.049427 -0.286544
v -0.137440 0.049427 -0.267306
v -0.139741 0.049427 -0.267516
v -0.139160 0.049427 -0.273859
v -0.136860 0.049427 -0.273649
v -0.138600 0.098730 -0.254621
v -0.140901 0.098730 -0.254831
v -0.135699 0.093075 -0.286334
v -0.138000 0.093075 -0.286544
v -0.140901 0.093075 -0.254831
v -0.138600 0.093075 -0.254621
v -0.140901 0.087419 -0.254831
v -0.138600 0.087419 -0.254621
v -0.138000 0.098730 -0.286544
v -0.135699 0.098730 -0.286334
v -0.138000 0.081763 -0.286544
v -0.135699 0.081763 -0.286334
v -0.135699 0.087419 -0.286334
v -0.138000 0.087419 -0.286544
v -0.138580 0.098730 -0.280202
v -0.136280 0.098730 -0.279991
v -0.136860 0.098730 -0.273649
v -0.139160 0.098730 -0.273859
v -0.138600 0.081763 -0.254621
v -0.140901 0.081763 -0.254831
v -0.139741 0.098730 -0.267516
v -0.137440 0.098730 -0.267306
v -0.138020 0.098730 -0.260963
v -0.140321 0.098730 -0.261174
v -0.135883 0.115698 -0.226688
v -0.131557 0.115698 -0.226292
v -0.140209 0.115698 -0.227084
v -0.140209 0.110042 -0.227084
v -0.131557 0.110042 -0.226292
v -0.135883 0.110042 -0.226688
v -0.135497 0.115698 -0.230901
v -0.139824 0.115698 -0.231297
v -0.139824 0.110042 -0.231297
v -0.135497 0.110042 -0.230901
v -0.131171 0.110042 -0.230506
v -0.131171 0.115698 -0.230506
v -0.135883 0.104020 -0.226688
v -0.131557 0.104020 -0.226292
v -0.140209 0.104020 -0.227084
v -0.135497 0.104020 -0.230901
v -0.139824 0.104020 -0.231297
v -0.131171 0.104020 -0.230506
v -0.136256 0.110042 -0.222609
v -0.131930 0.110042 -0.222214
v -0.140582 0.110042 -0.223005
v -0.131930 0.104020 -0.222214
v -0.136256 0.104020 -0.222609
v -0.140582 0.104020 -0.223005
v -0.135883 0.099567 -0.226688
v -0.131557 0.099567 -0.226292
v -0.140209 0.099567 -0.227084
v -0.136256 0.099567 -0.222609
v -0.131930 0.099567 -0.222214
v -0.140582 0.099567 -0.223005
v -0.140202 0.049427 -0.262472
v -0.145171 0.049427 -0.262926
v -0.140202 0.058087 -0.262472
v -0.145171 0.058087 -0.262926
v -0.133097 0.058087 -0.261822
v -0.133097 0.049427 -0.261822
v -0.137901 0.049427 -0.262261
v -0.137901 0.058087 -0.262261
vn 0.0911 -0.0000 -0.9958
vn 0.9958 -0.0000 0.0911
vn -0.0000 -1.0000 -0.0000
vn -0.0000 1.0000 -0.0000
vn -0.0911 -0.0000 0.9958
vn -0.9958 -0.0000 -0.0911
vn -0.9958 -0.0003 -0.0914
vn -0.9959 -0.0003 -0.0907
vn -0.9958 -0.0003 -0.0915
vn 0.9959 -0.0003 0.0908
vn 0.9958 -0.0003 0.0915
vn 0.9959 -0.0003 0.0907
vt 0.320534 0.692104
vt 0.320534 0.695027
vt 0.322779 0.695027
vt 0.322779 0.692104
vt 0.320534 0.671644
vt 0.322779 0.671644
vt 0.318289 0.716277
vt 0.316044 0.716277
vt 0.322779 0.716277
vt 0.320534 0.716277
vt 0.320534 0.718242
vt 0.322779 0.718242
vt 0.322779 0.680413
vt 0.322779 0.683336
vt 0.320534 0.680413
vt 0.320534 0.683336
vt 0.320534 0.674567
vt 0.320534 0.677490
vt 0.322779 0.677490
vt 0.322779 0.674567
vt 0.316044 0.674567
vt 0.316044 0.677490
vt 0.318289 0.677490
vt 0.318289 0.674567
vt 0.313371 0.710044
vt 0.312248 0.710044
vt 0.322779 0.686258
vt 0.322779 0.689181
vt 0.322779 0.677490
vt 0.307277 0.699015
vt 0.307277 0.701938
vt 0.318289 0.695027
vt 0.318289 0.692104
vt 0.318289 0.683336
vt 0.318289 0.680413
vt 0.316044 0.671644
vt 0.318289 0.671644
vt 0.318289 0.718242
vt 0.316044 0.718242
vt 0.314921 0.695027
vt 0.313798 0.695027
vt 0.320752 0.671644
vt 0.320534 0.686258
vt 0.320534 0.689181
vt 0.316044 0.686258
vt 0.316044 0.689181
vt 0.318289 0.689181
vt 0.318289 0.686258
vt 0.316044 0.692104
vt 0.316044 0.695027
vt 0.314921 0.689181
vt 0.314921 0.692104
vt 0.316044 0.683336
vt 0.314921 0.683336
vt 0.314921 0.686258
vt 0.316578 0.711062
vt 0.316578 0.713984
vt 0.314921 0.671644
vt 0.314921 0.716277
vt 0.313798 0.716277
vt 0.314921 0.718242
vt 0.322779 0.697582
vt 0.322779 0.699930
vt 0.322779 0.702279
vt 0.320534 0.708750
vt 0.318289 0.708750
vt 0.320534 0.697582
vt 0.313798 0.697582
vt 0.314921 0.697582
vt 0.318289 0.697582
vt 0.319999 0.714339
vt 0.321122 0.714339
vt 0.314493 0.710044
vt 0.314921 0.674567
vt 0.314921 0.677490
vt 0.559959 0.939828
vt 0.559959 0.939828
vt 0.322779 0.671644
vt 0.316578 0.703843
vt 0.316578 0.706766
vt 0.317433 0.731686
vt 0.319678 0.731686
vt 0.316044 0.697582
vt 0.316044 0.708750
vt 0.312943 0.729131
vt 0.311821 0.729131
vt 0.292630 0.713084
vt 0.290385 0.713084
vt 0.322779 0.713562
vt 0.320534 0.713562
vt 0.318289 0.713562
vt 0.316044 0.713562
vt 0.314921 0.713562
vt 0.313798 0.713562
vt 0.315188 0.729131
vt 0.315188 0.729131
vt 0.314921 0.699930
vt 0.313798 0.699930
vt 0.313798 0.702279
vt 0.314921 0.702279
vt 0.322779 0.704053
vt 0.322779 0.708750
vt 0.320534 0.699930
vt 0.320534 0.702279
vt 0.318289 0.699930
vt 0.318289 0.702279
vt 0.312943 0.731686
vt 0.311821 0.731686
vt 0.317433 0.729131
vt 0.315188 0.731686
vt 0.316044 0.699930
vt 0.316044 0.702279
vt 0.314921 0.708750
vt 0.313798 0.708750
vt 0.320534 0.704053
vt 0.322779 0.704053
vt 0.310698 0.729131
vt 0.310698 0.731686
vt 0.321389 0.714694
vt 0.321389 0.717617
vt 0.321389 0.729309
vt 0.321389 0.732232
vt 0.313798 0.674567
vt 0.313798 0.677490
vt 0.313798 0.671644
vt 0.322244 0.714339
vt 0.321389 0.708849
vt 0.321389 0.711772
vt 0.321389 0.723463
vt 0.321389 0.726386
vt 0.313798 0.686258
vt 0.313798 0.689181
vt 0.313798 0.683336
vt 0.313798 0.692104
vt 0.321389 0.720540
vt 0.313798 0.710553
vt 0.314921 0.710553
vt 0.316044 0.710553
vt 0.322779 0.710553
vt 0.318289 0.710553
vt 0.561402 0.975637
vt 0.562525 0.975637
vt 0.562525 0.978646
vt 0.561402 0.978646
vt 0.564770 0.975637
vt 0.564770 0.978646
vt 0.567015 0.975637
vt 0.567015 0.978646
vt 0.320534 0.710553
vt 0.564770 0.973834
vt 0.567015 0.973834
vt 0.810556 0.891674
vt 0.812801 0.891674
vt 0.812801 0.893477
vt 0.810556 0.893477
vt 0.809434 0.891674
vt 0.809434 0.893477
vt 0.313798 0.704053
vt 0.314921 0.704053
vt 0.318289 0.704053
vt 0.320534 0.704053
vt 0.316044 0.704053
vt 0.318289 0.704053
vt 0.314921 0.704053
vt 0.316044 0.704053
vt 0.313798 0.704053
vt 0.311821 0.734035
vt 0.310698 0.734035
vt 0.319678 0.734035
vt 0.317433 0.734035
vt 0.315188 0.734035
vt 0.312943 0.734035
vt 0.318021 0.717617
vt 0.318021 0.720540
vt 0.316899 0.720540
vt 0.316899 0.717617
vt 0.318021 0.729309
vt 0.318021 0.732232
vt 0.316899 0.732232
vt 0.316899 0.729309
vt 0.318021 0.723463
vt 0.318021 0.726386
vt 0.316899 0.726386
vt 0.316899 0.723463
vt 0.318021 0.711772
vt 0.318021 0.714694
vt 0.316899 0.714694
vt 0.316899 0.711772
vt 0.318021 0.708849
vt 0.316899 0.708849
vt 0.319144 0.711772
vt 0.319144 0.708849
vt 0.319144 0.714694
vt 0.319144 0.723463
vt 0.319144 0.720540
vt 0.319144 0.726386
vt 0.319144 0.729309
vt 0.319144 0.732232
vt 0.319144 0.717617
vt 0.316044 0.680413
vt 0.313371 0.712967
vt 0.314493 0.712967
vt 0.313371 0.715890
vt 0.314493 0.715890
vt 0.312248 0.712967
vt 0.312248 0.715890
vt 0.322779 0.671644
vt 0.559959 0.939828
vt 0.547718 0.942041
vt 0.549963 0.942041
vt 0.329140 0.686081
vt 0.329140 0.683158
vt 0.552208 0.942041
vt 0.558569 0.938940
s 0
usemtl Palitrs
f 176/1/1 51/2/1 4/3/1 75/4/1
f 175/4/2 53/3/2 2/3/2 78/4/2
f 174/5/3 76/6/3 1/6/3 55/5/3
f 118/7/4 113/8/4 11/8/4 120/7/4
f 173/9/1 27/10/1 261/11/1 262/12/1
f 114/10/4 118/7/4 120/7/4 27/10/4
f 145/9/4 114/10/4 27/10/4 173/9/4
f 171/13/2 64/14/2 10/14/2 74/13/2
f 170/13/2 65/14/2 13/14/2 86/13/2
f 169/4/2 59/3/2 9/3/2 87/4/2
f 168/15/1 67/16/1 7/14/1 71/13/1
f 167/17/1 91/18/1 16/19/1 52/20/1
f 166/21/1 92/22/1 41/23/1 93/24/1
f 234/25/3 39/26/3 419/26/3 425/25/3
f 164/27/2 95/28/2 37/28/2 66/27/2
f 163/27/2 96/28/2 42/28/2 97/27/2
f 162/4/2 77/3/2 24/3/2 98/4/2
f 101/19/5 159/20/5 597/20/5 595/19/5
f 603/20/1 593/29/1 492/19/1 485/20/1
f 161/30/2 85/31/2 36/31/2 99/30/2
f 160/20/2 100/19/2 19/19/2 54/20/2
f 159/20/2 101/19/2 43/19/2 102/20/2
f 158/13/2 84/14/2 35/14/2 103/13/2
f 622/27/2 621/28/2 616/28/2 617/27/2
f 156/1/5 79/2/5 26/32/5 106/33/5
f 155/17/5 107/18/5 45/23/5 108/24/5
f 154/15/5 83/16/5 34/34/5 109/35/5
f 153/36/3 110/37/3 33/37/3 63/36/3
f 152/36/3 111/37/3 46/37/3 112/36/3
f 151/8/5 123/7/5 265/38/5 260/39/5
f 146/9/4 29/10/4 114/10/4 145/9/4
f 149/2/4 115/32/4 47/32/4 116/2/4
f 243/40/4 80/41/4 28/41/4 235/40/4
f 119/7/4 30/8/4 113/8/4 118/7/4
f 144/36/3 125/37/3 20/37/3 353/37/3 352/36/3
f 143/36/3 126/37/3 48/37/3 127/36/3
f 551/42/3 58/6/3 23/6/3 128/5/3
f 142/27/2 129/28/2 25/28/2 60/27/2
f 141/27/2 130/28/2 49/28/2 131/27/2
f 140/4/2 73/3/2 18/3/2 132/4/2
f 139/43/1 133/44/1 22/28/1 57/27/1
f 138/45/1 134/46/1 50/47/1 135/48/1
f 137/49/1 70/50/1 15/32/1 136/33/1
f 134/46/1 137/49/1 136/33/1 50/47/1
f 237/51/1 238/52/1 137/49/1 134/46/1
f 238/52/1 232/40/1 70/50/1 137/49/1
f 88/53/1 138/45/1 135/48/1 38/34/1
f 233/54/1 239/55/1 138/45/1 88/53/1
f 239/55/1 237/51/1 134/46/1 138/45/1
f 67/16/1 139/43/1 57/27/1 7/14/1
f 38/34/1 135/48/1 139/43/1 67/16/1
f 135/48/1 50/47/1 133/44/1 139/43/1
f 130/28/2 140/4/2 132/4/2 49/28/2
f 37/28/2 87/4/2 140/4/2 130/28/2
f 87/4/2 9/3/2 73/3/2 140/4/2
f 84/14/2 141/27/2 131/27/2 35/14/2
f 13/14/2 66/27/2 141/27/2 84/14/2
f 66/56/2 37/57/2 130/57/2 141/56/2
f 64/14/2 142/27/2 60/27/2 10/14/2
f 35/14/2 131/27/2 142/27/2 64/14/2
f 131/27/2 49/28/2 129/28/2 142/27/2
f 126/37/3 551/5/3 128/5/3 48/37/3
f 33/37/3 543/5/3 551/5/3 126/37/3
f 240/58/3 143/36/3 127/36/3 231/58/3
f 228/58/3 63/36/3 143/36/3 240/58/3
f 63/36/3 33/37/3 126/37/3 143/36/3
f 241/58/3 144/36/3 352/36/3 370/58/3
f 231/58/3 127/36/3 144/36/3 241/58/3
f 127/36/3 48/37/3 125/37/3 144/36/3
f 230/59/4 122/60/4 121/60/4 236/59/4
f 29/10/4 119/7/4 118/7/4 114/10/4
f 252/59/6 242/59/6 267/61/6 266/61/6
f 252/59/4 147/60/4 150/60/4 242/59/4
f 59/3/2 24/3/2 193/62/2 179/62/2
f 416/63/2 411/64/2 318/64/2 338/63/2
f 401/65/4 387/66/4 225/66/4 224/65/4
f 79/2/5 2/3/5 178/62/5 186/67/5
f 2/3/2 53/3/2 177/62/2 178/62/2
f 115/32/4 148/50/4 117/50/4 47/32/4
f 15/32/4 70/50/4 148/50/4 115/32/4
f 232/40/4 6/41/4 80/41/4 243/40/4
f 77/3/4 149/2/4 116/2/4 24/3/4
f 4/3/4 51/2/4 149/2/4 77/3/4
f 51/2/4 15/32/4 115/32/4 149/2/4
f 73/3/2 9/3/2 180/62/2 184/62/2
f 235/40/1 28/41/1 190/68/1 249/69/1
f 9/3/2 59/3/2 179/62/2 180/62/2
f 116/2/1 47/32/1 195/70/1 192/67/1
f 111/37/3 545/5/3 544/5/3 46/37/3
f 21/37/3 550/5/3 545/5/3 111/37/3
f 544/6/6 545/6/6 17/6/6 527/6/6
f 244/58/3 152/36/3 112/36/3 229/58/3
f 227/58/3 56/36/3 152/36/3 244/58/3
f 56/36/3 21/37/3 111/37/3 152/36/3
f 245/58/3 153/36/3 63/36/3 228/58/3
f 229/58/3 112/36/3 153/36/3 245/58/3
f 112/36/3 46/37/3 110/37/3 153/36/3
f 107/18/5 154/15/5 109/35/5 45/23/5
f 19/19/5 74/13/5 154/15/5 107/18/5
f 74/13/5 10/14/5 83/16/5 154/15/5
f 55/5/5 155/17/5 108/24/5 20/37/5
f 1/6/5 54/20/5 155/17/5 55/5/5
f 54/20/5 19/19/5 107/18/5 155/17/5
f 104/44/5 156/1/5 106/33/5 44/47/5
f 25/28/5 78/4/5 156/1/5 104/44/5
f 78/4/5 2/3/5 79/2/5 156/1/5
f 83/16/5 157/43/5 105/48/5 34/34/5
f 10/14/5 60/27/5 157/43/5 83/16/5
f 621/28/4 620/44/4 614/44/4 616/28/4
f 101/19/2 158/13/2 103/13/2 43/19/2
f 158/13/5 101/19/5 595/19/5 590/13/5
f 86/13/2 13/14/2 84/14/2 158/13/2
f 58/6/2 159/20/2 102/20/2 23/6/2
f 16/19/1 71/13/1 599/13/1 592/19/1
f 486/6/2 487/6/2 515/6/2 516/6/2
f 76/6/2 160/20/2 54/20/2 1/6/2
f 23/6/2 102/20/2 160/20/2 76/6/2
f 102/20/2 43/19/2 100/19/2 160/20/2
f 159/20/5 58/6/5 608/6/5 597/20/5
f 71/13/4 161/13/4 605/13/4 599/13/4
f 71/13/2 7/14/2 85/14/2 161/13/2
f 514/6/6 537/6/6 553/6/6 552/6/6
f 3/6/1 52/20/1 602/20/1 601/6/1
f 99/13/4 170/13/4 611/13/4 606/13/4
f 161/30/4 99/30/4 606/30/4 605/30/4
f 607/13/4 610/13/4 508/13/4 501/13/4
f 513/6/6 512/6/6 537/6/6 514/6/6
f 96/28/2 162/4/2 98/4/2 42/28/2
f 22/28/2 75/4/2 162/4/2 96/28/2
f 75/4/2 4/3/2 77/3/2 162/4/2
f 85/14/2 163/27/2 97/27/2 36/14/2
f 7/14/2 57/27/2 163/27/2 85/14/2
f 57/27/2 22/28/2 96/28/2 163/27/2
f 65/14/2 164/27/2 66/27/2 13/14/2
f 36/14/2 97/27/2 164/27/2 65/14/2
f 97/27/2 42/28/2 95/28/2 164/27/2
f 94/35/2 41/23/2 421/23/2 422/35/2
f 14/71/4 233/72/4 423/72/4 424/71/4
f 92/73/3 234/25/3 425/25/3 420/73/3
f 56/36/1 166/21/1 93/24/1 21/37/1
f 227/58/1 247/74/1 166/21/1 56/36/1
f 247/74/1 234/75/1 92/22/1 166/21/1
f 550/5/1 167/17/1 52/20/1 3/6/1
f 21/37/1 93/24/1 167/17/1 550/5/1
f 93/24/1 41/23/1 91/18/1 167/17/1
f 91/18/1 168/15/1 71/13/1 16/19/1
f 41/23/1 94/35/1 168/15/1 91/18/1
f 94/35/1 38/34/1 67/16/1 168/15/1
f 95/28/2 169/4/2 87/4/2 37/28/2
f 42/28/2 98/4/2 169/4/2 95/28/2
f 98/4/2 24/3/2 59/3/2 169/4/2
f 557/76/5 559/77/5 558/77/5 556/77/5
f 511/6/1 570/6/1 577/78/1 528/6/1
f 99/13/2 36/14/2 65/14/2 170/13/2
f 100/19/2 171/13/2 74/13/2 19/19/2
f 43/79/2 103/80/2 171/80/2 100/79/2
f 103/13/2 35/14/2 64/14/2 171/13/2
f 110/37/3 542/5/3 543/5/3 33/37/3
f 46/37/3 544/5/3 542/5/3 110/37/3
f 381/81/3 386/82/3 221/82/3 218/81/3
f 18/3/2 73/3/2 184/62/2 185/62/2
f 47/32/1 117/50/1 194/83/1 195/70/1
f 387/66/4 392/84/4 226/84/4 225/66/4
f 24/3/1 116/2/1 192/67/1 193/62/1
f 368/85/3 213/85/3 255/86/3 345/86/3
f 53/3/2 18/3/2 185/62/2 177/62/2
f 125/37/3 174/5/3 55/5/3 20/37/3
f 48/37/3 128/5/3 174/5/3 125/37/3
f 128/5/3 23/6/3 76/6/3 174/5/3
f 129/28/2 175/4/2 78/4/2 25/28/2
f 49/28/2 132/4/2 175/4/2 129/28/2
f 132/4/2 18/3/2 53/3/2 175/4/2
f 133/44/1 176/1/1 75/4/1 22/28/1
f 50/47/1 136/33/1 176/1/1 133/44/1
f 136/33/1 15/32/1 51/2/1 176/1/1
f 251/69/4 181/68/4 182/68/4 248/69/4
f 199/87/4 191/88/4 189/88/4 183/87/4
f 268/89/2 278/89/2 173/9/2 172/9/2
f 270/90/5 268/89/5 172/9/5 124/10/5
f 269/90/1 277/91/1 119/7/1 29/10/1
f 273/89/1 269/90/1 29/10/1 146/9/1
f 271/91/5 270/90/5 124/10/5 123/7/5
f 272/92/5 271/91/5 123/7/5 151/8/5
f 281/93/5 272/92/5 151/8/5 242/59/5
f 189/70/4 188/83/4 197/83/4 196/70/4
f 248/69/4 182/68/4 187/68/4 250/69/4
f 180/62/4 183/67/4 198/67/4 184/62/4
f 183/67/4 189/70/4 196/70/4 198/67/4
f 280/93/1 279/94/1 122/60/1 230/59/1
f 275/89/2 273/89/2 146/9/2 145/9/2
f 179/62/4 199/67/4 183/67/4 180/62/4
f 193/62/4 192/67/4 199/67/4 179/62/4
f 192/67/4 195/70/4 191/70/4 199/67/4
f 191/70/4 200/83/4 188/83/4 189/70/4
f 195/70/4 194/83/4 200/83/4 191/70/4
f 249/69/4 190/68/4 181/68/4 251/69/4
f 277/91/1 274/92/1 30/8/1 119/7/1
f 278/89/2 275/89/2 145/9/2 173/9/2
f 236/59/4 121/60/4 147/60/4 252/59/4
f 367/95/3 216/96/3 213/85/3 368/85/3
f 336/97/1 337/98/1 305/99/1 328/100/1
f 333/63/2 334/63/2 315/64/2 302/64/2
f 334/63/2 339/63/2 311/64/2 315/64/2
f 410/101/2 396/102/2 223/102/2 319/101/2
f 396/102/4 401/65/4 224/65/4 223/102/4
f 339/63/1 332/103/1 309/104/1 311/64/1
f 332/103/1 330/105/1 300/106/1 309/104/1
f 335/63/2 333/63/2 302/64/2 307/64/2
f 255/86/5 213/85/5 219/107/5 256/108/5
f 216/96/5 215/109/5 218/81/5 220/110/5
f 213/85/5 216/96/5 220/110/5 219/107/5
f 341/97/5 344/111/5 325/112/5 326/100/5
f 344/111/5 343/105/5 323/106/5 325/112/5
f 343/105/5 342/103/5 321/104/5 323/106/5
f 342/103/5 338/63/5 318/64/5 321/104/5
f 26/96/3 79/109/3 402/109/3 403/109/3 404/109/3 215/109/3 216/96/3 367/95/3
f 407/113/4 393/114/4 222/114/4 257/113/4
f 404/109/2 381/81/2 218/81/2 215/109/2
f 392/84/4 407/113/4 257/113/4 226/84/4
f 320/115/5 319/116/5 223/102/5 224/65/5
f 214/117/5 255/86/5 256/108/5 217/118/5
f 331/111/1 336/97/1 328/100/1 313/112/1
f 113/8/4 236/59/4 252/59/4 11/8/4
f 194/83/4 249/69/4 251/69/4 200/83/4
f 274/92/1 280/93/1 230/59/1 30/8/1
f 188/83/4 248/69/4 250/69/4 197/83/4
f 276/94/5 281/93/5 242/59/5 150/60/5
f 200/83/4 251/69/4 248/69/4 188/83/4
f 345/86/3 255/86/3 214/117/3 346/117/3
f 45/119/2 109/120/2 365/120/2 366/119/2
f 106/121/2 26/122/2 367/122/2 361/121/2
f 68/123/1 39/124/1 234/75/1 247/74/1
f 5/125/1 68/123/1 247/74/1 227/58/1
f 233/72/4 88/126/4 417/126/4 423/72/4
f 41/23/3 92/22/3 420/22/3 421/23/3
f 20/127/2 108/128/2 364/128/2 353/127/2
f 105/129/2 44/130/2 362/130/2 359/129/2
f 32/125/3 229/58/3 245/58/3 62/125/3
f 62/125/3 245/58/3 228/58/3 12/125/3
f 5/125/3 227/58/3 244/58/3 82/125/3
f 82/125/3 244/58/3 229/58/3 32/125/3
f 117/50/1 235/40/1 249/69/1 194/83/1
f 70/50/4 232/40/4 243/40/4 148/50/4
f 242/59/5 151/8/5 260/39/5 267/61/5
f 30/8/4 230/59/4 236/59/4 113/8/4
f 31/125/3 231/58/3 241/58/3 61/125/3
f 61/125/3 241/58/3 370/58/3 350/125/3
f 12/125/3 228/58/3 240/58/3 81/125/3
f 81/125/3 240/58/3 231/58/3 31/125/3
f 69/131/1 40/132/1 237/51/1 239/55/1
f 14/133/1 69/131/1 239/55/1 233/54/1
f 90/134/1 6/41/1 232/40/1 238/52/1
f 40/132/1 90/134/1 238/52/1 237/51/1
f 148/50/4 243/40/4 235/40/4 117/50/4
f 109/120/2 34/135/2 360/135/2 365/120/2
f 44/130/2 106/121/2 361/121/2 362/130/2
f 108/128/2 45/119/2 366/119/2 364/128/2
f 34/135/2 105/129/2 359/129/2 360/135/2
f 259/38/4 258/39/4 260/39/4 265/38/4
f 262/12/4 261/11/4 263/11/4 264/12/4
f 261/11/4 259/38/4 265/38/4 263/11/4
f 258/39/4 266/61/4 267/61/4 260/39/4
f 123/7/5 124/10/5 263/11/5 265/38/5
f 11/8/1 252/59/1 266/61/1 258/39/1
f 172/9/2 173/9/2 262/12/2 264/12/2
f 27/10/1 120/7/1 259/38/1 261/11/1
f 124/10/5 172/9/5 264/12/5 263/11/5
f 120/7/1 11/8/1 258/39/1 259/38/1
f 282/136/5 295/137/5 281/93/5 276/94/5
f 292/138/1 294/137/1 280/93/1 274/92/1
f 284/139/2 293/139/2 275/89/2 278/89/2
f 283/140/1 292/138/1 274/92/1 277/91/1
f 293/139/2 291/139/2 273/89/2 275/89/2
f 294/137/1 285/136/1 279/94/1 280/93/1
f 295/141/5 290/142/5 272/143/5 281/144/5
f 290/142/5 289/145/5 271/146/5 272/143/5
f 289/145/5 288/147/5 270/148/5 271/146/5
f 291/139/1 287/149/1 269/90/1 273/89/1
f 287/149/1 283/140/1 277/91/1 269/90/1
f 288/149/5 286/139/5 268/89/5 270/90/5
f 286/139/2 284/139/2 278/89/2 268/89/2
f 201/102/2 210/102/2 284/139/2 286/139/2
f 203/65/5 201/102/5 286/139/5 288/149/5
f 202/65/1 208/66/1 283/140/1 287/149/1
f 207/102/1 202/65/1 287/149/1 291/139/1
f 204/150/5 203/151/5 288/147/5 289/145/5
f 206/152/5 204/153/5 289/154/5 290/155/5
f 254/156/5 206/152/5 290/155/5 295/157/5
f 253/113/1 212/114/1 285/136/1 294/137/1
f 211/102/2 207/102/2 291/139/2 293/139/2
f 208/66/1 209/84/1 292/138/1 283/140/1
f 210/102/2 211/102/2 293/139/2 284/139/2
f 209/84/1 253/113/1 294/137/1 292/138/1
f 205/114/5 254/113/5 295/137/5 282/136/5
f 340/98/5 341/97/5 326/100/5 316/99/5
f 317/158/5 327/159/5 257/113/5 222/114/5
f 322/160/5 320/161/5 224/65/5 225/66/5
f 324/162/5 322/163/5 225/66/5 226/84/5
f 327/164/5 324/165/5 226/84/5 257/113/5
f 299/163/5 297/162/5 296/112/5 298/106/5
f 303/101/2 314/101/2 211/102/2 210/102/2
f 301/160/1 312/165/1 209/84/1 208/66/1
f 314/101/2 310/101/2 207/102/2 211/102/2
f 329/164/1 304/166/1 212/114/1 253/113/1
f 312/162/1 329/159/1 253/113/1 209/84/1
f 308/115/1 301/163/1 208/66/1 202/65/1
f 306/101/2 303/101/2 210/102/2 201/102/2
f 310/101/1 308/161/1 202/65/1 207/102/1
f 329/159/1 312/162/1 313/112/1 328/100/1
f 327/159/5 317/158/5 316/99/5 326/100/5
f 319/116/5 320/115/5 321/104/5 318/64/5
f 320/161/5 322/160/5 323/106/5 321/104/5
f 324/165/2 325/112/2 296/112/2 297/165/2
f 324/165/5 327/164/5 326/100/5 325/112/5
f 303/101/2 306/101/2 307/64/2 302/64/2
f 301/163/1 308/115/1 309/104/1 300/106/1
f 308/161/1 310/101/1 311/64/1 309/104/1
f 304/166/1 329/164/1 328/100/1 305/99/1
f 310/101/2 314/101/2 315/64/2 311/64/2
f 312/165/1 301/160/1 300/106/1 313/112/1
f 314/101/2 303/101/2 302/64/2 315/64/2
f 410/101/2 319/101/2 318/64/2 411/64/2
f 330/105/1 331/111/1 313/112/1 300/106/1
f 325/112/4 323/106/4 298/106/4 296/112/4
f 322/163/3 324/162/3 297/162/3 299/163/3
f 323/106/6 322/160/6 299/160/6 298/106/6
f 196/70/1 197/83/1 331/111/1 330/105/1
f 217/118/5 256/108/5 341/167/5 340/168/5
f 197/83/1 250/69/1 336/97/1 331/111/1
f 218/81/5 221/82/5 338/169/5 342/170/5
f 220/110/5 218/81/5 342/170/5 343/171/5
f 219/107/5 220/110/5 343/171/5 344/172/5
f 256/108/5 219/107/5 344/172/5 341/167/5
f 178/62/2 177/62/2 333/63/2 335/63/2
f 198/67/1 196/70/1 330/105/1 332/103/1
f 184/62/1 198/67/1 332/103/1 339/63/1
f 185/62/2 184/62/2 339/63/2 334/63/2
f 177/62/2 185/62/2 334/63/2 333/63/2
f 250/69/1 187/68/1 337/98/1 336/97/1
f 386/82/2 416/169/2 338/169/2 221/82/2
f 379/173/5 347/174/5 348/175/5 354/176/5
f 377/177/5 345/178/5 346/179/5 356/180/5
f 375/181/5 358/182/5 357/183/5 351/184/5
f 373/185/5 363/186/5 355/187/5 349/188/5
f 370/189/5 373/185/5 349/188/5 350/190/5
f 353/127/5 364/128/5 374/191/5 352/192/5
f 364/128/5 366/119/5 372/193/5 374/191/5
f 347/174/5 375/181/5 351/184/5 348/175/5
f 360/135/5 359/129/5 376/194/5 369/195/5
f 359/129/5 362/130/5 371/196/5 376/194/5
f 358/182/5 377/177/5 356/180/5 357/183/5
f 362/130/5 361/121/5 378/197/5 371/196/5
f 361/121/5 367/122/5 368/198/5 378/197/5
f 363/186/5 379/173/5 354/176/5 355/187/5
f 366/119/5 365/120/5 380/199/5 372/193/5
f 365/120/5 360/135/5 369/195/5 380/199/5
f 372/193/5 380/199/5 379/173/5 363/186/5
f 371/196/5 378/197/5 377/177/5 358/182/5
f 369/195/5 376/194/5 375/181/5 347/174/5
f 352/192/5 374/191/5 373/185/5 370/189/5
f 374/191/5 372/193/5 363/186/5 373/185/5
f 376/194/5 371/196/5 358/182/5 375/181/5
f 378/197/5 368/198/5 345/178/5 377/177/5
f 380/199/5 369/195/5 347/174/5 379/173/5
f 178/82/2 335/169/2 414/169/2 384/82/2
f 384/82/2 414/169/2 415/169/2 385/82/2
f 385/82/2 415/169/2 416/169/2 386/82/2
f 306/116/2 408/116/2 413/64/2 307/64/2
f 408/116/2 409/101/2 412/64/2 413/64/2
f 409/101/2 410/101/2 411/64/2 412/64/2
f 206/84/4 254/113/4 405/113/4 390/84/4
f 390/84/4 405/113/4 406/113/4 391/84/4
f 391/84/4 406/113/4 407/113/4 392/84/4
f 79/109/2 186/81/2 383/81/2 402/109/2
f 402/109/2 383/81/2 382/81/2 403/109/2
f 403/109/2 382/81/2 381/81/2 404/109/2
f 254/113/4 205/114/4 395/114/4 405/113/4
f 405/113/4 395/114/4 394/114/4 406/113/4
f 406/113/4 394/114/4 393/114/4 407/113/4
f 201/102/4 203/65/4 399/65/4 398/102/4
f 398/102/4 399/65/4 400/65/4 397/102/4
f 397/102/4 400/65/4 401/65/4 396/102/4
f 306/116/2 201/102/2 398/102/2 408/116/2
f 408/116/2 398/102/2 397/102/2 409/101/2
f 409/101/2 397/102/2 396/102/2 410/101/2
f 204/66/4 206/84/4 390/84/4 389/66/4
f 389/66/4 390/84/4 391/84/4 388/66/4
f 388/66/4 391/84/4 392/84/4 387/66/4
f 186/81/3 178/82/3 384/82/3 383/81/3
f 383/81/3 384/82/3 385/82/3 382/81/3
f 382/81/3 385/82/3 386/82/3 381/81/3
f 203/65/4 204/66/4 389/66/4 399/65/4
f 399/65/4 389/66/4 388/66/4 400/65/4
f 400/65/4 388/66/4 387/66/4 401/65/4
f 335/63/2 307/64/2 413/64/2 414/63/2
f 414/63/2 413/64/2 412/64/2 415/63/2
f 415/63/2 412/64/2 411/64/2 416/63/2
f 424/71/5 423/72/5 437/72/5 440/71/5
f 422/35/2 421/23/2 428/23/2 429/35/2
f 425/25/3 419/26/3 426/26/3 432/25/3
f 420/73/3 425/25/3 432/25/3 427/73/3
f 421/23/3 420/22/3 427/22/3 428/23/3
f 417/53/5 418/34/5 436/34/5 435/53/5
f 88/53/4 38/34/4 418/34/4 417/53/4
f 38/34/2 94/35/2 422/35/2 418/34/2
f 433/200/1 89/53/1 246/34/1 429/35/1
f 427/22/1 433/200/1 429/35/1 428/23/1
f 432/25/1 434/201/1 433/202/1 427/73/1
f 434/201/1 430/203/1 89/204/1 433/202/1
f 165/205/1 431/206/1 430/203/1 434/201/1
f 426/26/1 165/205/1 434/201/1 432/25/1
f 418/34/2 422/35/2 429/35/2 246/34/2
f 89/204/3 430/203/3 444/203/3 445/204/3
f 435/53/4 436/34/4 439/34/4 442/53/4
f 440/71/4 437/72/4 438/72/4 441/71/4
f 437/72/4 435/126/4 442/126/4 438/72/4
f 441/71/5 438/72/5 453/72/5 456/71/5
f 418/34/2 246/34/2 439/34/2 436/34/2
f 439/34/2 246/34/2 446/34/2 450/34/2
f 423/72/5 417/126/5 435/126/5 437/72/5
f 444/203/1 447/206/1 448/206/1 443/203/1
f 445/204/1 444/203/1 443/203/1 449/204/1
f 446/34/1 445/53/1 449/53/1 450/34/1
f 449/204/3 443/203/3 459/203/3 461/204/3
f 246/34/3 89/53/3 445/53/3 446/34/3
f 439/34/2 450/34/2 451/34/2 452/34/2
f 430/203/3 431/206/3 447/206/3 444/203/3
f 456/71/4 453/72/4 454/72/4 458/71/4
f 455/53/4 452/34/4 451/34/4 457/53/4
f 453/72/4 455/126/4 457/126/4 454/72/4
f 442/53/5 439/34/5 452/34/5 455/53/5
f 451/34/2 450/34/2 462/34/2 464/34/2
f 460/203/1 466/206/1 474/206/1 467/203/1
f 438/72/5 442/126/5 455/126/5 453/72/5
f 461/204/1 459/203/1 460/203/1 465/204/1
f 459/203/1 463/206/1 466/206/1 460/203/1
f 462/34/1 461/53/1 465/53/1 464/34/1
f 451/34/2 464/34/2 473/34/2 470/34/2
f 454/72/5 457/126/5 469/126/5 468/72/5
f 443/203/3 448/206/3 463/206/3 459/203/3
f 450/34/3 449/53/3 461/53/3 462/34/3
f 471/71/5 468/72/5 476/72/5 478/71/5
f 467/203/1 474/206/1 480/206/1 475/203/1
f 469/53/4 470/34/4 473/34/4 472/53/4
f 464/34/1 465/53/1 472/53/1 473/34/1
f 458/71/5 454/72/5 468/72/5 471/71/5
f 457/53/5 451/34/5 470/34/5 469/53/5
f 465/204/1 460/203/1 467/203/1 472/204/1
f 476/54/4 477/53/4 479/53/4 475/54/4
f 475/54/1 480/133/1 484/133/1 481/54/1
f 472/53/1 467/54/1 475/54/1 479/53/1
f 469/53/2 472/53/2 479/53/2 477/53/2
f 468/54/5 469/53/5 477/53/5 476/54/5
f 483/133/4 482/54/4 481/54/4 484/133/4
f 478/133/5 476/54/5 482/54/5 483/133/5
f 476/54/2 475/54/2 481/54/2 482/54/2
f 507/20/2 497/19/2 496/19/2 490/20/2
f 506/20/2 498/19/2 499/19/2 500/20/2
f 496/19/2 495/13/2 503/13/2 502/19/2
f 489/6/2 490/20/2 504/20/2 488/6/2
f 490/20/2 496/19/2 502/19/2 504/20/2
f 498/19/2 505/13/2 501/13/2 499/19/2
f 492/19/2 491/13/2 505/13/2 498/19/2
f 487/6/2 506/20/2 500/20/2 494/6/2
f 486/6/2 485/20/2 506/20/2 487/6/2
f 485/20/2 492/19/2 498/19/2 506/20/2
f 493/6/2 507/20/2 490/20/2 489/6/2
f 494/6/2 500/20/2 507/20/2 493/6/2
f 500/20/2 499/19/2 497/19/2 507/20/2
f 497/19/2 508/13/2 495/13/2 496/19/2
f 499/19/2 501/13/2 508/13/2 497/19/2
f 493/6/2 489/6/2 518/6/2 519/6/2
f 536/6/3 567/6/3 564/78/3 522/6/3
f 537/6/6 535/6/6 509/6/6 553/6/6
f 608/6/5 58/6/5 551/6/5 72/6/5 563/6/5
f 516/6/2 515/6/2 529/6/2 530/6/2
f 515/6/2 520/6/2 532/6/2 529/6/2
f 535/6/6 525/6/6 510/6/6 509/6/6
f 17/6/6 8/6/6 521/6/6 534/6/6
f 494/6/2 493/6/2 519/6/2 520/6/2
f 487/6/2 494/6/2 520/6/2 515/6/2
f 489/6/2 488/6/2 517/6/2 518/6/2
f 527/6/6 17/6/6 534/6/6 512/6/6
f 566/207/3 519/6/3 518/6/3 565/6/3
f 526/6/1 568/6/1 570/78/1 511/6/1
f 8/6/6 511/6/6 528/6/6 521/6/6
f 524/6/2 516/6/2 530/6/2 533/6/2
f 486/6/2 516/6/2 524/6/2 523/6/2
f 529/6/2 532/6/2 541/6/2 538/6/2
f 512/6/6 534/6/6 535/6/6 537/6/6
f 534/6/6 521/6/6 525/6/6 535/6/6
f 573/207/1 530/6/1 539/6/1 578/6/1
f 519/6/5 566/6/5 574/207/5 531/6/5
f 520/6/2 519/6/2 531/6/2 532/6/2
f 8/6/7 550/6/7 526/6/7 511/6/7
f 545/6/8 550/6/8 8/6/8 17/6/8
f 521/6/1 572/6/1 579/78/1 525/6/1
f 543/6/6 542/6/6 536/6/6 522/6/6
f 551/6/9 543/6/9 522/6/9 72/6/9
f 536/6/6 527/6/6 512/6/6 513/6/6
f 649/77/3 650/76/3 556/76/3 558/77/3
f 530/6/2 529/6/2 538/6/2 539/6/2
f 531/6/5 574/6/5 580/207/5 540/6/5
f 532/6/2 531/6/2 540/6/2 541/6/2
f 575/78/5 513/6/5 514/6/5 581/6/5
f 553/6/3 589/6/3 586/78/3 552/6/3
f 613/13/4 591/13/4 503/13/4 495/13/4
f 509/6/3 582/6/3 589/78/3 553/6/3
f 538/6/2 541/6/2 549/6/2 546/6/2
f 539/6/2 538/6/2 546/6/2 547/6/2
f 645/77/2 647/77/2 560/77/2 561/77/2
f 542/6/6 544/6/6 527/6/6 536/6/6
f 541/6/2 540/6/2 548/6/2 549/6/2
f 510/6/3 584/6/3 582/78/3 509/6/3
f 585/207/3 547/6/3 546/6/3 583/6/3
f 588/207/3 549/6/3 548/6/3 587/6/3
f 583/207/3 546/6/3 549/6/3 588/6/3
f 530/6/3 573/6/3 576/207/3 533/6/3
f 525/6/1 579/6/1 584/78/1 510/6/1
f 578/207/1 539/6/1 547/6/1 585/6/1
f 571/207/1 524/6/1 533/6/1 576/6/1
f 3/6/4 601/6/4 568/78/4 526/6/4 550/6/4
f 572/78/3 521/6/3 528/6/3 577/6/3
f 600/207/4 486/6/4 523/6/4 569/6/4
f 488/6/5 609/6/5 562/207/5 517/6/5
f 567/78/5 536/6/5 513/6/5 575/6/5
f 610/13/4 613/13/4 495/13/4 508/13/4
f 604/30/4 607/30/4 501/30/4 505/30/4
f 600/6/1 603/20/1 485/20/1 486/6/1
f 170/13/4 86/13/4 612/13/4 611/13/4
f 598/13/4 604/13/4 505/13/4 491/13/4
f 596/20/5 609/207/5 488/6/5 504/20/5
f 594/19/5 596/20/5 504/20/5 502/19/5
f 593/19/1 598/13/1 491/13/1 492/19/1
f 591/13/5 594/29/5 502/19/5 503/13/5
f 86/13/4 158/13/4 590/13/4 612/13/4
f 52/20/1 16/19/1 592/19/1 602/20/1
f 565/207/3 518/6/3 517/6/3 562/6/3
f 569/207/1 523/6/1 524/6/1 571/6/1
f 581/78/5 586/6/5 587/207/5 580/6/5
f 583/207/3 588/6/3 589/78/3 582/6/3
f 588/207/3 587/6/3 586/78/3 589/6/3
f 585/207/3 583/6/3 582/78/3 584/6/3
f 573/207/1 578/6/1 579/78/1 572/6/1
f 575/78/5 581/6/5 580/207/5 574/6/5
f 578/207/1 585/6/1 584/78/1 579/6/1
f 571/207/1 576/6/1 577/78/1 570/6/1
f 567/78/5 575/6/5 574/207/5 566/6/5
f 572/78/3 577/6/3 576/207/3 573/6/3
f 569/207/1 571/6/1 570/78/1 568/6/1
f 565/207/3 562/6/3 563/78/3 564/6/3
f 566/207/3 565/6/3 564/78/3 567/6/3
f 613/13/4 610/13/4 611/13/4 612/13/4
f 607/30/4 604/30/4 605/30/4 606/30/4
f 603/20/1 600/6/1 601/6/1 602/20/1
f 610/13/4 607/13/4 606/13/4 611/13/4
f 604/13/4 598/13/4 599/13/4 605/13/4
f 609/207/5 596/20/5 597/20/5 608/6/5
f 596/20/5 594/19/5 595/19/5 597/20/5
f 593/29/1 603/20/1 602/20/1 592/19/1
f 591/13/4 613/13/4 612/13/4 590/13/4
f 594/29/5 591/13/5 590/13/5 595/19/5
f 598/13/1 593/19/1 592/19/1 599/13/1
f 608/6/5 563/6/5 562/207/5 609/6/5
f 600/207/4 569/6/4 568/78/4 601/6/4
f 522/6/3 564/6/3 563/78/3 72/6/3
f 560/77/5 554/77/5 555/208/5 561/77/5
f 646/77/6 644/208/6 555/208/6 554/77/6
f 651/77/4 648/77/4 559/77/4 557/77/4
f 650/77/2 651/76/2 557/76/2 556/77/2
f 644/77/3 645/77/3 561/77/3 555/77/3
f 648/77/6 649/77/6 558/77/6 559/77/6
f 647/77/4 646/208/4 554/208/4 560/77/4
f 619/43/5 614/44/5 615/47/5 618/48/5
f 617/27/5 616/28/5 614/44/5 619/43/5
f 627/209/1 626/210/1 638/210/1 639/209/1
f 625/211/6 624/212/6 618/212/6 615/211/6
f 619/43/4 618/48/4 633/48/4 632/43/4
f 620/44/4 625/47/4 615/47/4 614/44/4
f 104/44/4 44/47/4 625/47/4 620/44/4
f 157/43/3 60/27/3 622/27/3 623/43/3
f 44/211/6 105/212/6 624/212/6 625/211/6
f 105/48/3 157/43/3 623/43/3 624/48/3
f 25/28/4 104/44/4 620/44/4 621/28/4
f 60/27/2 25/28/2 621/28/2 622/27/2
f 631/48/3 629/43/3 626/43/3 627/48/3
f 629/43/3 630/27/3 628/27/3 626/43/3
f 618/212/6 624/212/6 631/212/6 627/212/6
f 622/27/2 617/27/2 628/27/2 630/27/2
f 624/48/1 623/43/1 629/43/1 631/48/1
f 623/43/1 622/27/1 630/27/1 629/43/1
f 634/27/5 632/43/5 636/43/5 637/27/5
f 632/43/5 633/48/5 635/48/5 636/43/5
f 618/212/6 627/212/6 635/212/6 633/212/6
f 617/27/4 619/43/4 632/43/4 634/27/4
f 636/210/5 635/209/5 642/209/5 641/210/5
f 628/27/2 617/27/2 634/27/2 637/27/2
f 639/209/3 638/210/3 641/210/3 642/209/3
f 638/210/3 640/213/3 643/213/3 641/210/3
f 637/213/5 636/210/5 641/210/5 643/213/5
f 628/213/2 637/213/2 643/213/2 640/213/2
f 626/210/1 628/213/1 640/213/1 638/210/1
f 635/214/6 627/214/6 639/214/6 642/214/6
f 540/6/4 580/207/4 646/207/4 647/6/4
f 587/6/3 548/6/3 645/6/3 644/6/3
f 580/6/6 587/207/6 644/207/6 646/6/6
f 548/6/2 540/6/2 647/6/2 645/6/2
f 514/6/6 552/6/6 649/6/6 648/6/6
f 586/6/2 581/78/2 651/78/2 650/6/2
f 581/6/4 514/6/4 648/6/4 651/6/4
f 552/6/3 586/78/3 650/78/3 649/6/3
f 805/1/1 713/4/1 655/3/1 693/2/1
f 804/4/6 716/4/6 653/3/6 695/3/6
f 803/5/3 697/5/3 652/6/3 714/6/3
f 752/7/4 754/7/4 660/8/4 747/8/4
f 802/9/1 882/12/1 881/11/1 674/10/1
f 748/10/4 674/10/4 754/7/4 752/7/4
f 777/9/4 802/9/4 674/10/4 748/10/4
f 800/13/6 712/13/6 659/14/6 704/14/6
f 799/13/6 721/13/6 661/14/6 705/14/6
f 798/4/6 722/4/6 658/3/6 701/3/6
f 797/15/1 709/13/1 656/14/1 707/16/1
f 796/17/1 694/20/1 663/19/1 725/18/1
f 795/21/1 727/24/1 683/23/1 726/22/1
f 854/25/3 1021/25/3 419/26/3 39/26/3
f 794/27/6 706/27/6 681/28/6 729/28/6
f 793/27/6 731/27/6 684/28/6 730/28/6
f 792/4/6 732/4/6 671/3/6 715/3/6
f 735/19/5 1175/19/5 1177/20/5 789/20/5
f 1183/20/1 1065/20/1 1072/19/1 1173/29/1
f 791/30/6 733/30/6 680/31/6 720/31/6
f 790/20/6 696/20/6 666/19/6 734/19/6
f 789/20/6 736/20/6 685/19/6 735/19/6
f 788/13/6 737/13/6 679/14/6 719/14/6
f 1202/27/6 1197/27/6 1196/28/6 1201/28/6
f 786/1/5 740/33/5 673/32/5 717/2/5
f 785/17/5 742/24/5 687/23/5 741/18/5
f 784/15/5 743/35/5 678/34/5 718/16/5
f 783/36/3 703/36/3 677/37/3 744/37/3
f 782/36/3 746/36/3 688/37/3 745/37/3
f 781/8/5 880/39/5 885/38/5 755/7/5
f 778/9/4 777/9/4 748/10/4 675/10/4
f 780/2/4 750/2/4 689/32/4 749/32/4
f 863/40/4 855/40/4 28/41/4 80/41/4
f 753/7/4 752/7/4 747/8/4 676/8/4
f 776/36/3 957/36/3 958/37/3 667/37/3 757/37/3
f 775/36/3 759/36/3 690/37/3 758/37/3
f 1131/42/3 760/5/3 670/6/3 700/6/3
f 774/27/6 702/27/6 672/28/6 761/28/6
f 773/27/6 763/27/6 691/28/6 762/28/6
f 772/4/6 764/4/6 665/3/6 711/3/6
f 771/43/1 699/27/1 669/28/1 765/44/1
f 770/45/1 767/48/1 692/47/1 766/46/1
f 769/49/1 768/33/1 662/32/1 708/50/1
f 766/46/1 692/47/1 768/33/1 769/49/1
f 857/51/1 766/46/1 769/49/1 858/52/1
f 858/52/1 769/49/1 708/50/1 852/40/1
f 723/53/1 682/34/1 767/48/1 770/45/1
f 853/54/1 723/53/1 770/45/1 859/55/1
f 859/55/1 770/45/1 766/46/1 857/51/1
f 707/16/1 656/14/1 699/27/1 771/43/1
f 682/34/1 707/16/1 771/43/1 767/48/1
f 767/48/1 771/43/1 765/44/1 692/47/1
f 762/28/6 691/28/6 764/4/6 772/4/6
f 681/28/6 762/28/6 772/4/6 722/4/6
f 722/4/6 772/4/6 711/3/6 658/3/6
f 719/14/6 679/14/6 763/27/6 773/27/6
f 661/14/6 719/14/6 773/27/6 706/27/6
f 706/56/6 773/56/6 762/57/6 681/57/6
f 704/14/6 659/14/6 702/27/6 774/27/6
f 679/14/6 704/14/6 774/27/6 763/27/6
f 763/27/6 774/27/6 761/28/6 691/28/6
f 758/37/3 690/37/3 760/5/3 1131/5/3
f 677/37/3 758/37/3 1131/5/3 1123/5/3
f 860/58/3 851/58/3 759/36/3 775/36/3
f 848/58/3 860/58/3 775/36/3 703/36/3
f 703/36/3 775/36/3 758/37/3 677/37/3
f 861/58/3 971/58/3 957/36/3 776/36/3
f 851/58/3 861/58/3 776/36/3 759/36/3
f 759/36/3 776/36/3 757/37/3 690/37/3
f 850/59/4 856/59/4 121/60/4 122/60/4
f 675/10/4 748/10/4 752/7/4 753/7/4
f 872/59/2 886/61/2 887/61/2 862/59/2
f 872/59/4 862/59/4 150/60/4 147/60/4
f 701/3/6 808/62/6 818/62/6 671/3/6
f 1014/63/6 949/63/6 930/64/6 1009/64/6
f 999/65/4 844/65/4 845/66/4 988/66/4
f 717/2/5 813/67/5 807/62/5 653/3/5
f 653/3/6 807/62/6 806/62/6 695/3/6
f 749/32/4 689/32/4 751/50/4 779/50/4
f 662/32/4 749/32/4 779/50/4 708/50/4
f 852/40/4 863/40/4 80/41/4 6/41/4
f 715/3/4 671/3/4 750/2/4 780/2/4
f 655/3/4 715/3/4 780/2/4 693/2/4
f 693/2/4 780/2/4 749/32/4 662/32/4
f 711/3/6 811/62/6 809/62/6 658/3/6
f 855/40/1 869/69/1 190/68/1 28/41/1
f 658/3/6 809/62/6 808/62/6 701/3/6
f 750/2/1 817/67/1 820/70/1 689/32/1
f 745/37/3 688/37/3 1124/5/3 1125/5/3
f 668/37/3 745/37/3 1125/5/3 1130/5/3
f 1124/6/2 1107/6/2 664/6/2 1125/6/2
f 864/58/3 849/58/3 746/36/3 782/36/3
f 847/58/3 864/58/3 782/36/3 698/36/3
f 698/36/3 782/36/3 745/37/3 668/37/3
f 865/58/3 848/58/3 703/36/3 783/36/3
f 849/58/3 865/58/3 783/36/3 746/36/3
f 746/36/3 783/36/3 744/37/3 688/37/3
f 741/18/5 687/23/5 743/35/5 784/15/5
f 666/19/5 741/18/5 784/15/5 712/13/5
f 712/13/5 784/15/5 718/16/5 659/14/5
f 697/5/5 667/37/5 742/24/5 785/17/5
f 652/6/5 697/5/5 785/17/5 696/20/5
f 696/20/5 785/17/5 741/18/5 666/19/5
f 738/44/5 686/47/5 740/33/5 786/1/5
f 672/28/5 738/44/5 786/1/5 716/4/5
f 716/4/5 786/1/5 717/2/5 653/3/5
f 718/16/5 678/34/5 739/48/5 787/43/5
f 659/14/5 718/16/5 787/43/5 702/27/5
f 1201/28/4 1196/28/4 1194/44/4 1200/44/4
f 735/19/6 685/19/6 737/13/6 788/13/6
f 788/13/5 1170/13/5 1175/19/5 735/19/5
f 721/13/6 788/13/6 719/14/6 661/14/6
f 700/6/6 670/6/6 736/20/6 789/20/6
f 663/19/1 1172/19/1 1179/13/1 709/13/1
f 1066/6/6 1096/6/6 1095/6/6 1067/6/6
f 714/6/6 652/6/6 696/20/6 790/20/6
f 670/6/6 714/6/6 790/20/6 736/20/6
f 736/20/6 790/20/6 734/19/6 685/19/6
f 789/20/5 1177/20/5 1188/6/5 700/6/5
f 709/13/4 1179/13/4 1185/13/4 791/13/4
f 709/13/6 791/13/6 720/14/6 656/14/6
f 1094/6/2 1132/6/2 1133/6/2 1117/6/2
f 654/6/1 1181/6/1 1182/20/1 694/20/1
f 733/13/4 1186/13/4 1191/13/4 799/13/4
f 791/30/4 1185/30/4 1186/30/4 733/30/4
f 1187/13/4 1081/13/4 1088/13/4 1190/13/4
f 1093/6/2 1094/6/2 1117/6/2 1092/6/2
f 730/28/6 684/28/6 732/4/6 792/4/6
f 669/28/6 730/28/6 792/4/6 713/4/6
f 713/4/6 792/4/6 715/3/6 655/3/6
f 720/14/6 680/14/6 731/27/6 793/27/6
f 656/14/6 720/14/6 793/27/6 699/27/6
f 699/27/6 793/27/6 730/28/6 669/28/6
f 705/14/6 661/14/6 706/27/6 794/27/6
f 680/14/6 705/14/6 794/27/6 731/27/6
f 731/27/6 794/27/6 729/28/6 684/28/6
f 728/35/6 1019/35/6 1018/23/6 683/23/6
f 14/71/4 424/71/4 1020/72/4 853/72/4
f 726/73/3 1017/73/3 1021/25/3 854/25/3
f 698/36/1 668/37/1 727/24/1 795/21/1
f 847/58/1 698/36/1 795/21/1 867/74/1
f 867/74/1 795/21/1 726/22/1 854/75/1
f 1130/5/1 654/6/1 694/20/1 796/17/1
f 668/37/1 1130/5/1 796/17/1 727/24/1
f 727/24/1 796/17/1 725/18/1 683/23/1
f 725/18/1 663/19/1 709/13/1 797/15/1
f 683/23/1 725/18/1 797/15/1 728/35/1
f 728/35/1 797/15/1 707/16/1 682/34/1
f 729/28/6 681/28/6 722/4/6 798/4/6
f 684/28/6 729/28/6 798/4/6 732/4/6
f 732/4/6 798/4/6 701/3/6 671/3/6
f 1137/76/5 1136/77/5 1138/77/5 1139/77/5
f 1091/6/1 1108/6/1 1157/78/1 1150/6/1
f 733/13/6 799/13/6 705/14/6 680/14/6
f 734/19/6 666/19/6 712/13/6 800/13/6
f 685/79/6 734/79/6 800/80/6 737/80/6
f 737/13/6 800/13/6 704/14/6 679/14/6
f 744/37/3 677/37/3 1123/5/3 1122/5/3
f 688/37/3 744/37/3 1122/5/3 1124/5/3
f 982/81/3 839/81/3 842/82/3 987/82/3
f 665/3/6 812/62/6 811/62/6 711/3/6
f 689/32/1 820/70/1 819/83/1 751/50/1
f 988/66/4 845/66/4 846/84/4 993/84/4
f 671/3/1 818/62/1 817/67/1 750/2/1
f 969/85/3 955/86/3 875/86/3 836/85/3
f 695/3/6 806/62/6 812/62/6 665/3/6
f 757/37/3 667/37/3 697/5/3 803/5/3
f 690/37/3 757/37/3 803/5/3 760/5/3
f 760/5/3 803/5/3 714/6/3 670/6/3
f 761/28/6 672/28/6 716/4/6 804/4/6
f 691/28/6 761/28/6 804/4/6 764/4/6
f 764/4/6 804/4/6 695/3/6 665/3/6
f 765/44/1 669/28/1 713/4/1 805/1/1
f 692/47/1 765/44/1 805/1/1 768/33/1
f 768/33/1 805/1/1 693/2/1 662/32/1
f 871/69/4 868/69/4 182/68/4 181/68/4
f 824/87/4 810/87/4 815/88/4 816/88/4
f 888/89/6 801/9/6 802/9/6 897/89/6
f 890/90/5 756/10/5 801/9/5 888/89/5
f 889/90/1 675/10/1 753/7/1 896/91/1
f 893/89/1 778/9/1 675/10/1 889/90/1
f 891/91/5 755/7/5 756/10/5 890/90/5
f 892/92/5 781/8/5 755/7/5 891/91/5
f 899/93/5 862/59/5 781/8/5 892/92/5
f 815/70/4 821/70/4 822/83/4 814/83/4
f 868/69/4 870/69/4 187/68/4 182/68/4
f 809/62/4 811/62/4 823/67/4 810/67/4
f 810/67/4 823/67/4 821/70/4 815/70/4
f 898/93/1 850/59/1 122/60/1 279/94/1
f 895/89/6 777/9/6 778/9/6 893/89/6
f 808/62/4 809/62/4 810/67/4 824/67/4
f 818/62/4 808/62/4 824/67/4 817/67/4
f 817/67/4 824/67/4 816/70/4 820/70/4
f 816/70/4 815/70/4 814/83/4 825/83/4
f 820/70/4 816/70/4 825/83/4 819/83/4
f 869/69/4 871/69/4 181/68/4 190/68/4
f 896/91/1 753/7/1 676/8/1 894/92/1
f 897/89/6 802/9/6 777/9/6 895/89/6
f 856/59/4 872/59/4 147/60/4 121/60/4
f 968/95/3 969/85/3 836/85/3 838/96/3
f 948/97/1 940/100/1 305/99/1 337/98/1
f 945/63/6 918/64/6 929/64/6 946/63/6
f 946/63/6 929/64/6 925/64/6 950/63/6
f 1008/101/6 931/101/6 843/102/6 994/102/6
f 994/102/4 843/102/4 844/65/4 999/65/4
f 950/63/1 925/64/1 923/104/1 944/103/1
f 944/103/1 923/104/1 916/106/1 942/105/1
f 947/63/6 921/64/6 918/64/6 945/63/6
f 875/86/5 876/108/5 840/107/5 836/85/5
f 838/96/5 841/110/5 839/81/5 837/109/5
f 836/85/5 840/107/5 841/110/5 838/96/5
f 951/97/5 938/100/5 937/112/5 954/111/5
f 954/111/5 937/112/5 935/106/5 953/105/5
f 953/105/5 935/106/5 933/104/5 952/103/5
f 952/103/5 933/104/5 930/64/5 949/63/5
f 673/96/3 968/95/3 838/96/3 837/109/3 1002/109/3 1001/109/3 1000/109/3 717/109/3
f 1005/113/4 877/113/4 222/114/4 393/114/4
f 1002/109/6 837/109/6 839/81/6 982/81/6
f 993/84/4 846/84/4 877/113/4 1005/113/4
f 932/115/5 844/65/5 843/102/5 931/116/5
f 214/117/5 217/118/5 876/108/5 875/86/5
f 943/111/1 927/112/1 940/100/1 948/97/1
f 747/8/4 660/8/4 872/59/4 856/59/4
f 819/83/4 825/83/4 871/69/4 869/69/4
f 894/92/1 676/8/1 850/59/1 898/93/1
f 814/83/4 822/83/4 870/69/4 868/69/4
f 276/94/5 150/60/5 862/59/5 899/93/5
f 825/83/4 814/83/4 868/69/4 871/69/4
f 955/86/3 346/117/3 214/117/3 875/86/3
f 687/119/6 967/119/6 966/120/6 743/120/6
f 740/121/6 962/121/6 968/122/6 673/122/6
f 68/123/1 867/74/1 854/75/1 39/124/1
f 5/125/1 847/58/1 867/74/1 68/123/1
f 853/72/4 1020/72/4 1015/126/4 723/126/4
f 683/23/3 1018/23/3 1017/22/3 726/22/3
f 667/127/6 958/127/6 965/128/6 742/128/6
f 739/129/6 960/129/6 963/130/6 686/130/6
f 32/125/3 62/125/3 865/58/3 849/58/3
f 62/125/3 12/125/3 848/58/3 865/58/3
f 5/125/3 82/125/3 864/58/3 847/58/3
f 82/125/3 32/125/3 849/58/3 864/58/3
f 751/50/1 819/83/1 869/69/1 855/40/1
f 708/50/4 779/50/4 863/40/4 852/40/4
f 862/59/5 887/61/5 880/39/5 781/8/5
f 676/8/4 747/8/4 856/59/4 850/59/4
f 31/125/3 61/125/3 861/58/3 851/58/3
f 61/125/3 350/125/3 971/58/3 861/58/3
f 12/125/3 81/125/3 860/58/3 848/58/3
f 81/125/3 31/125/3 851/58/3 860/58/3
f 69/131/1 859/55/1 857/51/1 40/132/1
f 14/133/1 853/54/1 859/55/1 69/131/1
f 90/134/1 858/52/1 852/40/1 6/41/1
f 40/132/1 857/51/1 858/52/1 90/134/1
f 779/50/4 751/50/4 855/40/4 863/40/4
f 743/120/6 966/120/6 961/135/6 678/135/6
f 686/130/6 963/130/6 962/121/6 740/121/6
f 742/128/6 965/128/6 967/119/6 687/119/6
f 678/135/6 961/135/6 960/129/6 739/129/6
f 879/38/4 885/38/4 880/39/4 878/39/4
f 882/12/4 884/12/4 883/11/4 881/11/4
f 881/11/4 883/11/4 885/38/4 879/38/4
f 878/39/4 880/39/4 887/61/4 886/61/4
f 755/7/5 885/38/5 883/11/5 756/10/5
f 660/8/1 878/39/1 886/61/1 872/59/1
f 801/9/6 884/12/6 882/12/6 802/9/6
f 674/10/1 881/11/1 879/38/1 754/7/1
f 756/10/5 883/11/5 884/12/5 801/9/5
f 754/7/1 879/38/1 878/39/1 660/8/1
f 282/136/5 276/94/5 899/93/5 911/137/5
f 908/138/1 894/92/1 898/93/1 910/137/1
f 901/139/6 897/89/6 895/89/6 909/139/6
f 900/140/1 896/91/1 894/92/1 908/138/1
f 909/139/6 895/89/6 893/89/6 907/139/6
f 910/137/1 898/93/1 279/94/1 285/136/1
f 911/141/5 899/144/5 892/143/5 906/142/5
f 906/142/5 892/143/5 891/146/5 905/145/5
f 905/145/5 891/146/5 890/148/5 904/147/5
f 907/139/1 893/89/1 889/90/1 903/149/1
f 903/149/1 889/90/1 896/91/1 900/140/1
f 904/149/5 890/90/5 888/89/5 902/139/5
f 902/139/6 888/89/6 897/89/6 901/139/6
f 826/102/6 902/139/6 901/139/6 834/102/6
f 828/65/5 904/149/5 902/139/5 826/102/5
f 827/65/1 903/149/1 900/140/1 832/66/1
f 831/102/1 907/139/1 903/149/1 827/65/1
f 829/150/5 905/145/5 904/147/5 828/151/5
f 830/152/5 906/155/5 905/154/5 829/153/5
f 874/156/5 911/157/5 906/155/5 830/152/5
f 873/113/1 910/137/1 285/136/1 212/114/1
f 835/102/6 909/139/6 907/139/6 831/102/6
f 832/66/1 900/140/1 908/138/1 833/84/1
f 834/102/6 901/139/6 909/139/6 835/102/6
f 833/84/1 908/138/1 910/137/1 873/113/1
f 205/114/5 282/136/5 911/137/5 874/113/5
f 340/98/5 316/99/5 938/100/5 951/97/5
f 317/158/5 222/114/5 877/113/5 939/159/5
f 934/160/5 845/66/5 844/65/5 932/161/5
f 936/162/5 846/84/5 845/66/5 934/163/5
f 939/164/5 877/113/5 846/84/5 936/165/5
f 915/163/5 914/106/5 912/112/5 913/162/5
f 919/101/6 834/102/6 835/102/6 928/101/6
f 917/160/1 832/66/1 833/84/1 926/165/1
f 928/101/6 835/102/6 831/102/6 924/101/6
f 941/164/1 873/113/1 212/114/1 304/166/1
f 926/162/1 833/84/1 873/113/1 941/159/1
f 922/115/1 827/65/1 832/66/1 917/163/1
f 920/101/6 826/102/6 834/102/6 919/101/6
f 924/101/1 831/102/1 827/65/1 922/161/1
f 941/159/1 940/100/1 927/112/1 926/162/1
f 939/159/5 938/100/5 316/99/5 317/158/5
f 931/116/5 930/64/5 933/104/5 932/115/5
f 932/161/5 933/104/5 935/106/5 934/160/5
f 936/165/6 913/165/6 912/112/6 937/112/6
f 936/165/5 937/112/5 938/100/5 939/164/5
f 919/101/6 918/64/6 921/64/6 920/101/6
f 917/163/1 916/106/1 923/104/1 922/115/1
f 922/161/1 923/104/1 925/64/1 924/101/1
f 304/166/1 305/99/1 940/100/1 941/164/1
f 924/101/6 925/64/6 929/64/6 928/101/6
f 926/165/1 927/112/1 916/106/1 917/160/1
f 928/101/6 929/64/6 918/64/6 919/101/6
f 1008/101/6 1009/64/6 930/64/6 931/101/6
f 942/105/1 916/106/1 927/112/1 943/111/1
f 937/112/4 912/112/4 914/106/4 935/106/4
f 934/163/3 915/163/3 913/162/3 936/162/3
f 935/106/2 914/106/2 915/160/2 934/160/2
f 821/70/1 942/105/1 943/111/1 822/83/1
f 217/118/5 340/168/5 951/167/5 876/108/5
f 822/83/1 943/111/1 948/97/1 870/69/1
f 839/81/5 952/170/5 949/169/5 842/82/5
f 841/110/5 953/171/5 952/170/5 839/81/5
f 840/107/5 954/172/5 953/171/5 841/110/5
f 876/108/5 951/167/5 954/172/5 840/107/5
f 807/62/6 947/63/6 945/63/6 806/62/6
f 823/67/1 944/103/1 942/105/1 821/70/1
f 811/62/1 950/63/1 944/103/1 823/67/1
f 812/62/6 946/63/6 950/63/6 811/62/6
f 806/62/6 945/63/6 946/63/6 812/62/6
f 870/69/1 948/97/1 337/98/1 187/68/1
f 987/82/6 842/82/6 949/169/6 1014/169/6
f 980/173/5 354/176/5 348/175/5 956/174/5
f 978/177/5 356/180/5 346/179/5 955/178/5
f 976/181/5 351/184/5 357/183/5 959/182/5
f 974/185/5 349/188/5 355/187/5 964/186/5
f 971/189/5 350/190/5 349/188/5 974/185/5
f 958/127/5 957/192/5 975/191/5 965/128/5
f 965/128/5 975/191/5 973/193/5 967/119/5
f 956/174/5 348/175/5 351/184/5 976/181/5
f 961/135/5 970/195/5 977/194/5 960/129/5
f 960/129/5 977/194/5 972/196/5 963/130/5
f 959/182/5 357/183/5 356/180/5 978/177/5
f 963/130/5 972/196/5 979/197/5 962/121/5
f 962/121/5 979/197/5 969/198/5 968/122/5
f 964/186/5 355/187/5 354/176/5 980/173/5
f 967/119/5 973/193/5 981/199/5 966/120/5
f 966/120/5 981/199/5 970/195/5 961/135/5
f 973/193/5 964/186/5 980/173/5 981/199/5
f 972/196/5 959/182/5 978/177/5 979/197/5
f 970/195/5 956/174/5 976/181/5 977/194/5
f 957/192/5 971/189/5 974/185/5 975/191/5
f 975/191/5 974/185/5 964/186/5 973/193/5
f 977/194/5 976/181/5 959/182/5 972/196/5
f 979/197/5 978/177/5 955/178/5 969/198/5
f 981/199/5 980/173/5 956/174/5 970/195/5
f 807/82/6 985/82/6 1012/169/6 947/169/6
f 985/82/6 986/82/6 1013/169/6 1012/169/6
f 986/82/6 987/82/6 1014/169/6 1013/169/6
f 920/116/6 921/64/6 1011/64/6 1006/116/6
f 1006/116/6 1011/64/6 1010/64/6 1007/101/6
f 1007/101/6 1010/64/6 1009/64/6 1008/101/6
f 830/84/4 991/84/4 1003/113/4 874/113/4
f 991/84/4 992/84/4 1004/113/4 1003/113/4
f 992/84/4 993/84/4 1005/113/4 1004/113/4
f 717/109/6 1000/109/6 984/81/6 813/81/6
f 1000/109/6 1001/109/6 983/81/6 984/81/6
f 1001/109/6 1002/109/6 982/81/6 983/81/6
f 874/113/4 1003/113/4 395/114/4 205/114/4
f 1003/113/4 1004/113/4 394/114/4 395/114/4
f 1004/113/4 1005/113/4 393/114/4 394/114/4
f 826/102/4 996/102/4 997/65/4 828/65/4
f 996/102/4 995/102/4 998/65/4 997/65/4
f 995/102/4 994/102/4 999/65/4 998/65/4
f 920/116/6 1006/116/6 996/102/6 826/102/6
f 1006/116/6 1007/101/6 995/102/6 996/102/6
f 1007/101/6 1008/101/6 994/102/6 995/102/6
f 829/66/4 990/66/4 991/84/4 830/84/4
f 990/66/4 989/66/4 992/84/4 991/84/4
f 989/66/4 988/66/4 993/84/4 992/84/4
f 813/81/3 984/81/3 985/82/3 807/82/3
f 984/81/3 983/81/3 986/82/3 985/82/3
f 983/81/3 982/81/3 987/82/3 986/82/3
f 828/65/4 997/65/4 990/66/4 829/66/4
f 997/65/4 998/65/4 989/66/4 990/66/4
f 998/65/4 999/65/4 988/66/4 989/66/4
f 947/63/6 1012/63/6 1011/64/6 921/64/6
f 1012/63/6 1013/63/6 1010/64/6 1011/64/6
f 1013/63/6 1014/63/6 1009/64/6 1010/64/6
f 424/71/5 440/71/5 1031/72/5 1020/72/5
f 1019/35/6 1024/35/6 1023/23/6 1018/23/6
f 1021/25/3 1026/25/3 426/26/3 419/26/3
f 1017/73/3 1022/73/3 1026/25/3 1021/25/3
f 1018/23/3 1023/23/3 1022/22/3 1017/22/3
f 1015/53/5 1029/53/5 1030/34/5 1016/34/5
f 723/53/4 1015/53/4 1016/34/4 682/34/4
f 682/34/6 1016/34/6 1019/35/6 728/35/6
f 1027/200/1 1024/35/1 866/34/1 724/53/1
f 1022/22/1 1023/23/1 1024/35/1 1027/200/1
f 1026/25/1 1022/73/1 1027/202/1 1028/201/1
f 1028/201/1 1027/202/1 724/204/1 1025/203/1
f 165/205/1 1028/201/1 1025/203/1 431/206/1
f 426/26/1 1026/25/1 1028/201/1 165/205/1
f 1016/34/6 866/34/6 1024/35/6 1019/35/6
f 724/204/3 1037/204/3 1036/203/3 1025/203/3
f 1029/53/4 1034/53/4 1033/34/4 1030/34/4
f 440/71/4 441/71/4 1032/72/4 1031/72/4
f 1031/72/4 1032/72/4 1034/126/4 1029/126/4
f 441/71/5 456/71/5 1043/72/5 1032/72/5
f 1016/34/6 1030/34/6 1033/34/6 866/34/6
f 1033/34/6 1040/34/6 1038/34/6 866/34/6
f 1020/72/5 1031/72/5 1029/126/5 1015/126/5
f 1036/203/1 1035/203/1 448/206/1 447/206/1
f 1037/204/1 1039/204/1 1035/203/1 1036/203/1
f 1038/34/1 1040/34/1 1039/53/1 1037/53/1
f 1039/204/3 1049/204/3 1047/203/3 1035/203/3
f 866/34/3 1038/34/3 1037/53/3 724/53/3
f 1033/34/6 1042/34/6 1041/34/6 1040/34/6
f 1025/203/3 1036/203/3 447/206/3 431/206/3
f 456/71/4 458/71/4 1044/72/4 1043/72/4
f 1045/53/4 1046/53/4 1041/34/4 1042/34/4
f 1043/72/4 1044/72/4 1046/126/4 1045/126/4
f 1034/53/5 1045/53/5 1042/34/5 1033/34/5
f 1041/34/6 1051/34/6 1050/34/6 1040/34/6
f 1048/203/1 1053/203/1 474/206/1 466/206/1
f 1032/72/5 1043/72/5 1045/126/5 1034/126/5
f 1049/204/1 1052/204/1 1048/203/1 1047/203/1
f 1047/203/1 1048/203/1 466/206/1 463/206/1
f 1050/34/1 1051/34/1 1052/53/1 1049/53/1
f 1041/34/6 1056/34/6 1058/34/6 1051/34/6
f 1044/72/5 1054/72/5 1055/126/5 1046/126/5
f 1035/203/3 1047/203/3 463/206/3 448/206/3
f 1040/34/3 1050/34/3 1049/53/3 1039/53/3
f 471/71/5 478/71/5 1060/72/5 1054/72/5
f 1053/203/1 1059/203/1 480/206/1 474/206/1
f 1055/53/4 1057/53/4 1058/34/4 1056/34/4
f 1051/34/1 1058/34/1 1057/53/1 1052/53/1
f 458/71/5 471/71/5 1054/72/5 1044/72/5
f 1046/53/5 1055/53/5 1056/34/5 1041/34/5
f 1052/204/1 1057/204/1 1053/203/1 1048/203/1
f 1060/54/4 1059/54/4 1062/53/4 1061/53/4
f 1059/54/1 1063/54/1 484/133/1 480/133/1
f 1057/53/1 1062/53/1 1059/54/1 1053/54/1
f 1055/53/6 1061/53/6 1062/53/6 1057/53/6
f 1054/54/5 1060/54/5 1061/53/5 1055/53/5
f 483/133/4 484/133/4 1063/54/4 1064/54/4
f 478/133/5 483/133/5 1064/54/5 1060/54/5
f 1060/54/6 1064/54/6 1063/54/6 1059/54/6
f 1087/20/6 1070/20/6 1076/19/6 1077/19/6
f 1086/20/6 1080/20/6 1079/19/6 1078/19/6
f 1076/19/6 1082/19/6 1083/13/6 1075/13/6
f 1069/6/6 1068/6/6 1084/20/6 1070/20/6
f 1070/20/6 1084/20/6 1082/19/6 1076/19/6
f 1078/19/6 1079/19/6 1081/13/6 1085/13/6
f 1072/19/6 1078/19/6 1085/13/6 1071/13/6
f 1067/6/6 1074/6/6 1080/20/6 1086/20/6
f 1066/6/6 1067/6/6 1086/20/6 1065/20/6
f 1065/20/6 1086/20/6 1078/19/6 1072/19/6
f 1073/6/6 1069/6/6 1070/20/6 1087/20/6
f 1074/6/6 1073/6/6 1087/20/6 1080/20/6
f 1080/20/6 1087/20/6 1077/19/6 1079/19/6
f 1077/19/6 1076/19/6 1075/13/6 1088/13/6
f 1079/19/6 1077/19/6 1088/13/6 1081/13/6
f 1073/6/6 1099/6/6 1098/6/6 1069/6/6
f 1116/6/3 1102/6/3 1144/78/3 1147/6/3
f 1117/6/2 1133/6/2 1089/6/2 1115/6/2
f 1188/6/5 1143/6/5 710/6/5 1131/6/5 700/6/5
f 1096/6/6 1110/6/6 1109/6/6 1095/6/6
f 1095/6/6 1109/6/6 1112/6/6 1100/6/6
f 1115/6/2 1089/6/2 1090/6/2 1105/6/2
f 664/6/2 1114/6/2 1101/6/2 657/6/2
f 1074/6/6 1100/6/6 1099/6/6 1073/6/6
f 1067/6/6 1095/6/6 1100/6/6 1074/6/6
f 1069/6/6 1098/6/6 1097/6/6 1068/6/6
f 1107/6/2 1092/6/2 1114/6/2 664/6/2
f 1146/207/3 1145/6/3 1098/6/3 1099/6/3
f 1106/6/1 1091/6/1 1150/78/1 1148/6/1
f 657/6/2 1101/6/2 1108/6/2 1091/6/2
f 1104/6/6 1113/6/6 1110/6/6 1096/6/6
f 1066/6/6 1103/6/6 1104/6/6 1096/6/6
f 1109/6/6 1118/6/6 1121/6/6 1112/6/6
f 1092/6/2 1117/6/2 1115/6/2 1114/6/2
f 1114/6/2 1115/6/2 1105/6/2 1101/6/2
f 1153/207/1 1158/6/1 1119/6/1 1110/6/1
f 1099/6/5 1111/6/5 1154/207/5 1146/6/5
f 1100/6/6 1112/6/6 1111/6/6 1099/6/6
f 657/6/10 1091/6/10 1106/6/10 1130/6/10
f 1125/6/11 664/6/11 657/6/11 1130/6/11
f 1101/6/1 1105/6/1 1159/78/1 1152/6/1
f 1123/6/2 1102/6/2 1116/6/2 1122/6/2
f 1131/6/12 710/6/12 1102/6/12 1123/6/12
f 1116/6/2 1093/6/2 1092/6/2 1107/6/2
f 1229/77/3 1138/77/3 1136/76/3 1230/76/3
f 1110/6/6 1119/6/6 1118/6/6 1109/6/6
f 1111/6/5 1120/6/5 1160/207/5 1154/6/5
f 1112/6/6 1121/6/6 1120/6/6 1111/6/6
f 1155/78/5 1161/6/5 1094/6/5 1093/6/5
f 1133/6/3 1132/6/3 1166/78/3 1169/6/3
f 1193/13/4 1075/13/4 1083/13/4 1171/13/4
f 1089/6/3 1133/6/3 1169/78/3 1162/6/3
f 1118/6/6 1126/6/6 1129/6/6 1121/6/6
f 1119/6/6 1127/6/6 1126/6/6 1118/6/6
f 1225/77/6 1141/77/6 1140/77/6 1227/77/6
f 1122/6/2 1116/6/2 1107/6/2 1124/6/2
f 1121/6/6 1129/6/6 1128/6/6 1120/6/6
f 1090/6/3 1089/6/3 1162/78/3 1164/6/3
f 1165/207/3 1163/6/3 1126/6/3 1127/6/3
f 1168/207/3 1167/6/3 1128/6/3 1129/6/3
f 1163/207/3 1168/6/3 1129/6/3 1126/6/3
f 1110/6/3 1113/6/3 1156/207/3 1153/6/3
f 1105/6/1 1090/6/1 1164/78/1 1159/6/1
f 1158/207/1 1165/6/1 1127/6/1 1119/6/1
f 1151/207/1 1156/6/1 1113/6/1 1104/6/1
f 654/6/4 1130/6/4 1106/6/4 1148/78/4 1181/6/4
f 1152/78/3 1157/6/3 1108/6/3 1101/6/3
f 1180/207/4 1149/6/4 1103/6/4 1066/6/4
f 1068/6/5 1097/6/5 1142/207/5 1189/6/5
f 1147/78/5 1155/6/5 1093/6/5 1116/6/5
f 1190/13/4 1088/13/4 1075/13/4 1193/13/4
f 1184/30/4 1085/30/4 1081/30/4 1187/30/4
f 1180/6/1 1066/6/1 1065/20/1 1183/20/1
f 799/13/4 1191/13/4 1192/13/4 721/13/4
f 1178/13/4 1071/13/4 1085/13/4 1184/13/4
f 1176/20/5 1084/20/5 1068/6/5 1189/207/5
f 1174/19/5 1082/19/5 1084/20/5 1176/20/5
f 1173/19/1 1072/19/1 1071/13/1 1178/13/1
f 1171/13/5 1083/13/5 1082/19/5 1174/29/5
f 721/13/4 1192/13/4 1170/13/4 788/13/4
f 694/20/1 1182/20/1 1172/19/1 663/19/1
f 1145/207/3 1142/6/3 1097/6/3 1098/6/3
f 1149/207/1 1151/6/1 1104/6/1 1103/6/1
f 1161/78/5 1160/6/5 1167/207/5 1166/6/5
f 1163/207/3 1162/6/3 1169/78/3 1168/6/3
f 1168/207/3 1169/6/3 1166/78/3 1167/6/3
f 1165/207/3 1164/6/3 1162/78/3 1163/6/3
f 1153/207/1 1152/6/1 1159/78/1 1158/6/1
f 1155/78/5 1154/6/5 1160/207/5 1161/6/5
f 1158/207/1 1159/6/1 1164/78/1 1165/6/1
f 1151/207/1 1150/6/1 1157/78/1 1156/6/1
f 1147/78/5 1146/6/5 1154/207/5 1155/6/5
f 1152/78/3 1153/6/3 1156/207/3 1157/6/3
f 1149/207/1 1148/6/1 1150/78/1 1151/6/1
f 1145/207/3 1144/6/3 1143/78/3 1142/6/3
f 1146/207/3 1147/6/3 1144/78/3 1145/6/3
f 1193/13/4 1192/13/4 1191/13/4 1190/13/4
f 1187/30/4 1186/30/4 1185/30/4 1184/30/4
f 1183/20/1 1182/20/1 1181/6/1 1180/6/1
f 1190/13/4 1191/13/4 1186/13/4 1187/13/4
f 1184/13/4 1185/13/4 1179/13/4 1178/13/4
f 1189/207/5 1188/6/5 1177/20/5 1176/20/5
f 1176/20/5 1177/20/5 1175/19/5 1174/19/5
f 1173/29/1 1172/19/1 1182/20/1 1183/20/1
f 1171/13/4 1170/13/4 1192/13/4 1193/13/4
f 1174/29/5 1175/19/5 1170/13/5 1171/13/5
f 1178/13/1 1179/13/1 1172/19/1 1173/19/1
f 1188/6/5 1189/6/5 1142/207/5 1143/6/5
f 1180/207/4 1181/6/4 1148/78/4 1149/6/4
f 1102/6/3 710/6/3 1143/78/3 1144/6/3
f 1140/77/5 1141/77/5 1135/208/5 1134/77/5
f 1226/77/2 1134/77/2 1135/208/2 1224/208/2
f 1231/77/4 1137/77/4 1139/77/4 1228/77/4
f 1230/77/6 1136/77/6 1137/76/6 1231/76/6
f 1224/77/3 1135/77/3 1141/77/3 1225/77/3
f 1228/77/2 1139/77/2 1138/77/2 1229/77/2
f 1227/77/4 1140/77/4 1134/208/4 1226/208/4
f 1199/43/5 1198/48/5 1195/47/5 1194/44/5
f 1197/27/5 1199/43/5 1194/44/5 1196/28/5
f 1207/209/1 1219/209/1 1218/210/1 1206/210/1
f 1205/211/2 1195/211/2 1198/212/2 1204/212/2
f 1199/43/4 1212/43/4 1213/48/4 1198/48/4
f 1200/44/4 1194/44/4 1195/47/4 1205/47/4
f 738/44/4 1200/44/4 1205/47/4 686/47/4
f 787/43/3 1203/43/3 1202/27/3 702/27/3
f 686/211/2 1205/211/2 1204/212/2 739/212/2
f 739/48/3 1204/48/3 1203/43/3 787/43/3
f 672/28/4 1201/28/4 1200/44/4 738/44/4
f 702/27/6 1202/27/6 1201/28/6 672/28/6
f 1211/48/3 1207/48/3 1206/43/3 1209/43/3
f 1209/43/3 1206/43/3 1208/27/3 1210/27/3
f 1198/212/2 1207/212/2 1211/212/2 1204/212/2
f 1202/27/6 1210/27/6 1208/27/6 1197/27/6
f 1204/48/1 1211/48/1 1209/43/1 1203/43/1
f 1203/43/1 1209/43/1 1210/27/1 1202/27/1
f 1214/27/5 1217/27/5 1216/43/5 1212/43/5
f 1212/43/5 1216/43/5 1215/48/5 1213/48/5
f 1198/212/2 1213/212/2 1215/212/2 1207/212/2
f 1197/27/4 1214/27/4 1212/43/4 1199/43/4
f 1216/210/5 1221/210/5 1222/209/5 1215/209/5
f 1208/27/6 1217/27/6 1214/27/6 1197/27/6
f 1219/209/3 1222/209/3 1221/210/3 1218/210/3
f 1218/210/3 1221/210/3 1223/213/3 1220/213/3
f 1217/213/5 1223/213/5 1221/210/5 1216/210/5
f 1208/213/6 1220/213/6 1223/213/6 1217/213/6
f 1206/210/1 1218/210/1 1220/213/1 1208/213/1
f 1215/214/2 1222/214/2 1219/214/2 1207/214/2
f 1120/6/4 1227/6/4 1226/207/4 1160/207/4
f 1167/6/3 1224/6/3 1225/6/3 1128/6/3
f 1160/6/2 1226/6/2 1224/207/2 1167/207/2
f 1128/6/6 1225/6/6 1227/6/6 1120/6/6
f 1094/6/2 1228/6/2 1229/6/2 1132/6/2
f 1166/6/6 1230/6/6 1231/78/6 1161/78/6
f 1161/6/4 1231/6/4 1228/6/4 1094/6/4
f 1132/6/3 1229/6/3 1230/78/3 1166/78/3
