# Blender 3.6.0
# www.blender.org
mtllib 2.mtl
o Cube.025
v -0.107068 0.110964 -0.164850
v -0.107068 0.080234 -0.164850
v -0.107068 0.110964 -0.134120
v -0.107068 0.080234 -0.134120
v -0.107068 0.110964 -0.149485
v -0.107068 0.095599 -0.164850
v -0.107068 0.080234 -0.149485
v -0.107068 0.095599 -0.134120
v -0.122433 0.110964 -0.134120
v -0.122433 0.080234 -0.134120
v -0.122433 0.110964 -0.164850
v -0.122433 0.080234 -0.164850
v -0.122433 0.110964 -0.149485
v -0.107068 0.110964 -0.157168
v -0.107068 0.087916 -0.164850
v -0.107068 0.080234 -0.141803
v -0.107068 0.103281 -0.134120
v -0.114751 0.110964 -0.134120
v -0.114751 0.080234 -0.164850
v -0.107068 0.110964 -0.141803
v -0.107068 0.103281 -0.164850
v -0.107068 0.080234 -0.157168
v -0.107068 0.087916 -0.134120
v -0.114751 0.080234 -0.134120
v -0.114751 0.110964 -0.164850
v -0.122433 0.110964 -0.157168
v -0.122433 0.110964 -0.141803
v -0.114751 0.110964 -0.149485
v -0.114751 0.110964 -0.141803
v -0.114751 0.110964 -0.157168
v -0.107068 0.110964 -0.161009
v -0.107068 0.084075 -0.164850
v -0.107068 0.080234 -0.137961
v -0.107068 0.107123 -0.134120
v -0.110910 0.110964 -0.134120
v -0.110910 0.080234 -0.164850
v -0.107068 0.110964 -0.145644
v -0.107068 0.099440 -0.164850
v -0.107068 0.080234 -0.153326
v -0.107068 0.091758 -0.134120
v -0.118592 0.080234 -0.134120
v -0.118592 0.110964 -0.164850
v -0.122433 0.080234 -0.161009
v -0.122433 0.110964 -0.161009
v -0.122433 0.110964 -0.145644
v -0.110910 0.110964 -0.149485
v -0.110910 0.095599 -0.164850
v -0.122433 0.107123 -0.164850
v -0.122433 0.107123 -0.134120
v -0.107068 0.095599 -0.137961
v -0.107068 0.107123 -0.149485
v -0.107068 0.110964 -0.153326
v -0.107068 0.091758 -0.164850
v -0.107068 0.080234 -0.145644
v -0.107068 0.099440 -0.134120
v -0.118592 0.110964 -0.134120
v -0.118592 0.080234 -0.164850
v -0.107068 0.110964 -0.137961
v -0.107068 0.107123 -0.164850
v -0.107068 0.080234 -0.161009
v -0.107068 0.084075 -0.134120
v -0.110910 0.080234 -0.134120
v -0.110910 0.110964 -0.164850
v -0.122433 0.080234 -0.137961
v -0.110910 0.080234 -0.149485
v -0.122433 0.110964 -0.153326
v -0.122433 0.110964 -0.137961
v -0.118592 0.110964 -0.149485
v -0.122433 0.084075 -0.164850
v -0.110910 0.095599 -0.134120
v -0.122433 0.084075 -0.134120
v -0.107068 0.095599 -0.161009
v -0.107068 0.084075 -0.149485
v -0.107068 0.087916 -0.161009
v -0.107068 0.084075 -0.157168
v -0.107068 0.103281 -0.161009
v -0.107068 0.107123 -0.157168
v -0.107068 0.103281 -0.137961
v -0.107068 0.107123 -0.141803
v -0.110910 0.087916 -0.134120
v -0.114751 0.084075 -0.134120
v -0.110910 0.103281 -0.134120
v -0.114751 0.107123 -0.134120
v -0.110910 0.103281 -0.164850
v -0.114751 0.107123 -0.164850
v -0.114751 0.110964 -0.145644
v -0.114751 0.110964 -0.137961
v -0.110910 0.110964 -0.141803
v -0.118592 0.110964 -0.141803
v -0.114751 0.110964 -0.161009
v -0.114751 0.110964 -0.153326
v -0.110910 0.110964 -0.157168
v -0.118592 0.110964 -0.157168
v -0.114751 0.080234 -0.137961
v -0.110910 0.080234 -0.141803
v -0.114751 0.080234 -0.161009
v -0.110910 0.080234 -0.157168
v -0.110910 0.087916 -0.164850
v -0.114751 0.084075 -0.164850
v -0.107068 0.087916 -0.137961
v -0.107068 0.084075 -0.141803
v -0.107068 0.084075 -0.145644
v -0.107068 0.091758 -0.137961
v -0.118592 0.084075 -0.164850
v -0.110910 0.091758 -0.164850
v -0.110910 0.080234 -0.153326
v -0.118592 0.080234 -0.161009
v -0.110910 0.080234 -0.137961
v -0.118592 0.080234 -0.137961
v -0.118592 0.110964 -0.153326
v -0.110910 0.110964 -0.153326
v -0.110910 0.110964 -0.161009
v -0.118592 0.110964 -0.137961
v -0.110910 0.110964 -0.137961
v -0.110910 0.110964 -0.145644
v -0.118592 0.107123 -0.164850
v -0.110910 0.107123 -0.164850
v -0.110910 0.099440 -0.134120
v -0.110910 0.107123 -0.134120
v -0.118592 0.107123 -0.134120
v -0.110910 0.084075 -0.134120
v -0.110910 0.091758 -0.134120
v -0.107068 0.107123 -0.145644
v -0.107068 0.107123 -0.137961
v -0.107068 0.099440 -0.161009
v -0.107068 0.107123 -0.161009
v -0.107068 0.107123 -0.153326
v -0.107068 0.084075 -0.161009
v -0.107068 0.091758 -0.161009
v -0.107068 0.084075 -0.153326
v -0.107068 0.099440 -0.137961
v -0.118592 0.084075 -0.134120
v -0.110910 0.099440 -0.164850
v -0.118592 0.110964 -0.145644
v -0.118592 0.110964 -0.161009
v -0.110910 0.080234 -0.145644
v -0.110910 0.080234 -0.161009
v -0.110910 0.084075 -0.164850
v -0.107068 0.084075 -0.137961
v -0.122433 0.095599 -0.169894
v -0.122433 0.091758 -0.169894
v -0.118592 0.095599 -0.129076
v -0.122433 0.095599 -0.129076
v -0.122433 0.091758 -0.129076
v -0.102024 0.095599 -0.153326
v -0.102024 0.095599 -0.149485
v -0.102024 0.091758 -0.149485
v -0.118592 0.095599 -0.169894
v -0.114751 0.095599 -0.169894
v -0.122433 0.099440 -0.169894
v -0.122433 0.103281 -0.169894
v -0.122433 0.084075 -0.169894
v -0.122433 0.087916 -0.169894
v -0.110910 0.095599 -0.129076
v -0.114751 0.095599 -0.129076
v -0.122433 0.099440 -0.129076
v -0.122433 0.103281 -0.129076
v -0.122433 0.084075 -0.129076
v -0.122433 0.087916 -0.129076
v -0.102024 0.095599 -0.145644
v -0.102024 0.095599 -0.141803
v -0.102024 0.095599 -0.161009
v -0.102024 0.095599 -0.157168
v -0.102024 0.099440 -0.149485
v -0.102024 0.103281 -0.149485
v -0.102024 0.084075 -0.149485
v -0.102024 0.087916 -0.149485
v -0.102024 0.087916 -0.153326
v -0.102024 0.087916 -0.161009
v -0.102024 0.087916 -0.157168
v -0.102024 0.091758 -0.157168
v -0.102024 0.084075 -0.157168
v -0.102024 0.103281 -0.153326
v -0.102024 0.103281 -0.161009
v -0.102024 0.103281 -0.157168
v -0.102024 0.099440 -0.157168
v -0.102024 0.103281 -0.145644
v -0.102024 0.103281 -0.141803
v -0.102024 0.099440 -0.141803
v -0.118592 0.087916 -0.129076
v -0.110910 0.087916 -0.129076
v -0.114751 0.087916 -0.129076
v -0.114751 0.091758 -0.129076
v -0.114751 0.084075 -0.129076
v -0.118592 0.103281 -0.129076
v -0.110910 0.103281 -0.129076
v -0.114751 0.103281 -0.129076
v -0.114751 0.099440 -0.129076
v -0.118592 0.103281 -0.169894
v -0.114751 0.103281 -0.169894
v -0.114751 0.099440 -0.169894
v -0.118592 0.087916 -0.169894
v -0.114751 0.087916 -0.169894
v -0.114751 0.091758 -0.169894
v -0.114751 0.084075 -0.169894
v -0.102024 0.087916 -0.145644
v -0.102024 0.087916 -0.141803
v -0.102024 0.091758 -0.141803
v -0.102024 0.084075 -0.141803
v -0.110910 0.095599 -0.169894
v -0.122433 0.107123 -0.169894
v -0.122433 0.107123 -0.129076
v -0.102024 0.095599 -0.137961
v -0.102024 0.107123 -0.149485
v -0.102024 0.107123 -0.157168
v -0.102024 0.103281 -0.137961
v -0.102024 0.107123 -0.141803
v -0.114751 0.107123 -0.129076
v -0.110910 0.103281 -0.169894
v -0.114751 0.107123 -0.169894
v -0.110910 0.087916 -0.169894
v -0.102024 0.087916 -0.137961
v -0.102024 0.084075 -0.145644
v -0.102024 0.091758 -0.145644
v -0.102024 0.091758 -0.137961
v -0.118592 0.084075 -0.169894
v -0.118592 0.091758 -0.169894
v -0.110910 0.091758 -0.169894
v -0.118592 0.099440 -0.169894
v -0.118592 0.107123 -0.169894
v -0.110910 0.107123 -0.169894
v -0.110910 0.099440 -0.129076
v -0.110910 0.107123 -0.129076
v -0.118592 0.107123 -0.129076
v -0.110910 0.084075 -0.129076
v -0.110910 0.091758 -0.129076
v -0.118592 0.091758 -0.129076
v -0.102024 0.099440 -0.145644
v -0.102024 0.107123 -0.145644
v -0.102024 0.107123 -0.137961
v -0.102024 0.099440 -0.161009
v -0.102024 0.107123 -0.161009
v -0.102024 0.107123 -0.153326
v -0.102024 0.084075 -0.161009
v -0.102024 0.091758 -0.161009
v -0.102024 0.091758 -0.153326
v -0.102024 0.084075 -0.153326
v -0.102024 0.099440 -0.153326
v -0.102024 0.099440 -0.137961
v -0.118592 0.084075 -0.129076
v -0.118592 0.099440 -0.129076
v -0.110910 0.099440 -0.169894
v -0.110910 0.084075 -0.169894
v -0.102024 0.084075 -0.137961
v -0.112830 0.080234 -0.134120
v -0.112830 0.110964 -0.164850
v -0.112830 0.110964 -0.134120
v -0.112830 0.080234 -0.164850
v -0.112830 0.110964 -0.149485
v -0.112830 0.110964 -0.141803
v -0.112830 0.110964 -0.157168
v -0.112830 0.080234 -0.137961
v -0.112830 0.110964 -0.153326
v -0.112830 0.110964 -0.161009
v -0.112830 0.110964 -0.137961
v -0.112830 0.110964 -0.145644
v -0.112830 0.107123 -0.164850
v -0.112830 0.107123 -0.134120
v -0.112830 0.084075 -0.134120
v -0.112830 0.080234 -0.161009
v -0.112830 0.084075 -0.164850
v -0.112830 0.095599 -0.129076
v -0.112830 0.087916 -0.129076
v -0.112830 0.103281 -0.129076
v -0.112830 0.095599 -0.169894
v -0.112830 0.103281 -0.169894
v -0.112830 0.087916 -0.169894
v -0.112830 0.091758 -0.169894
v -0.112830 0.107123 -0.169894
v -0.112830 0.099440 -0.129076
v -0.112830 0.107123 -0.129076
v -0.112830 0.084075 -0.129076
v -0.112830 0.091758 -0.129076
v -0.112830 0.099440 -0.169894
v -0.112830 0.084075 -0.169894
v -0.118592 0.114948 -0.141803
v -0.114751 0.114948 -0.141803
v -0.114751 0.114948 -0.145644
v -0.112830 0.114948 -0.141803
v -0.110910 0.114948 -0.141803
v -0.110910 0.114948 -0.145644
v -0.112830 0.114948 -0.145644
v -0.118592 0.114948 -0.145644
v -0.118592 0.118860 -0.141803
v -0.114751 0.118860 -0.141803
v -0.114751 0.118860 -0.145644
v -0.112830 0.118860 -0.141803
v -0.110910 0.118860 -0.141803
v -0.110910 0.118860 -0.145644
v -0.112830 0.118860 -0.145644
v -0.118592 0.118860 -0.145644
v -0.107796 0.114948 -0.141803
v -0.107796 0.114948 -0.145644
v -0.107796 0.118860 -0.141803
v -0.107796 0.118860 -0.145644
v -0.118592 0.123237 -0.141803
v -0.114751 0.123237 -0.141803
v -0.114751 0.123237 -0.145644
v -0.112830 0.123237 -0.141803
v -0.110910 0.123237 -0.141803
v -0.110910 0.123237 -0.145644
v -0.112830 0.123237 -0.145644
v -0.118592 0.123237 -0.145644
v -0.107796 0.123237 -0.141803
v -0.107796 0.123237 -0.145644
v -0.105491 0.118860 -0.141803
v -0.105491 0.118860 -0.145644
v -0.105491 0.123237 -0.141803
v -0.105491 0.123237 -0.145644
v -0.118592 0.140049 -0.141803
v -0.114751 0.140049 -0.141803
v -0.114751 0.140049 -0.145644
v -0.112830 0.140049 -0.141803
v -0.110910 0.140049 -0.141803
v -0.110910 0.140049 -0.145644
v -0.112830 0.140049 -0.145644
v -0.118592 0.140049 -0.145644
v -0.107796 0.140049 -0.141803
v -0.107796 0.140049 -0.145644
v -0.105491 0.140049 -0.141803
v -0.105491 0.140049 -0.145644
v -0.118592 0.145605 -0.141803
v -0.114751 0.145605 -0.141803
v -0.114751 0.145605 -0.145644
v -0.112830 0.145605 -0.141803
v -0.110910 0.145605 -0.141803
v -0.110910 0.145605 -0.145644
v -0.112830 0.145605 -0.145644
v -0.118592 0.145605 -0.145644
v -0.107796 0.145605 -0.141803
v -0.107796 0.145605 -0.145644
v -0.118592 0.150587 -0.141803
v -0.114751 0.150587 -0.141803
v -0.114751 0.150587 -0.145644
v -0.112830 0.150587 -0.141803
v -0.110910 0.150587 -0.141803
v -0.110910 0.150587 -0.145644
v -0.112830 0.150587 -0.145644
v -0.118592 0.150587 -0.145644
v -0.118592 0.095599 -0.126653
v -0.122433 0.095599 -0.126653
v -0.122433 0.091758 -0.126653
v -0.118592 0.091758 -0.126653
v -0.122433 0.070060 -0.145644
v -0.122433 0.070060 -0.149485
v -0.118592 0.070060 -0.149485
v -0.110910 0.065615 -0.168108
v -0.110910 0.070060 -0.168108
v -0.122433 0.070060 -0.137961
v -0.122433 0.070060 -0.141803
v -0.112830 0.070060 -0.149485
v -0.114751 0.070060 -0.149485
v -0.114751 0.070060 -0.145644
v -0.114751 0.070060 -0.137961
v -0.114751 0.070060 -0.141803
v -0.118592 0.070060 -0.141803
v -0.112830 0.070060 -0.141803
v -0.122433 0.065615 -0.168108
v -0.122433 0.070060 -0.168108
v -0.118592 0.070060 -0.168108
v -0.118592 0.065615 -0.168108
v -0.122433 0.070060 -0.161009
v -0.114751 0.070060 -0.161009
v -0.110910 0.070060 -0.153326
v -0.110910 0.070060 -0.157168
v -0.110910 0.070060 -0.149485
v -0.114751 0.065615 -0.168108
v -0.114751 0.070060 -0.168108
v -0.118592 0.070060 -0.161009
v -0.110910 0.070060 -0.137961
v -0.110910 0.070060 -0.141803
v -0.112830 0.070060 -0.137961
v -0.118592 0.070060 -0.137961
v -0.118592 0.070060 -0.145644
v -0.110910 0.070060 -0.145644
v -0.112830 0.070060 -0.145644
v -0.110910 0.070060 -0.161009
v -0.112830 0.070060 -0.161009
v -0.110910 0.076670 -0.141803
v -0.110910 0.076670 -0.149485
v -0.110910 0.076670 -0.145644
v -0.122433 0.076670 -0.137961
v -0.118592 0.076670 -0.137961
v -0.110910 0.076670 -0.137961
v -0.118592 0.076670 -0.161009
v -0.122433 0.076670 -0.161009
v -0.112830 0.076670 -0.161009
v -0.114751 0.076670 -0.161009
v -0.110910 0.076670 -0.161009
v -0.110910 0.076670 -0.153326
v -0.110910 0.076670 -0.157168
v -0.114751 0.076670 -0.137961
v -0.112830 0.076670 -0.137961
v -0.118592 0.076670 -0.133680
v -0.118592 0.070060 -0.133680
v -0.110910 0.076670 -0.133680
v -0.110910 0.070060 -0.133680
v -0.112830 0.076670 -0.133680
v -0.112830 0.070060 -0.133680
v -0.114751 0.070060 -0.133680
v -0.114751 0.076670 -0.133680
v -0.112830 0.065485 -0.137961
v -0.114751 0.065485 -0.137961
v -0.118592 0.065485 -0.137961
v -0.110910 0.065485 -0.137961
v -0.112830 0.065485 -0.133680
v -0.114751 0.065485 -0.133680
v -0.118592 0.065485 -0.133680
v -0.110910 0.065485 -0.133680
v -0.112830 0.070060 -0.130827
v -0.114751 0.070060 -0.130827
v -0.118592 0.070060 -0.130827
v -0.110910 0.070060 -0.130827
v -0.112830 0.065485 -0.130827
v -0.114751 0.065485 -0.130827
v -0.118592 0.065485 -0.130827
v -0.110910 0.065485 -0.130827
v -0.118592 0.065615 -0.149485
v -0.122433 0.065615 -0.149485
v -0.112830 0.056110 -0.133419
v -0.110909 0.056110 -0.133419
v -0.112830 0.065615 -0.149485
v -0.114751 0.065615 -0.149485
v -0.122433 0.056110 -0.168108
v -0.114751 0.056110 -0.168108
v -0.112830 0.056110 -0.168108
v -0.110910 0.056110 -0.157168
v -0.118592 0.052108 -0.153326
v -0.114751 0.052108 -0.153326
v -0.110910 0.065615 -0.153326
v -0.110910 0.065615 -0.157168
v -0.110910 0.065615 -0.149485
v -0.112830 0.052108 -0.153326
v -0.122433 0.052108 -0.153326
v -0.118592 0.052108 -0.157168
v -0.110910 0.065615 -0.161009
v -0.114751 0.052108 -0.157168
v -0.112830 0.070060 -0.168108
v -0.112830 0.065615 -0.168108
v -0.112830 0.052108 -0.157168
v -0.122433 0.052108 -0.157168
v -0.112830 0.052108 -0.161009
v -0.114751 0.052108 -0.161009
v -0.122433 0.052108 -0.161009
v -0.118592 0.052108 -0.161009
v -0.110910 0.052108 -0.168108
v -0.112830 0.052108 -0.168108
v -0.114751 0.052108 -0.168108
v -0.122433 0.052108 -0.168108
v -0.118592 0.052108 -0.168108
v -0.110910 0.052108 -0.161009
v -0.110910 0.052108 -0.157168
v -0.110910 0.052108 -0.153326
v -0.122433 0.056110 -0.153326
v -0.110910 0.056110 -0.153326
v -0.110910 0.056110 -0.168108
v -0.114751 0.056110 -0.153326
v -0.110910 0.056110 -0.161009
v -0.118592 0.056110 -0.168108
v -0.118592 0.056110 -0.153326
v -0.112830 0.056110 -0.153326
v -0.122433 0.065615 -0.153326
v -0.112830 0.065615 -0.153326
v -0.114751 0.065615 -0.153326
v -0.118592 0.065615 -0.153326
v -0.114751 0.056110 -0.133419
v -0.118592 0.056110 -0.133419
v -0.110909 0.052108 -0.133419
v -0.112830 0.052108 -0.133419
v -0.114751 0.052108 -0.133419
v -0.118592 0.052108 -0.133419
v -0.118592 0.070060 -0.174884
v -0.122433 0.070060 -0.174884
v -0.122433 0.065615 -0.174884
v -0.118592 0.065615 -0.174884
v -0.118592 0.075271 -0.168108
v -0.122433 0.075271 -0.168108
v -0.118592 0.075271 -0.174884
v -0.122433 0.075271 -0.174884
v -0.110909 0.052108 -0.143373
v -0.112830 0.052108 -0.143373
v -0.118592 0.056110 -0.143373
v -0.118592 0.052108 -0.143373
v -0.114751 0.056110 -0.143373
v -0.114751 0.052108 -0.143373
v -0.112830 0.056110 -0.143373
v -0.110909 0.056110 -0.143373
v -0.137798 0.110964 -0.164850
v -0.137798 0.080234 -0.164850
v -0.137798 0.110964 -0.134120
v -0.137798 0.080234 -0.134120
v -0.137798 0.110964 -0.149485
v -0.137798 0.095599 -0.164850
v -0.137798 0.080234 -0.149485
v -0.137798 0.095599 -0.134120
v -0.137798 0.110964 -0.157168
v -0.137798 0.087916 -0.164850
v -0.137798 0.080234 -0.141803
v -0.137798 0.103281 -0.134120
v -0.130116 0.110964 -0.134120
v -0.130116 0.080234 -0.164850
v -0.137798 0.110964 -0.141803
v -0.137798 0.103281 -0.164850
v -0.137798 0.080234 -0.157168
v -0.137798 0.087916 -0.134120
v -0.130116 0.080234 -0.134120
v -0.130116 0.110964 -0.164850
v -0.130116 0.110964 -0.149485
v -0.130116 0.110964 -0.141803
v -0.130116 0.110964 -0.157168
v -0.137798 0.110964 -0.161009
v -0.137798 0.084075 -0.164850
v -0.137798 0.080234 -0.137961
v -0.137798 0.107123 -0.134120
v -0.133957 0.110964 -0.134120
v -0.133957 0.080234 -0.164850
v -0.137798 0.110964 -0.145644
v -0.137798 0.099440 -0.164850
v -0.137798 0.080234 -0.153326
v -0.137798 0.091758 -0.134120
v -0.126275 0.080234 -0.134120
v -0.126275 0.110964 -0.164850
v -0.133957 0.110964 -0.149485
v -0.133957 0.095599 -0.164850
v -0.137798 0.095599 -0.137961
v -0.137798 0.107123 -0.149485
v -0.137798 0.110964 -0.153326
v -0.137798 0.091758 -0.164850
v -0.137798 0.080234 -0.145644
v -0.137798 0.099440 -0.134120
v -0.126275 0.110964 -0.134120
v -0.126275 0.080234 -0.164850
v -0.137798 0.110964 -0.137961
v -0.137798 0.107123 -0.164850
v -0.137798 0.080234 -0.161009
v -0.137798 0.084075 -0.134120
v -0.133957 0.080234 -0.134120
v -0.133957 0.110964 -0.164850
v -0.133957 0.080234 -0.149485
v -0.126275 0.110964 -0.149485
v -0.133957 0.095599 -0.134120
v -0.137798 0.095599 -0.161009
v -0.137798 0.084075 -0.149485
v -0.137798 0.087916 -0.161009
v -0.137798 0.084075 -0.157168
v -0.137798 0.103281 -0.161009
v -0.137798 0.107123 -0.157168
v -0.137798 0.103281 -0.137961
v -0.137798 0.107123 -0.141803
v -0.133957 0.087916 -0.134120
v -0.130116 0.084075 -0.134120
v -0.133957 0.103281 -0.134120
v -0.130116 0.107123 -0.134120
v -0.133957 0.103281 -0.164850
v -0.130116 0.107123 -0.164850
v -0.130116 0.110964 -0.145644
v -0.130116 0.110964 -0.137961
v -0.133957 0.110964 -0.141803
v -0.126275 0.110964 -0.141803
v -0.130116 0.110964 -0.161009
v -0.130116 0.110964 -0.153326
v -0.133957 0.110964 -0.157168
v -0.126275 0.110964 -0.157168
v -0.130116 0.080234 -0.137961
v -0.133957 0.080234 -0.141803
v -0.130116 0.080234 -0.161009
v -0.133957 0.080234 -0.157168
v -0.133957 0.087916 -0.164850
v -0.130116 0.084075 -0.164850
v -0.137798 0.087916 -0.137961
v -0.137798 0.084075 -0.141803
v -0.137798 0.084075 -0.145644
v -0.137798 0.091758 -0.137961
v -0.126275 0.084075 -0.164850
v -0.133957 0.091758 -0.164850
v -0.133957 0.080234 -0.153326
v -0.126275 0.080234 -0.161009
v -0.133957 0.080234 -0.137961
v -0.126275 0.080234 -0.137961
v -0.126275 0.110964 -0.153326
v -0.133957 0.110964 -0.153326
v -0.133957 0.110964 -0.161009
v -0.126275 0.110964 -0.137961
v -0.133957 0.110964 -0.137961
v -0.133957 0.110964 -0.145644
v -0.126275 0.107123 -0.164850
v -0.133957 0.107123 -0.164850
v -0.133957 0.099440 -0.134120
v -0.133957 0.107123 -0.134120
v -0.126275 0.107123 -0.134120
v -0.133957 0.084075 -0.134120
v -0.133957 0.091758 -0.134120
v -0.137798 0.107123 -0.145644
v -0.137798 0.107123 -0.137961
v -0.137798 0.099440 -0.161009
v -0.137798 0.107123 -0.161009
v -0.137798 0.107123 -0.153326
v -0.137798 0.084075 -0.161009
v -0.137798 0.091758 -0.161009
v -0.137798 0.084075 -0.153326
v -0.137798 0.099440 -0.137961
v -0.126275 0.084075 -0.134120
v -0.133957 0.099440 -0.164850
v -0.126275 0.110964 -0.145644
v -0.126275 0.110964 -0.161009
v -0.133957 0.080234 -0.145644
v -0.133957 0.080234 -0.161009
v -0.133957 0.084075 -0.164850
v -0.137798 0.084075 -0.137961
v -0.126275 0.095599 -0.129076
v -0.142842 0.095599 -0.153326
v -0.142842 0.095599 -0.149485
v -0.142842 0.091758 -0.149485
v -0.126275 0.095599 -0.169894
v -0.130116 0.095599 -0.169894
v -0.133957 0.095599 -0.129076
v -0.130116 0.095599 -0.129076
v -0.142842 0.095599 -0.145644
v -0.142842 0.095599 -0.141803
v -0.142842 0.095599 -0.161009
v -0.142842 0.095599 -0.157168
v -0.142842 0.099440 -0.149485
v -0.142842 0.103281 -0.149485
v -0.142842 0.084075 -0.149485
v -0.142842 0.087916 -0.149485
v -0.142842 0.087916 -0.153326
v -0.142842 0.087916 -0.161009
v -0.142842 0.087916 -0.157168
v -0.142842 0.091758 -0.157168
v -0.142842 0.084075 -0.157168
v -0.142842 0.103281 -0.153326
v -0.142842 0.103281 -0.161009
v -0.142842 0.103281 -0.157168
v -0.142842 0.099440 -0.157168
v -0.142842 0.103281 -0.145644
v -0.142842 0.103281 -0.141803
v -0.142842 0.099440 -0.141803
v -0.126275 0.087916 -0.129076
v -0.133957 0.087916 -0.129076
v -0.130116 0.087916 -0.129076
v -0.130116 0.091758 -0.129076
v -0.130116 0.084075 -0.129076
v -0.126275 0.103281 -0.129076
v -0.133957 0.103281 -0.129076
v -0.130116 0.103281 -0.129076
v -0.130116 0.099440 -0.129076
v -0.126275 0.103281 -0.169894
v -0.130116 0.103281 -0.169894
v -0.130116 0.099440 -0.169894
v -0.126275 0.087916 -0.169894
v -0.130116 0.087916 -0.169894
v -0.130116 0.091758 -0.169894
v -0.130116 0.084075 -0.169894
v -0.142842 0.087916 -0.145644
v -0.142842 0.087916 -0.141803
v -0.142842 0.091758 -0.141803
v -0.142842 0.084075 -0.141803
v -0.133957 0.095599 -0.169894
v -0.142842 0.095599 -0.137961
v -0.142842 0.107123 -0.149485
v -0.142842 0.107123 -0.157168
v -0.142842 0.103281 -0.137961
v -0.142842 0.107123 -0.141803
v -0.130116 0.107123 -0.129076
v -0.133957 0.103281 -0.169894
v -0.130116 0.107123 -0.169894
v -0.133957 0.087916 -0.169894
v -0.142842 0.087916 -0.137961
v -0.142842 0.084075 -0.145644
v -0.142842 0.091758 -0.145644
v -0.142842 0.091758 -0.137961
v -0.126275 0.084075 -0.169894
v -0.126275 0.091758 -0.169894
v -0.133957 0.091758 -0.169894
v -0.126275 0.099440 -0.169894
v -0.126275 0.107123 -0.169894
v -0.133957 0.107123 -0.169894
v -0.133957 0.099440 -0.129076
v -0.133957 0.107123 -0.129076
v -0.126275 0.107123 -0.129076
v -0.133957 0.084075 -0.129076
v -0.133957 0.091758 -0.129076
v -0.126275 0.091758 -0.129076
v -0.142842 0.099440 -0.145644
v -0.142842 0.107123 -0.145644
v -0.142842 0.107123 -0.137961
v -0.142842 0.099440 -0.161009
v -0.142842 0.107123 -0.161009
v -0.142842 0.107123 -0.153326
v -0.142842 0.084075 -0.161009
v -0.142842 0.091758 -0.161009
v -0.142842 0.091758 -0.153326
v -0.142842 0.084075 -0.153326
v -0.142842 0.099440 -0.153326
v -0.142842 0.099440 -0.137961
v -0.126275 0.084075 -0.129076
v -0.126275 0.099440 -0.129076
v -0.133957 0.099440 -0.169894
v -0.133957 0.084075 -0.169894
v -0.142842 0.084075 -0.137961
v -0.132036 0.080234 -0.134120
v -0.132036 0.110964 -0.164850
v -0.132036 0.110964 -0.134120
v -0.132036 0.080234 -0.164850
v -0.132036 0.110964 -0.149485
v -0.132036 0.110964 -0.141803
v -0.132036 0.110964 -0.157168
v -0.132036 0.080234 -0.137961
v -0.132036 0.110964 -0.153326
v -0.132036 0.110964 -0.161009
v -0.132036 0.110964 -0.137961
v -0.132036 0.110964 -0.145644
v -0.132036 0.107123 -0.164850
v -0.132036 0.107123 -0.134120
v -0.132036 0.084075 -0.134120
v -0.132036 0.080234 -0.161009
v -0.132036 0.084075 -0.164850
v -0.132036 0.095599 -0.129076
v -0.132036 0.087916 -0.129076
v -0.132036 0.103281 -0.129076
v -0.132036 0.095599 -0.169894
v -0.132036 0.103281 -0.169894
v -0.132036 0.087916 -0.169894
v -0.132036 0.091758 -0.169894
v -0.132036 0.107123 -0.169894
v -0.132036 0.099440 -0.129076
v -0.132036 0.107123 -0.129076
v -0.132036 0.084075 -0.129076
v -0.132036 0.091758 -0.129076
v -0.132036 0.099440 -0.169894
v -0.132036 0.084075 -0.169894
v -0.126275 0.114948 -0.141803
v -0.130116 0.114948 -0.141803
v -0.130116 0.114948 -0.145644
v -0.132036 0.114948 -0.141803
v -0.133957 0.114948 -0.141803
v -0.133957 0.114948 -0.145644
v -0.132036 0.114948 -0.145644
v -0.126275 0.114948 -0.145644
v -0.126275 0.118860 -0.141803
v -0.130116 0.118860 -0.141803
v -0.130116 0.118860 -0.145644
v -0.132036 0.118860 -0.141803
v -0.133957 0.118860 -0.141803
v -0.133957 0.118860 -0.145644
v -0.132036 0.118860 -0.145644
v -0.126275 0.118860 -0.145644
v -0.137071 0.114948 -0.141803
v -0.137071 0.114948 -0.145644
v -0.137071 0.118860 -0.141803
v -0.137071 0.118860 -0.145644
v -0.126275 0.123237 -0.141803
v -0.130116 0.123237 -0.141803
v -0.130116 0.123237 -0.145644
v -0.132036 0.123237 -0.141803
v -0.133957 0.123237 -0.141803
v -0.133957 0.123237 -0.145644
v -0.132036 0.123237 -0.145644
v -0.126275 0.123237 -0.145644
v -0.137071 0.123237 -0.141803
v -0.137071 0.123237 -0.145644
v -0.139375 0.118860 -0.141803
v -0.139375 0.118860 -0.145644
v -0.139375 0.123237 -0.141803
v -0.139375 0.123237 -0.145644
v -0.126275 0.140049 -0.141803
v -0.130116 0.140049 -0.141803
v -0.130116 0.140049 -0.145644
v -0.132036 0.140049 -0.141803
v -0.133957 0.140049 -0.141803
v -0.133957 0.140049 -0.145644
v -0.132036 0.140049 -0.145644
v -0.126275 0.140049 -0.145644
v -0.137071 0.140049 -0.141803
v -0.137071 0.140049 -0.145644
v -0.139375 0.140049 -0.141803
v -0.139375 0.140049 -0.145644
v -0.126275 0.145605 -0.141803
v -0.130116 0.145605 -0.141803
v -0.130116 0.145605 -0.145644
v -0.132036 0.145605 -0.141803
v -0.133957 0.145605 -0.141803
v -0.133957 0.145605 -0.145644
v -0.132036 0.145605 -0.145644
v -0.126275 0.145605 -0.145644
v -0.137071 0.145605 -0.141803
v -0.137071 0.145605 -0.145644
v -0.126275 0.150587 -0.141803
v -0.130116 0.150587 -0.141803
v -0.130116 0.150587 -0.145644
v -0.132036 0.150587 -0.141803
v -0.133957 0.150587 -0.141803
v -0.133957 0.150587 -0.145644
v -0.132036 0.150587 -0.145644
v -0.126275 0.150587 -0.145644
v -0.126275 0.095599 -0.126653
v -0.126275 0.091758 -0.126653
v -0.126275 0.070060 -0.149485
v -0.133957 0.065615 -0.168108
v -0.133957 0.070060 -0.168108
v -0.132036 0.070060 -0.149485
v -0.130116 0.070060 -0.149485
v -0.130116 0.070060 -0.145644
v -0.130116 0.070060 -0.137961
v -0.130116 0.070060 -0.141803
v -0.126275 0.070060 -0.141803
v -0.132036 0.070060 -0.141803
v -0.126275 0.070060 -0.168108
v -0.126275 0.065615 -0.168108
v -0.130116 0.070060 -0.161009
v -0.133957 0.070060 -0.153326
v -0.133957 0.070060 -0.157168
v -0.133957 0.070060 -0.149485
v -0.130116 0.065615 -0.168108
v -0.130116 0.070060 -0.168108
v -0.126275 0.070060 -0.161009
v -0.133957 0.070060 -0.137961
v -0.133957 0.070060 -0.141803
v -0.132036 0.070060 -0.137961
v -0.126275 0.070060 -0.137961
v -0.126275 0.070060 -0.145644
v -0.133957 0.070060 -0.145644
v -0.132036 0.070060 -0.145644
v -0.133957 0.070060 -0.161009
v -0.132036 0.070060 -0.161009
v -0.133957 0.076670 -0.141803
v -0.133957 0.076670 -0.149485
v -0.133957 0.076670 -0.145644
v -0.126275 0.076670 -0.137961
v -0.133957 0.076670 -0.137961
v -0.126275 0.076670 -0.161009
v -0.132036 0.076670 -0.161009
v -0.130116 0.076670 -0.161009
v -0.133957 0.076670 -0.161009
v -0.133957 0.076670 -0.153326
v -0.133957 0.076670 -0.157168
v -0.130116 0.076670 -0.137961
v -0.132036 0.076670 -0.137961
v -0.126275 0.076670 -0.133680
v -0.126275 0.070060 -0.133680
v -0.133957 0.076670 -0.133680
v -0.133957 0.070060 -0.133680
v -0.132036 0.076670 -0.133680
v -0.132036 0.070060 -0.133680
v -0.130116 0.070060 -0.133680
v -0.130116 0.076670 -0.133680
v -0.132036 0.065485 -0.137961
v -0.130116 0.065485 -0.137961
v -0.126275 0.065485 -0.137961
v -0.133957 0.065485 -0.137961
v -0.132036 0.065485 -0.133680
v -0.130116 0.065485 -0.133680
v -0.126275 0.065485 -0.133680
v -0.133957 0.065485 -0.133680
v -0.132036 0.070060 -0.130827
v -0.130116 0.070060 -0.130827
v -0.126275 0.070060 -0.130827
v -0.133957 0.070060 -0.130827
v -0.132036 0.065485 -0.130827
v -0.130116 0.065485 -0.130827
v -0.126275 0.065485 -0.130827
v -0.133957 0.065485 -0.130827
v -0.126275 0.065615 -0.149485
v -0.132036 0.056110 -0.133419
v -0.133957 0.056110 -0.133419
v -0.132036 0.065615 -0.149485
v -0.130116 0.065615 -0.149485
v -0.130116 0.056110 -0.168108
v -0.132036 0.056110 -0.168108
v -0.133957 0.056110 -0.157168
v -0.126275 0.052108 -0.153326
v -0.130116 0.052108 -0.153326
v -0.133957 0.065615 -0.153326
v -0.133957 0.065615 -0.157168
v -0.133957 0.065615 -0.149485
v -0.132036 0.052108 -0.153326
v -0.126275 0.052108 -0.157168
v -0.133957 0.065615 -0.161009
v -0.130116 0.052108 -0.157168
v -0.132036 0.070060 -0.168108
v -0.132036 0.065615 -0.168108
v -0.132036 0.052108 -0.157168
v -0.132036 0.052108 -0.161009
v -0.130116 0.052108 -0.161009
v -0.126275 0.052108 -0.161009
v -0.133957 0.052108 -0.168108
v -0.132036 0.052108 -0.168108
v -0.130116 0.052108 -0.168108
v -0.126275 0.052108 -0.168108
v -0.133957 0.052108 -0.161009
v -0.133957 0.052108 -0.157168
v -0.133957 0.052108 -0.153326
v -0.133957 0.056110 -0.153326
v -0.133957 0.056110 -0.168108
v -0.130116 0.056110 -0.153326
v -0.133957 0.056110 -0.161009
v -0.126275 0.056110 -0.168108
v -0.126275 0.056110 -0.153326
v -0.132036 0.056110 -0.153326
v -0.132036 0.065615 -0.153326
v -0.130116 0.065615 -0.153326
v -0.126275 0.065615 -0.153326
v -0.130116 0.056110 -0.133419
v -0.126275 0.056110 -0.133419
v -0.133957 0.052108 -0.133419
v -0.132036 0.052108 -0.133419
v -0.130116 0.052108 -0.133419
v -0.126275 0.052108 -0.133419
v -0.126275 0.070060 -0.174884
v -0.126275 0.065615 -0.174884
v -0.126275 0.075271 -0.168108
v -0.126275 0.075271 -0.174884
v -0.133957 0.052108 -0.143373
v -0.132036 0.052108 -0.143373
v -0.126275 0.056110 -0.143373
v -0.126275 0.052108 -0.143373
v -0.130116 0.056110 -0.143373
v -0.130116 0.052108 -0.143373
v -0.132036 0.056110 -0.143373
v -0.133957 0.056110 -0.143373
vn 1.0000 -0.0000 -0.0000
vn -0.0000 -0.0000 -1.0000
vn -0.0000 -1.0000 -0.0000
vn -0.0000 1.0000 -0.0000
vn -0.0000 -0.0000 1.0000
vn -1.0000 -0.0000 -0.0000
vt 0.207772 0.269194
vt 0.207772 0.264077
vt 0.202655 0.269194
vt 0.202655 0.264077
vt 0.192419 0.305018
vt 0.187302 0.305018
vt 0.202655 0.289665
vt 0.207772 0.289665
vt 0.207772 0.284548
vt 0.202655 0.284548
vt 0.192419 0.269194
vt 0.187302 0.269194
vt 0.187302 0.264077
vt 0.192419 0.264077
vt 0.207772 0.299901
vt 0.207772 0.294783
vt 0.200096 0.269194
vt 0.197537 0.269194
vt 0.197537 0.264077
vt 0.200096 0.264077
vt 0.202655 0.299901
vt 0.202655 0.294783
vt 0.200096 0.305018
vt 0.197537 0.305018
vt 0.202655 0.279430
vt 0.207772 0.279430
vt 0.207772 0.274312
vt 0.202655 0.274312
vt 0.214493 0.299901
vt 0.214493 0.289665
vt 0.214493 0.284548
vt 0.214493 0.294783
vt 0.202655 0.264077
vt 0.202655 0.264077
vt 0.200096 0.264077
vt 0.197537 0.264077
vt 0.207772 0.305018
vt 0.202655 0.305018
vt 0.197537 0.299901
vt 0.192419 0.299901
vt 0.187302 0.299901
vt 0.200096 0.299901
vt 0.214493 0.269194
vt 0.214493 0.279430
vt 0.214493 0.274312
vt 0.187302 0.264077
vt 0.192419 0.264077
vt 0.200096 0.264077
vt 0.192419 0.289665
vt 0.187302 0.289665
vt 0.187302 0.284548
vt 0.192419 0.284548
vt 0.192419 0.279430
vt 0.187302 0.279430
vt 0.187302 0.274312
vt 0.192419 0.274312
vt 0.200096 0.279430
vt 0.197537 0.279430
vt 0.197537 0.274312
vt 0.200096 0.274312
vt 0.187302 0.294783
vt 0.192419 0.294783
vt 0.197537 0.294783
vt 0.200096 0.294783
vt 0.319236 0.850212
vt 0.316678 0.850212
vt 0.316678 0.845094
vt 0.319236 0.845094
vt 0.197537 0.289665
vt 0.197537 0.284548
vt 0.200096 0.284548
vt 0.088768 0.978377
vt 0.086209 0.978377
vt 0.086209 0.973259
vt 0.088768 0.973259
vt 0.554489 0.684938
vt 0.559607 0.684938
vt 0.316678 0.855330
vt 0.311560 0.855330
vt 0.311560 0.850212
vt 0.820584 0.897087
vt 0.815466 0.897087
vt 0.815466 0.891969
vt 0.820584 0.891969
vt 0.200096 0.289665
vt 0.202655 0.264077
vt 0.578396 0.672206
vt 0.573279 0.672206
vt 0.580955 0.672206
vt 0.583514 0.672206
vt 0.554489 0.679820
vt 0.559607 0.679820
vt 0.195584 0.334389
vt 0.198143 0.334389
vt 0.195584 0.334389
vt 0.200702 0.334389
vt 0.190466 0.334389
vt 0.200702 0.334389
vt 0.197537 0.264077
vt 0.192419 0.264077
vt 0.187302 0.264077
vt 0.202655 0.264077
vt 0.202655 0.264077
vt 0.197537 0.264077
vt 0.187302 0.264077
vt 0.200096 0.264077
vt 0.190466 0.334389
s 0
usemtl Palitrs
f 139/1/1 61/1/1 4/2/1 33/2/1
f 138/3/2 32/1/2 2/2/2 36/4/2
f 137/4/3 36/4/3 2/2/3 60/2/3
f 136/4/3 65/4/3 7/2/3 54/2/3
f 135/5/4 42/5/4 11/6/4 44/6/4
f 134/5/4 68/5/4 13/6/4 45/6/4
f 133/7/2 38/8/2 6/9/2 47/10/2
f 132/11/5 71/12/5 10/13/5 41/14/5
f 131/8/1 55/8/1 8/9/1 50/9/1
f 130/1/1 73/1/1 7/2/1 39/2/1
f 128/1/1 75/1/1 22/2/1 60/2/1
f 124/15/1 34/15/1 17/16/1 78/16/1
f 259/17/5 81/18/5 24/19/5 245/20/5
f 117/21/2 59/15/2 21/16/2 84/22/2
f 256/23/4 249/23/4 28/24/4 86/24/4
f 255/23/4 250/23/4 29/24/4 87/24/4
f 113/5/4 89/5/4 27/6/4 67/6/4
f 254/23/4 246/23/4 25/24/4 90/24/4
f 253/23/4 251/23/4 30/24/4 91/24/4
f 110/5/4 93/5/4 26/6/4 66/6/4
f 108/4/3 95/4/3 16/2/3 33/2/3
f 107/14/3 57/14/3 19/19/3 96/19/3
f 106/4/3 97/4/3 22/2/3 39/2/3
f 105/25/2 53/26/2 15/27/2 98/28/2
f 104/11/2 99/18/2 19/19/2 57/14/2
f 103/26/1 40/26/1 23/27/1 100/27/1
f 102/1/1 101/1/1 16/2/1 54/2/1
f 73/1/1 102/1/1 54/2/1 7/2/1
f 50/9/1 8/9/1 40/26/1 103/26/1
f 80/28/1 181/28/1 225/3/1 121/3/1
f 77/15/4 205/29/4 232/29/4 126/15/4
f 69/12/2 104/11/2 57/14/2 12/13/2
f 125/8/2 231/30/2 162/31/2 72/9/2
f 259/17/3 272/17/3 184/18/3 81/18/3
f 76/16/2 174/32/2 231/30/2 125/8/2
f 47/10/2 6/9/2 53/26/2 105/25/2
f 138/3/1 243/3/1 211/28/1 98/28/1
f 65/4/3 106/4/3 39/2/3 7/2/3
f 43/13/3 12/13/3 57/14/3 107/14/3
f 384/33/1 370/4/1 371/4/1 379/4/1
f 245/20/3 252/20/3 108/4/3 62/4/3
f 62/4/3 108/4/3 33/2/3 4/2/3
f 389/34/2 377/4/2 378/20/2 387/35/2
f 10/13/3 64/13/3 109/14/3 41/14/3
f 41/14/3 109/14/3 94/19/3 24/19/3
f 373/14/6 404/14/6 408/14/6 395/14/6
f 388/36/2 363/19/2 369/14/2 385/14/2
f 379/4/1 371/4/1 375/4/1 381/4/1
f 91/24/4 30/24/4 93/5/4 110/5/4
f 28/24/4 91/24/4 110/5/4 68/5/4
f 68/5/4 110/5/4 66/6/4 13/6/4
f 52/37/4 14/37/4 92/38/4 111/38/4
f 5/37/4 52/37/4 111/38/4 46/38/4
f 249/23/4 253/23/4 91/24/4 28/24/4
f 31/37/4 1/37/4 63/38/4 112/38/4
f 14/37/4 31/37/4 112/38/4 92/38/4
f 251/23/4 254/23/4 90/24/4 30/24/4
f 87/24/4 29/24/4 89/5/4 113/5/4
f 18/24/4 87/24/4 113/5/4 56/5/4
f 56/5/4 113/5/4 67/6/4 9/6/4
f 58/37/4 20/37/4 88/38/4 114/38/4
f 3/37/4 58/37/4 114/38/4 35/38/4
f 247/23/4 255/23/4 87/24/4 18/24/4
f 37/37/4 5/37/4 46/38/4 115/38/4
f 20/37/4 37/37/4 115/38/4 88/38/4
f 29/24/5 277/24/5 276/5/5 89/5/5
f 261/17/3 275/17/3 243/3/3 138/3/3
f 42/5/2 25/24/2 85/39/2 116/40/2
f 11/6/2 42/5/2 116/40/2 48/41/2
f 63/38/2 1/37/2 59/15/2 117/21/2
f 246/23/2 63/38/2 117/21/2 257/42/2
f 120/40/4 224/40/4 208/39/4 83/39/4
f 73/1/3 166/43/3 213/43/3 102/1/3
f 78/16/5 206/32/5 230/29/5 124/15/5
f 75/1/3 172/43/3 237/43/3 130/1/3
f 49/41/4 202/41/4 224/40/4 120/40/4
f 102/1/3 213/43/3 199/43/3 101/1/3
f 130/1/3 237/43/3 166/43/3 73/1/3
f 119/21/1 223/21/1 186/22/1 82/22/1
f 124/15/4 230/29/4 207/29/4 79/15/4
f 84/22/1 209/22/1 221/21/1 117/21/1
f 258/42/4 271/42/4 223/21/4 119/21/4
f 257/42/4 269/42/4 210/39/4 85/39/4
f 118/7/1 222/7/1 154/10/1 70/10/1
f 123/15/4 229/29/4 204/29/4 51/15/4
f 17/16/5 82/22/5 118/7/5 55/8/5
f 55/8/5 118/7/5 70/10/5 8/9/5
f 247/23/5 18/24/5 83/39/5 258/42/5
f 3/37/5 35/38/5 119/21/5 34/15/5
f 34/15/5 119/21/5 82/22/5 17/16/5
f 56/5/5 9/6/5 49/41/5 120/40/5
f 18/24/5 56/5/5 120/40/5 83/39/5
f 129/26/2 235/44/2 169/45/2 74/27/2
f 98/28/1 211/28/1 218/25/1 105/25/1
f 23/27/5 80/28/5 121/3/5 61/1/5
f 61/1/5 121/3/5 62/4/5 4/2/5
f 8/9/5 70/10/5 122/25/5 40/26/5
f 40/26/5 122/25/5 80/28/5 23/27/5
f 47/10/1 200/10/1 242/7/1 133/7/1
f 82/22/1 186/22/1 222/7/1 118/7/1
f 79/15/4 207/29/4 229/29/4 123/15/4
f 72/9/2 162/31/2 235/44/2 129/26/2
f 105/25/1 218/25/1 200/10/1 47/10/1
f 133/7/1 242/7/1 209/22/1 84/22/1
f 37/37/1 20/37/1 79/15/1 123/15/1
f 5/37/1 37/37/1 123/15/1 51/15/1
f 116/40/4 220/40/4 201/41/4 48/41/4
f 58/37/1 3/37/1 34/15/1 124/15/1
f 20/37/1 58/37/1 124/15/1 79/15/1
f 21/16/1 76/16/1 125/8/1 38/8/1
f 38/8/1 125/8/1 72/9/1 6/9/1
f 31/37/1 14/37/1 77/15/1 126/15/1
f 1/37/1 31/37/1 126/15/1 59/15/1
f 59/15/1 126/15/1 76/16/1 21/16/1
f 52/37/1 5/37/1 51/15/1 127/15/1
f 14/37/1 52/37/1 127/15/1 77/15/1
f 85/39/4 210/39/4 220/40/4 116/40/4
f 15/27/1 74/27/1 128/1/1 32/1/1
f 32/1/1 128/1/1 60/2/1 2/2/1
f 6/9/1 72/9/1 129/26/1 53/26/1
f 53/26/1 129/26/1 74/27/1 15/27/1
f 74/27/2 169/45/2 234/43/2 128/1/2
f 139/1/5 244/43/5 212/45/5 100/27/5
f 75/1/1 130/1/1 39/2/1 22/2/1
f 101/1/3 199/43/3 244/43/3 139/1/3
f 128/1/3 234/43/3 172/43/3 75/1/3
f 78/16/1 17/16/1 55/8/1 131/8/1
f 81/18/3 184/18/3 240/11/3 132/11/3
f 81/18/5 132/11/5 41/14/5 24/19/5
f 132/11/3 240/11/3 158/12/3 71/12/3
f 122/25/1 226/25/1 181/28/1 80/28/1
f 100/27/5 212/45/5 215/44/5 103/26/5
f 127/15/4 233/29/4 205/29/4 77/15/4
f 69/12/3 152/12/3 216/11/3 104/11/3
f 50/9/5 203/31/5 239/30/5 131/8/5
f 70/10/1 154/10/1 226/25/1 122/25/1
f 103/26/5 215/44/5 203/31/5 50/9/5
f 51/15/4 204/29/4 233/29/4 127/15/4
f 84/22/2 21/16/2 38/8/2 133/7/2
f 104/11/3 216/11/3 195/18/3 99/18/3
f 131/8/5 239/30/5 206/32/5 78/16/5
f 86/24/4 28/24/4 68/5/4 134/5/4
f 115/38/1 281/38/1 280/38/1 88/38/1
f 89/5/4 134/5/4 45/6/4 27/6/4
f 90/24/4 25/24/4 42/5/4 135/5/4
f 30/24/4 90/24/4 135/5/4 93/5/4
f 93/5/4 135/5/4 44/6/4 26/6/4
f 382/46/5 349/13/5 373/14/5 383/47/5
f 392/19/4 401/19/4 398/48/4 393/48/4
f 95/4/3 136/4/3 54/2/3 16/2/3
f 260/20/3 248/20/3 36/4/3 137/4/3
f 385/14/2 369/14/2 362/13/2 386/13/2
f 97/4/3 137/4/3 60/2/3 22/2/3
f 98/28/2 15/27/2 32/1/2 138/3/2
f 261/17/2 138/3/2 36/4/2 248/20/2
f 126/15/2 232/29/2 174/32/2 76/16/2
f 100/27/1 23/27/1 61/1/1 139/1/1
f 101/1/1 139/1/1 33/2/1 16/2/1
f 241/49/5 156/50/5 143/51/5 142/52/5
f 238/30/1 164/30/1 146/31/1 145/31/1
f 236/44/1 147/44/1 167/45/1 168/45/1
f 235/44/1 171/44/1 170/45/1 169/45/1
f 233/29/1 204/29/1 165/32/1 173/32/1
f 232/29/1 205/29/1 175/32/1 174/32/1
f 231/30/1 176/30/1 163/31/1 162/31/1
f 229/29/1 207/29/1 178/32/1 177/32/1
f 228/30/1 179/30/1 161/31/1 160/31/1
f 227/53/5 144/54/5 159/55/5 180/56/5
f 273/57/5 183/58/5 182/59/5 263/60/5
f 224/40/5 202/41/5 157/61/5 185/62/5
f 271/42/5 208/39/5 187/63/5 264/64/5
f 270/65/5 188/66/5 155/67/5 262/68/5
f 220/40/2 210/39/2 190/63/2 189/62/2
f 219/49/2 191/69/2 149/70/2 148/52/2
f 217/53/2 194/58/2 193/59/2 192/56/2
f 214/44/1 198/44/1 197/45/1 196/45/1
f 196/45/1 197/45/1 199/43/1 213/43/1
f 167/45/1 196/45/1 213/43/1 166/43/1
f 160/31/1 161/31/1 198/44/1 214/44/1
f 146/31/1 160/31/1 214/44/1 147/44/1
f 147/44/1 214/44/1 196/45/1 167/45/1
f 161/31/1 203/31/1 215/44/1 198/44/1
f 198/44/1 215/44/1 212/45/1 197/45/1
f 192/56/2 193/59/2 195/18/2 216/11/2
f 153/55/2 192/56/2 216/11/2 152/12/2
f 148/52/2 149/70/2 194/58/2 217/53/2
f 140/51/2 148/52/2 217/53/2 141/54/2
f 141/54/2 217/53/2 192/56/2 153/55/2
f 265/71/2 200/10/2 218/25/2 268/57/2
f 268/57/2 218/25/2 211/28/2 267/60/2
f 189/62/2 190/63/2 191/69/2 219/49/2
f 151/61/2 189/62/2 219/49/2 150/50/2
f 150/50/2 219/49/2 148/52/2 140/51/2
f 201/41/2 220/40/2 189/62/2 151/61/2
f 269/42/2 221/21/2 209/22/2 266/64/2
f 264/72/5 187/73/5 188/74/5 270/75/5
f 208/39/5 224/40/5 185/62/5 187/63/5
f 263/60/5 182/59/5 184/18/5 272/17/5
f 262/71/5 155/70/5 183/58/5 273/57/5
f 143/76/4 341/76/4 340/77/4 142/77/4
f 155/70/5 142/52/5 227/53/5 183/58/5
f 183/58/5 227/53/5 180/56/5 182/59/5
f 177/32/1 178/32/1 179/30/1 228/30/1
f 165/32/1 177/32/1 228/30/1 164/30/1
f 164/30/1 228/30/1 160/31/1 146/31/1
f 204/29/1 229/29/1 177/32/1 165/32/1
f 207/29/1 230/29/1 206/32/1 178/32/1
f 174/32/1 175/32/1 176/30/1 231/30/1
f 205/29/1 233/29/1 173/32/1 175/32/1
f 169/45/1 170/45/1 172/43/1 234/43/1
f 162/31/1 163/31/1 171/44/1 235/44/1
f 145/31/1 146/31/1 147/44/1 236/44/1
f 163/31/1 145/31/1 236/44/1 171/44/1
f 171/44/1 236/44/1 168/45/1 170/45/1
f 168/45/1 167/45/1 166/43/1 237/43/1
f 170/45/1 168/45/1 237/43/1 172/43/1
f 173/32/1 165/32/1 164/30/1 238/30/1
f 175/32/1 173/32/1 238/30/1 176/30/1
f 176/30/1 238/30/1 145/31/1 163/31/1
f 178/32/1 206/32/1 239/30/1 179/30/1
f 179/30/1 239/30/1 203/31/1 161/31/1
f 180/56/5 159/55/5 158/12/5 240/11/5
f 182/59/5 180/56/5 240/11/5 184/18/5
f 185/62/5 157/61/5 156/50/5 241/49/5
f 187/78/5 185/79/5 241/80/5 188/66/5
f 188/81/5 241/82/5 142/83/5 155/84/5
f 266/64/2 209/22/2 242/7/2 274/85/2
f 274/85/2 242/7/2 200/10/2 265/71/2
f 267/60/2 211/28/2 243/3/2 275/17/2
f 197/45/1 212/45/1 244/43/1 199/43/1
f 193/59/2 267/60/2 275/17/2 195/18/2
f 191/69/2 274/85/2 265/71/2 149/70/2
f 190/63/2 266/64/2 274/85/2 191/69/2
f 154/10/5 262/71/5 273/57/5 226/25/5
f 181/28/5 263/60/5 272/17/5 225/3/5
f 186/22/5 264/64/5 270/85/5 222/7/5
f 210/39/2 269/42/2 266/64/2 190/63/2
f 194/58/2 268/57/2 267/60/2 193/59/2
f 149/70/2 265/71/2 268/57/2 194/58/2
f 222/7/5 270/85/5 262/71/5 154/10/5
f 223/21/5 271/42/5 264/64/5 186/22/5
f 226/25/5 273/57/5 263/60/5 181/28/5
f 99/18/2 261/17/2 248/20/2 19/19/2
f 381/4/1 375/4/1 366/4/1 380/4/1
f 96/19/3 19/19/3 248/20/3 260/20/3
f 387/35/2 378/20/2 363/19/2 388/36/2
f 380/4/1 366/4/1 364/4/1 390/4/1
f 35/38/5 247/23/5 258/42/5 119/21/5
f 117/21/4 221/21/4 269/42/4 257/42/4
f 83/39/4 208/39/4 271/42/4 258/42/4
f 25/24/2 246/23/2 257/42/2 85/39/2
f 99/18/3 195/18/3 275/17/3 261/17/3
f 256/23/2 282/23/2 281/38/2 115/38/2
f 35/38/4 114/38/4 255/23/4 247/23/4
f 92/38/4 112/38/4 254/23/4 251/23/4
f 46/38/4 111/38/4 253/23/4 249/23/4
f 24/19/3 94/19/3 252/20/3 245/20/3
f 391/86/1 365/4/1 377/4/1 389/34/1
f 390/4/1 364/4/1 365/4/1 391/86/1
f 383/47/4 394/47/4 401/19/4 392/19/4
f 121/3/3 225/3/3 272/17/3 259/17/3
f 111/38/4 92/38/4 251/23/4 253/23/4
f 112/38/4 63/38/4 246/23/4 254/23/4
f 114/38/4 88/38/4 250/23/4 255/23/4
f 115/38/4 46/38/4 249/23/4 256/23/4
f 121/3/5 259/17/5 245/20/5 62/4/5
f 278/24/2 286/24/2 290/23/2 282/23/2
f 289/38/2 295/38/2 293/38/2 281/38/2
f 276/5/6 284/5/6 291/5/6 283/5/6
f 89/5/6 276/5/6 283/5/6 134/5/6
f 88/38/5 280/38/5 279/23/5 250/23/5
f 250/23/5 279/23/5 277/24/5 29/24/5
f 86/24/2 278/24/2 282/23/2 256/23/2
f 134/5/2 283/5/2 278/24/2 86/24/2
f 286/24/2 298/24/2 302/23/2 290/23/2
f 289/38/2 301/38/2 305/38/2 295/38/2
f 290/23/2 302/23/2 301/38/2 289/38/2
f 283/5/2 291/5/2 286/24/2 278/24/2
f 282/23/2 290/23/2 289/38/2 281/38/2
f 280/38/5 288/38/5 287/23/5 279/23/5
f 277/87/5 285/87/5 284/88/5 276/88/5
f 279/89/5 287/89/5 285/87/5 277/87/5
f 293/38/1 295/38/1 294/38/1 292/38/1
f 281/38/3 293/38/3 292/38/3 280/38/3
f 287/89/5 299/89/5 297/87/5 285/87/5
f 280/38/5 292/38/5 294/38/5 288/38/5
f 301/38/2 315/38/2 319/38/2 305/38/2
f 302/23/2 316/23/2 315/38/2 301/38/2
f 309/38/1 321/38/1 320/38/1 308/38/1
f 299/89/5 313/89/5 311/87/5 297/87/5
f 284/5/6 296/5/6 303/5/6 291/5/6
f 288/90/5 300/90/5 299/89/5 287/89/5
f 294/38/5 304/38/5 300/38/5 288/38/5
f 291/5/2 303/5/2 298/24/2 286/24/2
f 305/38/2 309/38/2 307/38/2 295/38/2
f 285/87/5 297/87/5 296/88/5 284/88/5
f 307/38/1 309/38/1 308/38/1 306/38/1
f 297/87/5 311/87/5 310/88/5 296/88/5
f 294/38/5 306/38/5 308/38/5 304/38/5
f 295/38/3 307/38/3 306/38/3 294/38/3
f 313/89/5 325/89/5 323/87/5 311/87/5
f 311/87/5 323/87/5 322/88/5 310/88/5
f 319/38/1 331/38/1 330/38/1 318/38/1
f 317/5/2 329/5/2 324/24/2 312/24/2
f 318/38/4 320/38/4 321/38/4 319/38/4
f 305/38/2 319/38/2 321/38/2 309/38/2
f 298/24/2 312/24/2 316/23/2 302/23/2
f 296/5/6 310/5/6 317/5/6 303/5/6
f 304/38/5 318/38/5 314/38/5 300/38/5
f 300/90/5 314/90/5 313/89/5 299/89/5
f 308/38/5 320/38/5 318/38/5 304/38/5
f 303/5/2 317/5/2 312/24/2 298/24/2
f 328/23/2 338/23/2 337/38/2 327/38/2
f 329/5/2 339/5/2 334/24/2 324/24/2
f 324/24/2 334/24/2 338/23/2 328/23/2
f 326/38/4 330/38/4 331/38/4 327/38/4
f 316/23/2 328/23/2 327/38/2 315/38/2
f 315/38/2 327/38/2 331/38/2 319/38/2
f 312/24/2 324/24/2 328/23/2 316/23/2
f 310/5/6 322/5/6 329/5/6 317/5/6
f 318/38/5 330/38/5 326/38/5 314/38/5
f 314/38/5 326/38/5 325/23/5 313/23/5
f 335/23/4 338/23/4 334/24/4 333/24/4
f 333/24/4 334/24/4 339/5/4 332/5/4
f 336/38/4 337/38/4 338/23/4 335/23/4
f 326/38/5 336/38/5 335/23/5 325/23/5
f 323/24/5 333/24/5 332/5/5 322/5/5
f 325/23/5 335/23/5 333/24/5 323/24/5
f 322/5/6 332/5/6 339/5/6 329/5/6
f 327/38/1 337/38/1 336/38/1 326/38/1
f 340/77/5 341/76/5 342/91/5 343/92/5
f 142/77/1 340/77/1 343/92/1 227/92/1
f 227/92/3 343/92/3 342/91/3 144/91/3
f 374/14/3 346/14/3 352/19/3 353/19/3
f 373/14/3 356/14/3 355/19/3 354/19/3
f 368/19/2 367/19/2 361/14/2 360/14/2
f 352/19/5 423/19/5 422/20/5 351/20/5
f 345/13/5 419/13/5 418/14/5 346/14/5
f 351/20/5 422/20/5 432/4/5 366/4/5
f 436/4/1 347/4/1 348/4/1 377/4/1
f 366/4/1 432/4/1 430/4/1 364/4/1
f 369/14/4 360/14/4 359/13/4 362/13/4
f 466/93/5 470/93/5 469/94/5 420/94/5
f 372/20/3 357/20/3 371/4/3 370/4/3
f 349/13/3 350/13/3 356/14/3 373/14/3
f 344/13/3 345/13/3 346/14/3 374/14/3
f 350/13/3 344/13/3 374/14/3 356/14/3
f 356/14/3 374/14/3 353/19/3 355/19/3
f 376/20/3 351/20/3 366/4/3 375/4/3
f 357/20/3 376/20/3 375/4/3 371/4/3
f 346/14/5 418/14/5 423/19/5 352/19/5
f 377/4/4 348/4/4 438/20/4 378/20/4
f 355/19/3 353/19/3 376/20/3 357/20/3
f 353/19/3 352/19/3 351/20/3 376/20/3
f 354/19/3 355/19/3 357/20/3 372/20/3
f 364/4/1 430/4/1 431/4/1 365/4/1
f 365/4/1 431/4/1 436/4/1 377/4/1
f 94/19/5 392/19/5 393/48/5 252/20/5
f 106/4/1 390/4/1 391/86/1 97/4/1
f 97/4/1 391/86/1 389/34/1 137/4/1
f 65/4/1 380/4/1 390/4/1 106/4/1
f 260/20/2 387/35/2 388/36/2 96/19/2
f 136/4/1 381/4/1 380/4/1 65/4/1
f 107/14/2 385/14/2 386/13/2 43/13/2
f 252/20/5 393/48/5 384/33/5 108/4/5
f 64/13/5 382/46/5 383/47/5 109/14/5
f 95/4/1 379/4/1 381/4/1 136/4/1
f 96/19/2 388/36/2 385/14/2 107/14/2
f 109/14/5 383/47/5 392/19/5 94/19/5
f 137/4/2 389/34/2 387/35/2 260/20/2
f 108/4/1 384/33/1 379/4/1 95/4/1
f 394/47/5 395/14/5 400/19/5 401/19/5
f 398/48/5 399/20/5 397/4/5 396/33/5
f 401/19/5 400/19/5 399/20/5 398/48/5
f 393/48/4 398/48/4 396/33/4 384/33/4
f 373/14/6 395/14/6 394/47/6 383/47/6
f 400/95/4 411/95/4 410/94/4 399/94/4
f 384/33/1 396/33/1 397/4/1 370/4/1
f 372/20/2 402/20/2 403/19/2 354/19/2
f 405/4/3 409/4/3 406/20/3 402/20/3
f 402/20/3 406/20/3 407/19/3 403/19/3
f 403/19/3 407/19/3 408/14/3 404/14/3
f 354/19/2 403/19/2 404/14/2 373/14/2
f 399/94/4 410/94/4 413/96/4 397/96/4
f 397/4/1 409/4/1 405/4/1 370/4/1
f 370/4/2 405/4/2 402/20/2 372/20/2
f 407/95/3 415/95/3 416/97/3 408/97/3
f 410/94/5 414/94/5 417/96/5 413/96/5
f 411/95/5 415/95/5 414/94/5 410/94/5
f 412/97/5 416/97/5 415/95/5 411/95/5
f 409/96/3 417/96/3 414/94/3 406/94/3
f 406/94/3 414/94/3 415/95/3 407/95/3
f 408/97/6 416/97/6 412/97/6 395/97/6
f 397/96/1 413/96/1 417/96/1 409/96/1
f 395/97/4 412/97/4 411/95/4 400/95/4
f 420/94/5 469/94/5 468/96/5 421/98/5
f 367/19/2 425/99/2 459/100/2 361/14/2
f 361/14/2 459/100/2 424/101/2 358/13/2
f 462/13/5 454/101/5 460/100/5 465/14/5
f 436/4/1 458/102/1 456/4/1 347/4/1
f 463/20/5 461/20/5 455/103/5 430/4/5
f 431/4/1 427/102/1 458/102/1 436/4/1
f 464/104/5 457/104/5 461/20/5 463/20/5
f 465/14/5 460/100/5 457/104/5 464/104/5
f 347/4/2 456/4/2 426/20/2 439/20/2
f 430/4/1 455/103/1 427/102/1 431/4/1
f 434/13/3 441/105/3 435/14/3 428/14/3
f 438/20/2 439/20/2 367/19/2 368/19/2
f 358/13/3 474/13/3 475/14/3 361/14/3
f 348/4/2 347/4/2 439/20/2 438/20/2
f 433/20/3 440/20/3 452/4/3 453/4/3
f 429/104/3 437/104/3 440/20/3 433/20/3
f 363/19/4 368/19/4 360/14/4 369/14/4
f 428/14/3 435/14/3 437/104/3 429/104/3
f 378/20/4 438/20/4 368/19/4 363/19/4
f 435/14/3 445/14/3 443/104/3 437/104/3
f 437/104/3 443/104/3 442/106/3 440/20/3
f 440/20/3 442/106/3 451/4/3 452/4/3
f 441/105/3 444/105/3 445/14/3 435/14/3
f 442/106/3 447/20/3 446/4/3 451/4/3
f 443/104/3 448/19/3 447/20/3 442/106/3
f 445/14/3 450/14/3 448/19/3 443/104/3
f 439/20/2 426/20/2 425/99/2 367/19/2
f 425/99/2 448/19/2 450/14/2 459/100/2
f 459/100/2 450/14/2 449/13/2 424/101/2
f 454/101/5 434/13/5 428/14/5 460/100/5
f 458/102/1 451/4/1 446/4/1 456/4/1
f 482/107/4 467/107/4 466/93/4 484/93/4
f 427/102/1 452/4/1 451/4/1 458/102/1
f 483/97/6 471/97/6 467/107/6 482/107/6
f 480/96/3 468/96/3 469/94/3 481/94/3
f 456/4/2 446/4/2 447/20/2 426/20/2
f 455/103/1 453/4/1 452/4/1 427/102/1
f 426/20/2 447/20/2 448/19/2 425/99/2
f 444/105/3 449/13/3 450/14/3 445/14/3
f 423/19/3 464/104/3 463/20/3 422/20/3
f 418/14/3 465/14/3 464/104/3 423/19/3
f 419/13/3 462/13/3 465/14/3 418/14/3
f 422/20/3 463/20/3 430/4/3 432/4/3
f 467/107/5 471/97/5 470/93/5 466/93/5
f 481/94/3 469/94/3 470/93/3 485/93/3
f 485/93/3 470/93/3 471/97/3 483/97/3
f 484/93/4 466/93/4 420/94/4 486/94/4
f 487/98/1 421/98/1 468/96/1 480/96/1
f 486/94/4 420/94/4 421/98/4 487/98/4
f 472/14/2 475/14/2 474/13/2 473/13/2
f 361/14/1 475/14/1 472/14/1 360/14/1
f 473/13/2 479/13/2 478/14/2 472/14/2
f 476/14/4 478/14/4 479/13/4 477/13/4
f 472/14/1 478/14/1 476/14/1 360/14/1
f 360/14/5 476/14/5 477/13/5 359/13/5
f 461/20/4 486/20/4 487/103/4 455/103/4
f 455/103/1 487/103/1 480/4/1 453/4/1
f 457/104/4 484/104/4 486/20/4 461/20/4
f 429/104/3 485/104/3 483/14/3 428/14/3
f 433/20/3 481/20/3 485/104/3 429/104/3
f 453/4/3 480/4/3 481/20/3 433/20/3
f 428/14/6 483/14/6 482/100/6 460/100/6
f 460/100/4 482/100/4 484/104/4 457/104/4
f 609/1/6 513/2/6 491/2/6 536/1/6
f 608/3/2 516/4/2 489/2/2 512/1/2
f 607/4/3 535/2/3 489/2/3 516/4/3
f 606/4/3 529/2/3 494/2/3 539/4/3
f 605/5/4 44/6/4 11/6/4 522/5/4
f 604/5/4 45/6/4 13/6/4 540/5/4
f 603/7/2 524/10/2 493/9/2 518/8/2
f 602/11/5 521/14/5 10/13/5 71/12/5
f 601/8/6 525/9/6 495/9/6 530/8/6
f 600/1/6 519/2/6 494/2/6 543/1/6
f 598/1/6 535/2/6 504/2/6 545/1/6
f 594/15/6 548/16/6 499/16/6 514/15/6
f 715/17/5 701/20/5 506/19/5 551/18/5
f 587/21/2 554/22/2 503/16/2 534/15/2
f 712/23/4 556/24/4 508/24/4 705/23/4
f 711/23/4 557/24/4 509/24/4 706/23/4
f 583/5/4 67/6/4 27/6/4 559/5/4
f 710/23/4 560/24/4 507/24/4 702/23/4
f 709/23/4 561/24/4 510/24/4 707/23/4
f 580/5/4 66/6/4 26/6/4 563/5/4
f 578/4/3 513/2/3 498/2/3 565/4/3
f 577/14/3 566/19/3 501/19/3 532/14/3
f 576/4/3 519/2/3 504/2/3 567/4/3
f 575/25/2 568/28/2 497/27/2 528/26/2
f 574/11/2 532/14/2 501/19/2 569/18/2
f 573/26/6 570/27/6 505/27/6 520/26/6
f 572/1/6 529/2/6 498/2/6 571/1/6
f 543/1/6 494/2/6 529/2/6 572/1/6
f 525/9/6 573/26/6 520/26/6 495/9/6
f 550/28/6 591/3/6 681/3/6 639/28/6
f 547/15/4 596/15/4 688/29/4 661/29/4
f 69/12/2 12/13/2 532/14/2 574/11/2
f 595/8/2 542/9/2 620/31/2 687/30/2
f 715/17/3 551/18/3 642/18/3 728/17/3
f 546/16/2 595/8/2 687/30/2 632/32/2
f 524/10/2 575/25/2 528/26/2 493/9/2
f 608/3/6 568/28/6 667/28/6 699/3/6
f 539/4/3 494/2/3 519/2/3 576/4/3
f 43/13/3 577/14/3 532/14/3 12/13/3
f 830/33/6 826/4/6 818/4/6 817/4/6
f 701/20/3 537/4/3 578/4/3 708/20/3
f 537/4/3 491/2/3 513/2/3 578/4/3
f 834/34/2 832/35/2 825/20/2 824/4/2
f 10/13/3 521/14/3 579/14/3 64/13/3
f 521/14/3 506/19/3 564/19/3 579/14/3
f 820/14/1 840/14/1 853/14/1 849/14/1
f 833/36/2 831/14/2 816/14/2 810/19/2
f 826/4/6 828/4/6 822/4/6 818/4/6
f 561/24/4 580/5/4 563/5/4 510/24/4
f 508/24/4 540/5/4 580/5/4 561/24/4
f 540/5/4 13/6/4 66/6/4 580/5/4
f 527/37/4 581/38/4 562/38/4 496/37/4
f 492/37/4 523/38/4 581/38/4 527/37/4
f 705/23/4 508/24/4 561/24/4 709/23/4
f 511/37/4 582/38/4 538/38/4 488/37/4
f 496/37/4 562/38/4 582/38/4 511/37/4
f 707/23/4 510/24/4 560/24/4 710/23/4
f 557/24/4 583/5/4 559/5/4 509/24/4
f 500/24/4 531/5/4 583/5/4 557/24/4
f 531/5/4 9/6/4 67/6/4 583/5/4
f 533/37/4 584/38/4 558/38/4 502/37/4
f 490/37/4 515/38/4 584/38/4 533/37/4
f 703/23/4 500/24/4 557/24/4 711/23/4
f 517/37/4 585/38/4 523/38/4 492/37/4
f 502/37/4 558/38/4 585/38/4 517/37/4
f 509/24/5 559/5/5 732/5/5 733/24/5
f 717/17/3 608/3/3 699/3/3 731/17/3
f 522/5/2 586/40/2 555/39/2 507/24/2
f 11/6/2 48/41/2 586/40/2 522/5/2
f 538/38/2 587/21/2 534/15/2 488/37/2
f 702/23/2 713/42/2 587/21/2 538/38/2
f 590/40/4 553/39/4 664/39/4 680/40/4
f 543/1/3 572/1/3 669/43/3 624/43/3
f 548/16/5 594/15/5 686/29/5 662/32/5
f 545/1/3 600/1/3 693/43/3 630/43/3
f 49/41/4 590/40/4 680/40/4 202/41/4
f 572/1/3 571/1/3 657/43/3 669/43/3
f 600/1/3 543/1/3 624/43/3 693/43/3
f 589/21/6 552/22/6 644/22/6 679/21/6
f 594/15/4 549/15/4 663/29/4 686/29/4
f 554/22/6 587/21/6 677/21/6 665/22/6
f 714/42/4 589/21/4 679/21/4 727/42/4
f 713/42/4 555/39/4 666/39/4 725/42/4
f 588/7/6 541/10/6 616/10/6 678/7/6
f 593/15/4 526/15/4 660/29/4 685/29/4
f 499/16/5 530/8/5 588/7/5 552/22/5
f 530/8/5 495/9/5 541/10/5 588/7/5
f 703/23/5 714/42/5 553/39/5 500/24/5
f 490/37/5 514/15/5 589/21/5 515/38/5
f 514/15/5 499/16/5 552/22/5 589/21/5
f 531/5/5 590/40/5 49/41/5 9/6/5
f 500/24/5 553/39/5 590/40/5 531/5/5
f 599/26/2 544/27/2 627/45/2 691/44/2
f 568/28/6 575/25/6 674/25/6 667/28/6
f 505/27/5 536/1/5 591/3/5 550/28/5
f 536/1/5 491/2/5 537/4/5 591/3/5
f 495/9/5 520/26/5 592/25/5 541/10/5
f 520/26/5 505/27/5 550/28/5 592/25/5
f 524/10/6 603/7/6 698/7/6 658/10/6
f 552/22/6 588/7/6 678/7/6 644/22/6
f 549/15/4 593/15/4 685/29/4 663/29/4
f 542/9/2 599/26/2 691/44/2 620/31/2
f 575/25/6 524/10/6 658/10/6 674/25/6
f 603/7/6 554/22/6 665/22/6 698/7/6
f 517/37/6 593/15/6 549/15/6 502/37/6
f 492/37/6 526/15/6 593/15/6 517/37/6
f 586/40/4 48/41/4 201/41/4 676/40/4
f 533/37/6 594/15/6 514/15/6 490/37/6
f 502/37/6 549/15/6 594/15/6 533/37/6
f 503/16/6 518/8/6 595/8/6 546/16/6
f 518/8/6 493/9/6 542/9/6 595/8/6
f 511/37/6 596/15/6 547/15/6 496/37/6
f 488/37/6 534/15/6 596/15/6 511/37/6
f 534/15/6 503/16/6 546/16/6 596/15/6
f 527/37/6 597/15/6 526/15/6 492/37/6
f 496/37/6 547/15/6 597/15/6 527/37/6
f 555/39/4 586/40/4 676/40/4 666/39/4
f 497/27/6 512/1/6 598/1/6 544/27/6
f 512/1/6 489/2/6 535/2/6 598/1/6
f 493/9/6 528/26/6 599/26/6 542/9/6
f 528/26/6 497/27/6 544/27/6 599/26/6
f 544/27/2 598/1/2 690/43/2 627/45/2
f 609/1/5 570/27/5 668/45/5 700/43/5
f 545/1/6 504/2/6 519/2/6 600/1/6
f 571/1/3 609/1/3 700/43/3 657/43/3
f 598/1/3 545/1/3 630/43/3 690/43/3
f 548/16/6 601/8/6 530/8/6 499/16/6
f 551/18/3 602/11/3 696/11/3 642/18/3
f 551/18/5 506/19/5 521/14/5 602/11/5
f 602/11/3 71/12/3 158/12/3 696/11/3
f 592/25/6 550/28/6 639/28/6 682/25/6
f 570/27/5 573/26/5 671/44/5 668/45/5
f 597/15/4 547/15/4 661/29/4 689/29/4
f 69/12/3 574/11/3 672/11/3 152/12/3
f 525/9/5 601/8/5 695/30/5 659/31/5
f 541/10/6 592/25/6 682/25/6 616/10/6
f 573/26/5 525/9/5 659/31/5 671/44/5
f 526/15/4 597/15/4 689/29/4 660/29/4
f 554/22/2 603/7/2 518/8/2 503/16/2
f 574/11/3 569/18/3 653/18/3 672/11/3
f 601/8/5 548/16/5 662/32/5 695/30/5
f 556/24/4 604/5/4 540/5/4 508/24/4
f 585/38/6 558/38/6 736/38/6 737/38/6
f 559/5/4 27/6/4 45/6/4 604/5/4
f 560/24/4 605/5/4 522/5/4 507/24/4
f 510/24/4 563/5/4 605/5/4 560/24/4
f 563/5/4 26/6/4 44/6/4 605/5/4
f 382/46/5 829/47/5 820/14/5 349/13/5
f 837/19/4 838/48/4 843/48/4 846/19/4
f 565/4/3 498/2/3 529/2/3 606/4/3
f 716/20/3 607/4/3 516/4/3 704/20/3
f 831/14/2 386/13/2 362/13/2 816/14/2
f 567/4/3 504/2/3 535/2/3 607/4/3
f 568/28/2 608/3/2 512/1/2 497/27/2
f 717/17/2 704/20/2 516/4/2 608/3/2
f 596/15/2 546/16/2 632/32/2 688/29/2
f 570/27/6 609/1/6 536/1/6 505/27/6
f 571/1/6 498/2/6 513/2/6 609/1/6
f 697/49/5 610/52/5 143/51/5 156/50/5
f 694/30/6 611/31/6 612/31/6 622/30/6
f 692/44/6 626/45/6 625/45/6 613/44/6
f 691/44/6 627/45/6 628/45/6 629/44/6
f 689/29/6 631/32/6 623/32/6 660/29/6
f 688/29/6 632/32/6 633/32/6 661/29/6
f 687/30/6 620/31/6 621/31/6 634/30/6
f 685/29/6 635/32/6 636/32/6 663/29/6
f 684/30/6 618/31/6 619/31/6 637/30/6
f 683/53/5 638/56/5 159/55/5 144/54/5
f 729/57/5 719/60/5 640/59/5 641/58/5
f 680/40/5 643/62/5 157/61/5 202/41/5
f 727/42/5 720/64/5 645/63/5 664/39/5
f 726/65/5 718/68/5 617/67/5 646/66/5
f 676/40/2 647/62/2 648/63/2 666/39/2
f 675/49/2 614/52/2 615/70/2 649/69/2
f 673/53/2 650/56/2 651/59/2 652/58/2
f 670/44/6 654/45/6 655/45/6 656/44/6
f 654/45/6 669/43/6 657/43/6 655/45/6
f 625/45/6 624/43/6 669/43/6 654/45/6
f 618/31/6 670/44/6 656/44/6 619/31/6
f 612/31/6 613/44/6 670/44/6 618/31/6
f 613/44/6 625/45/6 654/45/6 670/44/6
f 619/31/6 656/44/6 671/44/6 659/31/6
f 656/44/6 655/45/6 668/45/6 671/44/6
f 650/56/2 672/11/2 653/18/2 651/59/2
f 153/55/2 152/12/2 672/11/2 650/56/2
f 614/52/2 673/53/2 652/58/2 615/70/2
f 140/51/2 141/54/2 673/53/2 614/52/2
f 141/54/2 153/55/2 650/56/2 673/53/2
f 721/71/2 724/57/2 674/25/2 658/10/2
f 724/57/2 723/60/2 667/28/2 674/25/2
f 647/62/2 675/49/2 649/69/2 648/63/2
f 151/61/2 150/50/2 675/49/2 647/62/2
f 150/50/2 140/51/2 614/52/2 675/49/2
f 201/41/2 151/61/2 647/62/2 676/40/2
f 725/42/2 722/64/2 665/22/2 677/21/2
f 720/72/5 726/75/5 646/74/5 645/73/5
f 664/39/5 645/63/5 643/62/5 680/40/5
f 719/60/5 728/17/5 642/18/5 640/59/5
f 718/71/5 729/57/5 641/58/5 617/70/5
f 143/76/4 610/77/4 796/77/4 341/76/4
f 617/70/5 641/58/5 683/53/5 610/52/5
f 641/58/5 640/59/5 638/56/5 683/53/5
f 635/32/6 684/30/6 637/30/6 636/32/6
f 623/32/6 622/30/6 684/30/6 635/32/6
f 622/30/6 612/31/6 618/31/6 684/30/6
f 660/29/6 623/32/6 635/32/6 685/29/6
f 663/29/6 636/32/6 662/32/6 686/29/6
f 632/32/6 687/30/6 634/30/6 633/32/6
f 661/29/6 633/32/6 631/32/6 689/29/6
f 627/45/6 690/43/6 630/43/6 628/45/6
f 620/31/6 691/44/6 629/44/6 621/31/6
f 611/31/6 692/44/6 613/44/6 612/31/6
f 621/31/6 629/44/6 692/44/6 611/31/6
f 629/44/6 628/45/6 626/45/6 692/44/6
f 626/45/6 693/43/6 624/43/6 625/45/6
f 628/45/6 630/43/6 693/43/6 626/45/6
f 631/32/6 694/30/6 622/30/6 623/32/6
f 633/32/6 634/30/6 694/30/6 631/32/6
f 634/30/6 621/31/6 611/31/6 694/30/6
f 636/32/6 637/30/6 695/30/6 662/32/6
f 637/30/6 619/31/6 659/31/6 695/30/6
f 638/56/5 696/11/5 158/12/5 159/55/5
f 640/59/5 642/18/5 696/11/5 638/56/5
f 643/62/5 697/49/5 156/50/5 157/61/5
f 645/78/5 646/66/5 697/80/5 643/79/5
f 646/81/5 617/84/5 610/83/5 697/82/5
f 722/64/2 730/85/2 698/7/2 665/22/2
f 730/85/2 721/71/2 658/10/2 698/7/2
f 723/60/2 731/17/2 699/3/2 667/28/2
f 655/45/6 657/43/6 700/43/6 668/45/6
f 651/59/2 653/18/2 731/17/2 723/60/2
f 649/69/2 615/70/2 721/71/2 730/85/2
f 648/63/2 649/69/2 730/85/2 722/64/2
f 616/10/5 682/25/5 729/57/5 718/71/5
f 639/28/5 681/3/5 728/17/5 719/60/5
f 644/22/5 678/7/5 726/85/5 720/64/5
f 666/39/2 648/63/2 722/64/2 725/42/2
f 652/58/2 651/59/2 723/60/2 724/57/2
f 615/70/2 652/58/2 724/57/2 721/71/2
f 678/7/5 616/10/5 718/71/5 726/85/5
f 679/21/5 644/22/5 720/64/5 727/42/5
f 682/25/5 639/28/5 719/60/5 729/57/5
f 569/18/2 501/19/2 704/20/2 717/17/2
f 828/4/6 827/4/6 813/4/6 822/4/6
f 566/19/3 716/20/3 704/20/3 501/19/3
f 832/35/2 833/36/2 810/19/2 825/20/2
f 827/4/6 835/4/6 811/4/6 813/4/6
f 515/38/5 589/21/5 714/42/5 703/23/5
f 587/21/4 713/42/4 725/42/4 677/21/4
f 553/39/4 714/42/4 727/42/4 664/39/4
f 507/24/2 555/39/2 713/42/2 702/23/2
f 569/18/3 717/17/3 731/17/3 653/18/3
f 712/23/2 585/38/2 737/38/2 738/23/2
f 515/38/4 703/23/4 711/23/4 584/38/4
f 562/38/4 707/23/4 710/23/4 582/38/4
f 523/38/4 705/23/4 709/23/4 581/38/4
f 506/19/3 701/20/3 708/20/3 564/19/3
f 836/86/6 834/34/6 824/4/6 812/4/6
f 835/4/6 836/86/6 812/4/6 811/4/6
f 829/47/4 837/19/4 846/19/4 839/47/4
f 591/3/3 715/17/3 728/17/3 681/3/3
f 581/38/4 709/23/4 707/23/4 562/38/4
f 582/38/4 710/23/4 702/23/4 538/38/4
f 584/38/4 711/23/4 706/23/4 558/38/4
f 585/38/4 712/23/4 705/23/4 523/38/4
f 591/3/5 537/4/5 701/20/5 715/17/5
f 734/24/2 738/23/2 746/23/2 742/24/2
f 745/38/2 737/38/2 749/38/2 751/38/2
f 732/5/1 739/5/1 747/5/1 740/5/1
f 559/5/1 604/5/1 739/5/1 732/5/1
f 558/38/5 706/23/5 735/23/5 736/38/5
f 706/23/5 509/24/5 733/24/5 735/23/5
f 556/24/2 712/23/2 738/23/2 734/24/2
f 604/5/2 556/24/2 734/24/2 739/5/2
f 742/24/2 746/23/2 758/23/2 754/24/2
f 745/38/2 751/38/2 761/38/2 757/38/2
f 746/23/2 745/38/2 757/38/2 758/23/2
f 739/5/2 734/24/2 742/24/2 747/5/2
f 738/23/2 737/38/2 745/38/2 746/23/2
f 736/38/5 735/23/5 743/23/5 744/38/5
f 733/87/5 732/88/5 740/88/5 741/87/5
f 735/89/5 733/87/5 741/87/5 743/89/5
f 749/38/6 748/38/6 750/38/6 751/38/6
f 737/38/3 736/38/3 748/38/3 749/38/3
f 743/89/5 741/87/5 753/87/5 755/89/5
f 736/38/5 744/38/5 750/38/5 748/38/5
f 757/38/2 761/38/2 775/38/2 771/38/2
f 758/23/2 757/38/2 771/38/2 772/23/2
f 765/38/6 764/38/6 776/38/6 777/38/6
f 755/89/5 753/87/5 767/87/5 769/89/5
f 740/5/1 747/5/1 759/5/1 752/5/1
f 744/90/5 743/89/5 755/89/5 756/90/5
f 750/38/5 744/38/5 756/38/5 760/38/5
f 747/5/2 742/24/2 754/24/2 759/5/2
f 761/38/2 751/38/2 763/38/2 765/38/2
f 741/87/5 740/88/5 752/88/5 753/87/5
f 763/38/6 762/38/6 764/38/6 765/38/6
f 753/87/5 752/88/5 766/88/5 767/87/5
f 750/38/5 760/38/5 764/38/5 762/38/5
f 751/38/3 750/38/3 762/38/3 763/38/3
f 769/89/5 767/87/5 779/87/5 781/89/5
f 767/87/5 766/88/5 778/88/5 779/87/5
f 775/38/6 774/38/6 786/38/6 787/38/6
f 773/5/2 768/24/2 780/24/2 785/5/2
f 774/38/4 775/38/4 777/38/4 776/38/4
f 761/38/2 765/38/2 777/38/2 775/38/2
f 754/24/2 758/23/2 772/23/2 768/24/2
f 752/5/1 759/5/1 773/5/1 766/5/1
f 760/38/5 756/38/5 770/38/5 774/38/5
f 756/90/5 755/89/5 769/89/5 770/90/5
f 764/38/5 760/38/5 774/38/5 776/38/5
f 759/5/2 754/24/2 768/24/2 773/5/2
f 784/23/2 783/38/2 793/38/2 794/23/2
f 785/5/2 780/24/2 790/24/2 795/5/2
f 780/24/2 784/23/2 794/23/2 790/24/2
f 782/38/4 783/38/4 787/38/4 786/38/4
f 772/23/2 771/38/2 783/38/2 784/23/2
f 771/38/2 775/38/2 787/38/2 783/38/2
f 768/24/2 772/23/2 784/23/2 780/24/2
f 766/5/1 773/5/1 785/5/1 778/5/1
f 774/38/5 770/38/5 782/38/5 786/38/5
f 770/38/5 769/23/5 781/23/5 782/38/5
f 791/23/4 789/24/4 790/24/4 794/23/4
f 789/24/4 788/5/4 795/5/4 790/24/4
f 792/38/4 791/23/4 794/23/4 793/38/4
f 782/38/5 781/23/5 791/23/5 792/38/5
f 779/24/5 778/5/5 788/5/5 789/24/5
f 781/23/5 779/24/5 789/24/5 791/23/5
f 778/5/1 785/5/1 795/5/1 788/5/1
f 783/38/6 782/38/6 792/38/6 793/38/6
f 796/77/5 797/92/5 342/91/5 341/76/5
f 610/77/6 683/92/6 797/92/6 796/77/6
f 683/92/3 144/91/3 342/91/3 797/92/3
f 821/14/3 803/19/3 802/19/3 798/14/3
f 820/14/3 804/19/3 805/19/3 806/14/3
f 815/19/2 808/14/2 809/14/2 814/19/2
f 802/19/5 801/20/5 866/20/5 867/19/5
f 345/13/5 798/14/5 863/14/5 419/13/5
f 801/20/5 813/4/5 875/4/5 866/20/5
f 878/4/6 824/4/6 800/4/6 799/4/6
f 813/4/6 811/4/6 873/4/6 875/4/6
f 816/14/4 362/13/4 359/13/4 808/14/4
f 903/93/5 864/94/5 906/94/5 907/93/5
f 819/20/3 817/4/3 818/4/3 807/20/3
f 349/13/3 820/14/3 806/14/3 350/13/3
f 344/13/3 821/14/3 798/14/3 345/13/3
f 350/13/3 806/14/3 821/14/3 344/13/3
f 806/14/3 805/19/3 803/19/3 821/14/3
f 823/20/3 822/4/3 813/4/3 801/20/3
f 807/20/3 818/4/3 822/4/3 823/20/3
f 798/14/5 802/19/5 867/19/5 863/14/5
f 824/4/4 825/20/4 880/20/4 800/4/4
f 805/19/3 807/20/3 823/20/3 803/19/3
f 803/19/3 823/20/3 801/20/3 802/19/3
f 804/19/3 819/20/3 807/20/3 805/19/3
f 811/4/6 812/4/6 874/4/6 873/4/6
f 812/4/6 824/4/6 878/4/6 874/4/6
f 564/19/5 708/20/5 838/48/5 837/19/5
f 576/4/6 567/4/6 836/86/6 835/4/6
f 567/4/6 607/4/6 834/34/6 836/86/6
f 539/4/6 576/4/6 835/4/6 827/4/6
f 716/20/2 566/19/2 833/36/2 832/35/2
f 606/4/6 539/4/6 827/4/6 828/4/6
f 577/14/2 43/13/2 386/13/2 831/14/2
f 708/20/5 578/4/5 830/33/5 838/48/5
f 64/13/5 579/14/5 829/47/5 382/46/5
f 565/4/6 606/4/6 828/4/6 826/4/6
f 566/19/2 577/14/2 831/14/2 833/36/2
f 579/14/5 564/19/5 837/19/5 829/47/5
f 607/4/2 716/20/2 832/35/2 834/34/2
f 578/4/6 565/4/6 826/4/6 830/33/6
f 839/47/5 846/19/5 845/19/5 840/14/5
f 843/48/5 841/33/5 842/4/5 844/20/5
f 846/19/5 843/48/5 844/20/5 845/19/5
f 838/48/4 830/33/4 841/33/4 843/48/4
f 820/14/1 829/47/1 839/47/1 840/14/1
f 845/95/4 844/94/4 855/94/4 856/95/4
f 830/33/6 817/4/6 842/4/6 841/33/6
f 819/20/2 804/19/2 848/19/2 847/20/2
f 850/4/3 847/20/3 851/20/3 854/4/3
f 847/20/3 848/19/3 852/19/3 851/20/3
f 848/19/3 849/14/3 853/14/3 852/19/3
f 804/19/2 820/14/2 849/14/2 848/19/2
f 844/94/4 842/96/4 858/96/4 855/94/4
f 842/4/6 817/4/6 850/4/6 854/4/6
f 817/4/2 819/20/2 847/20/2 850/4/2
f 852/95/3 853/97/3 861/97/3 860/95/3
f 855/94/5 858/96/5 862/96/5 859/94/5
f 856/95/5 855/94/5 859/94/5 860/95/5
f 857/97/5 856/95/5 860/95/5 861/97/5
f 854/96/3 851/94/3 859/94/3 862/96/3
f 851/94/3 852/95/3 860/95/3 859/94/3
f 853/97/1 840/97/1 857/97/1 861/97/1
f 842/96/6 854/96/6 862/96/6 858/96/6
f 840/97/4 845/95/4 856/95/4 857/97/4
f 864/94/5 865/98/5 905/96/5 906/94/5
f 814/19/2 809/14/2 897/100/2 868/99/2
f 809/14/2 358/13/2 424/101/2 897/100/2
f 462/13/5 902/14/5 898/100/5 454/101/5
f 878/4/6 799/4/6 894/4/6 896/102/6
f 900/20/5 873/4/5 893/103/5 899/20/5
f 874/4/6 878/4/6 896/102/6 870/102/6
f 901/104/5 900/20/5 899/20/5 895/104/5
f 902/14/5 901/104/5 895/104/5 898/100/5
f 799/4/2 881/20/2 869/20/2 894/4/2
f 873/4/6 874/4/6 870/102/6 893/103/6
f 434/13/3 871/14/3 877/14/3 441/105/3
f 880/20/2 815/19/2 814/19/2 881/20/2
f 358/13/3 809/14/3 910/14/3 474/13/3
f 800/4/2 880/20/2 881/20/2 799/4/2
f 876/20/3 892/4/3 891/4/3 882/20/3
f 872/104/3 876/20/3 882/20/3 879/104/3
f 810/19/4 816/14/4 808/14/4 815/19/4
f 871/14/3 872/104/3 879/104/3 877/14/3
f 825/20/4 810/19/4 815/19/4 880/20/4
f 877/14/3 879/104/3 884/104/3 885/14/3
f 879/104/3 882/20/3 883/106/3 884/104/3
f 882/20/3 891/4/3 890/4/3 883/106/3
f 441/105/3 877/14/3 885/14/3 444/105/3
f 883/106/3 890/4/3 886/4/3 887/20/3
f 884/104/3 883/106/3 887/20/3 888/19/3
f 885/14/3 884/104/3 888/19/3 889/14/3
f 881/20/2 814/19/2 868/99/2 869/20/2
f 868/99/2 897/100/2 889/14/2 888/19/2
f 897/100/2 424/101/2 449/13/2 889/14/2
f 454/101/5 898/100/5 871/14/5 434/13/5
f 896/102/6 894/4/6 886/4/6 890/4/6
f 915/107/4 917/93/4 903/93/4 904/107/4
f 870/102/6 896/102/6 890/4/6 891/4/6
f 916/97/1 915/107/1 904/107/1 908/97/1
f 913/96/3 914/94/3 906/94/3 905/96/3
f 894/4/2 869/20/2 887/20/2 886/4/2
f 893/103/6 870/102/6 891/4/6 892/4/6
f 869/20/2 868/99/2 888/19/2 887/20/2
f 444/105/3 885/14/3 889/14/3 449/13/3
f 867/19/3 866/20/3 900/20/3 901/104/3
f 863/14/3 867/19/3 901/104/3 902/14/3
f 419/13/3 863/14/3 902/14/3 462/13/3
f 866/20/3 875/4/3 873/4/3 900/20/3
f 904/107/5 903/93/5 907/93/5 908/97/5
f 914/94/3 918/93/3 907/93/3 906/94/3
f 918/93/3 916/97/3 908/97/3 907/93/3
f 917/93/4 919/94/4 864/94/4 903/93/4
f 920/98/6 913/96/6 905/96/6 865/98/6
f 919/94/4 920/98/4 865/98/4 864/94/4
f 909/14/2 473/13/2 474/13/2 910/14/2
f 809/14/6 808/14/6 909/14/6 910/14/6
f 473/13/2 909/14/2 912/14/2 479/13/2
f 911/14/4 477/13/4 479/13/4 912/14/4
f 909/14/6 808/14/6 911/14/6 912/14/6
f 808/14/5 359/13/5 477/13/5 911/14/5
f 899/20/4 893/103/4 920/103/4 919/20/4
f 893/103/6 892/4/6 913/4/6 920/103/6
f 895/104/4 899/20/4 919/20/4 917/104/4
f 872/104/3 871/14/3 916/14/3 918/104/3
f 876/20/3 872/104/3 918/104/3 914/20/3
f 892/4/3 876/20/3 914/20/3 913/4/3
f 871/14/1 898/100/1 915/100/1 916/14/1
f 898/100/4 895/104/4 917/104/4 915/100/4
