# Blender 3.6.0
# www.blender.org
mtllib 4.mtl
o Cube.020
v 0.018271 0.064307 -0.238621
v 0.016109 0.112875 -0.238621
v 0.018271 0.064307 -0.290988
v 0.018271 0.110339 -0.290988
v 0.010833 0.064307 -0.290988
v 0.003395 0.064307 -0.290988
v -0.004042 0.064307 -0.290988
v -0.004042 0.110339 -0.290988
v 0.003395 0.110339 -0.290988
v 0.010833 0.110339 -0.290988
v 0.018271 0.101611 -0.290988
v 0.018271 0.092883 -0.290988
v 0.018271 0.084156 -0.290988
v 0.018271 0.075428 -0.290988
v 0.018271 0.073035 -0.290988
v 0.018271 0.064307 -0.247349
v 0.018271 0.064307 -0.256076
v 0.018271 0.064307 -0.264804
v 0.018271 0.064307 -0.273532
v 0.018271 0.064307 -0.282260
v 0.018271 0.110339 -0.282260
v 0.018271 0.110339 -0.273532
v 0.018271 0.110339 -0.264804
v 0.018271 0.110339 -0.256076
v 0.018271 0.110339 -0.247349
v 0.018271 0.101611 -0.238621
v 0.018271 0.092883 -0.238621
v 0.018271 0.084156 -0.238621
v 0.018271 0.075428 -0.238621
v 0.018271 0.073035 -0.238621
v -0.004042 0.064307 -0.238621
v 0.003395 0.064307 -0.238621
v 0.010833 0.064307 -0.238621
v 0.010833 0.112875 -0.238621
v 0.005557 0.112875 -0.238621
v -0.004042 0.110339 -0.238621
v 0.010833 0.110339 -0.282260
v 0.010833 0.110339 -0.273532
v 0.010833 0.110339 -0.264804
v 0.010833 0.110339 -0.256076
v 0.010833 0.110339 -0.247349
v 0.003395 0.110339 -0.282260
v 0.003395 0.110339 -0.273532
v 0.003395 0.110339 -0.264804
v 0.003395 0.110339 -0.256076
v 0.003395 0.110339 -0.247349
v -0.004042 0.110339 -0.282260
v -0.004042 0.110339 -0.273532
v -0.004042 0.110339 -0.264804
v -0.004042 0.110339 -0.256076
v -0.004042 0.110339 -0.247349
v -0.004042 0.064307 -0.282260
v -0.004042 0.064307 -0.273532
v -0.004042 0.064307 -0.264804
v -0.004042 0.064307 -0.256076
v -0.004042 0.064307 -0.247349
v 0.003395 0.064307 -0.282260
v 0.003395 0.064307 -0.273532
v 0.003395 0.064307 -0.264804
v 0.003395 0.064307 -0.256076
v 0.003395 0.064307 -0.247349
v 0.010833 0.064307 -0.282260
v 0.010833 0.064307 -0.273532
v 0.010833 0.064307 -0.264804
v 0.010833 0.064307 -0.256076
v 0.010833 0.064307 -0.247349
v 0.010833 0.073035 -0.238621
v 0.003395 0.073035 -0.238621
v -0.004042 0.073035 -0.238621
v 0.010833 0.075428 -0.238621
v 0.003395 0.075428 -0.238621
v -0.004042 0.075428 -0.238621
v 0.010833 0.084156 -0.238621
v -0.004042 0.084156 -0.238621
v 0.010833 0.092883 -0.238621
v 0.003395 0.092883 -0.238621
v -0.004042 0.092883 -0.238621
v 0.010833 0.101611 -0.238621
v 0.003395 0.101611 -0.238621
v -0.004042 0.101611 -0.238621
v 0.018271 0.073035 -0.282260
v 0.018271 0.073035 -0.273532
v 0.018271 0.073035 -0.264804
v 0.018271 0.073035 -0.256076
v 0.018271 0.073035 -0.247349
v 0.018271 0.075428 -0.282260
v 0.018271 0.075428 -0.273532
v 0.018271 0.075428 -0.264804
v 0.018271 0.075428 -0.256076
v 0.018271 0.075428 -0.247349
v 0.018271 0.084156 -0.282260
v 0.018271 0.084156 -0.273532
v 0.018271 0.084156 -0.264804
v 0.018271 0.084156 -0.256076
v 0.018271 0.084156 -0.247349
v 0.018271 0.092883 -0.282260
v 0.018271 0.092883 -0.273532
v 0.018271 0.092883 -0.264804
v 0.018271 0.092883 -0.256076
v 0.018271 0.092883 -0.247349
v 0.018271 0.101611 -0.282260
v 0.018271 0.101611 -0.273532
v 0.018271 0.101611 -0.264804
v 0.018271 0.101611 -0.256076
v 0.018271 0.101611 -0.247349
v -0.004042 0.073035 -0.290988
v 0.003395 0.073035 -0.290988
v 0.010833 0.073035 -0.290988
v -0.004042 0.075428 -0.290988
v 0.003395 0.075428 -0.290988
v 0.010833 0.075428 -0.290988
v -0.004042 0.084156 -0.290988
v 0.003395 0.084156 -0.290988
v 0.010833 0.084156 -0.290988
v -0.004042 0.092883 -0.290988
v 0.003395 0.092883 -0.290988
v 0.010833 0.092883 -0.290988
v -0.004042 0.101611 -0.290988
v 0.003395 0.101611 -0.290988
v 0.010833 0.101611 -0.290988
v 0.018271 0.064307 -0.258148
v 0.018271 0.064307 -0.262733
v 0.018271 0.110339 -0.262733
v 0.018271 0.110339 -0.258148
v 0.010833 0.110339 -0.258148
v 0.010833 0.110339 -0.262733
v 0.003395 0.110339 -0.258148
v 0.003395 0.110339 -0.262733
v -0.004042 0.110339 -0.258148
v -0.004042 0.110339 -0.262733
v -0.004042 0.064307 -0.258148
v -0.004042 0.064307 -0.262733
v 0.003395 0.064307 -0.258148
v 0.003395 0.064307 -0.262733
v 0.010833 0.064307 -0.258148
v 0.010833 0.064307 -0.262733
v 0.018271 0.073035 -0.258148
v 0.018271 0.073035 -0.262733
v 0.018271 0.075428 -0.258148
v 0.018271 0.075428 -0.262733
v 0.018271 0.084156 -0.258148
v 0.018271 0.084156 -0.262733
v 0.018271 0.092883 -0.258148
v 0.018271 0.092883 -0.262733
v 0.018271 0.101611 -0.258148
v 0.018271 0.101611 -0.262733
v 0.018271 0.064307 -0.266876
v 0.018271 0.064307 -0.271461
v 0.018271 0.110339 -0.271461
v 0.018271 0.110339 -0.266876
v 0.010833 0.110339 -0.266876
v 0.010833 0.110339 -0.271461
v 0.003395 0.110339 -0.266876
v 0.003395 0.110339 -0.271461
v -0.004042 0.110339 -0.266876
v -0.004042 0.110339 -0.271461
v -0.004042 0.064307 -0.266876
v -0.004042 0.064307 -0.271461
v 0.003395 0.064307 -0.266876
v 0.003395 0.064307 -0.271461
v 0.010833 0.064307 -0.266876
v 0.010833 0.064307 -0.271461
v 0.018271 0.073035 -0.266876
v 0.018271 0.073035 -0.271461
v 0.018271 0.075428 -0.266876
v 0.018271 0.075428 -0.271461
v 0.018271 0.084156 -0.266876
v 0.018271 0.084156 -0.271461
v 0.018271 0.092883 -0.266876
v 0.018271 0.092883 -0.271461
v 0.018271 0.101611 -0.266876
v 0.018271 0.101611 -0.271461
v 0.018271 0.064307 -0.275603
v 0.018271 0.064307 -0.280188
v 0.018271 0.110339 -0.280188
v 0.018271 0.110339 -0.275603
v 0.010833 0.110339 -0.275603
v 0.010833 0.110339 -0.280188
v 0.003395 0.110339 -0.275603
v 0.003395 0.110339 -0.280188
v -0.004042 0.110339 -0.275603
v -0.004042 0.110339 -0.280188
v -0.004042 0.064307 -0.275603
v -0.004042 0.064307 -0.280188
v 0.003395 0.064307 -0.275603
v 0.003395 0.064307 -0.280188
v 0.010833 0.064307 -0.275603
v 0.010833 0.064307 -0.280188
v 0.018271 0.073035 -0.275603
v 0.018271 0.073035 -0.280188
v 0.018271 0.075428 -0.275603
v 0.018271 0.075428 -0.280188
v 0.018271 0.084156 -0.275603
v 0.018271 0.084156 -0.280188
v 0.018271 0.092883 -0.275603
v 0.018271 0.092883 -0.280188
v 0.018271 0.101611 -0.275603
v 0.018271 0.101611 -0.280188
v 0.018271 0.121183 -0.247349
v 0.016109 0.118646 -0.238621
v 0.010833 0.118646 -0.238621
v 0.005557 0.118646 -0.238621
v 0.010833 0.121183 -0.247349
v 0.003395 0.121183 -0.247349
v 0.018271 0.110339 -0.238621
v 0.010833 0.110339 -0.238621
v 0.003395 0.110339 -0.238621
v 0.018271 0.121183 -0.238621
v 0.010833 0.121183 -0.238621
v 0.003395 0.121183 -0.238621
v 0.012692 0.110339 -0.290988
v 0.012692 0.064307 -0.238621
v 0.012692 0.064307 -0.290988
v 0.012692 0.110339 -0.238621
v 0.012692 0.110339 -0.282260
v 0.012692 0.110339 -0.273532
v 0.012692 0.110339 -0.264804
v 0.012692 0.110339 -0.256076
v 0.012692 0.110339 -0.247349
v 0.012692 0.064307 -0.282260
v 0.012692 0.064307 -0.273532
v 0.012692 0.064307 -0.264804
v 0.012692 0.064307 -0.256076
v 0.012692 0.064307 -0.247349
v 0.012692 0.073035 -0.238621
v 0.012692 0.075428 -0.238621
v 0.012692 0.084156 -0.238621
v 0.012692 0.092883 -0.238621
v 0.012692 0.101611 -0.238621
v 0.012692 0.073035 -0.290988
v 0.012692 0.075428 -0.290988
v 0.012692 0.084156 -0.290988
v 0.012692 0.092883 -0.290988
v 0.012692 0.101611 -0.290988
v 0.012692 0.064307 -0.258148
v 0.012692 0.064307 -0.262733
v 0.012692 0.110339 -0.258148
v 0.012692 0.110339 -0.262733
v 0.012692 0.064307 -0.266876
v 0.012692 0.064307 -0.271461
v 0.012692 0.110339 -0.266876
v 0.012692 0.110339 -0.271461
v 0.012692 0.064307 -0.275603
v 0.012692 0.064307 -0.280188
v 0.012692 0.110339 -0.275603
v 0.012692 0.110339 -0.280188
v 0.012692 0.121183 -0.238621
v 0.012692 0.121183 -0.247349
v 0.012152 0.112875 -0.238621
v 0.012152 0.118646 -0.238621
v 0.000725 0.064307 -0.290988
v 0.000725 0.110339 -0.290988
v 0.000725 0.064307 -0.238621
v 0.000725 0.110339 -0.238621
v 0.000725 0.110339 -0.282260
v 0.000725 0.110339 -0.273532
v 0.000725 0.110339 -0.264804
v 0.000725 0.110339 -0.256076
v 0.000725 0.110339 -0.247349
v 0.000725 0.064307 -0.282260
v 0.000725 0.064307 -0.273532
v 0.000725 0.064307 -0.264804
v 0.000725 0.064307 -0.256076
v 0.000725 0.064307 -0.247349
v 0.000725 0.073035 -0.238621
v 0.000725 0.075428 -0.238621
v 0.000725 0.092883 -0.238621
v 0.000725 0.101611 -0.238621
v 0.000725 0.073035 -0.290988
v 0.000725 0.075428 -0.290988
v 0.000725 0.084156 -0.290988
v 0.000725 0.092883 -0.290988
v 0.000725 0.101611 -0.290988
v 0.000725 0.064307 -0.258148
v 0.000725 0.064307 -0.262733
v 0.000725 0.110339 -0.258148
v 0.000725 0.110339 -0.262733
v 0.000725 0.064307 -0.266876
v 0.000725 0.064307 -0.271461
v 0.000725 0.110339 -0.266876
v 0.000725 0.110339 -0.271461
v 0.000725 0.064307 -0.275603
v 0.000725 0.064307 -0.280188
v 0.000725 0.110339 -0.275603
v 0.000725 0.110339 -0.280188
v 0.018271 0.089828 -0.290988
v 0.018271 0.089828 -0.238621
v 0.010833 0.089828 -0.238621
v 0.003395 0.089828 -0.238621
v -0.004042 0.089828 -0.238621
v 0.018271 0.089828 -0.282260
v 0.018271 0.089828 -0.273532
v 0.018271 0.089828 -0.264804
v 0.018271 0.089828 -0.256076
v 0.018271 0.089828 -0.247349
v -0.001659 0.084156 -0.291582
v 0.003395 0.089828 -0.290988
v 0.010833 0.089828 -0.290988
v 0.018271 0.089828 -0.258148
v 0.018271 0.089828 -0.262733
v 0.018271 0.089828 -0.266876
v 0.018271 0.089828 -0.271461
v 0.018271 0.089828 -0.275603
v 0.018271 0.089828 -0.280188
v 0.012692 0.089828 -0.290988
v 0.012692 0.089828 -0.238621
v 0.000725 0.089828 -0.290988
v 0.000725 0.089828 -0.238621
v 0.007114 0.064307 -0.290988
v 0.007114 0.110339 -0.290988
v 0.007114 0.064307 -0.238621
v 0.007114 0.110339 -0.238621
v 0.007114 0.110339 -0.282260
v 0.007114 0.110339 -0.273532
v 0.007114 0.110339 -0.264804
v 0.007114 0.110339 -0.256076
v 0.007114 0.110339 -0.247349
v 0.007114 0.064307 -0.282260
v 0.007114 0.064307 -0.273532
v 0.007114 0.064307 -0.264804
v 0.007114 0.064307 -0.256076
v 0.007114 0.064307 -0.247349
v 0.007114 0.073035 -0.238621
v 0.007114 0.075428 -0.238621
v 0.007114 0.084156 -0.238621
v 0.007114 0.092883 -0.238621
v 0.007114 0.101611 -0.238621
v 0.007114 0.073035 -0.290988
v 0.007114 0.075428 -0.290988
v 0.007114 0.084156 -0.290988
v 0.007114 0.092883 -0.290988
v 0.007114 0.101611 -0.290988
v 0.007114 0.064307 -0.258148
v 0.007114 0.064307 -0.262733
v 0.007114 0.110339 -0.258148
v 0.007114 0.110339 -0.262733
v 0.007114 0.064307 -0.266876
v 0.007114 0.064307 -0.271461
v 0.007114 0.110339 -0.266876
v 0.007114 0.110339 -0.271461
v 0.007114 0.064307 -0.275603
v 0.007114 0.064307 -0.280188
v 0.007114 0.110339 -0.275603
v 0.007114 0.110339 -0.280188
v 0.007114 0.121183 -0.238621
v 0.007114 0.121183 -0.247349
v 0.008195 0.112875 -0.238621
v 0.008195 0.118646 -0.238621
v 0.007114 0.089828 -0.290988
v 0.007114 0.089828 -0.238621
v 0.018271 0.079792 -0.290988
v 0.018271 0.079792 -0.238621
v 0.010833 0.079792 -0.238621
v 0.003395 0.079792 -0.238621
v -0.004042 0.079792 -0.238621
v 0.018271 0.079792 -0.282260
v 0.018271 0.079792 -0.273532
v 0.018271 0.079792 -0.264804
v 0.018271 0.079792 -0.256076
v 0.018271 0.079792 -0.247349
v -0.004042 0.079792 -0.290988
v 0.003395 0.079792 -0.290988
v 0.010833 0.079792 -0.290988
v 0.018271 0.079792 -0.258148
v 0.018271 0.079792 -0.262733
v 0.018271 0.079792 -0.266876
v 0.018271 0.079792 -0.271461
v 0.018271 0.079792 -0.275603
v 0.018271 0.079792 -0.280188
v 0.012692 0.079792 -0.290988
v 0.012692 0.079792 -0.238621
v 0.000725 0.079792 -0.290988
v 0.000725 0.079792 -0.238621
v 0.007114 0.079792 -0.290988
v 0.007114 0.079792 -0.238621
v -0.001659 0.064307 -0.290988
v -0.001659 0.110339 -0.238621
v -0.001659 0.064307 -0.282260
v -0.001659 0.064307 -0.273532
v -0.001659 0.064307 -0.264804
v -0.001659 0.064307 -0.256076
v -0.001659 0.064307 -0.247349
v -0.001659 0.073035 -0.238621
v -0.001659 0.075428 -0.238621
v -0.001659 0.084156 -0.238621
v -0.001659 0.092883 -0.238621
v -0.001659 0.101611 -0.238621
v -0.001659 0.064307 -0.258148
v -0.001659 0.110339 -0.262733
v -0.001659 0.064307 -0.266876
v -0.001659 0.110339 -0.271461
v -0.001659 0.064307 -0.275603
v -0.001659 0.110339 -0.280188
v -0.001659 0.110339 -0.290988
v -0.001659 0.064307 -0.238621
v -0.001659 0.110339 -0.282260
v -0.001659 0.110339 -0.273532
v -0.001659 0.110339 -0.264804
v -0.001659 0.110339 -0.256076
v -0.001659 0.110339 -0.247349
v -0.001659 0.073035 -0.290988
v -0.001659 0.075428 -0.290988
v -0.001659 0.084156 -0.290988
v -0.001659 0.092883 -0.290988
v -0.001659 0.101611 -0.290988
v -0.001659 0.064307 -0.262733
v -0.001659 0.110339 -0.258148
v -0.001659 0.064307 -0.271461
v -0.001659 0.110339 -0.266876
v -0.001659 0.064307 -0.280188
v -0.001659 0.110339 -0.275603
v -0.001659 0.092883 -0.291582
v -0.001659 0.089828 -0.238621
v -0.001659 0.079792 -0.290988
v -0.001659 0.079792 -0.238621
v 0.007114 0.084156 -0.234594
v 0.003395 0.084156 -0.234594
v -0.001659 0.084156 -0.234594
v -0.004042 0.084156 -0.234594
v 0.003395 0.089828 -0.234594
v -0.004042 0.089828 -0.234594
v 0.000725 0.084156 -0.234594
v 0.000725 0.089828 -0.234594
v -0.001659 0.089828 -0.234594
v 0.007114 0.089828 -0.234594
v 0.003395 0.079792 -0.234594
v 0.000725 0.079792 -0.234594
v 0.007114 0.079792 -0.234594
v -0.001659 0.079792 -0.234594
v 0.018271 0.086992 -0.290988
v 0.018271 0.086992 -0.238621
v 0.010833 0.086992 -0.238621
v 0.018271 0.086992 -0.282260
v 0.018271 0.086992 -0.273532
v 0.018271 0.086992 -0.264804
v 0.018271 0.086992 -0.256076
v 0.018271 0.086992 -0.247349
v -0.004042 0.084156 -0.291582
v 0.003395 0.086992 -0.290988
v 0.010833 0.086992 -0.290988
v 0.018271 0.086992 -0.258148
v 0.018271 0.086992 -0.266876
v 0.018271 0.086992 -0.275603
v 0.012692 0.086992 -0.290988
v 0.012692 0.086992 -0.238621
v 0.000725 0.086992 -0.290988
v 0.018271 0.086992 -0.262733
v 0.018271 0.086992 -0.271461
v 0.018271 0.086992 -0.280188
v 0.007114 0.086992 -0.238621
v 0.007114 0.086992 -0.290988
v -0.004042 0.092883 -0.291582
v 0.003395 0.086992 -0.234594
v -0.004042 0.086992 -0.234594
v 0.000725 0.086992 -0.234594
v 0.007114 0.086992 -0.234594
v -0.001659 0.086992 -0.234594
v 0.012692 0.080686 -0.236934
v 0.012692 0.083261 -0.236934
v 0.018271 0.083261 -0.236934
v 0.018271 0.080686 -0.236934
v 0.010833 0.083261 -0.236934
v 0.010833 0.080686 -0.236934
v 0.012692 0.086992 -0.236934
v 0.010833 0.086992 -0.236934
v 0.010833 0.084156 -0.236934
v 0.012692 0.084156 -0.236934
v 0.018271 0.084156 -0.236934
v 0.018271 0.086992 -0.236934
v 0.018271 0.080686 -0.262733
v 0.018271 0.083261 -0.262733
v 0.018271 0.080686 -0.271461
v 0.018271 0.083261 -0.271461
v 0.018271 0.080686 -0.280188
v 0.018271 0.083261 -0.280188
v 0.018271 0.083261 -0.290988
v 0.018271 0.080686 -0.290988
v 0.018271 0.080686 -0.238621
v 0.018271 0.083261 -0.238621
v 0.010833 0.080686 -0.238621
v 0.010833 0.083261 -0.238621
v -0.004042 0.080686 -0.238621
v -0.004042 0.083261 -0.238621
v 0.018271 0.080686 -0.282260
v 0.018271 0.083261 -0.282260
v 0.018271 0.083261 -0.273532
v 0.018271 0.080686 -0.273532
v 0.018271 0.083261 -0.264804
v 0.018271 0.080686 -0.264804
v 0.018271 0.083261 -0.256076
v 0.018271 0.080686 -0.256076
v 0.018271 0.083261 -0.247349
v 0.018271 0.080686 -0.247349
v -0.004042 0.083261 -0.290988
v -0.004042 0.080686 -0.290988
v 0.003395 0.080686 -0.290988
v 0.003395 0.083261 -0.290988
v 0.010833 0.080686 -0.290988
v 0.010833 0.083261 -0.290988
v 0.018271 0.083261 -0.258148
v 0.018271 0.080686 -0.258148
v 0.018271 0.083261 -0.266876
v 0.018271 0.080686 -0.266876
v 0.018271 0.083261 -0.275603
v 0.018271 0.080686 -0.275603
v 0.012692 0.083261 -0.290988
v 0.012692 0.080686 -0.290988
v 0.012692 0.083261 -0.238621
v 0.012692 0.080686 -0.238621
v 0.000725 0.083261 -0.290988
v 0.000725 0.080686 -0.290988
v 0.007114 0.083261 -0.290988
v 0.007114 0.080686 -0.290988
v 0.007114 0.080686 -0.238621
v 0.007114 0.083261 -0.238621
v -0.001659 0.083261 -0.290988
v -0.001659 0.080686 -0.290988
v -0.001659 0.083261 -0.238621
v -0.001659 0.080686 -0.238621
v 0.003395 0.080686 -0.234594
v 0.003395 0.083261 -0.234594
v 0.000725 0.080686 -0.234594
v 0.000725 0.083261 -0.234594
v 0.007114 0.083261 -0.234594
v 0.007114 0.080686 -0.234594
v -0.001659 0.080686 -0.234594
v -0.001659 0.083261 -0.234594
v 0.018271 0.060926 -0.282260
v 0.018271 0.060926 -0.290988
v 0.012692 0.060926 -0.238621
v 0.018271 0.060926 -0.238621
v 0.012692 0.060926 -0.290988
v 0.010833 0.060926 -0.290988
v 0.018271 0.060926 -0.247349
v 0.007114 0.060926 -0.238621
v 0.010833 0.060926 -0.238621
v 0.010833 0.060926 -0.247349
v 0.010833 0.060926 -0.282260
v 0.012692 0.060926 -0.282260
v 0.012692 0.060926 -0.247349
v 0.007114 0.060926 -0.290988
v 0.007114 0.060926 -0.282260
v 0.007114 0.060926 -0.247349
v 0.018271 0.053678 -0.282260
v 0.018271 0.053678 -0.290988
v 0.012692 0.053678 -0.238621
v 0.018271 0.053678 -0.238621
v 0.012692 0.053678 -0.290988
v 0.010833 0.053678 -0.290988
v 0.018271 0.053678 -0.247349
v 0.007114 0.053678 -0.238621
v 0.010833 0.053678 -0.238621
v 0.010833 0.053678 -0.247349
v 0.010833 0.053678 -0.282260
v 0.012692 0.053678 -0.282260
v 0.012692 0.053678 -0.247349
v 0.007114 0.053678 -0.290988
v 0.007114 0.053678 -0.282260
v 0.007114 0.053678 -0.247349
v 0.012692 0.060926 -0.233593
v 0.018271 0.060926 -0.233593
v 0.007114 0.060926 -0.233593
v 0.010833 0.060926 -0.233593
v 0.012692 0.060926 -0.277232
v 0.010833 0.060926 -0.277232
v 0.018271 0.060926 -0.277232
v 0.018271 0.053678 -0.277232
v 0.007114 0.060926 -0.277232
v 0.012692 0.053678 -0.233593
v 0.018271 0.053678 -0.233593
v 0.007114 0.053678 -0.233593
v 0.010833 0.053678 -0.233593
v 0.012692 0.053678 -0.277232
v 0.010833 0.053678 -0.277232
v 0.007114 0.053678 -0.277232
v -0.004042 0.086992 -0.296144
v -0.004042 0.084156 -0.296144
v -0.001659 0.084156 -0.296144
v 0.000725 0.084156 -0.296144
v -0.001659 0.092883 -0.296144
v 0.000725 0.092883 -0.296144
v 0.000725 0.086992 -0.296144
v -0.004042 0.092883 -0.296144
v -0.004042 0.089828 -0.296144
v 0.000725 0.089828 -0.296144
v -0.001659 0.089828 -0.296144
v -0.001659 0.086992 -0.296144
v 0.000725 0.092883 -0.291582
v 0.000725 0.084156 -0.291582
v 0.000725 0.089828 -0.291582
v 0.000725 0.086992 -0.291582
v -0.001659 0.119094 -0.291582
v -0.001659 0.119094 -0.296144
v 0.000725 0.119094 -0.296144
v -0.004042 0.119094 -0.296144
v -0.004042 0.119094 -0.291582
v 0.000725 0.119094 -0.291582
v -0.004042 0.112964 -0.291582
v -0.001659 0.112964 -0.291582
v -0.001659 0.112964 -0.296144
v 0.000725 0.112964 -0.296144
v 0.000725 0.112964 -0.291582
v -0.004042 0.112964 -0.296144
v -0.001659 0.112964 -0.265246
v -0.001659 0.119094 -0.265246
v 0.000725 0.119094 -0.265246
v -0.004042 0.119094 -0.265246
v 0.000725 0.112964 -0.265246
v -0.004042 0.112964 -0.265246
v -0.026356 0.064307 -0.238621
v -0.024194 0.112875 -0.238621
v -0.026356 0.064307 -0.290988
v -0.026356 0.110339 -0.290988
v -0.018918 0.064307 -0.290988
v -0.011480 0.064307 -0.290988
v -0.011480 0.110339 -0.290988
v -0.018918 0.110339 -0.290988
v -0.026356 0.101611 -0.290988
v -0.026356 0.092883 -0.290988
v -0.026356 0.084156 -0.290988
v -0.026356 0.075428 -0.290988
v -0.026356 0.073035 -0.290988
v -0.026356 0.064307 -0.247349
v -0.026356 0.064307 -0.256076
v -0.026356 0.064307 -0.264804
v -0.026356 0.064307 -0.273532
v -0.026356 0.064307 -0.282260
v -0.026356 0.110339 -0.282260
v -0.026356 0.110339 -0.273532
v -0.026356 0.110339 -0.264804
v -0.026356 0.110339 -0.256076
v -0.026356 0.110339 -0.247349
v -0.026356 0.101611 -0.238621
v -0.026356 0.092883 -0.238621
v -0.026356 0.084156 -0.238621
v -0.026356 0.075428 -0.238621
v -0.026356 0.073035 -0.238621
v -0.011480 0.064307 -0.238621
v -0.018918 0.064307 -0.238621
v -0.018918 0.112875 -0.238621
v -0.013642 0.112875 -0.238621
v -0.018918 0.110339 -0.282260
v -0.018918 0.110339 -0.273532
v -0.018918 0.110339 -0.264804
v -0.018918 0.110339 -0.256076
v -0.018918 0.110339 -0.247349
v -0.011480 0.110339 -0.282260
v -0.011480 0.110339 -0.273532
v -0.011480 0.110339 -0.264804
v -0.011480 0.110339 -0.256076
v -0.011480 0.110339 -0.247349
v -0.011480 0.064307 -0.282260
v -0.011480 0.064307 -0.273532
v -0.011480 0.064307 -0.264804
v -0.011480 0.064307 -0.256076
v -0.011480 0.064307 -0.247349
v -0.018918 0.064307 -0.282260
v -0.018918 0.064307 -0.273532
v -0.018918 0.064307 -0.264804
v -0.018918 0.064307 -0.256076
v -0.018918 0.064307 -0.247349
v -0.018918 0.073035 -0.238621
v -0.011480 0.073035 -0.238621
v -0.018918 0.075428 -0.238621
v -0.011480 0.075428 -0.238621
v -0.018918 0.084156 -0.238621
v -0.018918 0.092883 -0.238621
v -0.011480 0.092883 -0.238621
v -0.018918 0.101611 -0.238621
v -0.011480 0.101611 -0.238621
v -0.026356 0.073035 -0.282260
v -0.026356 0.073035 -0.273532
v -0.026356 0.073035 -0.264804
v -0.026356 0.073035 -0.256076
v -0.026356 0.073035 -0.247349
v -0.026356 0.075428 -0.282260
v -0.026356 0.075428 -0.273532
v -0.026356 0.075428 -0.264804
v -0.026356 0.075428 -0.256076
v -0.026356 0.075428 -0.247349
v -0.026356 0.084156 -0.282260
v -0.026356 0.084156 -0.273532
v -0.026356 0.084156 -0.264804
v -0.026356 0.084156 -0.256076
v -0.026356 0.084156 -0.247349
v -0.026356 0.092883 -0.282260
v -0.026356 0.092883 -0.273532
v -0.026356 0.092883 -0.264804
v -0.026356 0.092883 -0.256076
v -0.026356 0.092883 -0.247349
v -0.026356 0.101611 -0.282260
v -0.026356 0.101611 -0.273532
v -0.026356 0.101611 -0.264804
v -0.026356 0.101611 -0.256076
v -0.026356 0.101611 -0.247349
v -0.011480 0.073035 -0.290988
v -0.018918 0.073035 -0.290988
v -0.011480 0.075428 -0.290988
v -0.018918 0.075428 -0.290988
v -0.011480 0.084156 -0.290988
v -0.018918 0.084156 -0.290988
v -0.011480 0.092883 -0.290988
v -0.018918 0.092883 -0.290988
v -0.011480 0.101611 -0.290988
v -0.018918 0.101611 -0.290988
v -0.026356 0.064307 -0.258148
v -0.026356 0.064307 -0.262733
v -0.026356 0.110339 -0.262733
v -0.026356 0.110339 -0.258148
v -0.018918 0.110339 -0.258148
v -0.018918 0.110339 -0.262733
v -0.011480 0.110339 -0.258148
v -0.011480 0.110339 -0.262733
v -0.011480 0.064307 -0.258148
v -0.011480 0.064307 -0.262733
v -0.018918 0.064307 -0.258148
v -0.018918 0.064307 -0.262733
v -0.026356 0.073035 -0.258148
v -0.026356 0.073035 -0.262733
v -0.026356 0.075428 -0.258148
v -0.026356 0.075428 -0.262733
v -0.026356 0.084156 -0.258148
v -0.026356 0.084156 -0.262733
v -0.026356 0.092883 -0.258148
v -0.026356 0.092883 -0.262733
v -0.026356 0.101611 -0.258148
v -0.026356 0.101611 -0.262733
v -0.026356 0.064307 -0.266876
v -0.026356 0.064307 -0.271461
v -0.026356 0.110339 -0.271461
v -0.026356 0.110339 -0.266876
v -0.018918 0.110339 -0.266876
v -0.018918 0.110339 -0.271461
v -0.011480 0.110339 -0.266876
v -0.011480 0.110339 -0.271461
v -0.011480 0.064307 -0.266876
v -0.011480 0.064307 -0.271461
v -0.018918 0.064307 -0.266876
v -0.018918 0.064307 -0.271461
v -0.026356 0.073035 -0.266876
v -0.026356 0.073035 -0.271461
v -0.026356 0.075428 -0.266876
v -0.026356 0.075428 -0.271461
v -0.026356 0.084156 -0.266876
v -0.026356 0.084156 -0.271461
v -0.026356 0.092883 -0.266876
v -0.026356 0.092883 -0.271461
v -0.026356 0.101611 -0.266876
v -0.026356 0.101611 -0.271461
v -0.026356 0.064307 -0.275603
v -0.026356 0.064307 -0.280188
v -0.026356 0.110339 -0.280188
v -0.026356 0.110339 -0.275603
v -0.018918 0.110339 -0.275603
v -0.018918 0.110339 -0.280188
v -0.011480 0.110339 -0.275603
v -0.011480 0.110339 -0.280188
v -0.011480 0.064307 -0.275603
v -0.011480 0.064307 -0.280188
v -0.018918 0.064307 -0.275603
v -0.018918 0.064307 -0.280188
v -0.026356 0.073035 -0.275603
v -0.026356 0.073035 -0.280188
v -0.026356 0.075428 -0.275603
v -0.026356 0.075428 -0.280188
v -0.026356 0.084156 -0.275603
v -0.026356 0.084156 -0.280188
v -0.026356 0.092883 -0.275603
v -0.026356 0.092883 -0.280188
v -0.026356 0.101611 -0.275603
v -0.026356 0.101611 -0.280188
v -0.026356 0.121183 -0.247349
v -0.024194 0.118646 -0.238621
v -0.018918 0.118646 -0.238621
v -0.013642 0.118646 -0.238621
v -0.018918 0.121183 -0.247349
v -0.011480 0.121183 -0.247349
v -0.026356 0.110339 -0.238621
v -0.018918 0.110339 -0.238621
v -0.011480 0.110339 -0.238621
v -0.026356 0.121183 -0.238621
v -0.018918 0.121183 -0.238621
v -0.011480 0.121183 -0.238621
v -0.020777 0.110339 -0.290988
v -0.020777 0.064307 -0.238621
v -0.020777 0.064307 -0.290988
v -0.020777 0.110339 -0.238621
v -0.020777 0.110339 -0.282260
v -0.020777 0.110339 -0.273532
v -0.020777 0.110339 -0.264804
v -0.020777 0.110339 -0.256076
v -0.020777 0.110339 -0.247349
v -0.020777 0.064307 -0.282260
v -0.020777 0.064307 -0.273532
v -0.020777 0.064307 -0.264804
v -0.020777 0.064307 -0.256076
v -0.020777 0.064307 -0.247349
v -0.020777 0.073035 -0.238621
v -0.020777 0.075428 -0.238621
v -0.020777 0.084156 -0.238621
v -0.020777 0.092883 -0.238621
v -0.020777 0.101611 -0.238621
v -0.020777 0.073035 -0.290988
v -0.020777 0.075428 -0.290988
v -0.020777 0.084156 -0.290988
v -0.020777 0.092883 -0.290988
v -0.020777 0.101611 -0.290988
v -0.020777 0.064307 -0.258148
v -0.020777 0.064307 -0.262733
v -0.020777 0.110339 -0.258148
v -0.020777 0.110339 -0.262733
v -0.020777 0.064307 -0.266876
v -0.020777 0.064307 -0.271461
v -0.020777 0.110339 -0.266876
v -0.020777 0.110339 -0.271461
v -0.020777 0.064307 -0.275603
v -0.020777 0.064307 -0.280188
v -0.020777 0.110339 -0.275603
v -0.020777 0.110339 -0.280188
v -0.020777 0.121183 -0.238621
v -0.020777 0.121183 -0.247349
v -0.020237 0.112875 -0.238621
v -0.020237 0.118646 -0.238621
v -0.008810 0.064307 -0.290988
v -0.008810 0.110339 -0.290988
v -0.008810 0.064307 -0.238621
v -0.008810 0.110339 -0.238621
v -0.008810 0.110339 -0.282260
v -0.008810 0.110339 -0.273532
v -0.008810 0.110339 -0.264804
v -0.008810 0.110339 -0.256076
v -0.008810 0.110339 -0.247349
v -0.008810 0.064307 -0.282260
v -0.008810 0.064307 -0.273532
v -0.008810 0.064307 -0.264804
v -0.008810 0.064307 -0.256076
v -0.008810 0.064307 -0.247349
v -0.008810 0.073035 -0.238621
v -0.008810 0.075428 -0.238621
v -0.008810 0.092883 -0.238621
v -0.008810 0.101611 -0.238621
v -0.008810 0.073035 -0.290988
v -0.008810 0.075428 -0.290988
v -0.008810 0.084156 -0.290988
v -0.008810 0.092883 -0.290988
v -0.008810 0.101611 -0.290988
v -0.008810 0.064307 -0.258148
v -0.008810 0.064307 -0.262733
v -0.008810 0.110339 -0.258148
v -0.008810 0.110339 -0.262733
v -0.008810 0.064307 -0.266876
v -0.008810 0.064307 -0.271461
v -0.008810 0.110339 -0.266876
v -0.008810 0.110339 -0.271461
v -0.008810 0.064307 -0.275603
v -0.008810 0.064307 -0.280188
v -0.008810 0.110339 -0.275603
v -0.008810 0.110339 -0.280188
v -0.026356 0.089828 -0.290988
v -0.026356 0.089828 -0.238621
v -0.018918 0.089828 -0.238621
v -0.011480 0.089828 -0.238621
v -0.026356 0.089828 -0.282260
v -0.026356 0.089828 -0.273532
v -0.026356 0.089828 -0.264804
v -0.026356 0.089828 -0.256076
v -0.026356 0.089828 -0.247349
v -0.006426 0.084156 -0.291582
v -0.011480 0.089828 -0.290988
v -0.018918 0.089828 -0.290988
v -0.026356 0.089828 -0.258148
v -0.026356 0.089828 -0.262733
v -0.026356 0.089828 -0.266876
v -0.026356 0.089828 -0.271461
v -0.026356 0.089828 -0.275603
v -0.026356 0.089828 -0.280188
v -0.020777 0.089828 -0.290988
v -0.020777 0.089828 -0.238621
v -0.008810 0.089828 -0.290988
v -0.008810 0.089828 -0.238621
v -0.015199 0.064307 -0.290988
v -0.015199 0.110339 -0.290988
v -0.015199 0.064307 -0.238621
v -0.015199 0.110339 -0.238621
v -0.015199 0.110339 -0.282260
v -0.015199 0.110339 -0.273532
v -0.015199 0.110339 -0.264804
v -0.015199 0.110339 -0.256076
v -0.015199 0.110339 -0.247349
v -0.015199 0.064307 -0.282260
v -0.015199 0.064307 -0.273532
v -0.015199 0.064307 -0.264804
v -0.015199 0.064307 -0.256076
v -0.015199 0.064307 -0.247349
v -0.015199 0.073035 -0.238621
v -0.015199 0.075428 -0.238621
v -0.015199 0.084156 -0.238621
v -0.015199 0.092883 -0.238621
v -0.015199 0.101611 -0.238621
v -0.015199 0.073035 -0.290988
v -0.015199 0.075428 -0.290988
v -0.015199 0.084156 -0.290988
v -0.015199 0.092883 -0.290988
v -0.015199 0.101611 -0.290988
v -0.015199 0.064307 -0.258148
v -0.015199 0.064307 -0.262733
v -0.015199 0.110339 -0.258148
v -0.015199 0.110339 -0.262733
v -0.015199 0.064307 -0.266876
v -0.015199 0.064307 -0.271461
v -0.015199 0.110339 -0.266876
v -0.015199 0.110339 -0.271461
v -0.015199 0.064307 -0.275603
v -0.015199 0.064307 -0.280188
v -0.015199 0.110339 -0.275603
v -0.015199 0.110339 -0.280188
v -0.015199 0.121183 -0.238621
v -0.015199 0.121183 -0.247349
v -0.016280 0.112875 -0.238621
v -0.016280 0.118646 -0.238621
v -0.015199 0.089828 -0.290988
v -0.015199 0.089828 -0.238621
v -0.026356 0.079792 -0.290988
v -0.026356 0.079792 -0.238621
v -0.018918 0.079792 -0.238621
v -0.011480 0.079792 -0.238621
v -0.026356 0.079792 -0.282260
v -0.026356 0.079792 -0.273532
v -0.026356 0.079792 -0.264804
v -0.026356 0.079792 -0.256076
v -0.026356 0.079792 -0.247349
v -0.011480 0.079792 -0.290988
v -0.018918 0.079792 -0.290988
v -0.026356 0.079792 -0.258148
v -0.026356 0.079792 -0.262733
v -0.026356 0.079792 -0.266876
v -0.026356 0.079792 -0.271461
v -0.026356 0.079792 -0.275603
v -0.026356 0.079792 -0.280188
v -0.020777 0.079792 -0.290988
v -0.020777 0.079792 -0.238621
v -0.008810 0.079792 -0.290988
v -0.008810 0.079792 -0.238621
v -0.015199 0.079792 -0.290988
v -0.015199 0.079792 -0.238621
v -0.006426 0.064307 -0.290988
v -0.006426 0.110339 -0.238621
v -0.006426 0.064307 -0.282260
v -0.006426 0.064307 -0.273532
v -0.006426 0.064307 -0.264804
v -0.006426 0.064307 -0.256076
v -0.006426 0.064307 -0.247349
v -0.006426 0.073035 -0.238621
v -0.006426 0.075428 -0.238621
v -0.006426 0.084156 -0.238621
v -0.006426 0.092883 -0.238621
v -0.006426 0.101611 -0.238621
v -0.006426 0.064307 -0.258148
v -0.006426 0.110339 -0.262733
v -0.006426 0.064307 -0.266876
v -0.006426 0.110339 -0.271461
v -0.006426 0.064307 -0.275603
v -0.006426 0.110339 -0.280188
v -0.006426 0.110339 -0.290988
v -0.006426 0.064307 -0.238621
v -0.006426 0.110339 -0.282260
v -0.006426 0.110339 -0.273532
v -0.006426 0.110339 -0.264804
v -0.006426 0.110339 -0.256076
v -0.006426 0.110339 -0.247349
v -0.006426 0.073035 -0.290988
v -0.006426 0.075428 -0.290988
v -0.006426 0.084156 -0.290988
v -0.006426 0.092883 -0.290988
v -0.006426 0.101611 -0.290988
v -0.006426 0.064307 -0.262733
v -0.006426 0.110339 -0.258148
v -0.006426 0.064307 -0.271461
v -0.006426 0.110339 -0.266876
v -0.006426 0.064307 -0.280188
v -0.006426 0.110339 -0.275603
v -0.006426 0.092883 -0.291582
v -0.006426 0.089828 -0.238621
v -0.006426 0.079792 -0.290988
v -0.006426 0.079792 -0.238621
v -0.015199 0.084156 -0.234594
v -0.011480 0.084156 -0.234594
v -0.006426 0.084156 -0.234594
v -0.011480 0.089828 -0.234594
v -0.008810 0.084156 -0.234594
v -0.008810 0.089828 -0.234594
v -0.006426 0.089828 -0.234594
v -0.015199 0.089828 -0.234594
v -0.011480 0.079792 -0.234594
v -0.008810 0.079792 -0.234594
v -0.015199 0.079792 -0.234594
v -0.006426 0.079792 -0.234594
v -0.026356 0.086992 -0.290988
v -0.026356 0.086992 -0.238621
v -0.018918 0.086992 -0.238621
v -0.026356 0.086992 -0.282260
v -0.026356 0.086992 -0.273532
v -0.026356 0.086992 -0.264804
v -0.026356 0.086992 -0.256076
v -0.026356 0.086992 -0.247349
v -0.011480 0.086992 -0.290988
v -0.018918 0.086992 -0.290988
v -0.026356 0.086992 -0.258148
v -0.026356 0.086992 -0.266876
v -0.026356 0.086992 -0.275603
v -0.020777 0.086992 -0.290988
v -0.020777 0.086992 -0.238621
v -0.008810 0.086992 -0.290988
v -0.026356 0.086992 -0.262733
v -0.026356 0.086992 -0.271461
v -0.026356 0.086992 -0.280188
v -0.015199 0.086992 -0.238621
v -0.015199 0.086992 -0.290988
v -0.011480 0.086992 -0.234594
v -0.008810 0.086992 -0.234594
v -0.015199 0.086992 -0.234594
v -0.006426 0.086992 -0.234594
v -0.020777 0.080686 -0.236934
v -0.020777 0.083261 -0.236934
v -0.026356 0.083261 -0.236934
v -0.026356 0.080686 -0.236934
v -0.018918 0.083261 -0.236934
v -0.018918 0.080686 -0.236934
v -0.020777 0.086992 -0.236934
v -0.018918 0.086992 -0.236934
v -0.018918 0.084156 -0.236934
v -0.020777 0.084156 -0.236934
v -0.026356 0.084156 -0.236934
v -0.026356 0.086992 -0.236934
v -0.026356 0.080686 -0.262733
v -0.026356 0.083261 -0.262733
v -0.026356 0.080686 -0.271461
v -0.026356 0.083261 -0.271461
v -0.026356 0.080686 -0.280188
v -0.026356 0.083261 -0.280188
v -0.026356 0.083261 -0.290988
v -0.026356 0.080686 -0.290988
v -0.026356 0.080686 -0.238621
v -0.026356 0.083261 -0.238621
v -0.018918 0.080686 -0.238621
v -0.018918 0.083261 -0.238621
v -0.026356 0.080686 -0.282260
v -0.026356 0.083261 -0.282260
v -0.026356 0.083261 -0.273532
v -0.026356 0.080686 -0.273532
v -0.026356 0.083261 -0.264804
v -0.026356 0.080686 -0.264804
v -0.026356 0.083261 -0.256076
v -0.026356 0.080686 -0.256076
v -0.026356 0.083261 -0.247349
v -0.026356 0.080686 -0.247349
v -0.011480 0.080686 -0.290988
v -0.011480 0.083261 -0.290988
v -0.018918 0.080686 -0.290988
v -0.018918 0.083261 -0.290988
v -0.026356 0.083261 -0.258148
v -0.026356 0.080686 -0.258148
v -0.026356 0.083261 -0.266876
v -0.026356 0.080686 -0.266876
v -0.026356 0.083261 -0.275603
v -0.026356 0.080686 -0.275603
v -0.020777 0.083261 -0.290988
v -0.020777 0.080686 -0.290988
v -0.020777 0.083261 -0.238621
v -0.020777 0.080686 -0.238621
v -0.008810 0.083261 -0.290988
v -0.008810 0.080686 -0.290988
v -0.015199 0.083261 -0.290988
v -0.015199 0.080686 -0.290988
v -0.015199 0.080686 -0.238621
v -0.015199 0.083261 -0.238621
v -0.006426 0.083261 -0.290988
v -0.006426 0.080686 -0.290988
v -0.006426 0.083261 -0.238621
v -0.006426 0.080686 -0.238621
v -0.011480 0.080686 -0.234594
v -0.011480 0.083261 -0.234594
v -0.008810 0.080686 -0.234594
v -0.008810 0.083261 -0.234594
v -0.015199 0.083261 -0.234594
v -0.015199 0.080686 -0.234594
v -0.006426 0.080686 -0.234594
v -0.006426 0.083261 -0.234594
v -0.026356 0.060926 -0.282260
v -0.026356 0.060926 -0.290988
v -0.020777 0.060926 -0.238621
v -0.026356 0.060926 -0.238621
v -0.020777 0.060926 -0.290988
v -0.018918 0.060926 -0.290988
v -0.026356 0.060926 -0.247349
v -0.015199 0.060926 -0.238621
v -0.018918 0.060926 -0.238621
v -0.018918 0.060926 -0.247349
v -0.018918 0.060926 -0.282260
v -0.020777 0.060926 -0.282260
v -0.020777 0.060926 -0.247349
v -0.015199 0.060926 -0.290988
v -0.015199 0.060926 -0.282260
v -0.015199 0.060926 -0.247349
v -0.026356 0.053678 -0.282260
v -0.026356 0.053678 -0.290988
v -0.020777 0.053678 -0.238621
v -0.026356 0.053678 -0.238621
v -0.020777 0.053678 -0.290988
v -0.018918 0.053678 -0.290988
v -0.026356 0.053678 -0.247349
v -0.015199 0.053678 -0.238621
v -0.018918 0.053678 -0.238621
v -0.018918 0.053678 -0.247349
v -0.018918 0.053678 -0.282260
v -0.020777 0.053678 -0.282260
v -0.020777 0.053678 -0.247349
v -0.015199 0.053678 -0.290988
v -0.015199 0.053678 -0.282260
v -0.015199 0.053678 -0.247349
v -0.020777 0.060926 -0.233593
v -0.026356 0.060926 -0.233593
v -0.015199 0.060926 -0.233593
v -0.018918 0.060926 -0.233593
v -0.020777 0.060926 -0.277232
v -0.018918 0.060926 -0.277232
v -0.026356 0.060926 -0.277232
v -0.026356 0.053678 -0.277232
v -0.015199 0.060926 -0.277232
v -0.020777 0.053678 -0.233593
v -0.026356 0.053678 -0.233593
v -0.015199 0.053678 -0.233593
v -0.018918 0.053678 -0.233593
v -0.020777 0.053678 -0.277232
v -0.018918 0.053678 -0.277232
v -0.015199 0.053678 -0.277232
v -0.006426 0.084156 -0.296144
v -0.008810 0.084156 -0.296144
v -0.006426 0.092883 -0.296144
v -0.008810 0.092883 -0.296144
v -0.008810 0.086992 -0.296144
v -0.008810 0.089828 -0.296144
v -0.006426 0.089828 -0.296144
v -0.006426 0.086992 -0.296144
v -0.008810 0.092883 -0.291582
v -0.008810 0.084156 -0.291582
v -0.008810 0.089828 -0.291582
v -0.008810 0.086992 -0.291582
v -0.006426 0.119094 -0.291582
v -0.006426 0.119094 -0.296144
v -0.008810 0.119094 -0.296144
v -0.008810 0.119094 -0.291582
v -0.006426 0.112964 -0.291582
v -0.006426 0.112964 -0.296144
v -0.008810 0.112964 -0.296144
v -0.008810 0.112964 -0.291582
v -0.006426 0.112964 -0.265246
v -0.006426 0.119094 -0.265246
v -0.008810 0.119094 -0.265246
v -0.008810 0.112964 -0.265246
vn -0.0000 -0.0000 -1.0000
vn 1.0000 -0.0000 -0.0000
vn -0.0000 -0.0000 1.0000
vn -1.0000 -0.0000 -0.0000
vn -0.0000 1.0000 -0.0000
vn -0.0000 -1.0000 -0.0000
vt 0.681493 0.981161
vt 0.681493 0.992146
vt 0.689732 0.992146
vt 0.689732 0.981161
vt 0.678746 0.926234
vt 0.673254 0.926234
vt 0.667761 0.992146
vt 0.673254 0.992146
vt 0.660297 0.992146
vt 0.656776 0.992146
vt 0.678746 0.992146
vt 0.681493 0.992146
vt 0.681493 0.992146
vt 0.660297 0.992146
vt 0.673119 0.955687
vt 0.677062 0.955687
vt 0.681493 0.926234
vt 0.673119 0.955687
vt 0.677062 0.955687
vt 0.673119 0.955687
vt 0.673119 0.955687
vt 0.682555 0.955687
vt 0.673254 0.926234
vt 0.678746 0.926234
vt 0.689732 0.926234
vt 0.689732 0.937219
vt 0.681493 0.937219
vt 0.678746 0.937219
vt 0.682555 0.955687
vt 0.682555 0.966673
vt 0.677062 0.966673
vt 0.669598 0.955687
vt 0.669598 0.966673
vt 0.666077 0.966673
vt 0.666077 0.955687
vt 0.681493 0.948204
vt 0.678746 0.948204
vt 0.673254 0.937219
vt 0.673254 0.948204
vt 0.667761 0.948204
vt 0.667761 0.937219
vt 0.660297 0.937219
vt 0.660297 0.948204
vt 0.656776 0.948204
vt 0.656776 0.937219
vt 0.660297 0.953697
vt 0.660297 0.954822
vt 0.656776 0.954822
vt 0.656776 0.953697
vt 0.537978 0.652472
vt 0.548473 0.652472
vt 0.689732 0.953697
vt 0.689732 0.954822
vt 0.689732 0.954822
vt 0.714047 0.656290
vt 0.714047 0.660136
vt 0.711300 0.660136
vt 0.711300 0.656290
vt 0.677904 0.890370
vt 0.677904 0.894216
vt 0.672412 0.894216
vt 0.672412 0.890370
vt 0.660297 0.966329
vt 0.660297 0.970175
vt 0.656776 0.970175
vt 0.656776 0.966329
vt 0.714047 0.671121
vt 0.711300 0.671121
vt 0.677904 0.905201
vt 0.672412 0.905201
vt 0.660297 0.981161
vt 0.656776 0.981161
vt 0.678746 0.981161
vt 0.673254 0.981161
vt 0.667761 0.981161
vt 0.689732 0.948204
vt 0.681493 0.953697
vt 0.681493 0.954822
vt 0.678746 0.954822
vt 0.678746 0.953697
vt 0.689732 0.966329
vt 0.689732 0.970175
vt 0.689732 0.966329
vt 0.689732 0.926234
vt 0.689732 0.948204
vt 0.681493 0.958064
vt 0.681493 0.959190
vt 0.689732 0.959190
vt 0.689732 0.958064
vt 0.689732 0.954822
vt 0.689732 0.958064
vt 0.681493 0.926234
vt 0.681493 0.937219
vt 0.681493 0.948204
vt 0.681493 0.966329
vt 0.681493 0.970175
vt 0.673119 0.966673
vt 0.663818 0.937219
vt 0.663818 0.948204
vt 0.667761 0.948204
vt 0.673254 0.948204
vt 0.678746 0.948204
vt 0.673254 0.953697
vt 0.673254 0.954822
vt 0.660297 0.953697
vt 0.660297 0.954822
vt 0.663818 0.954822
vt 0.663818 0.953697
vt 0.663818 0.966329
vt 0.663818 0.970175
vt 0.667761 0.970175
vt 0.667761 0.966329
vt 0.673254 0.966329
vt 0.673254 0.970175
vt 0.678746 0.970175
vt 0.678746 0.966329
vt 0.663818 0.981161
vt 0.663818 0.992146
vt 0.681493 0.926234
vt 0.656776 0.954822
vt 0.660297 0.954822
vt 0.673119 0.955687
vt 0.689732 0.962759
vt 0.669598 0.955687
vt 0.669598 0.955687
vt 0.680870 0.934789
vt 0.684813 0.934789
vt 0.690306 0.934789
vt 0.695799 0.934789
vt 0.666077 0.955687
vt 0.669598 0.955687
vt 0.680870 0.934789
vt 0.681493 0.992146
vt 0.683795 0.951841
vt 0.689640 0.951841
vt 0.689640 0.951841
vt 0.677950 0.951841
vt 0.681847 0.951841
vt 0.680695 0.992146
vt 0.674850 0.992146
vt 0.670954 0.992146
vt 0.680695 0.992146
vt 0.686539 0.992146
vt 0.670954 0.992146
vt 0.686539 0.992146
vt 0.678746 0.954822
vt 0.681493 0.966329
vt 0.677349 0.934789
vt 0.677349 0.934789
vt 0.663818 0.992146
vt 0.660297 0.981161
vt 0.660297 0.970175
vt 0.660297 0.959190
vt 0.656776 0.959190
vt 0.656776 0.959190
vt 0.660297 0.959190
vt 0.576599 0.652472
vt 0.576599 0.655826
vt 0.660297 0.937219
vt 0.660297 0.948204
vt 0.669598 0.955687
vt 0.669598 0.966673
vt 0.663818 0.981161
vt 0.700315 0.660136
vt 0.700315 0.671121
vt 0.696372 0.671121
vt 0.696372 0.660136
vt 0.700315 0.656290
vt 0.696372 0.656290
vt 0.560227 0.652472
vt 0.663818 0.948204
vt 0.663818 0.937219
vt 0.673119 0.966673
vt 0.663818 0.992146
vt 0.560227 0.690124
vt 0.548473 0.690124
vt 0.689732 0.962759
vt 0.681493 0.962760
vt 0.678746 0.962759
vt 0.681493 0.962759
vt 0.673254 0.962759
vt 0.663818 0.962759
vt 0.667761 0.962759
vt 0.576599 0.690124
vt 0.576599 0.679484
vt 0.674054 0.951841
vt 0.674054 0.951841
vt 0.667761 0.953697
vt 0.667761 0.954822
vt 0.673254 0.954822
vt 0.683397 0.894216
vt 0.683397 0.905201
vt 0.683397 0.890370
vt 0.678746 0.954822
vt 0.663818 0.953697
vt 0.656776 0.948204
vt 0.702299 0.031290
vt 0.691805 0.031290
vt 0.663818 0.959190
vt 0.663818 0.954822
vt 0.667761 0.954822
vt 0.663818 0.970175
vt 0.660297 0.970175
vt 0.673828 0.934789
vt 0.663818 0.970175
vt 0.663818 0.966329
vt 0.527484 0.668844
vt 0.537978 0.668844
vt 0.535686 0.680106
vt 0.535686 0.681231
vt 0.532165 0.681231
vt 0.532165 0.680106
vt 0.539630 0.680106
vt 0.539630 0.681231
vt 0.539630 0.689168
vt 0.539630 0.692738
vt 0.535686 0.692738
vt 0.535686 0.689168
vt 0.696486 0.030335
vt 0.696486 0.033905
vt 0.692965 0.033905
vt 0.692965 0.030335
vt 0.545123 0.689168
vt 0.545123 0.692738
vt 0.532165 0.692738
vt 0.532165 0.689168
vt 0.692344 0.968491
vt 0.692344 0.972061
vt 0.689598 0.972061
vt 0.689598 0.968491
vt 0.537978 0.655826
vt 0.537978 0.665489
vt 0.537978 0.690124
vt 0.535686 0.685598
vt 0.532165 0.685598
vt 0.545123 0.685598
vt 0.539630 0.685598
vt 0.528645 0.689168
vt 0.528645 0.685598
vt 0.667761 0.959190
vt 0.673254 0.959190
vt 0.678746 0.959190
vt 0.700583 0.968491
vt 0.700583 0.972061
vt 0.576599 0.668844
vt 0.545123 0.680106
vt 0.545123 0.681231
vt 0.576599 0.665489
vt 0.576599 0.665489
vt 0.535686 0.684473
vt 0.532165 0.684473
vt 0.545123 0.684473
vt 0.539630 0.684473
vt 0.539630 0.684473
vt 0.656776 0.958064
vt 0.660297 0.958064
vt 0.678746 0.958064
vt 0.663818 0.958064
vt 0.667761 0.958064
vt 0.663818 0.958064
vt 0.673254 0.958064
vt 0.678746 0.958064
vt 0.673254 0.958064
vt 0.681493 0.954822
vt 0.660297 0.958064
vt 0.656776 0.958064
vt 0.673254 0.958064
vt 0.689598 0.964124
vt 0.692344 0.964124
vt 0.700583 0.967366
vt 0.692344 0.967366
vt 0.700583 0.964124
vt 0.689598 0.967366
vt 0.700583 0.964124
vt 0.700583 0.967366
vt 0.689598 0.964124
vt 0.683043 0.957238
vt 0.691282 0.957238
vt 0.680297 0.957238
vt 0.683043 0.957238
vt 0.680297 0.957238
vt 0.674804 0.957238
vt 0.691282 0.957238
vt 0.674804 0.957238
vt 0.684105 0.986691
vt 0.684105 0.986691
vt 0.660297 0.966329
vt 0.660297 0.962759
vt 0.656776 0.962759
vt 0.663818 0.970175
vt 0.660297 0.970175
vt 0.656776 0.970175
s 0
usemtl Palitrs
f 234/1/1 211/2/1 4/3/1 11/4/1
f 105/4/2 25/3/2 205/3/2 26/4/2
f 33/5/3 311/6/3 535/6/3 536/5/3
f 46/7/4 207/7/4 210/7/4 204/7/4
f 317/8/1 46/7/1 204/7/1 346/8/1
f 400/9/5 51/10/5 36/10/5 377/9/5
f 211/2/5 10/11/5 37/11/5 215/2/5
f 343/8/5 179/7/5 43/7/5 314/8/5
f 339/8/5 153/7/5 44/7/5 315/8/5
f 335/8/5 127/7/5 45/7/5 316/8/5
f 218/12/5 40/11/5 41/11/5 219/13/5
f 310/8/5 9/7/5 42/7/5 313/8/5
f 313/8/5 42/7/5 180/7/5 344/8/5
f 314/8/5 43/7/5 154/7/5 340/8/5
f 315/8/5 44/7/5 128/7/5 336/8/5
f 316/8/5 45/7/5 46/7/5 317/8/5
f 394/14/5 8/10/5 47/10/5 396/14/5
f 396/14/5 47/10/5 182/10/5 393/14/5
f 397/9/5 48/10/5 156/10/5 391/14/5
f 398/9/5 49/10/5 130/10/5 389/9/5
f 399/9/5 50/10/5 51/10/5 400/9/5
f 264/15/6 61/16/6 32/16/6 253/15/6
f 66/5/1 224/17/1 540/17/1 537/5/1
f 251/18/6 6/19/6 57/19/6 260/20/6
f 260/20/6 57/19/6 186/19/6 283/21/6
f 261/20/6 58/16/6 160/16/6 279/20/6
f 262/20/6 59/16/6 134/16/6 275/20/6
f 263/20/6 60/16/6 61/16/6 264/15/6
f 318/22/4 309/22/4 541/22/4 542/22/4
f 318/23/6 62/24/6 188/24/6 342/23/6
f 319/6/6 63/5/6 162/5/6 338/6/6
f 320/6/6 64/5/6 136/5/6 334/6/6
f 321/6/6 65/5/6 66/5/6 322/6/6
f 322/6/1 66/5/1 537/5/1 543/6/1
f 173/25/2 189/26/2 82/26/2 19/25/2
f 147/25/2 163/26/2 83/26/2 18/25/2
f 121/25/2 137/26/2 84/26/2 17/25/2
f 223/17/6 17/25/6 16/25/6 224/17/6
f 212/17/3 225/27/3 67/28/3 33/5/3
f 311/29/3 323/30/3 68/31/3 32/16/3
f 395/32/3 383/33/3 69/34/3 31/35/3
f 225/27/3 226/36/3 70/37/3 67/28/3
f 323/38/3 324/39/3 71/40/3 68/41/3
f 383/42/3 384/43/3 72/44/3 69/45/3
f 415/46/3 519/47/3 482/48/3 355/49/3
f 415/50/6 373/51/6 427/51/6 429/50/6
f 368/52/2 505/53/2 487/54/2 357/52/2
f 306/55/3 228/56/3 75/57/3 288/58/3
f 350/59/3 326/60/3 76/61/3 289/62/3
f 413/63/3 386/64/3 77/65/3 290/66/3
f 228/56/3 229/67/3 78/68/3 75/57/3
f 326/60/3 327/69/3 79/70/3 76/61/3
f 386/64/3 387/71/3 80/72/3 77/65/3
f 229/1/3 214/12/3 206/11/3 78/73/3
f 327/74/3 312/8/3 207/7/3 79/75/3
f 387/71/3 377/9/3 36/10/3 80/72/3
f 16/25/2 85/26/2 30/26/2 1/25/2
f 85/26/2 90/76/2 29/76/2 30/26/2
f 371/77/3 509/78/3 480/79/3 353/80/3
f 295/81/2 100/82/2 27/82/2 287/83/2
f 100/82/2 105/4/2 26/4/2 27/82/2
f 3/84/2 15/26/2 81/26/2 20/84/2
f 197/4/2 176/3/2 22/3/2 102/4/2
f 171/4/2 150/3/2 23/3/2 103/4/2
f 145/4/2 124/3/2 24/3/2 104/4/2
f 17/25/2 84/26/2 85/26/2 16/25/2
f 15/26/2 14/85/2 86/85/2 81/26/2
f 81/26/2 86/85/2 192/85/2 190/26/2
f 82/26/2 87/76/2 166/76/2 164/26/2
f 83/26/2 88/76/2 140/76/2 138/26/2
f 84/26/2 89/76/2 90/76/2 85/26/2
f 506/86/1 232/87/1 13/88/1 476/89/1
f 351/52/2 477/90/2 484/54/2 356/52/2
f 193/88/2 504/89/2 475/91/2 194/88/2
f 167/88/2 502/89/2 473/91/2 168/88/2
f 500/91/2 141/88/2 94/88/2 490/89/2
f 286/81/2 12/82/2 96/82/2 291/81/2
f 291/81/2 96/82/2 196/82/2 304/81/2
f 292/81/2 97/82/2 170/82/2 302/81/2
f 293/81/2 98/82/2 144/82/2 300/81/2
f 294/81/2 99/82/2 100/82/2 295/81/2
f 12/82/2 11/4/2 101/4/2 96/82/2
f 96/82/2 101/4/2 198/4/2 196/82/2
f 97/82/2 102/4/2 172/4/2 170/82/2
f 98/82/2 103/4/2 146/4/2 144/82/2
f 99/82/2 104/4/2 105/4/2 100/82/2
f 11/4/2 4/3/2 21/3/2 101/4/2
f 215/2/5 37/11/5 178/11/5 246/2/5
f 216/2/5 38/11/5 152/11/5 242/2/5
f 217/2/5 39/11/5 126/11/5 238/2/5
f 104/4/2 24/3/2 25/3/2 105/4/2
f 213/92/1 230/93/1 15/26/1 3/84/1
f 230/93/1 231/94/1 14/85/1 15/26/1
f 360/52/2 493/90/2 478/54/2 352/52/2
f 305/95/1 233/96/1 12/82/1 286/81/1
f 233/96/1 234/1/1 11/4/1 12/82/1
f 251/18/1 269/97/1 107/31/1 6/19/1
f 309/23/1 328/38/1 108/28/1 5/24/1
f 269/98/1 270/99/1 110/100/1 107/41/1
f 328/38/1 329/101/1 111/102/1 108/28/1
f 374/103/1 513/104/1 498/79/1 363/80/1
f 414/105/1 517/106/1 511/107/1 372/108/1
f 307/109/1 272/110/1 116/111/1 297/112/1
f 349/113/1 331/114/1 117/115/1 298/116/1
f 272/110/1 273/117/1 119/75/1 116/111/1
f 331/114/1 332/74/1 120/73/1 117/115/1
f 273/117/1 252/118/1 9/7/1 119/75/1
f 332/74/1 310/8/1 10/11/1 120/73/1
f 222/119/6 18/25/6 122/25/6 236/119/6
f 237/2/5 125/11/5 40/11/5 218/12/5
f 143/82/2 145/4/2 104/4/2 99/82/2
f 299/81/2 143/82/2 99/82/2 294/81/2
f 361/49/1 495/120/1 517/121/1 414/105/1
f 235/119/6 121/25/6 17/25/6 223/17/6
f 18/25/2 83/26/2 138/26/2 122/25/2
f 137/26/2 139/76/2 89/76/2 84/26/2
f 333/6/6 135/5/6 65/5/6 321/6/6
f 274/122/6 133/16/6 60/16/6 263/20/6
f 407/9/5 129/10/5 50/10/5 399/9/5
f 103/4/2 23/3/2 123/3/2 146/4/2
f 221/119/6 19/25/6 148/25/6 240/119/6
f 241/2/5 151/11/5 39/11/5 217/2/5
f 169/82/2 171/4/2 103/4/2 98/82/2
f 301/81/2 169/82/2 98/82/2 293/81/2
f 359/52/2 491/90/2 493/54/2 360/52/2
f 239/119/6 147/25/6 18/25/6 222/119/6
f 19/25/2 82/26/2 164/26/2 148/25/2
f 163/26/2 165/76/2 88/76/2 83/26/2
f 337/6/6 161/5/6 64/5/6 320/6/6
f 278/20/6 159/16/6 59/16/6 262/20/6
f 409/9/5 155/10/5 49/10/5 398/9/5
f 102/4/2 22/3/2 149/3/2 172/4/2
f 220/92/6 20/84/6 174/84/6 244/92/6
f 245/2/5 177/11/5 38/11/5 216/2/5
f 195/82/2 197/4/2 102/4/2 97/82/2
f 303/81/2 195/82/2 97/82/2 292/81/2
f 366/52/2 503/53/2 489/54/2 358/52/2
f 243/119/6 173/25/6 19/25/6 221/119/6
f 20/84/2 81/26/2 190/26/2 174/84/2
f 189/26/2 191/76/2 87/76/2 82/26/2
f 341/6/6 187/5/6 63/5/6 319/6/6
f 282/20/6 185/16/6 58/16/6 261/20/6
f 411/9/5 181/10/5 48/10/5 397/9/5
f 101/4/2 21/3/2 175/3/2 198/4/2
f 124/3/2 145/4/2 146/4/2 123/3/2
f 145/4/2 143/82/2 144/82/2 146/4/2
f 441/123/2 141/88/2 142/88/2 447/123/2
f 364/52/2 139/76/2 140/76/2 365/52/2
f 139/76/2 137/26/2 138/26/2 140/76/2
f 137/26/2 121/25/2 122/25/2 138/26/2
f 235/119/6 135/5/6 136/5/6 236/119/6
f 333/29/6 133/16/6 134/16/6 334/29/6
f 388/124/6 131/35/6 132/35/6 406/125/6
f 276/126/5 127/127/5 128/127/5 277/126/5
f 335/128/5 125/129/5 126/129/5 336/128/5
f 237/2/5 124/3/5 123/3/5 238/2/5
f 150/3/2 171/4/2 172/4/2 149/3/2
f 171/4/2 169/82/2 170/82/2 172/4/2
f 442/123/2 167/88/2 168/88/2 448/123/2
f 366/52/2 165/76/2 166/76/2 367/52/2
f 165/76/2 163/26/2 164/26/2 166/76/2
f 163/26/2 147/25/2 148/25/2 164/26/2
f 239/119/6 161/5/6 162/5/6 240/119/6
f 337/29/6 159/16/6 160/16/6 338/29/6
f 390/125/6 157/35/6 158/35/6 408/125/6
f 280/126/5 153/127/5 154/127/5 281/126/5
f 339/128/5 151/129/5 152/129/5 340/128/5
f 241/2/5 150/3/5 149/3/5 242/2/5
f 176/3/2 197/4/2 198/4/2 175/3/2
f 197/4/2 195/82/2 196/82/2 198/4/2
f 443/123/2 193/88/2 194/88/2 449/123/2
f 368/52/2 191/76/2 192/85/2 369/52/2
f 191/76/2 189/26/2 190/26/2 192/85/2
f 189/26/2 173/25/2 174/84/2 190/26/2
f 243/119/6 187/5/6 188/24/6 244/92/6
f 341/29/6 185/16/6 186/19/6 342/22/6
f 392/125/6 183/35/6 184/130/6 410/131/6
f 284/132/5 179/127/5 180/127/5 285/132/5
f 343/128/5 177/129/5 178/129/5 344/128/5
f 245/2/5 176/3/5 175/3/5 246/2/5
f 248/133/5 203/11/5 209/11/5 247/12/5
f 346/8/5 204/7/5 210/7/5 345/8/5
f 249/134/3 2/135/3 200/136/3 250/134/3
f 205/3/2 25/3/2 199/3/2 208/3/2
f 219/13/1 41/11/1 203/11/1 248/133/1
f 347/137/3 34/138/3 201/138/3 348/137/3
f 249/139/3 34/11/3 206/11/3 214/12/3
f 347/140/3 35/141/3 207/7/3 312/8/3
f 250/142/3 200/143/3 208/3/3 247/12/3
f 348/140/3 201/11/3 209/11/3 345/8/3
f 35/141/3 202/144/3 210/7/3 207/7/3
f 200/143/3 2/145/3 205/3/3 208/3/3
f 201/11/3 250/142/3 247/12/3 209/11/3
f 2/145/3 249/139/3 214/12/3 205/3/3
f 25/3/1 219/13/1 248/133/1 199/3/1
f 34/138/3 249/134/3 250/134/3 201/138/3
f 199/3/5 248/133/5 247/12/5 208/3/5
f 177/11/5 245/2/5 246/2/5 178/11/5
f 173/25/6 243/119/6 244/92/6 174/84/6
f 151/11/5 241/2/5 242/2/5 152/11/5
f 147/25/6 239/119/6 240/119/6 148/25/6
f 125/11/5 237/2/5 238/2/5 126/11/5
f 121/25/6 235/119/6 236/119/6 122/25/6
f 187/5/6 243/119/6 221/119/6 63/5/6
f 176/3/5 245/2/5 216/2/5 22/3/5
f 62/24/6 220/92/6 244/92/6 188/24/6
f 161/5/6 239/119/6 222/119/6 64/5/6
f 150/3/5 241/2/5 217/2/5 23/3/5
f 63/5/6 221/119/6 240/119/6 162/5/6
f 135/5/6 235/119/6 223/17/6 65/5/6
f 124/3/5 237/2/5 218/12/5 24/3/5
f 64/5/6 222/119/6 236/119/6 136/5/6
f 117/115/1 120/73/1 234/1/1 233/96/1
f 298/116/1 117/115/1 233/96/1 305/95/1
f 363/80/1 498/146/1 507/78/1 370/77/1
f 108/28/1 111/102/1 231/94/1 230/93/1
f 5/24/1 108/28/1 230/93/1 213/92/1
f 23/3/5 217/2/5 238/2/5 123/3/5
f 22/3/5 216/2/5 242/2/5 149/3/5
f 21/3/5 215/2/5 246/2/5 175/3/5
f 26/4/3 205/3/3 214/12/3 229/1/3
f 27/82/3 26/4/3 229/1/3 228/96/3
f 287/83/3 27/82/3 228/96/3 306/147/3
f 352/52/3 478/90/3 509/78/3 371/77/3
f 30/26/3 29/76/3 226/36/3 225/27/3
f 1/25/3 30/26/3 225/27/3 212/17/3
f 65/5/6 223/17/6 224/17/6 66/5/6
f 3/84/2 20/84/2 528/84/2 529/84/2
f 24/3/5 218/12/5 219/13/5 25/3/5
f 4/3/5 211/2/5 215/2/5 21/3/5
f 213/92/1 3/84/1 529/84/1 532/92/1
f 120/73/1 10/11/1 211/2/1 234/1/1
f 411/148/5 284/132/5 285/132/5 393/148/5
f 185/16/6 282/20/6 283/21/6 186/19/6
f 409/149/5 280/126/5 281/126/5 391/149/5
f 159/16/6 278/20/6 279/20/6 160/16/6
f 407/149/5 276/126/5 277/126/5 389/149/5
f 133/16/6 274/122/6 275/20/6 134/16/6
f 179/7/5 284/150/5 256/150/5 43/7/5
f 392/125/6 282/20/6 261/20/6 379/125/6
f 153/7/5 280/150/5 257/150/5 44/7/5
f 390/125/6 278/20/6 262/20/6 380/125/6
f 127/7/5 276/150/5 258/150/5 45/7/5
f 388/124/6 274/122/6 263/20/6 381/125/6
f 405/151/1 394/14/1 252/118/1 273/117/1
f 404/152/1 405/151/1 273/117/1 272/110/1
f 296/153/6 438/154/6 577/155/6 578/156/6
f 375/157/2 514/158/2 525/158/2 428/157/2
f 401/159/1 402/160/1 270/99/1 269/98/1
f 376/161/1 401/162/1 269/97/1 251/18/1
f 79/75/3 207/7/3 254/150/3 268/163/3
f 76/164/3 79/165/3 268/166/3 267/167/3
f 289/168/3 76/164/3 267/167/3 308/169/3
f 354/170/6 375/157/6 428/157/6 426/170/6
f 68/41/3 71/40/3 266/171/3 265/172/3
f 32/16/3 68/31/3 265/173/3 253/15/3
f 381/125/6 263/20/6 264/15/6 382/32/6
f 380/125/6 262/20/6 275/20/6 406/125/6
f 379/125/6 261/20/6 279/20/6 408/125/6
f 378/125/6 260/20/6 283/21/6 410/131/6
f 376/161/6 251/18/6 260/20/6 378/125/6
f 382/32/6 264/15/6 253/15/6 395/32/6
f 45/7/5 258/150/5 259/174/5 46/7/5
f 44/7/5 257/150/5 277/150/5 128/7/5
f 43/7/5 256/150/5 281/118/5 154/7/5
f 42/7/5 255/118/5 285/118/5 180/7/5
f 9/7/5 252/118/5 255/118/5 42/7/5
f 46/7/5 259/174/5 254/150/5 207/7/5
f 289/175/5 308/176/5 423/176/5 420/175/5
f 588/110/2 590/109/2 585/109/2 581/110/2
f 431/177/3 287/83/3 306/147/3 445/178/3
f 440/179/1 298/116/1 305/95/1 444/180/1
f 195/82/2 303/81/2 304/81/2 196/82/2
f 169/82/2 301/81/2 302/81/2 170/82/2
f 143/82/2 299/81/2 300/81/2 144/82/2
f 443/123/2 303/81/2 292/81/2 434/123/2
f 442/123/2 301/81/2 293/81/2 435/123/2
f 441/123/2 299/81/2 294/81/2 436/123/2
f 451/181/1 349/113/1 298/116/1 440/179/1
f 446/182/1 307/109/1 297/112/1 439/183/1
f 444/180/1 305/95/1 286/81/1 430/123/1
f 436/123/2 294/81/2 295/81/2 437/123/2
f 435/123/2 293/81/2 300/81/2 447/123/2
f 434/123/2 292/81/2 302/81/2 448/123/2
f 433/123/2 291/81/2 304/81/2 449/123/2
f 430/123/2 286/81/2 291/81/2 433/123/2
f 437/123/2 295/81/2 287/83/2 431/177/2
f 350/184/5 289/175/5 420/175/5 425/184/5
f 450/185/2 350/184/2 425/184/2 456/185/2
f 445/178/3 306/147/3 288/116/3 432/179/3
f 432/179/3 288/116/3 350/113/3 450/181/3
f 439/183/1 297/112/1 349/113/1 451/181/1
f 202/144/3 348/140/3 345/8/3 210/7/3
f 34/11/3 347/140/3 312/8/3 206/11/3
f 35/186/3 347/137/3 348/137/3 202/187/3
f 203/11/5 346/8/5 345/8/5 209/11/5
f 179/127/5 343/128/5 344/128/5 180/127/5
f 187/5/6 341/6/6 342/23/6 188/24/6
f 153/127/5 339/128/5 340/128/5 154/127/5
f 161/5/6 337/6/6 338/6/6 162/5/6
f 127/127/5 335/128/5 336/128/5 128/127/5
f 135/5/6 333/6/6 334/6/6 136/5/6
f 185/16/6 341/29/6 319/29/6 58/16/6
f 159/16/6 337/29/6 320/29/6 59/16/6
f 133/16/6 333/29/6 321/29/6 60/16/6
f 119/75/1 9/7/1 310/8/1 332/74/1
f 116/111/1 119/75/1 332/74/1 331/114/1
f 297/112/1 116/111/1 331/114/1 349/113/1
f 362/188/1 496/189/1 513/190/1 374/103/1
f 107/41/1 110/100/1 329/101/1 328/38/1
f 6/19/1 107/31/1 328/30/1 309/22/1
f 78/73/3 206/11/3 312/8/3 327/74/3
f 75/191/3 78/192/3 327/69/3 326/60/3
f 288/193/3 75/191/3 326/60/3 350/59/3
f 353/80/3 480/194/3 514/190/3 375/103/3
f 67/28/3 70/37/3 324/39/3 323/38/3
f 33/5/3 67/28/3 323/38/3 311/6/3
f 60/16/6 321/29/6 322/29/6 61/16/6
f 59/16/6 320/29/6 334/29/6 134/16/6
f 58/16/6 319/29/6 338/29/6 160/16/6
f 57/19/6 318/22/6 342/22/6 186/19/6
f 6/19/6 309/22/6 318/22/6 57/19/6
f 61/16/6 322/29/6 311/29/6 32/16/6
f 40/11/5 316/8/5 317/8/5 41/11/5
f 39/11/5 315/8/5 336/8/5 126/11/5
f 38/11/5 314/8/5 340/8/5 152/11/5
f 37/11/5 313/8/5 344/8/5 178/11/5
f 10/11/5 310/8/5 313/8/5 37/11/5
f 125/11/5 335/8/5 316/8/5 40/11/5
f 151/11/5 339/8/5 315/8/5 39/11/5
f 177/11/5 343/8/5 314/8/5 38/11/5
f 41/11/1 317/8/1 346/8/1 203/11/1
f 70/37/3 353/80/3 375/103/3 324/39/3
f 110/100/1 362/188/1 374/103/1 329/101/1
f 71/40/3 354/188/3 373/195/3 266/171/3
f 402/160/1 414/105/1 372/108/1 270/99/1
f 29/76/3 352/52/3 371/77/3 226/36/3
f 111/102/1 363/80/1 370/77/1 231/94/1
f 485/91/2 91/88/2 194/88/2 475/89/2
f 486/91/2 92/88/2 168/88/2 473/89/2
f 488/91/2 93/88/2 142/88/2 471/89/2
f 191/76/2 368/52/2 357/52/2 87/76/2
f 165/76/2 366/52/2 358/52/2 88/76/2
f 139/76/2 364/52/2 359/52/2 89/76/2
f 329/101/1 374/103/1 363/80/1 111/102/1
f 270/99/1 372/108/1 362/188/1 110/100/1
f 231/94/1 370/77/1 351/52/1 14/85/1
f 89/76/2 359/52/2 360/52/2 90/76/2
f 88/76/2 358/52/2 365/52/2 140/76/2
f 87/76/2 357/52/2 367/52/2 166/76/2
f 86/85/2 356/52/2 369/52/2 192/85/2
f 14/85/2 351/52/2 356/52/2 86/85/2
f 90/76/2 360/52/2 352/52/2 29/76/2
f 384/43/3 415/46/3 355/49/3 72/44/3
f 324/39/3 375/103/3 354/188/3 71/40/3
f 226/36/3 371/77/3 353/80/3 70/37/3
f 266/171/3 373/195/3 415/46/3 384/43/3
f 109/196/1 361/49/1 414/105/1 402/160/1
f 413/197/5 290/198/5 421/198/5 424/197/5
f 589/199/6 296/153/6 578/156/6 579/199/6
f 56/35/6 382/32/6 395/32/6 31/35/6
f 7/130/6 376/161/6 378/125/6 52/130/6
f 52/130/6 378/125/6 410/131/6 184/130/6
f 53/35/6 379/125/6 408/125/6 158/35/6
f 54/35/6 380/125/6 406/125/6 132/35/6
f 55/35/6 381/125/6 382/32/6 56/35/6
f 7/130/1 106/34/1 401/162/1 376/161/1
f 106/45/1 109/196/1 402/160/1 401/159/1
f 372/108/1 511/200/1 496/201/1 362/188/1
f 601/202/1 600/203/1 593/152/1 594/110/1
f 115/65/1 118/72/1 405/151/1 404/152/1
f 118/72/1 8/10/1 394/14/1 405/151/1
f 131/35/6 388/124/6 381/125/6 55/35/6
f 157/35/6 390/125/6 380/125/6 54/35/6
f 183/35/6 392/125/6 379/125/6 53/35/6
f 129/204/5 407/149/5 389/149/5 130/204/5
f 155/204/5 409/149/5 391/149/5 156/204/5
f 181/204/5 411/148/5 393/148/5 182/204/5
f 282/20/6 392/125/6 410/131/6 283/21/6
f 278/20/6 390/125/6 408/125/6 279/20/6
f 274/122/6 388/124/6 406/125/6 275/20/6
f 284/150/5 411/9/5 397/9/5 256/150/5
f 280/150/5 409/9/5 398/9/5 257/150/5
f 276/150/5 407/9/5 399/9/5 258/150/5
f 268/163/3 254/150/3 377/9/3 387/71/3
f 267/205/3 268/163/3 387/71/3 386/64/3
f 308/206/3 267/205/3 386/64/3 413/63/3
f 74/207/6 385/208/6 418/208/6 419/207/6
f 265/172/3 266/171/3 384/43/3 383/42/3
f 253/15/3 265/173/3 383/33/3 395/32/3
f 258/150/5 399/9/5 400/9/5 259/174/5
f 257/150/5 398/9/5 389/9/5 277/150/5
f 256/150/5 397/9/5 391/14/5 281/118/5
f 255/118/5 396/14/5 393/14/5 285/118/5
f 252/118/5 394/14/5 396/14/5 255/118/5
f 259/174/5 400/9/5 377/9/5 254/150/5
f 427/209/3 522/210/3 526/211/3 429/212/3
f 426/213/3 520/214/3 522/210/3 427/209/3
f 453/215/3 420/216/3 423/217/3 455/218/3
f 457/219/3 424/220/3 421/221/3 454/222/3
f 456/223/3 425/224/3 420/216/3 453/215/3
f 455/218/3 423/217/3 424/225/3 457/226/3
f 467/227/3 464/228/3 465/229/3 466/230/3
f 373/51/6 354/170/6 426/170/6 427/51/6
f 519/231/4 415/50/4 429/50/4 526/231/4
f 385/208/4 518/232/4 527/232/4 418/208/4
f 308/176/5 413/233/5 424/233/5 423/176/5
f 422/234/3 455/218/3 457/226/3 418/235/3
f 416/236/3 456/223/3 453/215/3 417/237/3
f 418/235/3 457/226/3 454/238/3 419/239/3
f 417/237/3 453/215/3 455/218/3 422/234/3
f 591/182/2 589/199/2 579/199/2 582/182/2
f 113/240/1 439/183/1 451/181/1 330/241/1
f 73/242/3 432/179/3 450/181/3 325/241/3
f 28/243/2 431/244/2 469/244/2 468/243/2
f 325/245/2 450/185/2 456/185/2 416/245/2
f 95/88/2 437/123/2 431/177/2 28/88/2
f 13/88/2 430/123/2 433/123/2 91/88/2
f 91/88/2 433/123/2 449/123/2 194/88/2
f 92/88/2 434/123/2 448/123/2 168/88/2
f 93/88/2 435/123/2 447/123/2 142/88/2
f 94/88/2 436/123/2 437/123/2 95/88/2
f 232/87/1 444/180/1 430/123/1 13/88/1
f 271/199/1 446/182/1 439/183/1 113/240/1
f 330/241/1 451/181/1 440/179/1 114/242/1
f 141/88/2 441/123/2 436/123/2 94/88/2
f 167/88/2 442/123/2 435/123/2 93/88/2
f 193/88/2 443/123/2 434/123/2 92/88/2
f 114/242/1 440/179/1 444/180/1 232/87/1
f 431/244/5 445/228/5 464/228/5 469/244/5
f 590/109/2 591/182/2 582/182/2 585/109/2
f 303/81/2 443/123/2 449/123/2 304/81/2
f 301/81/2 442/123/2 448/123/2 302/81/2
f 299/81/2 441/123/2 447/123/2 300/81/2
f 428/246/3 525/247/3 520/214/3 426/213/3
f 515/248/2 325/245/2 416/245/2 524/249/2
f 523/250/3 422/234/3 418/235/3 527/251/3
f 524/252/3 416/236/3 417/237/3 521/253/3
f 521/254/3 417/237/3 422/234/3 523/250/3
f 494/255/1 112/155/1 403/156/1 516/256/1
f 358/52/2 489/90/2 470/54/2 365/52/2
f 357/52/2 487/53/2 472/54/2 367/52/2
f 356/52/2 484/90/2 474/54/2 369/52/2
f 508/86/3 227/87/3 73/242/3 481/257/3
f 510/258/1 271/199/1 113/240/1 497/259/1
f 516/256/1 403/156/1 271/199/1 510/260/1
f 492/91/2 95/88/2 28/88/2 479/89/2
f 512/261/1 330/241/1 114/242/1 499/262/1
f 504/91/2 193/88/2 92/88/2 486/89/2
f 502/91/2 167/88/2 93/88/2 488/89/2
f 490/91/2 94/88/2 95/88/2 492/89/2
f 499/257/1 114/242/1 232/87/1 506/86/1
f 497/259/1 113/240/1 330/241/1 512/263/1
f 476/91/2 13/88/2 91/88/2 485/89/2
f 364/52/2 501/90/2 491/54/2 359/52/2
f 501/54/2 364/52/2 365/52/2 470/53/2
f 503/54/2 366/52/2 367/52/2 472/90/2
f 505/54/2 368/52/2 369/52/2 474/53/2
f 370/77/1 507/264/1 477/54/1 351/52/1
f 479/91/3 28/88/3 227/87/3 508/86/3
f 518/265/3 385/153/3 74/155/3 483/266/3
f 481/257/3 73/242/3 325/241/3 515/267/3
f 519/231/4 526/231/4 527/232/4 518/232/4
f 515/248/2 524/249/2 525/158/2 514/158/2
f 523/250/3 527/251/3 526/211/3 522/210/3
f 521/254/3 523/250/3 522/210/3 520/214/3
f 524/252/3 521/253/3 520/214/3 525/247/3
f 494/255/1 516/256/1 517/121/1 495/120/1
f 501/54/2 470/53/2 471/91/2 500/89/2
f 503/54/2 472/90/2 473/91/2 502/89/2
f 505/54/2 474/53/2 475/91/2 504/89/2
f 481/257/3 515/267/3 514/190/3 480/194/3
f 497/259/1 512/263/1 513/190/1 496/189/1
f 516/256/1 510/260/1 511/107/1 517/106/1
f 480/268/6 509/269/6 458/269/6 463/268/6
f 499/257/1 506/86/1 507/78/1 498/146/1
f 504/91/2 486/89/2 487/54/2 505/53/2
f 502/91/2 488/89/2 489/54/2 503/53/2
f 500/91/2 490/89/2 491/54/2 501/90/2
f 512/261/1 499/262/1 498/79/1 513/104/1
f 510/258/1 497/259/1 496/201/1 511/200/1
f 506/86/1 476/89/1 477/54/1 507/264/1
f 490/91/2 492/89/2 493/54/2 491/90/2
f 488/91/2 471/89/2 470/54/2 489/90/2
f 486/91/2 473/89/2 472/54/2 487/53/2
f 485/91/2 475/89/2 474/54/2 484/90/2
f 476/91/2 485/89/2 484/54/2 477/90/2
f 492/91/2 479/89/2 478/54/2 493/90/2
f 518/265/3 483/266/3 482/48/3 519/47/3
f 479/270/5 508/271/5 459/271/5 460/270/5
f 141/88/2 500/89/2 471/91/2 142/88/2
f 468/243/3 469/244/3 464/228/3 467/227/3
f 460/270/3 459/271/3 458/269/3 461/272/3
f 459/271/3 462/273/3 463/268/3 458/269/3
f 73/230/6 227/227/6 467/227/6 466/230/6
f 509/269/6 478/272/6 461/272/6 458/269/6
f 478/274/2 479/275/2 460/275/2 461/274/2
f 445/228/5 432/229/5 465/229/5 464/228/5
f 508/271/5 481/273/5 462/273/5 459/271/5
f 227/227/6 28/243/6 468/243/6 467/227/6
f 481/273/4 480/276/4 463/276/4 462/273/4
f 432/229/4 73/230/4 466/230/4 465/229/4
f 546/277/6 547/278/6 570/278/6 569/277/6
f 547/278/2 531/278/2 561/278/2 570/278/2
f 554/279/6 555/280/6 573/280/6 574/279/6
f 537/5/1 540/17/1 556/17/1 553/5/1
f 541/23/1 533/24/1 549/24/1 557/23/1
f 529/84/2 528/84/2 544/84/2 545/84/2
f 311/29/4 322/29/4 543/29/4 535/29/4
f 309/23/1 5/24/1 533/24/1 541/23/1
f 1/25/3 212/17/3 530/17/3 531/25/3
f 224/17/1 16/25/1 534/25/1 540/17/1
f 62/24/3 318/23/3 542/23/3 538/24/3
f 5/24/1 213/92/1 532/92/1 533/24/1
f 220/92/3 62/24/3 538/24/3 539/92/3
f 212/17/3 33/5/3 536/5/3 530/17/3
f 20/84/3 220/92/3 539/92/3 528/84/3
f 16/25/2 1/25/2 531/25/2 534/25/2
f 556/17/6 550/25/6 547/25/6 546/17/6
f 559/6/6 553/5/6 552/5/6 551/6/6
f 557/23/6 549/24/6 554/24/6 558/23/6
f 548/92/6 545/84/6 544/84/6 555/92/6
f 549/24/6 548/92/6 555/92/6 554/24/6
f 553/5/6 556/17/6 546/17/6 552/5/6
f 533/24/1 532/92/1 548/92/1 549/24/1
f 543/6/1 537/5/1 553/5/1 559/6/1
f 532/92/1 529/84/1 545/84/1 548/92/1
f 534/25/2 531/25/2 547/25/2 550/25/2
f 542/22/4 541/22/4 557/22/4 558/22/4
f 530/277/5 536/281/5 563/281/5 560/277/5
f 538/279/5 542/282/5 568/282/5 565/279/5
f 535/29/4 543/29/4 559/29/4 551/29/4
f 540/17/1 534/25/1 550/25/1 556/17/1
f 531/278/5 530/277/5 560/277/5 561/278/5
f 560/277/3 563/281/3 572/281/3 569/277/3
f 565/279/3 568/282/3 575/282/3 574/279/3
f 561/278/3 560/277/3 569/277/3 570/278/3
f 566/283/3 564/280/3 573/280/3 567/283/3
f 563/281/3 562/284/3 571/284/3 572/281/3
f 564/280/3 565/279/3 574/279/3 573/280/3
f 528/283/5 539/280/5 564/280/5 566/283/5
f 558/282/6 554/279/6 574/279/6 575/282/6
f 535/285/4 551/285/4 571/285/4 562/285/4
f 536/281/5 535/284/5 562/284/5 563/281/5
f 552/281/6 546/277/6 569/277/6 572/281/6
f 542/286/4 558/286/4 575/286/4 568/286/4
f 555/280/6 544/283/6 567/283/6 573/280/6
f 551/284/6 552/281/6 572/281/6 571/284/6
f 544/283/2 528/283/2 566/283/2 567/283/2
f 539/280/5 538/279/5 565/279/5 564/280/5
f 586/287/1 580/152/1 581/110/1 585/109/1
f 587/288/1 586/287/1 585/109/1 582/182/1
f 576/289/1 584/66/1 586/287/1 587/288/1
f 584/66/1 583/65/1 580/152/1 586/287/1
f 577/155/1 576/289/1 587/288/1 578/156/1
f 578/156/1 587/288/1 582/182/1 579/199/1
f 602/290/2 597/110/2 606/110/2 608/290/2
f 404/152/5 272/110/5 588/110/5 412/291/5
f 307/109/2 446/182/2 591/182/2 590/109/2
f 446/182/2 271/199/2 589/199/2 591/182/2
f 115/65/5 404/152/5 412/291/5 452/292/5
f 271/199/6 403/156/6 296/153/6 589/199/6
f 272/110/2 307/109/2 590/109/2 588/110/2
f 403/156/6 112/155/6 438/154/6 296/153/6
f 596/292/5 592/291/5 593/152/5 595/65/5
f 592/291/5 597/110/5 594/110/5 593/152/5
f 598/292/6 599/291/6 604/291/6 609/292/6
f 600/203/1 603/65/1 595/65/1 593/152/1
f 602/290/2 601/202/2 594/110/2 597/110/2
f 588/110/2 581/110/2 601/202/2 602/290/2
f 580/152/1 583/65/1 603/65/1 600/203/1
f 412/291/3 588/110/3 602/290/3 599/291/3
f 452/292/3 412/291/3 599/291/3 598/292/3
f 581/110/1 580/152/1 600/203/1 601/202/1
f 609/292/3 604/291/3 605/291/3 607/292/3
f 604/291/3 608/290/3 606/110/3 605/291/3
f 597/110/5 592/291/5 605/291/5 606/110/5
f 599/291/6 602/290/6 608/290/6 604/291/6
f 592/291/5 596/292/5 607/292/5 605/291/5
f 807/1/1 618/4/1 613/3/1 784/2/1
f 695/4/4 633/4/4 778/3/4 632/3/4
f 639/5/3 1097/5/3 1096/6/3 883/6/3
f 651/7/2 777/7/2 783/7/2 780/7/2
f 889/8/1 918/8/1 777/7/1 651/7/1
f 970/9/5 947/9/5 36/10/5 51/10/5
f 784/2/5 788/2/5 642/11/5 617/11/5
f 915/8/5 886/8/5 648/7/5 756/7/5
f 911/8/5 887/8/5 649/7/5 734/7/5
f 907/8/5 888/8/5 650/7/5 712/7/5
f 791/12/5 792/13/5 646/11/5 645/11/5
f 882/8/5 885/8/5 647/7/5 616/7/5
f 885/8/5 916/8/5 757/7/5 647/7/5
f 886/8/5 912/8/5 735/7/5 648/7/5
f 887/8/5 908/8/5 713/7/5 649/7/5
f 888/8/5 889/8/5 651/7/5 650/7/5
f 964/14/5 966/14/5 47/10/5 8/10/5
f 966/14/5 963/14/5 182/10/5 47/10/5
f 967/9/5 961/14/5 156/10/5 48/10/5
f 968/9/5 959/9/5 130/10/5 49/10/5
f 969/9/5 970/9/5 51/10/5 50/10/5
f 837/15/6 826/15/6 638/16/6 656/16/6
f 661/5/1 1098/5/1 1101/17/1 797/17/1
f 824/18/6 833/20/6 652/19/6 615/19/6
f 833/20/6 856/21/6 759/19/6 652/19/6
f 834/20/6 852/20/6 737/16/6 653/16/6
f 835/20/6 848/20/6 715/16/6 654/16/6
f 836/20/6 837/15/6 656/16/6 655/16/6
f 890/22/2 1103/22/2 1102/22/2 881/22/2
f 890/23/6 914/23/6 761/24/6 657/24/6
f 891/6/6 910/6/6 739/5/6 658/5/6
f 892/6/6 906/6/6 717/5/6 659/5/6
f 893/6/6 894/6/6 661/5/6 660/5/6
f 894/6/1 1104/6/1 1098/5/1 661/5/1
f 750/25/4 626/25/4 672/26/4 762/26/4
f 728/25/4 625/25/4 673/26/4 740/26/4
f 706/25/4 624/25/4 674/26/4 718/26/4
f 796/17/6 797/17/6 623/25/6 624/25/6
f 785/17/3 639/5/3 662/28/3 798/27/3
f 883/29/3 638/16/3 663/31/3 895/30/3
f 965/32/3 31/35/3 69/34/3 953/33/3
f 798/27/3 662/28/3 664/37/3 799/36/3
f 895/38/3 663/41/3 665/40/3 896/39/3
f 953/42/3 69/45/3 72/44/3 954/43/3
f 985/46/3 355/49/3 482/48/3 1080/47/3
f 985/50/6 997/50/6 995/51/6 943/51/6
f 938/52/4 928/52/4 1050/54/4 1066/53/4
f 878/55/3 861/58/3 667/57/3 801/56/3
f 922/59/3 862/62/3 668/61/3 898/60/3
f 983/63/3 290/66/3 77/65/3 956/64/3
f 801/56/3 667/57/3 669/68/3 802/67/3
f 898/60/3 668/61/3 670/70/3 899/69/3
f 956/64/3 77/65/3 80/72/3 957/71/3
f 802/1/3 669/73/3 779/11/3 787/12/3
f 899/74/3 670/75/3 780/7/3 884/8/3
f 957/71/3 80/72/3 36/10/3 947/9/3
f 623/25/4 610/25/4 637/26/4 675/26/4
f 675/26/4 637/26/4 636/76/4 680/76/4
f 941/77/3 925/80/3 1045/79/3 1070/78/3
f 867/81/4 860/83/4 634/82/4 690/82/4
f 690/82/4 634/82/4 633/4/4 695/4/4
f 612/84/4 627/84/4 671/26/4 622/26/4
f 770/4/4 692/4/4 629/3/4 753/3/4
f 748/4/4 693/4/4 630/3/4 731/3/4
f 726/4/4 694/4/4 631/3/4 709/3/4
f 624/25/4 623/25/4 675/26/4 674/26/4
f 622/26/4 671/26/4 676/85/4 621/85/4
f 671/26/4 763/26/4 765/85/4 676/85/4
f 672/26/4 741/26/4 743/76/4 677/76/4
f 673/26/4 719/26/4 721/76/4 678/76/4
f 674/26/4 675/26/4 680/76/4 679/76/4
f 1067/86/1 1041/89/1 620/88/1 805/87/1
f 923/52/4 927/52/4 1047/54/4 1042/90/4
f 766/88/4 767/88/4 1040/91/4 1065/89/4
f 744/88/4 745/88/4 1038/91/4 1063/89/4
f 1061/91/4 1053/89/4 684/88/4 722/88/4
f 859/81/4 863/81/4 686/82/4 619/82/4
f 863/81/4 876/81/4 769/82/4 686/82/4
f 864/81/4 874/81/4 747/82/4 687/82/4
f 865/81/4 872/81/4 725/82/4 688/82/4
f 866/81/4 867/81/4 690/82/4 689/82/4
f 619/82/4 686/82/4 691/4/4 618/4/4
f 686/82/4 769/82/4 771/4/4 691/4/4
f 687/82/4 747/82/4 749/4/4 692/4/4
f 688/82/4 725/82/4 727/4/4 693/4/4
f 689/82/4 690/82/4 695/4/4 694/4/4
f 618/4/4 691/4/4 628/3/4 613/3/4
f 788/2/5 819/2/5 755/11/5 642/11/5
f 789/2/5 815/2/5 733/11/5 643/11/5
f 790/2/5 811/2/5 711/11/5 644/11/5
f 694/4/4 695/4/4 632/3/4 631/3/4
f 786/92/1 612/84/1 622/26/1 803/93/1
f 803/93/1 622/26/1 621/85/1 804/94/1
f 931/52/4 924/52/4 1043/54/4 1056/90/4
f 877/95/1 859/81/1 619/82/1 806/96/1
f 806/96/1 619/82/1 618/4/1 807/1/1
f 824/18/1 615/19/1 696/31/1 842/97/1
f 881/23/1 614/24/1 697/28/1 900/38/1
f 842/98/1 696/41/1 698/100/1 843/99/1
f 900/38/1 697/28/1 699/102/1 901/101/1
f 944/103/1 933/80/1 1059/79/1 1074/104/1
f 984/105/1 942/108/1 1072/107/1 1078/106/1
f 879/109/1 869/112/1 702/111/1 845/110/1
f 921/113/1 870/116/1 703/115/1 903/114/1
f 845/110/1 702/111/1 704/75/1 846/117/1
f 903/114/1 703/115/1 705/73/1 904/74/1
f 846/117/1 704/75/1 616/7/1 825/118/1
f 904/74/1 705/73/1 617/11/1 882/8/1
f 795/119/6 809/119/6 707/25/6 625/25/6
f 810/2/5 791/12/5 645/11/5 710/11/5
f 724/82/4 689/82/4 694/4/4 726/4/4
f 871/81/4 866/81/4 689/82/4 724/82/4
f 361/49/1 984/105/1 1078/121/1 495/120/1
f 808/119/6 796/17/6 624/25/6 706/25/6
f 625/25/4 707/25/4 719/26/4 673/26/4
f 718/26/4 674/26/4 679/76/4 720/76/4
f 905/6/6 893/6/6 660/5/6 716/5/6
f 847/122/6 836/20/6 655/16/6 714/16/6
f 977/9/5 969/9/5 50/10/5 129/10/5
f 693/4/4 727/4/4 708/3/4 630/3/4
f 794/119/6 813/119/6 729/25/6 626/25/6
f 814/2/5 790/2/5 644/11/5 732/11/5
f 746/82/4 688/82/4 693/4/4 748/4/4
f 873/81/4 865/81/4 688/82/4 746/82/4
f 930/52/4 931/52/4 1056/54/4 1054/90/4
f 812/119/6 795/119/6 625/25/6 728/25/6
f 626/25/4 729/25/4 741/26/4 672/26/4
f 740/26/4 673/26/4 678/76/4 742/76/4
f 909/6/6 892/6/6 659/5/6 738/5/6
f 851/20/6 835/20/6 654/16/6 736/16/6
f 979/9/5 968/9/5 49/10/5 155/10/5
f 692/4/4 749/4/4 730/3/4 629/3/4
f 793/92/6 817/92/6 751/84/6 627/84/6
f 818/2/5 789/2/5 643/11/5 754/11/5
f 768/82/4 687/82/4 692/4/4 770/4/4
f 875/81/4 864/81/4 687/82/4 768/82/4
f 936/52/4 929/52/4 1052/54/4 1064/53/4
f 816/119/6 794/119/6 626/25/6 750/25/6
f 627/84/4 751/84/4 763/26/4 671/26/4
f 762/26/4 672/26/4 677/76/4 764/76/4
f 913/6/6 891/6/6 658/5/6 760/5/6
f 855/20/6 834/20/6 653/16/6 758/16/6
f 981/9/5 967/9/5 48/10/5 181/10/5
f 691/4/4 771/4/4 752/3/4 628/3/4
f 709/3/4 708/3/4 727/4/4 726/4/4
f 726/4/4 727/4/4 725/82/4 724/82/4
f 1008/123/4 1014/123/4 723/88/4 722/88/4
f 934/52/4 935/52/4 721/76/4 720/76/4
f 720/76/4 721/76/4 719/26/4 718/26/4
f 718/26/4 719/26/4 707/25/4 706/25/4
f 808/119/6 809/119/6 717/5/6 716/5/6
f 905/29/6 906/29/6 715/16/6 714/16/6
f 958/124/6 976/125/6 132/35/6 131/35/6
f 849/126/5 850/126/5 713/127/5 712/127/5
f 907/128/5 908/128/5 711/129/5 710/129/5
f 810/2/5 811/2/5 708/3/5 709/3/5
f 731/3/4 730/3/4 749/4/4 748/4/4
f 748/4/4 749/4/4 747/82/4 746/82/4
f 1009/123/4 1015/123/4 745/88/4 744/88/4
f 936/52/4 937/52/4 743/76/4 742/76/4
f 742/76/4 743/76/4 741/26/4 740/26/4
f 740/26/4 741/26/4 729/25/4 728/25/4
f 812/119/6 813/119/6 739/5/6 738/5/6
f 909/29/6 910/29/6 737/16/6 736/16/6
f 960/125/6 978/125/6 158/35/6 157/35/6
f 853/126/5 854/126/5 735/127/5 734/127/5
f 911/128/5 912/128/5 733/129/5 732/129/5
f 814/2/5 815/2/5 730/3/5 731/3/5
f 753/3/4 752/3/4 771/4/4 770/4/4
f 770/4/4 771/4/4 769/82/4 768/82/4
f 1010/123/4 1016/123/4 767/88/4 766/88/4
f 938/52/4 939/52/4 765/85/4 764/76/4
f 764/76/4 765/85/4 763/26/4 762/26/4
f 762/26/4 763/26/4 751/84/4 750/25/4
f 816/119/6 817/92/6 761/24/6 760/5/6
f 913/29/6 914/22/6 759/19/6 758/16/6
f 962/125/6 980/131/6 184/130/6 183/35/6
f 857/132/5 858/132/5 757/127/5 756/127/5
f 915/128/5 916/128/5 755/129/5 754/129/5
f 818/2/5 819/2/5 752/3/5 753/3/5
f 821/133/5 820/12/5 782/11/5 776/11/5
f 918/8/5 917/8/5 783/7/5 777/7/5
f 822/134/3 823/134/3 773/136/3 611/135/3
f 778/3/4 781/3/4 772/3/4 632/3/4
f 792/13/1 821/133/1 776/11/1 646/11/1
f 919/137/3 920/137/3 774/138/3 640/138/3
f 822/139/3 787/12/3 779/11/3 640/11/3
f 919/140/3 884/8/3 780/7/3 641/141/3
f 823/142/3 820/12/3 781/3/3 773/143/3
f 920/140/3 917/8/3 782/11/3 774/11/3
f 641/141/3 780/7/3 783/7/3 775/144/3
f 773/143/3 781/3/3 778/3/3 611/145/3
f 774/11/3 782/11/3 820/12/3 823/142/3
f 611/145/3 778/3/3 787/12/3 822/139/3
f 632/3/1 772/3/1 821/133/1 792/13/1
f 640/138/3 774/138/3 823/134/3 822/134/3
f 772/3/5 781/3/5 820/12/5 821/133/5
f 754/11/5 755/11/5 819/2/5 818/2/5
f 750/25/6 751/84/6 817/92/6 816/119/6
f 732/11/5 733/11/5 815/2/5 814/2/5
f 728/25/6 729/25/6 813/119/6 812/119/6
f 710/11/5 711/11/5 811/2/5 810/2/5
f 706/25/6 707/25/6 809/119/6 808/119/6
f 760/5/6 658/5/6 794/119/6 816/119/6
f 753/3/5 629/3/5 789/2/5 818/2/5
f 657/24/6 761/24/6 817/92/6 793/92/6
f 738/5/6 659/5/6 795/119/6 812/119/6
f 731/3/5 630/3/5 790/2/5 814/2/5
f 658/5/6 739/5/6 813/119/6 794/119/6
f 716/5/6 660/5/6 796/17/6 808/119/6
f 709/3/5 631/3/5 791/12/5 810/2/5
f 659/5/6 717/5/6 809/119/6 795/119/6
f 703/115/1 806/96/1 807/1/1 705/73/1
f 870/116/1 877/95/1 806/96/1 703/115/1
f 933/80/1 940/77/1 1068/78/1 1059/146/1
f 697/28/1 803/93/1 804/94/1 699/102/1
f 614/24/1 786/92/1 803/93/1 697/28/1
f 630/3/5 708/3/5 811/2/5 790/2/5
f 629/3/5 730/3/5 815/2/5 789/2/5
f 628/3/5 752/3/5 819/2/5 788/2/5
f 633/4/3 802/1/3 787/12/3 778/3/3
f 634/82/3 801/96/3 802/1/3 633/4/3
f 860/83/3 878/147/3 801/96/3 634/82/3
f 924/52/3 941/77/3 1070/78/3 1043/90/3
f 637/26/3 798/27/3 799/36/3 636/76/3
f 610/25/3 785/17/3 798/27/3 637/26/3
f 660/5/6 661/5/6 797/17/6 796/17/6
f 612/84/4 1090/84/4 1089/84/4 627/84/4
f 631/3/5 632/3/5 792/13/5 791/12/5
f 613/3/5 628/3/5 788/2/5 784/2/5
f 786/92/1 1093/92/1 1090/84/1 612/84/1
f 705/73/1 807/1/1 784/2/1 617/11/1
f 981/148/5 963/148/5 858/132/5 857/132/5
f 758/16/6 759/19/6 856/21/6 855/20/6
f 979/149/5 961/149/5 854/126/5 853/126/5
f 736/16/6 737/16/6 852/20/6 851/20/6
f 977/149/5 959/149/5 850/126/5 849/126/5
f 714/16/6 715/16/6 848/20/6 847/122/6
f 756/7/5 648/7/5 829/150/5 857/150/5
f 962/125/6 949/125/6 834/20/6 855/20/6
f 734/7/5 649/7/5 830/150/5 853/150/5
f 960/125/6 950/125/6 835/20/6 851/20/6
f 712/7/5 650/7/5 831/150/5 849/150/5
f 958/124/6 951/125/6 836/20/6 847/122/6
f 975/151/1 846/117/1 825/118/1 964/14/1
f 974/152/1 845/110/1 846/117/1 975/151/1
f 868/153/6 1137/156/6 577/155/6 438/154/6
f 945/157/4 996/157/4 1086/158/4 1075/158/4
f 971/159/1 842/98/1 843/99/1 972/160/1
f 946/161/1 824/18/1 842/97/1 971/162/1
f 670/75/3 841/163/3 827/150/3 780/7/3
f 668/164/3 840/167/3 841/166/3 670/165/3
f 862/168/3 880/169/3 840/167/3 668/164/3
f 926/170/6 994/170/6 996/157/6 945/157/6
f 663/41/3 838/172/3 839/171/3 665/40/3
f 638/16/3 826/15/3 838/173/3 663/31/3
f 951/125/6 952/32/6 837/15/6 836/20/6
f 950/125/6 976/125/6 848/20/6 835/20/6
f 949/125/6 978/125/6 852/20/6 834/20/6
f 948/125/6 980/131/6 856/21/6 833/20/6
f 946/161/6 948/125/6 833/20/6 824/18/6
f 952/32/6 965/32/6 826/15/6 837/15/6
f 650/7/5 651/7/5 832/174/5 831/150/5
f 649/7/5 713/7/5 850/150/5 830/150/5
f 648/7/5 735/7/5 854/118/5 829/150/5
f 647/7/5 757/7/5 858/118/5 828/118/5
f 616/7/5 647/7/5 828/118/5 825/118/5
f 651/7/5 780/7/5 827/150/5 832/174/5
f 862/175/5 989/175/5 991/176/5 880/176/5
f 1145/110/4 1140/110/4 1142/109/4 1147/109/4
f 999/177/3 1012/178/3 878/147/3 860/83/3
f 1007/179/1 1011/180/1 877/95/1 870/116/1
f 768/82/4 769/82/4 876/81/4 875/81/4
f 746/82/4 747/82/4 874/81/4 873/81/4
f 724/82/4 725/82/4 872/81/4 871/81/4
f 1010/123/4 1002/123/4 864/81/4 875/81/4
f 1009/123/4 1003/123/4 865/81/4 873/81/4
f 1008/123/4 1004/123/4 866/81/4 871/81/4
f 1018/181/1 1007/179/1 870/116/1 921/113/1
f 1013/182/1 1006/183/1 869/112/1 879/109/1
f 1011/180/1 998/123/1 859/81/1 877/95/1
f 1004/123/4 1005/123/4 867/81/4 866/81/4
f 1003/123/4 1014/123/4 872/81/4 865/81/4
f 1002/123/4 1015/123/4 874/81/4 864/81/4
f 1001/123/4 1016/123/4 876/81/4 863/81/4
f 998/123/4 1001/123/4 863/81/4 859/81/4
f 1005/123/4 999/177/4 860/83/4 867/81/4
f 922/184/5 993/184/5 989/175/5 862/175/5
f 1017/185/4 1021/185/4 993/184/4 922/184/4
f 1012/178/3 1000/179/3 861/116/3 878/147/3
f 1000/179/3 1017/181/3 922/113/3 861/116/3
f 1006/183/1 1018/181/1 921/113/1 869/112/1
f 775/144/3 783/7/3 917/8/3 920/140/3
f 640/11/3 779/11/3 884/8/3 919/140/3
f 641/186/3 775/187/3 920/137/3 919/137/3
f 776/11/5 782/11/5 917/8/5 918/8/5
f 756/127/5 757/127/5 916/128/5 915/128/5
f 760/5/6 761/24/6 914/23/6 913/6/6
f 734/127/5 735/127/5 912/128/5 911/128/5
f 738/5/6 739/5/6 910/6/6 909/6/6
f 712/127/5 713/127/5 908/128/5 907/128/5
f 716/5/6 717/5/6 906/6/6 905/6/6
f 758/16/6 653/16/6 891/29/6 913/29/6
f 736/16/6 654/16/6 892/29/6 909/29/6
f 714/16/6 655/16/6 893/29/6 905/29/6
f 704/75/1 904/74/1 882/8/1 616/7/1
f 702/111/1 903/114/1 904/74/1 704/75/1
f 869/112/1 921/113/1 903/114/1 702/111/1
f 932/188/1 944/103/1 1074/190/1 1057/189/1
f 696/41/1 900/38/1 901/101/1 698/100/1
f 615/19/1 881/22/1 900/30/1 696/31/1
f 669/73/3 899/74/3 884/8/3 779/11/3
f 667/191/3 898/60/3 899/69/3 669/192/3
f 861/193/3 922/59/3 898/60/3 667/191/3
f 925/80/3 945/103/3 1075/190/3 1045/194/3
f 662/28/3 895/38/3 896/39/3 664/37/3
f 639/5/3 883/6/3 895/38/3 662/28/3
f 655/16/6 656/16/6 894/29/6 893/29/6
f 654/16/6 715/16/6 906/29/6 892/29/6
f 653/16/6 737/16/6 910/29/6 891/29/6
f 652/19/6 759/19/6 914/22/6 890/22/6
f 615/19/6 652/19/6 890/22/6 881/22/6
f 656/16/6 638/16/6 883/29/6 894/29/6
f 645/11/5 646/11/5 889/8/5 888/8/5
f 644/11/5 711/11/5 908/8/5 887/8/5
f 643/11/5 733/11/5 912/8/5 886/8/5
f 642/11/5 755/11/5 916/8/5 885/8/5
f 617/11/5 642/11/5 885/8/5 882/8/5
f 710/11/5 645/11/5 888/8/5 907/8/5
f 732/11/5 644/11/5 887/8/5 911/8/5
f 754/11/5 643/11/5 886/8/5 915/8/5
f 646/11/1 776/11/1 918/8/1 889/8/1
f 664/37/3 896/39/3 945/103/3 925/80/3
f 698/100/1 901/101/1 944/103/1 932/188/1
f 665/40/3 839/171/3 943/195/3 926/188/3
f 972/160/1 843/99/1 942/108/1 984/105/1
f 636/76/3 799/36/3 941/77/3 924/52/3
f 699/102/1 804/94/1 940/77/1 933/80/1
f 1048/91/4 1040/89/4 767/88/4 681/88/4
f 1049/91/4 1038/89/4 745/88/4 682/88/4
f 1051/91/4 1036/89/4 723/88/4 683/88/4
f 764/76/4 677/76/4 928/52/4 938/52/4
f 742/76/4 678/76/4 929/52/4 936/52/4
f 720/76/4 679/76/4 930/52/4 934/52/4
f 901/101/1 699/102/1 933/80/1 944/103/1
f 843/99/1 698/100/1 932/188/1 942/108/1
f 804/94/1 621/85/1 923/52/1 940/77/1
f 679/76/4 680/76/4 931/52/4 930/52/4
f 678/76/4 721/76/4 935/52/4 929/52/4
f 677/76/4 743/76/4 937/52/4 928/52/4
f 676/85/4 765/85/4 939/52/4 927/52/4
f 621/85/4 676/85/4 927/52/4 923/52/4
f 680/76/4 636/76/4 924/52/4 931/52/4
f 954/43/3 72/44/3 355/49/3 985/46/3
f 896/39/3 665/40/3 926/188/3 945/103/3
f 799/36/3 664/37/3 925/80/3 941/77/3
f 839/171/3 954/43/3 985/46/3 943/195/3
f 109/196/1 972/160/1 984/105/1 361/49/1
f 983/197/5 992/197/5 421/198/5 290/198/5
f 1146/199/6 1138/199/6 1137/156/6 868/153/6
f 56/35/6 31/35/6 965/32/6 952/32/6
f 7/130/6 52/130/6 948/125/6 946/161/6
f 52/130/6 184/130/6 980/131/6 948/125/6
f 53/35/6 158/35/6 978/125/6 949/125/6
f 54/35/6 132/35/6 976/125/6 950/125/6
f 55/35/6 56/35/6 952/32/6 951/125/6
f 7/130/1 946/161/1 971/162/1 106/34/1
f 106/45/1 971/159/1 972/160/1 109/196/1
f 942/108/1 932/188/1 1057/201/1 1072/200/1
f 1155/202/1 1151/110/1 1150/152/1 1154/203/1
f 115/65/1 974/152/1 975/151/1 118/72/1
f 118/72/1 975/151/1 964/14/1 8/10/1
f 131/35/6 55/35/6 951/125/6 958/124/6
f 157/35/6 54/35/6 950/125/6 960/125/6
f 183/35/6 53/35/6 949/125/6 962/125/6
f 129/204/5 130/204/5 959/149/5 977/149/5
f 155/204/5 156/204/5 961/149/5 979/149/5
f 181/204/5 182/204/5 963/148/5 981/148/5
f 855/20/6 856/21/6 980/131/6 962/125/6
f 851/20/6 852/20/6 978/125/6 960/125/6
f 847/122/6 848/20/6 976/125/6 958/124/6
f 857/150/5 829/150/5 967/9/5 981/9/5
f 853/150/5 830/150/5 968/9/5 979/9/5
f 849/150/5 831/150/5 969/9/5 977/9/5
f 841/163/3 957/71/3 947/9/3 827/150/3
f 840/205/3 956/64/3 957/71/3 841/163/3
f 880/206/3 983/63/3 956/64/3 840/205/3
f 74/207/6 419/207/6 988/208/6 955/208/6
f 838/172/3 953/42/3 954/43/3 839/171/3
f 826/15/3 965/32/3 953/33/3 838/173/3
f 831/150/5 832/174/5 970/9/5 969/9/5
f 830/150/5 850/150/5 959/9/5 968/9/5
f 829/150/5 854/118/5 961/14/5 967/9/5
f 828/118/5 858/118/5 963/14/5 966/14/5
f 825/118/5 828/118/5 966/14/5 964/14/5
f 832/174/5 827/150/5 947/9/5 970/9/5
f 995/209/3 997/212/3 1087/211/3 1083/210/3
f 994/213/3 995/209/3 1083/210/3 1081/214/3
f 1019/215/3 1020/218/3 991/217/3 989/216/3
f 1022/219/3 454/222/3 421/221/3 992/220/3
f 1021/223/3 1019/215/3 989/216/3 993/224/3
f 1020/218/3 1022/226/3 992/225/3 991/217/3
f 1032/227/3 1031/230/3 1030/229/3 1029/228/3
f 943/51/6 995/51/6 994/170/6 926/170/6
f 1080/231/2 1087/231/2 997/50/2 985/50/2
f 955/208/2 988/208/2 1088/232/2 1079/232/2
f 880/176/5 991/176/5 992/233/5 983/233/5
f 990/234/3 988/235/3 1022/226/3 1020/218/3
f 986/236/3 987/237/3 1019/215/3 1021/223/3
f 988/235/3 419/239/3 454/238/3 1022/226/3
f 987/237/3 990/234/3 1020/218/3 1019/215/3
f 1148/182/4 1141/182/4 1138/199/4 1146/199/4
f 700/240/1 902/241/1 1018/181/1 1006/183/1
f 666/242/3 897/241/3 1017/181/3 1000/179/3
f 635/243/4 1033/243/4 1034/244/4 999/244/4
f 897/245/4 986/245/4 1021/185/4 1017/185/4
f 685/88/4 635/88/4 999/177/4 1005/123/4
f 620/88/4 681/88/4 1001/123/4 998/123/4
f 681/88/4 767/88/4 1016/123/4 1001/123/4
f 682/88/4 745/88/4 1015/123/4 1002/123/4
f 683/88/4 723/88/4 1014/123/4 1003/123/4
f 684/88/4 685/88/4 1005/123/4 1004/123/4
f 805/87/1 620/88/1 998/123/1 1011/180/1
f 844/199/1 700/240/1 1006/183/1 1013/182/1
f 902/241/1 701/242/1 1007/179/1 1018/181/1
f 722/88/4 684/88/4 1004/123/4 1008/123/4
f 744/88/4 683/88/4 1003/123/4 1009/123/4
f 766/88/4 682/88/4 1002/123/4 1010/123/4
f 701/242/1 805/87/1 1011/180/1 1007/179/1
f 999/244/5 1034/244/5 1029/228/5 1012/228/5
f 1147/109/4 1142/109/4 1141/182/4 1148/182/4
f 875/81/4 876/81/4 1016/123/4 1010/123/4
f 873/81/4 874/81/4 1015/123/4 1009/123/4
f 871/81/4 872/81/4 1014/123/4 1008/123/4
f 996/246/3 994/213/3 1081/214/3 1086/247/3
f 1076/248/4 1085/249/4 986/245/4 897/245/4
f 1084/250/3 1088/251/3 988/235/3 990/234/3
f 1085/252/3 1082/253/3 987/237/3 986/236/3
f 1082/254/3 1084/250/3 990/234/3 987/237/3
f 494/255/1 1077/256/1 973/156/1 112/155/1
f 929/52/4 935/52/4 1035/54/4 1052/90/4
f 928/52/4 937/52/4 1037/54/4 1050/53/4
f 927/52/4 939/52/4 1039/54/4 1047/90/4
f 1069/86/3 1046/257/3 666/242/3 800/87/3
f 1071/258/1 1058/259/1 700/240/1 844/199/1
f 1077/256/1 1071/260/1 844/199/1 973/156/1
f 1055/91/4 1044/89/4 635/88/4 685/88/4
f 1073/261/1 1060/262/1 701/242/1 902/241/1
f 1065/91/4 1049/89/4 682/88/4 766/88/4
f 1063/91/4 1051/89/4 683/88/4 744/88/4
f 1053/91/4 1055/89/4 685/88/4 684/88/4
f 1060/257/1 1067/86/1 805/87/1 701/242/1
f 1058/259/1 1073/263/1 902/241/1 700/240/1
f 1041/91/4 1048/89/4 681/88/4 620/88/4
f 934/52/4 930/52/4 1054/54/4 1062/90/4
f 1062/54/4 1035/53/4 935/52/4 934/52/4
f 1064/54/4 1037/90/4 937/52/4 936/52/4
f 1066/54/4 1039/53/4 939/52/4 938/52/4
f 940/77/1 923/52/1 1042/54/1 1068/264/1
f 1044/91/3 1069/86/3 800/87/3 635/88/3
f 1079/265/3 483/266/3 74/155/3 955/153/3
f 1046/257/3 1076/267/3 897/241/3 666/242/3
f 1080/231/2 1079/232/2 1088/232/2 1087/231/2
f 1076/248/4 1075/158/4 1086/158/4 1085/249/4
f 1084/250/3 1083/210/3 1087/211/3 1088/251/3
f 1082/254/3 1081/214/3 1083/210/3 1084/250/3
f 1085/252/3 1086/247/3 1081/214/3 1082/253/3
f 494/255/1 495/120/1 1078/121/1 1077/256/1
f 1062/54/4 1061/89/4 1036/91/4 1035/53/4
f 1064/54/4 1063/89/4 1038/91/4 1037/90/4
f 1066/54/4 1065/89/4 1040/91/4 1039/53/4
f 1046/257/3 1045/194/3 1075/190/3 1076/267/3
f 1058/259/1 1057/189/1 1074/190/1 1073/263/1
f 1077/256/1 1078/106/1 1072/107/1 1071/260/1
f 1045/268/6 1028/268/6 1023/269/6 1070/269/6
f 1060/257/1 1059/146/1 1068/78/1 1067/86/1
f 1065/91/4 1066/53/4 1050/54/4 1049/89/4
f 1063/91/4 1064/53/4 1052/54/4 1051/89/4
f 1061/91/4 1062/90/4 1054/54/4 1053/89/4
f 1073/261/1 1074/104/1 1059/79/1 1060/262/1
f 1071/258/1 1072/200/1 1057/201/1 1058/259/1
f 1067/86/1 1068/264/1 1042/54/1 1041/89/1
f 1053/91/4 1054/90/4 1056/54/4 1055/89/4
f 1051/91/4 1052/90/4 1035/54/4 1036/89/4
f 1049/91/4 1050/53/4 1037/54/4 1038/89/4
f 1048/91/4 1047/90/4 1039/54/4 1040/89/4
f 1041/91/4 1042/90/4 1047/54/4 1048/89/4
f 1055/91/4 1056/90/4 1043/54/4 1044/89/4
f 1079/265/3 1080/47/3 482/48/3 483/266/3
f 1044/270/5 1025/270/5 1024/271/5 1069/271/5
f 722/88/4 723/88/4 1036/91/4 1061/89/4
f 1033/243/3 1032/227/3 1029/228/3 1034/244/3
f 1025/270/3 1026/272/3 1023/269/3 1024/271/3
f 1024/271/3 1023/269/3 1028/268/3 1027/273/3
f 666/230/6 1031/230/6 1032/227/6 800/227/6
f 1070/269/6 1023/269/6 1026/272/6 1043/272/6
f 1043/274/4 1026/274/4 1025/275/4 1044/275/4
f 1012/228/5 1029/228/5 1030/229/5 1000/229/5
f 1069/271/5 1024/271/5 1027/273/5 1046/273/5
f 800/227/6 1032/227/6 1033/243/6 635/243/6
f 1046/273/2 1027/273/2 1028/276/2 1045/276/2
f 1000/229/2 1030/229/2 1031/230/2 666/230/2
f 1107/277/6 1130/277/6 1131/278/6 1108/278/6
f 1108/278/4 1131/278/4 1122/278/4 1092/278/4
f 1115/279/6 1135/279/6 1134/280/6 1116/280/6
f 1098/5/1 1114/5/1 1117/17/1 1101/17/1
f 1102/23/1 1118/23/1 1110/24/1 1094/24/1
f 1090/84/4 1106/84/4 1105/84/4 1089/84/4
f 883/29/2 1096/29/2 1104/29/2 894/29/2
f 881/23/1 1102/23/1 1094/24/1 614/24/1
f 610/25/3 1092/25/3 1091/17/3 785/17/3
f 797/17/1 1101/17/1 1095/25/1 623/25/1
f 657/24/3 1099/24/3 1103/23/3 890/23/3
f 614/24/1 1094/24/1 1093/92/1 786/92/1
f 793/92/3 1100/92/3 1099/24/3 657/24/3
f 785/17/3 1091/17/3 1097/5/3 639/5/3
f 627/84/3 1089/84/3 1100/92/3 793/92/3
f 623/25/4 1095/25/4 1092/25/4 610/25/4
f 1117/17/6 1107/17/6 1108/25/6 1111/25/6
f 1120/6/6 1112/6/6 1113/5/6 1114/5/6
f 1118/23/6 1119/23/6 1115/24/6 1110/24/6
f 1109/92/6 1116/92/6 1105/84/6 1106/84/6
f 1110/24/6 1115/24/6 1116/92/6 1109/92/6
f 1114/5/6 1113/5/6 1107/17/6 1117/17/6
f 1094/24/1 1110/24/1 1109/92/1 1093/92/1
f 1104/6/1 1120/6/1 1114/5/1 1098/5/1
f 1093/92/1 1109/92/1 1106/84/1 1090/84/1
f 1095/25/4 1111/25/4 1108/25/4 1092/25/4
f 1103/22/2 1119/22/2 1118/22/2 1102/22/2
f 1091/277/5 1121/277/5 1124/281/5 1097/281/5
f 1099/279/5 1126/279/5 1129/282/5 1103/282/5
f 1096/29/2 1112/29/2 1120/29/2 1104/29/2
f 1101/17/1 1117/17/1 1111/25/1 1095/25/1
f 1092/278/5 1122/278/5 1121/277/5 1091/277/5
f 1121/277/3 1130/277/3 1133/281/3 1124/281/3
f 1126/279/3 1135/279/3 1136/282/3 1129/282/3
f 1122/278/3 1131/278/3 1130/277/3 1121/277/3
f 1127/283/3 1128/283/3 1134/280/3 1125/280/3
f 1124/281/3 1133/281/3 1132/284/3 1123/284/3
f 1125/280/3 1134/280/3 1135/279/3 1126/279/3
f 1089/283/5 1127/283/5 1125/280/5 1100/280/5
f 1119/282/6 1136/282/6 1135/279/6 1115/279/6
f 1096/285/2 1123/285/2 1132/285/2 1112/285/2
f 1097/281/5 1124/281/5 1123/284/5 1096/284/5
f 1113/281/6 1133/281/6 1130/277/6 1107/277/6
f 1103/286/2 1129/286/2 1136/286/2 1119/286/2
f 1116/280/6 1134/280/6 1128/283/6 1105/283/6
f 1112/284/6 1132/284/6 1133/281/6 1113/281/6
f 1105/283/4 1128/283/4 1127/283/4 1089/283/4
f 1100/280/5 1125/280/5 1126/279/5 1099/279/5
f 1143/287/1 1142/109/1 1140/110/1 1139/152/1
f 1144/288/1 1141/182/1 1142/109/1 1143/287/1
f 576/289/1 1144/288/1 1143/287/1 584/66/1
f 584/66/1 1143/287/1 1139/152/1 583/65/1
f 577/155/1 1137/156/1 1144/288/1 576/289/1
f 1137/156/1 1138/199/1 1141/182/1 1144/288/1
f 1156/290/4 1160/290/4 1159/110/4 1152/110/4
f 974/152/5 982/291/5 1145/110/5 845/110/5
f 879/109/4 1147/109/4 1148/182/4 1013/182/4
f 1013/182/4 1148/182/4 1146/199/4 844/199/4
f 115/65/5 452/292/5 982/291/5 974/152/5
f 844/199/6 1146/199/6 868/153/6 973/156/6
f 845/110/4 1145/110/4 1147/109/4 879/109/4
f 973/156/6 868/153/6 438/154/6 112/155/6
f 596/292/5 595/65/5 1150/152/5 1149/291/5
f 1149/291/5 1150/152/5 1151/110/5 1152/110/5
f 598/292/6 609/292/6 1157/291/6 1153/291/6
f 1154/203/1 1150/152/1 595/65/1 603/65/1
f 1156/290/4 1152/110/4 1151/110/4 1155/202/4
f 1145/110/4 1156/290/4 1155/202/4 1140/110/4
f 1139/152/1 1154/203/1 603/65/1 583/65/1
f 982/291/3 1153/291/3 1156/290/3 1145/110/3
f 452/292/3 598/292/3 1153/291/3 982/291/3
f 1140/110/1 1155/202/1 1154/203/1 1139/152/1
f 609/292/3 607/292/3 1158/291/3 1157/291/3
f 1157/291/3 1158/291/3 1159/110/3 1160/290/3
f 1152/110/5 1159/110/5 1158/291/5 1149/291/5
f 1153/291/6 1157/291/6 1160/290/6 1156/290/6
f 1149/291/5 1158/291/5 607/292/5 596/292/5
