# Blender 3.6.0
# www.blender.org
mtllib 5.mtl
o Cube.023
v 0.141033 0.074186 -0.112393
v 0.141033 0.110483 -0.112393
v 0.141033 0.074186 -0.170970
v 0.141033 0.110483 -0.170970
v 0.141033 0.105501 -0.170970
v 0.141033 0.080957 -0.170970
v 0.141033 0.105501 -0.112393
v 0.141033 0.080957 -0.112393
v 0.147617 0.105605 -0.170970
v 0.147617 0.080957 -0.170970
v 0.147617 0.105605 -0.112393
v 0.147617 0.080957 -0.112393
v 0.122885 0.074186 -0.170970
v 0.122885 0.110483 -0.170970
v 0.122885 0.074186 -0.112393
v 0.122885 0.110483 -0.112393
v 0.122885 0.080957 -0.112393
v 0.122885 0.080957 -0.170970
v 0.122885 0.105501 -0.170970
v 0.141033 0.089672 -0.170970
v 0.141033 0.089672 -0.112393
v 0.147617 0.089672 -0.170970
v 0.147617 0.089672 -0.112393
v 0.122885 0.089672 -0.170970
v 0.122885 0.089672 -0.112393
v 0.122885 0.089672 -0.096021
v 0.122885 0.119002 -0.112393
v 0.122885 0.119002 -0.096021
v 0.131959 0.110483 -0.170970
v 0.131959 0.074186 -0.112393
v 0.131959 0.080957 -0.170970
v 0.131959 0.105501 -0.170970
v 0.131959 0.074186 -0.170970
v 0.131959 0.110483 -0.112393
v 0.131959 0.080957 -0.112393
v 0.131959 0.119002 -0.112393
v 0.131959 0.119002 -0.096021
v 0.131959 0.089672 -0.112393
v 0.131959 0.089672 -0.170970
v 0.131959 0.110483 -0.096021
v 0.131959 0.105501 -0.096021
v 0.131959 0.089672 -0.096021
v 0.136496 0.110483 -0.170970
v 0.136496 0.074186 -0.112393
v 0.136496 0.080957 -0.170970
v 0.136496 0.105501 -0.170970
v 0.136496 0.089672 -0.170970
v 0.136496 0.074186 -0.170970
v 0.136496 0.110483 -0.112393
v 0.136496 0.080957 -0.112393
v 0.136496 0.119002 -0.112393
v 0.136496 0.119002 -0.096021
v 0.136496 0.089672 -0.112393
v 0.136496 0.110483 -0.096021
v 0.136496 0.105501 -0.096021
v 0.136496 0.089672 -0.096021
v 0.122885 0.114742 -0.096021
v 0.136496 0.105501 -0.112393
v 0.122885 0.114742 -0.112393
v 0.131959 0.114742 -0.112393
v 0.131959 0.114742 -0.096021
v 0.136496 0.114742 -0.112393
v 0.136496 0.114742 -0.096021
v 0.141033 0.092202 -0.170970
v 0.141033 0.092202 -0.112393
v 0.147617 0.092221 -0.170970
v 0.147617 0.092221 -0.112393
v 0.122885 0.092202 -0.170970
v 0.122885 0.092202 -0.096021
v 0.131959 0.092202 -0.096021
v 0.131959 0.092202 -0.170970
v 0.136496 0.092202 -0.096021
v 0.136496 0.092202 -0.170970
v 0.136496 0.092202 -0.112393
v 0.131959 0.110483 -0.092856
v 0.122885 0.110483 -0.092856
v 0.131959 0.105501 -0.092856
v 0.122885 0.105501 -0.092856
v 0.122885 0.114742 -0.092856
v 0.131959 0.114742 -0.092856
v 0.122885 0.092202 -0.092856
v 0.131959 0.092202 -0.092856
v 0.131959 0.105501 -0.084645
v 0.122885 0.105501 -0.084645
v 0.122885 0.092202 -0.084645
v 0.131959 0.092202 -0.084645
v 0.127422 0.074186 -0.170970
v 0.127422 0.110483 -0.112393
v 0.127422 0.080957 -0.112393
v 0.127422 0.119002 -0.112393
v 0.127422 0.119002 -0.096021
v 0.127422 0.089672 -0.112393
v 0.127422 0.089672 -0.096021
v 0.127422 0.110483 -0.170970
v 0.127422 0.074186 -0.112393
v 0.127422 0.080957 -0.170970
v 0.127422 0.105501 -0.170970
v 0.127422 0.089672 -0.170970
v 0.127422 0.114742 -0.096021
v 0.127422 0.114742 -0.112393
v 0.127422 0.092202 -0.170970
v 0.127422 0.092202 -0.096021
v 0.127422 0.110483 -0.092856
v 0.127422 0.105501 -0.092856
v 0.127422 0.114742 -0.092856
v 0.127422 0.092202 -0.092856
v 0.127422 0.105501 -0.084645
v 0.127422 0.092202 -0.084645
v 0.141033 0.107045 -0.170970
v 0.141033 0.107045 -0.112393
v 0.122885 0.107045 -0.170970
v 0.131959 0.107045 -0.096021
v 0.131959 0.107045 -0.170970
v 0.136496 0.107045 -0.096021
v 0.136496 0.107045 -0.170970
v 0.136496 0.107045 -0.112393
v 0.122885 0.107045 -0.092856
v 0.131959 0.107045 -0.092856
v 0.127422 0.107045 -0.092856
v 0.127422 0.107045 -0.170970
v 0.129691 0.110483 -0.170970
v 0.129691 0.074186 -0.112393
v 0.129691 0.080957 -0.170970
v 0.129691 0.105501 -0.170970
v 0.129691 0.089672 -0.170970
v 0.129691 0.114742 -0.112393
v 0.129691 0.092202 -0.170970
v 0.129691 0.074186 -0.170970
v 0.129691 0.110483 -0.112393
v 0.129691 0.080957 -0.112393
v 0.129691 0.119002 -0.112393
v 0.129691 0.119002 -0.096021
v 0.129691 0.089672 -0.112393
v 0.129691 0.089672 -0.096021
v 0.129691 0.114742 -0.096021
v 0.129691 0.092202 -0.096021
v 0.129691 0.110483 -0.092856
v 0.129691 0.105501 -0.092856
v 0.129691 0.114742 -0.092856
v 0.129691 0.092202 -0.092856
v 0.129691 0.105501 -0.084645
v 0.129691 0.092202 -0.084645
v 0.129691 0.107045 -0.092856
v 0.129691 0.107045 -0.170970
v 0.124301 0.074186 -0.170970
v 0.124301 0.110483 -0.112393
v 0.124301 0.080957 -0.112393
v 0.124301 0.119002 -0.112393
v 0.124301 0.119002 -0.096021
v 0.124301 0.089672 -0.112393
v 0.124301 0.089672 -0.096021
v 0.124301 0.114742 -0.096021
v 0.124301 0.092202 -0.096021
v 0.124301 0.110483 -0.092856
v 0.124301 0.105501 -0.092856
v 0.124301 0.114742 -0.092856
v 0.124301 0.092202 -0.092856
v 0.124301 0.105501 -0.084645
v 0.124301 0.092202 -0.084645
v 0.124301 0.110483 -0.170970
v 0.124301 0.074186 -0.112393
v 0.124301 0.080957 -0.170970
v 0.124301 0.105501 -0.170970
v 0.124301 0.089672 -0.170970
v 0.124301 0.114742 -0.112393
v 0.124301 0.092202 -0.170970
v 0.124301 0.107045 -0.170970
v 0.124301 0.107045 -0.092856
v 0.122885 0.089672 -0.101478
v 0.122885 0.089672 -0.106936
v 0.122885 0.119002 -0.106936
v 0.122885 0.119002 -0.101478
v 0.131959 0.119002 -0.106936
v 0.131959 0.119002 -0.101478
v 0.131959 0.089672 -0.106936
v 0.131959 0.089672 -0.101478
v 0.136496 0.119002 -0.106936
v 0.136496 0.119002 -0.101478
v 0.136496 0.089672 -0.106936
v 0.136496 0.089672 -0.101478
v 0.136496 0.105501 -0.106936
v 0.136496 0.105501 -0.101478
v 0.136496 0.110483 -0.106936
v 0.136496 0.110483 -0.101478
v 0.136496 0.114742 -0.106936
v 0.136496 0.114742 -0.101478
v 0.136496 0.092202 -0.106936
v 0.136496 0.092202 -0.101478
v 0.127422 0.089672 -0.106936
v 0.127422 0.089672 -0.101478
v 0.127422 0.119002 -0.106936
v 0.127422 0.119002 -0.101478
v 0.136496 0.107045 -0.106936
v 0.136496 0.107045 -0.101478
v 0.129691 0.119002 -0.106936
v 0.129691 0.119002 -0.101478
v 0.129691 0.089672 -0.106936
v 0.129691 0.089672 -0.101478
v 0.124301 0.089672 -0.106936
v 0.124301 0.089672 -0.101478
v 0.124301 0.119002 -0.106936
v 0.124301 0.119002 -0.101478
v 0.141330 0.110483 -0.106936
v 0.141330 0.110483 -0.101478
v 0.141330 0.114742 -0.106936
v 0.141330 0.114742 -0.101478
v 0.141330 0.107045 -0.106936
v 0.141330 0.107045 -0.101478
v 0.141033 0.074186 -0.122156
v 0.141033 0.074186 -0.131919
v 0.141033 0.074186 -0.141682
v 0.141033 0.074186 -0.151444
v 0.141033 0.074186 -0.161207
v 0.141033 0.110483 -0.161207
v 0.141033 0.110483 -0.151444
v 0.141033 0.110483 -0.141682
v 0.141033 0.110483 -0.131919
v 0.141033 0.110483 -0.122156
v 0.141033 0.080957 -0.161207
v 0.141033 0.080957 -0.151444
v 0.141033 0.080957 -0.141682
v 0.141033 0.080957 -0.131919
v 0.141033 0.080957 -0.122156
v 0.141033 0.105501 -0.161207
v 0.141033 0.105501 -0.151444
v 0.141033 0.105501 -0.141682
v 0.141033 0.105501 -0.131919
v 0.141033 0.105501 -0.122156
v 0.147617 0.080957 -0.161207
v 0.147617 0.080957 -0.151444
v 0.147617 0.080957 -0.141682
v 0.147617 0.080957 -0.131919
v 0.147617 0.080957 -0.122156
v 0.147617 0.105605 -0.161207
v 0.147617 0.105605 -0.151444
v 0.147617 0.105605 -0.141682
v 0.147617 0.105605 -0.131919
v 0.147617 0.105605 -0.122156
v 0.122885 0.110483 -0.161207
v 0.122885 0.110483 -0.151444
v 0.122885 0.110483 -0.141682
v 0.122885 0.110483 -0.131919
v 0.122885 0.110483 -0.122156
v 0.122885 0.074186 -0.161207
v 0.122885 0.074186 -0.151444
v 0.122885 0.074186 -0.141682
v 0.122885 0.074186 -0.131919
v 0.122885 0.074186 -0.122156
v 0.147617 0.089672 -0.161207
v 0.147617 0.089672 -0.151444
v 0.147617 0.089672 -0.141682
v 0.147617 0.089672 -0.131919
v 0.147617 0.089672 -0.122156
v 0.131959 0.110483 -0.161207
v 0.131959 0.110483 -0.151444
v 0.131959 0.110483 -0.141682
v 0.131959 0.110483 -0.131919
v 0.131959 0.110483 -0.122156
v 0.131959 0.074186 -0.161207
v 0.131959 0.074186 -0.151444
v 0.131959 0.074186 -0.141682
v 0.131959 0.074186 -0.131919
v 0.131959 0.074186 -0.122156
v 0.136496 0.110483 -0.161207
v 0.136496 0.110483 -0.151444
v 0.136496 0.110483 -0.141682
v 0.136496 0.110483 -0.131919
v 0.136496 0.110483 -0.122156
v 0.136496 0.074186 -0.161207
v 0.136496 0.074186 -0.151444
v 0.136496 0.074186 -0.141682
v 0.136496 0.074186 -0.131919
v 0.136496 0.074186 -0.122156
v 0.147617 0.092221 -0.161207
v 0.147617 0.092221 -0.151444
v 0.147617 0.092221 -0.141682
v 0.147617 0.092221 -0.131919
v 0.147617 0.092221 -0.122156
v 0.127422 0.074186 -0.161207
v 0.127422 0.074186 -0.151444
v 0.127422 0.074186 -0.141682
v 0.127422 0.074186 -0.131919
v 0.127422 0.074186 -0.122156
v 0.127422 0.110483 -0.161207
v 0.127422 0.110483 -0.151444
v 0.127422 0.110483 -0.141682
v 0.127422 0.110483 -0.131919
v 0.127422 0.110483 -0.122156
v 0.141033 0.107045 -0.161207
v 0.141033 0.107045 -0.151444
v 0.141033 0.107045 -0.141682
v 0.141033 0.107045 -0.131919
v 0.141033 0.107045 -0.122156
v 0.129691 0.110483 -0.161207
v 0.129691 0.110483 -0.151444
v 0.129691 0.110483 -0.141682
v 0.129691 0.110483 -0.131919
v 0.129691 0.110483 -0.122156
v 0.129691 0.074186 -0.161207
v 0.129691 0.074186 -0.151444
v 0.129691 0.074186 -0.141682
v 0.129691 0.074186 -0.131919
v 0.129691 0.074186 -0.122156
v 0.124301 0.074186 -0.161207
v 0.124301 0.074186 -0.151444
v 0.124301 0.074186 -0.141682
v 0.124301 0.074186 -0.131919
v 0.124301 0.074186 -0.122156
v 0.124301 0.110483 -0.161207
v 0.124301 0.110483 -0.151444
v 0.124301 0.110483 -0.141682
v 0.124301 0.110483 -0.131919
v 0.124301 0.110483 -0.122156
v 0.141033 0.054165 -0.161207
v 0.141033 0.054165 -0.170970
v 0.136496 0.054165 -0.112393
v 0.141033 0.054165 -0.112393
v 0.136496 0.054165 -0.170970
v 0.131959 0.054165 -0.170970
v 0.131959 0.054165 -0.122156
v 0.131959 0.054165 -0.112393
v 0.136496 0.054165 -0.122156
v 0.141033 0.054165 -0.122156
v 0.131959 0.054165 -0.161207
v 0.136496 0.054165 -0.161207
v 0.131959 0.061924 -0.122156
v 0.136496 0.061924 -0.122156
v 0.136496 0.061924 -0.112393
v 0.141033 0.061924 -0.112393
v 0.141033 0.061924 -0.122156
v 0.131959 0.061924 -0.112393
v 0.141033 0.061924 -0.161207
v 0.141033 0.061924 -0.170970
v 0.136496 0.061924 -0.170970
v 0.131959 0.061924 -0.170970
v 0.136496 0.061924 -0.161207
v 0.131959 0.061924 -0.161207
v 0.136496 0.054165 -0.108615
v 0.141033 0.054165 -0.108615
v 0.131959 0.054165 -0.108615
v 0.136496 0.054165 -0.157428
v 0.131959 0.054165 -0.157428
v 0.141033 0.054165 -0.157428
v 0.136496 0.061924 -0.108615
v 0.141033 0.061924 -0.157428
v 0.136496 0.061924 -0.157428
v 0.131959 0.061924 -0.108615
v 0.131959 0.061924 -0.157428
v 0.141033 0.061924 -0.108615
v 0.122885 0.105501 -0.176895
v 0.122885 0.092202 -0.176895
v 0.124301 0.105501 -0.176895
v 0.127422 0.105501 -0.176895
v 0.124301 0.092202 -0.176895
v 0.127422 0.092202 -0.176895
v 0.129691 0.105501 -0.176895
v 0.129691 0.092202 -0.176895
v 0.141033 0.101032 -0.170970
v 0.141033 0.103007 -0.170970
v 0.141033 0.103007 -0.112393
v 0.141033 0.101032 -0.112393
v 0.147617 0.101093 -0.170970
v 0.147617 0.103069 -0.170970
v 0.147617 0.101093 -0.112393
v 0.147617 0.103069 -0.112393
v 0.131959 0.101032 -0.096021
v 0.131959 0.103007 -0.096021
v 0.131959 0.101032 -0.170970
v 0.131959 0.103007 -0.170970
v 0.136496 0.103007 -0.096021
v 0.136496 0.101032 -0.096021
v 0.136496 0.103007 -0.170970
v 0.136496 0.101032 -0.170970
v 0.136496 0.101032 -0.112393
v 0.136496 0.103007 -0.112393
v 0.131959 0.103007 -0.092856
v 0.131959 0.101032 -0.092856
v 0.122885 0.101032 -0.084645
v 0.122885 0.103007 -0.084645
v 0.131959 0.101032 -0.084645
v 0.131959 0.103007 -0.084645
v 0.127422 0.101032 -0.084645
v 0.127422 0.103007 -0.084645
v 0.129691 0.103007 -0.084645
v 0.129691 0.101032 -0.084645
v 0.129691 0.103007 -0.170970
v 0.129691 0.101032 -0.170970
v 0.124301 0.103007 -0.084645
v 0.124301 0.101032 -0.084645
v 0.136496 0.101032 -0.106936
v 0.136496 0.103007 -0.106936
v 0.136496 0.103007 -0.101478
v 0.136496 0.101032 -0.101478
v 0.147617 0.101093 -0.161207
v 0.147617 0.103069 -0.161207
v 0.147617 0.101093 -0.151444
v 0.147617 0.103069 -0.151444
v 0.147617 0.101093 -0.141682
v 0.147617 0.103069 -0.141682
v 0.147617 0.101093 -0.131919
v 0.147617 0.103069 -0.131919
v 0.147617 0.103069 -0.122156
v 0.147617 0.101093 -0.122156
v 0.122885 0.103007 -0.176895
v 0.122885 0.101032 -0.176895
v 0.127422 0.101032 -0.176895
v 0.127422 0.103007 -0.176895
v 0.129691 0.103007 -0.176895
v 0.129691 0.101032 -0.176895
v 0.124301 0.103007 -0.176895
v 0.124301 0.101032 -0.176895
v 0.104737 0.074186 -0.112393
v 0.104737 0.110483 -0.112393
v 0.104737 0.074186 -0.170970
v 0.104737 0.110483 -0.170970
v 0.104737 0.105501 -0.170970
v 0.104737 0.080957 -0.170970
v 0.104737 0.105501 -0.112393
v 0.104737 0.080957 -0.112393
v 0.098153 0.105605 -0.170970
v 0.098153 0.080957 -0.170970
v 0.098153 0.105605 -0.112393
v 0.098153 0.080957 -0.112393
v 0.104737 0.089672 -0.170970
v 0.104737 0.089672 -0.112393
v 0.098153 0.089672 -0.170970
v 0.098153 0.089672 -0.112393
v 0.113811 0.110483 -0.170970
v 0.113811 0.074186 -0.112393
v 0.113811 0.080957 -0.170970
v 0.113811 0.105501 -0.170970
v 0.113811 0.074186 -0.170970
v 0.113811 0.110483 -0.112393
v 0.113811 0.080957 -0.112393
v 0.113811 0.119002 -0.112393
v 0.113811 0.119002 -0.096021
v 0.113811 0.089672 -0.112393
v 0.113811 0.089672 -0.170970
v 0.113811 0.110483 -0.096021
v 0.113811 0.105501 -0.096021
v 0.113811 0.089672 -0.096021
v 0.109274 0.110483 -0.170970
v 0.109274 0.074186 -0.112393
v 0.109274 0.080957 -0.170970
v 0.109274 0.105501 -0.170970
v 0.109274 0.089672 -0.170970
v 0.109274 0.074186 -0.170970
v 0.109274 0.110483 -0.112393
v 0.109274 0.080957 -0.112393
v 0.109274 0.119002 -0.112393
v 0.109274 0.119002 -0.096021
v 0.109274 0.089672 -0.112393
v 0.109274 0.110483 -0.096021
v 0.109274 0.105501 -0.096021
v 0.109274 0.089672 -0.096021
v 0.109274 0.105501 -0.112393
v 0.113811 0.114742 -0.112393
v 0.113811 0.114742 -0.096021
v 0.109274 0.114742 -0.112393
v 0.109274 0.114742 -0.096021
v 0.104737 0.092202 -0.170970
v 0.104737 0.092202 -0.112393
v 0.098153 0.092221 -0.170970
v 0.098153 0.092221 -0.112393
v 0.113811 0.092202 -0.096021
v 0.113811 0.092202 -0.170970
v 0.109274 0.092202 -0.096021
v 0.109274 0.092202 -0.170970
v 0.109274 0.092202 -0.112393
v 0.113811 0.110483 -0.092856
v 0.113811 0.105501 -0.092856
v 0.113811 0.114742 -0.092856
v 0.113811 0.092202 -0.092856
v 0.113811 0.105501 -0.084645
v 0.113811 0.092202 -0.084645
v 0.118348 0.074186 -0.170970
v 0.118348 0.110483 -0.112393
v 0.118348 0.080957 -0.112393
v 0.118348 0.119002 -0.112393
v 0.118348 0.119002 -0.096021
v 0.118348 0.089672 -0.112393
v 0.118348 0.089672 -0.096021
v 0.118348 0.110483 -0.170970
v 0.118348 0.074186 -0.112393
v 0.118348 0.080957 -0.170970
v 0.118348 0.105501 -0.170970
v 0.118348 0.089672 -0.170970
v 0.118348 0.114742 -0.096021
v 0.118348 0.114742 -0.112393
v 0.118348 0.092202 -0.170970
v 0.118348 0.092202 -0.096021
v 0.118348 0.110483 -0.092856
v 0.118348 0.105501 -0.092856
v 0.118348 0.114742 -0.092856
v 0.118348 0.092202 -0.092856
v 0.118348 0.105501 -0.084645
v 0.118348 0.092202 -0.084645
v 0.104737 0.107045 -0.170970
v 0.104737 0.107045 -0.112393
v 0.113811 0.107045 -0.096021
v 0.113811 0.107045 -0.170970
v 0.109274 0.107045 -0.096021
v 0.109274 0.107045 -0.170970
v 0.109274 0.107045 -0.112393
v 0.113811 0.107045 -0.092856
v 0.118348 0.107045 -0.092856
v 0.118348 0.107045 -0.170970
v 0.116080 0.110483 -0.170970
v 0.116080 0.074186 -0.112393
v 0.116080 0.080957 -0.170970
v 0.116080 0.105501 -0.170970
v 0.116080 0.089672 -0.170970
v 0.116080 0.114742 -0.112393
v 0.116080 0.092202 -0.170970
v 0.116080 0.074186 -0.170970
v 0.116080 0.110483 -0.112393
v 0.116080 0.080957 -0.112393
v 0.116080 0.119002 -0.112393
v 0.116080 0.119002 -0.096021
v 0.116080 0.089672 -0.112393
v 0.116080 0.089672 -0.096021
v 0.116080 0.114742 -0.096021
v 0.116080 0.092202 -0.096021
v 0.116080 0.110483 -0.092856
v 0.116080 0.105501 -0.092856
v 0.116080 0.114742 -0.092856
v 0.116080 0.092202 -0.092856
v 0.116080 0.105501 -0.084645
v 0.116080 0.092202 -0.084645
v 0.116080 0.107045 -0.092856
v 0.116080 0.107045 -0.170970
v 0.121470 0.074186 -0.170970
v 0.121470 0.110483 -0.112393
v 0.121470 0.080957 -0.112393
v 0.121470 0.119002 -0.112393
v 0.121470 0.119002 -0.096021
v 0.121470 0.089672 -0.112393
v 0.121470 0.089672 -0.096021
v 0.121470 0.114742 -0.096021
v 0.121470 0.092202 -0.096021
v 0.121470 0.110483 -0.092856
v 0.121470 0.105501 -0.092856
v 0.121470 0.114742 -0.092856
v 0.121470 0.092202 -0.092856
v 0.121470 0.105501 -0.084645
v 0.121470 0.092202 -0.084645
v 0.121470 0.110483 -0.170970
v 0.121470 0.074186 -0.112393
v 0.121470 0.080957 -0.170970
v 0.121470 0.105501 -0.170970
v 0.121470 0.089672 -0.170970
v 0.121470 0.114742 -0.112393
v 0.121470 0.092202 -0.170970
v 0.121470 0.107045 -0.170970
v 0.121470 0.107045 -0.092856
v 0.113811 0.119002 -0.106936
v 0.113811 0.119002 -0.101478
v 0.113811 0.089672 -0.106936
v 0.113811 0.089672 -0.101478
v 0.109274 0.119002 -0.106936
v 0.109274 0.119002 -0.101478
v 0.109274 0.089672 -0.106936
v 0.109274 0.089672 -0.101478
v 0.109274 0.105501 -0.106936
v 0.109274 0.105501 -0.101478
v 0.109274 0.110483 -0.106936
v 0.109274 0.110483 -0.101478
v 0.109274 0.114742 -0.106936
v 0.109274 0.114742 -0.101478
v 0.109274 0.092202 -0.106936
v 0.109274 0.092202 -0.101478
v 0.118348 0.089672 -0.106936
v 0.118348 0.089672 -0.101478
v 0.118348 0.119002 -0.106936
v 0.118348 0.119002 -0.101478
v 0.109274 0.107045 -0.106936
v 0.109274 0.107045 -0.101478
v 0.116080 0.119002 -0.106936
v 0.116080 0.119002 -0.101478
v 0.116080 0.089672 -0.106936
v 0.116080 0.089672 -0.101478
v 0.121470 0.089672 -0.106936
v 0.121470 0.089672 -0.101478
v 0.121470 0.119002 -0.106936
v 0.121470 0.119002 -0.101478
v 0.104441 0.110483 -0.106936
v 0.104441 0.110483 -0.101478
v 0.104441 0.114742 -0.106936
v 0.104441 0.114742 -0.101478
v 0.104441 0.107045 -0.106936
v 0.104441 0.107045 -0.101478
v 0.104737 0.074186 -0.122156
v 0.104737 0.074186 -0.131919
v 0.104737 0.074186 -0.141682
v 0.104737 0.074186 -0.151444
v 0.104737 0.074186 -0.161207
v 0.104737 0.110483 -0.161207
v 0.104737 0.110483 -0.151444
v 0.104737 0.110483 -0.141682
v 0.104737 0.110483 -0.131919
v 0.104737 0.110483 -0.122156
v 0.104737 0.080957 -0.161207
v 0.104737 0.080957 -0.151444
v 0.104737 0.080957 -0.141682
v 0.104737 0.080957 -0.131919
v 0.104737 0.080957 -0.122156
v 0.104737 0.105501 -0.161207
v 0.104737 0.105501 -0.151444
v 0.104737 0.105501 -0.141682
v 0.104737 0.105501 -0.131919
v 0.104737 0.105501 -0.122156
v 0.098153 0.080957 -0.161207
v 0.098153 0.080957 -0.151444
v 0.098153 0.080957 -0.141682
v 0.098153 0.080957 -0.131919
v 0.098153 0.080957 -0.122156
v 0.098153 0.105605 -0.161207
v 0.098153 0.105605 -0.151444
v 0.098153 0.105605 -0.141682
v 0.098153 0.105605 -0.131919
v 0.098153 0.105605 -0.122156
v 0.098153 0.089672 -0.161207
v 0.098153 0.089672 -0.151444
v 0.098153 0.089672 -0.141682
v 0.098153 0.089672 -0.131919
v 0.098153 0.089672 -0.122156
v 0.113811 0.110483 -0.161207
v 0.113811 0.110483 -0.151444
v 0.113811 0.110483 -0.141682
v 0.113811 0.110483 -0.131919
v 0.113811 0.110483 -0.122156
v 0.113811 0.074186 -0.161207
v 0.113811 0.074186 -0.151444
v 0.113811 0.074186 -0.141682
v 0.113811 0.074186 -0.131919
v 0.113811 0.074186 -0.122156
v 0.109274 0.110483 -0.161207
v 0.109274 0.110483 -0.151444
v 0.109274 0.110483 -0.141682
v 0.109274 0.110483 -0.131919
v 0.109274 0.110483 -0.122156
v 0.109274 0.074186 -0.161207
v 0.109274 0.074186 -0.151444
v 0.109274 0.074186 -0.141682
v 0.109274 0.074186 -0.131919
v 0.109274 0.074186 -0.122156
v 0.098153 0.092221 -0.161207
v 0.098153 0.092221 -0.151444
v 0.098153 0.092221 -0.141682
v 0.098153 0.092221 -0.131919
v 0.098153 0.092221 -0.122156
v 0.118348 0.074186 -0.161207
v 0.118348 0.074186 -0.151444
v 0.118348 0.074186 -0.141682
v 0.118348 0.074186 -0.131919
v 0.118348 0.074186 -0.122156
v 0.118348 0.110483 -0.161207
v 0.118348 0.110483 -0.151444
v 0.118348 0.110483 -0.141682
v 0.118348 0.110483 -0.131919
v 0.118348 0.110483 -0.122156
v 0.104737 0.107045 -0.161207
v 0.104737 0.107045 -0.151444
v 0.104737 0.107045 -0.141682
v 0.104737 0.107045 -0.131919
v 0.104737 0.107045 -0.122156
v 0.116080 0.110483 -0.161207
v 0.116080 0.110483 -0.151444
v 0.116080 0.110483 -0.141682
v 0.116080 0.110483 -0.131919
v 0.116080 0.110483 -0.122156
v 0.116080 0.074186 -0.161207
v 0.116080 0.074186 -0.151444
v 0.116080 0.074186 -0.141682
v 0.116080 0.074186 -0.131919
v 0.116080 0.074186 -0.122156
v 0.121470 0.074186 -0.161207
v 0.121470 0.074186 -0.151444
v 0.121470 0.074186 -0.141682
v 0.121470 0.074186 -0.131919
v 0.121470 0.074186 -0.122156
v 0.121470 0.110483 -0.161207
v 0.121470 0.110483 -0.151444
v 0.121470 0.110483 -0.141682
v 0.121470 0.110483 -0.131919
v 0.121470 0.110483 -0.122156
v 0.104737 0.054165 -0.161207
v 0.104737 0.054165 -0.170970
v 0.109274 0.054165 -0.112393
v 0.104737 0.054165 -0.112393
v 0.109274 0.054165 -0.170970
v 0.113811 0.054165 -0.170970
v 0.113811 0.054165 -0.122156
v 0.113811 0.054165 -0.112393
v 0.109274 0.054165 -0.122156
v 0.104737 0.054165 -0.122156
v 0.113811 0.054165 -0.161207
v 0.109274 0.054165 -0.161207
v 0.113811 0.061924 -0.122156
v 0.109274 0.061924 -0.122156
v 0.109274 0.061924 -0.112393
v 0.104737 0.061924 -0.112393
v 0.104737 0.061924 -0.122156
v 0.113811 0.061924 -0.112393
v 0.104737 0.061924 -0.161207
v 0.104737 0.061924 -0.170970
v 0.109274 0.061924 -0.170970
v 0.113811 0.061924 -0.170970
v 0.109274 0.061924 -0.161207
v 0.113811 0.061924 -0.161207
v 0.109274 0.054165 -0.108615
v 0.104737 0.054165 -0.108615
v 0.113811 0.054165 -0.108615
v 0.109274 0.054165 -0.157428
v 0.113811 0.054165 -0.157428
v 0.104737 0.054165 -0.157428
v 0.109274 0.061924 -0.108615
v 0.104737 0.061924 -0.157428
v 0.109274 0.061924 -0.157428
v 0.113811 0.061924 -0.108615
v 0.113811 0.061924 -0.157428
v 0.104737 0.061924 -0.108615
v 0.121470 0.105501 -0.176895
v 0.118348 0.105501 -0.176895
v 0.121470 0.092202 -0.176895
v 0.118348 0.092202 -0.176895
v 0.116080 0.105501 -0.176895
v 0.116080 0.092202 -0.176895
v 0.104737 0.101032 -0.170970
v 0.104737 0.103007 -0.170970
v 0.104737 0.103007 -0.112393
v 0.104737 0.101032 -0.112393
v 0.098153 0.101093 -0.170970
v 0.098153 0.103069 -0.170970
v 0.098153 0.101093 -0.112393
v 0.098153 0.103069 -0.112393
v 0.113811 0.101032 -0.096021
v 0.113811 0.103007 -0.096021
v 0.113811 0.101032 -0.170970
v 0.113811 0.103007 -0.170970
v 0.109274 0.103007 -0.096021
v 0.109274 0.101032 -0.096021
v 0.109274 0.103007 -0.170970
v 0.109274 0.101032 -0.170970
v 0.109274 0.101032 -0.112393
v 0.109274 0.103007 -0.112393
v 0.113811 0.103007 -0.092856
v 0.113811 0.101032 -0.092856
v 0.113811 0.101032 -0.084645
v 0.113811 0.103007 -0.084645
v 0.118348 0.101032 -0.084645
v 0.118348 0.103007 -0.084645
v 0.116080 0.103007 -0.084645
v 0.116080 0.101032 -0.084645
v 0.116080 0.103007 -0.170970
v 0.116080 0.101032 -0.170970
v 0.121470 0.103007 -0.084645
v 0.121470 0.101032 -0.084645
v 0.109274 0.101032 -0.106936
v 0.109274 0.103007 -0.106936
v 0.109274 0.103007 -0.101478
v 0.109274 0.101032 -0.101478
v 0.098153 0.101093 -0.161207
v 0.098153 0.103069 -0.161207
v 0.098153 0.101093 -0.151444
v 0.098153 0.103069 -0.151444
v 0.098153 0.101093 -0.141682
v 0.098153 0.103069 -0.141682
v 0.098153 0.101093 -0.131919
v 0.098153 0.103069 -0.131919
v 0.098153 0.103069 -0.122156
v 0.098153 0.101093 -0.122156
v 0.118348 0.101032 -0.176895
v 0.118348 0.103007 -0.176895
v 0.116080 0.103007 -0.176895
v 0.116080 0.101032 -0.176895
v 0.121470 0.103007 -0.176895
v 0.121470 0.101032 -0.176895
vn -0.0000 -0.0000 -1.0000
vn 1.0000 -0.0000 -0.0000
vn -0.0000 -1.0000 -0.0000
vn -0.0000 -0.0000 1.0000
vn -0.0159 0.9999 -0.0000
vn -0.0000 1.0000 -0.0000
vn -1.0000 -0.0000 -0.0000
vn 0.0159 0.9999 -0.0000
vt 0.234321 0.955715
vt 0.234321 0.960840
vt 0.241190 0.960840
vt 0.241190 0.955715
vt 0.561502 0.896128
vt 0.241190 0.905893
vt 0.241190 0.916143
vt 0.251157 0.916143
vt 0.234321 0.905893
vt 0.234321 0.916143
vt 0.241190 0.941063
vt 0.241190 0.933277
vt 0.251157 0.933184
vt 0.251157 0.941015
vt 0.234321 0.933243
vt 0.234321 0.941044
vt 0.227453 0.941017
vt 0.227453 0.933194
vt 0.241190 0.950590
vt 0.241190 0.950590
vt 0.251157 0.950590
vt 0.251157 0.950590
vt 0.241190 0.929336
vt 0.251157 0.929336
vt 0.241190 0.933202
vt 0.241190 0.941021
vt 0.215859 0.905893
vt 0.215859 0.916143
vt 0.213717 0.916143
vt 0.213717 0.905893
vt 0.215859 0.960840
vt 0.213717 0.960840
vt 0.215859 0.929336
vt 0.213717 0.929336
vt 0.234321 0.929336
vt 0.588781 0.923730
vt 0.588781 0.930179
vt 0.588781 0.918605
vt 0.215859 0.973736
vt 0.213717 0.973736
vt 0.215859 0.973736
vt 0.215859 0.967288
vt 0.213717 0.967288
vt 0.215859 0.973736
vt 0.234321 0.967288
vt 0.227453 0.967288
vt 0.227453 0.973736
vt 0.234321 0.973736
vt 0.224019 0.967288
vt 0.224019 0.973736
vt 0.227453 0.960840
vt 0.227453 0.955715
vt 0.224019 0.933194
vt 0.224019 0.941017
vt 0.227453 0.933194
vt 0.224019 0.916143
vt 0.224019 0.929336
vt 0.227453 0.929336
vt 0.227453 0.916143
vt 0.227453 0.905893
vt 0.224019 0.929336
vt 0.234321 0.933100
vt 0.234321 0.940752
vt 0.224019 0.905893
vt 0.224019 0.905893
vt 0.224019 0.955715
vt 0.224019 0.960840
vt 0.234321 0.955003
vt 0.234321 0.949167
vt 0.234321 0.932812
vt 0.234321 0.940167
vt 0.234321 0.940459
vt 0.234321 0.932956
vt 0.234321 0.955478
vt 0.227453 0.941017
vt 0.234321 0.941017
vt 0.234321 0.933194
vt 0.585347 0.896085
vt 0.588781 0.896085
vt 0.215859 0.933194
vt 0.213717 0.933194
vt 0.234321 0.943309
vt 0.241190 0.944389
vt 0.577187 0.896085
vt 0.577187 0.903908
vt 0.575045 0.903908
vt 0.575045 0.896085
vt 0.577187 0.918605
vt 0.577187 0.923730
vt 0.575045 0.923730
vt 0.575045 0.918605
vt 0.585347 0.923730
vt 0.585347 0.930179
vt 0.588781 0.903908
vt 0.588781 0.903908
vt 0.577187 0.930179
vt 0.575045 0.930179
vt 0.585347 0.903908
vt 0.577187 0.913481
vt 0.575045 0.913481
vt 0.577187 0.913481
vt 0.585347 0.913481
vt 0.581913 0.913481
vt 0.577187 0.896085
vt 0.581913 0.896085
vt 0.224019 0.941017
vt 0.581913 0.930179
vt 0.581913 0.923730
vt 0.304097 0.936184
vt 0.304097 0.941308
vt 0.300663 0.941308
vt 0.300663 0.936184
vt 0.220585 0.933194
vt 0.220585 0.929336
vt 0.215859 0.929336
vt 0.220585 0.960840
vt 0.220585 0.967288
vt 0.577187 0.896085
vt 0.215859 0.955715
vt 0.220585 0.955715
vt 0.220585 0.905893
vt 0.215859 0.905893
vt 0.220585 0.916143
vt 0.215859 0.950590
vt 0.220585 0.950590
vt 0.220585 0.973736
vt 0.224019 0.973736
vt 0.224019 0.960840
vt 0.585347 0.918605
vt 0.581913 0.918605
vt 0.227453 0.950590
vt 0.234321 0.950590
vt 0.234321 0.950116
vt 0.224019 0.950590
vt 0.588781 0.913481
vt 0.585347 0.903908
vt 0.581913 0.903908
vt 0.224019 0.944360
vt 0.224019 0.944360
vt 0.213717 0.950590
vt 0.213717 0.955715
vt 0.213717 0.929336
vt 0.671757 0.879543
vt 0.671757 0.884668
vt 0.667031 0.884668
vt 0.667031 0.879543
vt 0.215859 0.973736
vt 0.220585 0.973736
vt 0.224019 0.973736
vt 0.227453 0.973736
vt 0.234321 0.955240
vt 0.234321 0.949641
vt 0.234321 0.973736
vt 0.433540 0.906741
vt 0.433540 0.900293
vt 0.251157 0.941015
vt 0.251157 0.933184
vt 0.213717 0.973736
vt 0.433540 0.894694
vt 0.433540 0.894931
vt 0.215859 0.905893
vt 0.213717 0.905893
vt 0.227453 0.960840
vt 0.241190 0.950590
vt 0.241190 0.955715
vt 0.241190 0.950590
vt 0.547766 0.896128
vt 0.554634 0.896128
vt 0.227453 0.905893
vt 0.241190 0.960840
vt 0.251157 0.916143
vt 0.213717 0.960840
vt 0.251157 0.950590
vt 0.251157 0.941015
vt 0.251157 0.941015
vt 0.213717 0.941017
vt 0.215859 0.941017
vt 0.241190 0.916143
vt 0.241190 0.905893
vt 0.555643 0.896128
vt 0.548774 0.896128
vt 0.541906 0.896128
vt 0.220585 0.941017
vt 0.224019 0.941017
vt 0.215859 0.941017
vt 0.213717 0.944360
vt 0.215859 0.944360
vt 0.215859 0.944360
vt 0.220585 0.944360
vt 0.220585 0.944360
vt 0.224019 0.944360
vt 0.251157 0.944326
vt 0.251157 0.944326
vt 0.251157 0.944326
vt 0.234321 0.943665
vt 0.234321 0.944021
vt 0.234321 0.943665
vt 0.585347 0.907250
vt 0.581913 0.907250
vt 0.234321 0.940752
vt 0.588781 0.907250
vt 0.577187 0.907250
vt 0.575045 0.907250
vt 0.234321 0.944377
vt 0.227453 0.944360
vt 0.588781 0.907250
vt 0.234321 0.940167
vt 0.224019 0.944360
vt 0.234321 0.944377
vt 0.227453 0.944360
vt 0.234321 0.944360
vt 0.241190 0.944363
vt 0.681050 0.903344
vt 0.677616 0.903344
vt 0.677616 0.900001
vt 0.681050 0.900001
s 0
usemtl Palitrs
f 115/1/1 43/2/1 4/3/1 109/4/1
f 293/4/2 218/3/2 2/3/2 110/4/2
f 330/5/2 329/5/2 317/5/2 323/5/2
f 209/6/2 223/7/2 8/7/2 1/6/2
f 219/7/3 6/7/3 10/8/3 229/8/3
f 48/9/1 45/10/1 6/7/1 3/6/1
f 361/11/4 65/12/4 67/13/4 364/14/4
f 72/15/4 371/16/4 366/17/4 70/18/4
f 228/19/5 7/20/5 11/21/5 238/22/5
f 21/23/4 8/7/4 12/8/4 23/24/4
f 64/25/1 358/26/1 362/14/1 66/13/1
f 161/27/4 147/28/4 17/29/4 15/30/4
f 313/31/6 243/32/6 16/32/6 146/31/6
f 147/28/4 150/33/4 25/34/4 17/29/4
f 6/7/1 20/23/1 22/24/1 10/8/1
f 65/12/4 21/23/4 23/24/4 67/13/4
f 233/8/2 253/24/2 23/24/2 12/8/2
f 45/10/1 47/35/1 20/23/1 6/7/1
f 40/36/2 61/37/2 80/37/2 75/36/2
f 112/38/2 40/36/2 75/36/2 118/38/2
f 202/39/6 172/40/6 28/40/6 149/41/6
f 165/42/1 59/43/1 27/40/1 148/44/1
f 62/45/1 60/46/1 36/47/1 51/48/1
f 178/48/6 174/47/6 37/47/6 52/48/6
f 135/49/4 61/46/4 37/47/4 132/50/4
f 114/1/4 54/2/4 40/51/4 112/52/4
f 127/53/1 387/54/1 368/17/1 71/55/1
f 123/56/1 125/57/1 39/58/1 31/59/1
f 50/10/4 53/35/4 38/58/4 35/59/4
f 268/2/6 258/51/6 34/51/6 49/2/6
f 44/9/4 50/10/4 35/59/4 30/60/4
f 198/61/3 176/58/3 42/58/3 134/57/3
f 188/62/2 393/63/2 371/16/2 72/15/2
f 128/64/1 123/56/1 31/59/1 33/60/1
f 303/65/3 263/60/3 30/60/3 122/64/3
f 144/66/1 121/67/1 29/51/1 113/52/1
f 1/6/4 8/7/4 50/10/4 44/9/4
f 218/3/6 268/2/6 49/2/6 2/3/6
f 8/7/4 21/23/4 53/35/4 50/10/4
f 110/4/4 116/68/4 58/69/4 7/20/4
f 74/70/2 374/71/2 390/72/2 187/73/2
f 194/74/2 184/2/2 54/2/2 114/1/2
f 61/46/4 63/45/4 52/48/4 37/47/4
f 31/59/1 39/58/1 47/35/1 45/10/1
f 176/58/3 180/35/3 56/35/3 42/58/3
f 71/55/1 368/75/1 373/76/1 73/77/1
f 33/60/1 31/59/1 45/10/1 48/9/1
f 333/5/2 332/5/2 314/5/2 315/5/2
f 113/52/1 29/51/1 43/2/1 115/1/1
f 40/51/4 54/2/4 63/45/4 61/46/4
f 184/2/2 186/45/2 63/45/2 54/2/2
f 136/78/3 70/79/3 82/79/3 140/78/3
f 49/2/1 34/51/1 60/46/1 62/45/1
f 146/31/1 16/32/1 59/43/1 165/42/1
f 65/12/4 74/70/4 53/35/4 21/23/4
f 186/45/2 178/48/2 52/48/2 63/45/2
f 66/13/2 362/14/2 394/14/2 274/13/2
f 39/58/1 71/55/1 73/77/1 47/35/1
f 180/35/2 188/62/2 72/15/2 56/35/2
f 125/57/1 127/53/1 71/55/1 39/58/1
f 56/35/4 72/15/4 70/18/4 42/58/4
f 151/33/4 153/80/4 69/81/4 26/34/4
f 7/20/4 58/69/4 375/82/4 360/83/4
f 20/23/1 64/25/1 66/13/1 22/24/1
f 253/24/2 278/13/2 67/13/2 23/24/2
f 47/35/1 73/77/1 64/25/1 20/23/1
f 159/84/4 389/85/4 378/86/4 85/87/4
f 168/88/4 154/89/4 76/90/4 117/91/4
f 137/92/4 75/36/4 80/37/4 139/93/4
f 70/79/2 366/94/2 377/95/2 82/79/2
f 152/96/6 57/97/6 79/97/6 156/96/6
f 86/79/4 380/94/4 385/98/4 142/78/4
f 140/78/3 82/79/3 86/79/3 142/78/3
f 155/99/6 78/100/6 84/100/6 158/101/6
f 138/102/6 104/103/6 107/103/6 141/102/6
f 157/104/3 106/105/3 108/105/3 159/84/3
f 387/106/2 127/53/2 357/53/2 409/106/2
f 135/93/6 99/107/6 105/107/6 139/93/6
f 154/89/4 103/108/4 105/107/4 156/96/4
f 143/109/4 137/110/4 103/111/4 119/112/4
f 134/57/4 136/53/4 102/113/4 93/114/4
f 164/115/1 166/80/1 101/113/1 98/114/1
f 129/67/1 88/116/1 100/117/1 126/49/1
f 153/118/3 102/105/3 106/105/3 157/104/3
f 167/119/1 160/31/1 94/116/1 120/120/1
f 308/27/3 283/121/3 95/121/3 161/27/3
f 145/122/1 162/28/1 96/123/1 87/121/1
f 163/124/6 97/125/6 353/125/6 352/124/6
f 200/33/3 190/114/3 93/114/3 151/33/3
f 162/28/1 164/115/1 98/114/1 96/123/1
f 152/42/4 99/117/4 91/126/4 149/41/4
f 126/49/1 100/117/1 90/126/1 131/50/1
f 196/127/6 192/126/6 91/126/6 132/50/6
f 130/56/4 133/57/4 92/114/4 89/123/4
f 298/128/6 288/116/6 88/116/6 129/67/6
f 122/64/4 130/56/4 89/123/4 95/121/4
f 163/124/1 167/119/1 120/120/1 97/125/1
f 138/102/4 143/129/4 119/130/4 104/103/4
f 155/99/4 168/88/4 117/91/4 78/100/4
f 32/131/1 113/52/1 115/1/1 46/132/1
f 182/133/2 194/74/2 114/1/2 55/132/2
f 2/3/4 49/2/4 116/68/4 110/4/4
f 124/134/1 144/66/1 113/52/1 32/131/1
f 55/132/4 114/1/4 112/52/4 41/131/4
f 41/135/2 112/38/2 118/38/2 77/135/2
f 228/19/2 293/4/2 110/4/2 7/20/2
f 46/132/1 115/1/1 109/4/1 5/20/1
f 97/125/1 120/120/1 144/66/1 124/134/1
f 77/135/4 118/38/4 143/129/4 138/102/4
f 30/60/4 35/59/4 130/56/4 122/64/4
f 258/51/6 298/128/6 129/67/6 34/51/6
f 35/59/4 38/58/4 133/57/4 130/56/4
f 174/47/6 196/127/6 132/50/6 37/47/6
f 60/46/1 126/49/1 131/50/1 36/47/1
f 34/51/1 129/67/1 126/49/1 60/46/1
f 42/58/4 70/18/4 136/53/4 134/57/4
f 118/38/4 75/36/4 137/92/4 143/129/4
f 61/37/6 135/93/6 139/93/6 80/37/6
f 142/78/4 385/136/4 382/137/4 108/105/4
f 77/135/6 138/102/6 141/102/6 83/135/6
f 106/105/3 140/78/3 142/78/3 108/105/3
f 103/108/4 137/92/4 139/93/4 105/107/4
f 98/114/1 101/113/1 127/53/1 125/57/1
f 102/105/3 136/78/3 140/78/3 106/105/3
f 120/120/1 94/116/1 121/67/1 144/66/1
f 283/121/3 303/65/3 122/64/3 95/121/3
f 87/121/1 96/123/1 123/56/1 128/64/1
f 124/134/2 386/138/2 408/139/2 356/134/2
f 190/114/3 198/61/3 134/57/3 93/114/3
f 96/123/1 98/114/1 125/57/1 123/56/1
f 99/117/4 135/49/4 132/50/4 91/126/4
f 104/103/4 119/130/4 168/88/4 155/99/4
f 19/140/1 111/141/1 167/119/1 163/124/1
f 57/43/4 152/42/4 149/41/4 28/40/4
f 18/29/1 24/34/1 164/115/1 162/28/1
f 169/142/3 200/33/3 151/33/3 26/34/3
f 19/140/6 163/124/6 352/124/6 350/140/6
f 13/30/1 18/29/1 162/28/1 145/122/1
f 248/30/3 308/27/3 161/27/3 15/30/3
f 111/141/1 14/32/1 160/31/1 167/119/1
f 69/87/3 153/118/3 157/104/3 81/87/3
f 24/34/1 68/81/1 166/80/1 164/115/1
f 76/90/4 154/89/4 156/96/4 79/97/4
f 81/87/3 157/104/3 159/84/3 85/87/3
f 104/103/6 155/99/6 158/101/6 107/103/6
f 108/105/4 382/137/4 389/85/4 159/84/4
f 99/107/6 152/96/6 156/96/6 105/107/6
f 119/143/4 103/144/4 154/145/4 168/146/4
f 93/114/4 102/113/4 153/80/4 151/33/4
f 88/116/1 146/31/1 165/42/1 100/117/1
f 100/117/1 165/42/1 148/44/1 90/126/1
f 192/126/6 202/39/6 149/41/6 91/126/6
f 89/123/4 92/114/4 150/33/4 147/28/4
f 288/116/6 313/31/6 146/31/6 88/116/6
f 95/121/4 89/123/4 147/28/4 161/27/4
f 90/126/6 148/44/6 201/147/6 191/148/6
f 191/148/6 201/147/6 202/39/6 192/126/6
f 25/34/3 150/33/3 199/115/3 170/34/3
f 170/34/3 199/115/3 200/33/3 169/142/3
f 92/114/3 133/57/3 197/61/3 189/114/3
f 189/114/3 197/61/3 198/61/3 190/114/3
f 36/47/6 131/50/6 195/149/6 173/150/6
f 173/150/6 195/149/6 196/127/6 174/47/6
f 58/69/2 116/68/2 193/151/2 181/152/2
f 181/152/2 193/151/2 194/74/2 182/133/2
f 131/50/6 90/126/6 191/148/6 195/149/6
f 195/149/6 191/148/6 192/126/6 196/127/6
f 150/33/3 92/114/3 189/114/3 199/115/3
f 199/115/3 189/114/3 190/114/3 200/33/3
f 53/35/2 74/70/2 187/73/2 179/35/2
f 179/35/2 187/73/2 188/62/2 180/35/2
f 62/45/2 51/48/2 177/153/2 185/45/2
f 185/45/2 177/153/2 178/48/2 186/45/2
f 49/2/2 62/45/2 185/45/2 183/2/2
f 185/154/6 186/154/6 206/154/6 205/154/6
f 38/58/3 53/35/3 179/35/3 175/58/3
f 175/58/3 179/35/3 180/35/3 176/58/3
f 116/68/2 49/2/2 183/2/2 193/151/2
f 183/155/1 185/154/1 205/154/1 203/155/1
f 82/79/2 377/94/2 380/95/2 86/79/2
f 274/13/2 394/14/2 396/156/2 275/157/2
f 133/57/3 38/58/3 175/58/3 197/61/3
f 197/61/3 175/58/3 176/58/3 198/61/3
f 51/48/6 36/47/6 173/150/6 177/153/6
f 177/153/6 173/150/6 174/47/6 178/48/6
f 148/44/6 27/40/6 171/158/6 201/147/6
f 201/147/6 171/158/6 172/40/6 202/39/6
f 203/155/2 205/154/2 206/154/2 204/155/2
f 207/159/2 203/155/2 204/155/2 208/160/2
f 184/155/4 194/160/4 208/160/4 204/155/4
f 186/154/4 184/155/4 204/155/4 206/154/4
f 194/160/3 193/159/3 207/159/3 208/160/3
f 193/159/1 183/155/1 203/155/1 207/159/1
f 94/116/6 160/31/6 309/31/6 284/116/6
f 284/116/6 309/31/6 310/31/6 285/116/6
f 285/116/6 310/31/6 311/31/6 286/116/6
f 286/116/6 311/31/6 312/31/6 287/116/6
f 287/116/6 312/31/6 313/31/6 288/116/6
f 13/30/3 145/122/3 304/122/3 244/30/3
f 244/30/3 304/122/3 305/161/3 245/30/3
f 245/30/3 305/161/3 306/161/3 246/30/3
f 246/30/3 306/161/3 307/27/3 247/162/3
f 247/162/3 307/27/3 308/27/3 248/30/3
f 87/121/3 128/64/3 299/65/3 279/121/3
f 279/121/3 299/65/3 300/65/3 280/121/3
f 280/121/3 300/65/3 301/65/3 281/121/3
f 281/121/3 301/65/3 302/65/3 282/121/3
f 282/121/3 302/65/3 303/65/3 283/121/3
f 29/51/6 121/67/6 294/128/6 254/51/6
f 254/51/6 294/128/6 295/128/6 255/163/6
f 255/163/6 295/128/6 296/128/6 256/51/6
f 256/51/6 296/128/6 297/128/6 257/51/6
f 257/51/6 297/128/6 298/128/6 258/51/6
f 5/20/2 109/4/2 289/4/2 224/20/2
f 224/20/2 289/4/2 290/4/2 225/164/2
f 225/164/2 290/4/2 291/4/2 226/20/2
f 226/20/2 291/4/2 292/165/2 227/166/2
f 227/166/2 292/165/2 293/4/2 228/19/2
f 121/67/6 94/116/6 284/116/6 294/128/6
f 294/128/6 284/116/6 285/116/6 295/128/6
f 295/128/6 285/116/6 286/116/6 296/128/6
f 296/128/6 286/116/6 287/116/6 297/128/6
f 297/128/6 287/116/6 288/116/6 298/128/6
f 145/122/3 87/121/3 279/121/3 304/122/3
f 304/122/3 279/121/3 280/121/3 305/161/3
f 305/161/3 280/121/3 281/121/3 306/161/3
f 306/161/3 281/121/3 282/121/3 307/27/3
f 307/27/3 282/121/3 283/121/3 308/27/3
f 22/24/2 66/13/2 274/13/2 249/24/2
f 249/24/2 274/13/2 275/157/2 250/24/2
f 250/24/2 275/157/2 276/157/2 251/24/2
f 251/24/2 276/157/2 277/13/2 252/24/2
f 252/24/2 277/13/2 278/13/2 253/24/2
f 321/167/3 316/168/3 338/168/3 340/167/3
f 259/60/3 269/9/3 270/9/3 260/169/3
f 260/169/3 270/9/3 271/9/3 261/60/3
f 261/60/3 271/9/3 272/9/3 262/60/3
f 262/60/3 272/9/3 273/9/3 263/60/3
f 4/3/6 43/2/6 264/2/6 214/3/6
f 214/3/6 264/2/6 265/2/6 215/3/6
f 215/3/6 265/2/6 266/2/6 216/3/6
f 216/3/6 266/2/6 267/2/6 217/170/6
f 217/170/6 267/2/6 268/2/6 218/3/6
f 128/64/3 33/60/3 259/60/3 299/65/3
f 299/65/3 259/60/3 260/169/3 300/65/3
f 300/65/3 260/169/3 261/60/3 301/65/3
f 301/65/3 261/60/3 262/60/3 302/65/3
f 302/65/3 262/60/3 263/60/3 303/65/3
f 43/2/6 29/51/6 254/51/6 264/2/6
f 264/2/6 254/51/6 255/163/6 265/2/6
f 265/2/6 255/163/6 256/51/6 266/2/6
f 266/2/6 256/51/6 257/51/6 267/2/6
f 267/2/6 257/51/6 258/51/6 268/2/6
f 10/8/2 22/24/2 249/24/2 229/8/2
f 229/8/2 249/24/2 250/24/2 230/8/2
f 230/8/2 250/24/2 251/24/2 231/8/2
f 231/8/2 251/24/2 252/24/2 232/171/2
f 232/171/2 252/24/2 253/24/2 233/8/2
f 160/31/6 14/32/6 239/32/6 309/31/6
f 309/31/6 239/32/6 240/32/6 310/31/6
f 310/31/6 240/32/6 241/32/6 311/31/6
f 311/31/6 241/32/6 242/172/6 312/31/6
f 312/31/6 242/172/6 243/32/6 313/31/6
f 5/20/5 224/20/5 234/21/5 9/21/5
f 224/20/5 225/164/5 235/173/5 234/21/5
f 225/164/5 226/20/5 236/21/5 235/173/5
f 226/20/5 227/166/5 237/22/5 236/21/5
f 227/166/5 228/19/5 238/22/5 237/22/5
f 278/13/2 403/14/2 364/14/2 67/13/2
f 275/157/2 396/174/2 398/174/2 276/157/2
f 276/157/2 398/174/2 400/175/2 277/13/2
f 277/13/2 400/14/2 403/175/2 278/13/2
f 351/81/1 405/176/1 411/177/1 354/80/1
f 8/7/3 223/7/3 233/8/3 12/8/3
f 223/7/3 222/178/3 232/171/3 233/8/3
f 222/178/3 221/7/3 231/8/3 232/171/3
f 221/7/3 220/7/3 230/8/3 231/8/3
f 220/7/3 219/7/3 229/8/3 230/8/3
f 3/6/2 6/7/2 219/7/2 213/6/2
f 213/6/2 219/7/2 220/7/2 212/179/2
f 212/179/2 220/7/2 221/7/2 211/6/2
f 211/6/2 221/7/2 222/178/2 210/6/2
f 210/6/2 222/178/2 223/7/2 209/6/2
f 326/167/1 327/168/1 322/168/1 320/167/1
f 269/9/3 213/6/3 212/179/3 270/9/3
f 270/9/3 212/179/3 211/6/3 271/9/3
f 271/9/3 211/6/3 210/6/3 272/9/3
f 272/9/3 210/6/3 209/6/3 273/9/3
f 109/4/2 4/3/2 214/3/2 289/4/2
f 289/4/2 214/3/2 215/3/2 290/4/2
f 290/4/2 215/3/2 216/3/2 291/4/2
f 291/4/2 216/3/2 217/170/2 292/165/2
f 292/165/2 217/170/2 218/3/2 293/4/2
f 322/168/3 323/5/3 317/5/3 316/168/3
f 320/167/3 322/168/3 316/168/3 321/167/3
f 319/167/3 318/168/3 325/168/3 324/167/3
f 318/168/3 315/5/3 314/5/3 325/168/3
f 335/167/1 334/168/1 318/168/1 319/167/1
f 329/180/6 328/181/6 344/181/6 349/180/6
f 324/167/3 325/168/3 341/168/3 342/167/3
f 327/168/1 330/5/1 323/5/1 322/168/1
f 331/167/7 326/167/7 320/167/7 321/167/7
f 334/168/1 333/5/1 315/5/1 318/168/1
f 317/5/2 329/5/2 349/5/2 339/5/2
f 337/167/7 335/167/7 319/167/7 324/167/7
f 30/60/7 263/60/7 326/60/7 331/60/7
f 273/9/1 209/6/1 330/6/1 327/9/1
f 44/9/4 30/60/4 331/60/4 328/9/4
f 263/60/1 273/9/1 327/9/1 326/60/1
f 1/6/4 44/9/4 328/9/4 329/6/4
f 209/6/2 1/6/2 329/6/2 330/6/2
f 259/60/7 33/60/7 335/60/7 337/60/7
f 269/9/4 259/60/4 337/60/4 336/9/4
f 48/9/1 3/6/1 333/6/1 334/9/1
f 213/6/4 269/9/4 336/9/4 332/6/4
f 33/60/1 48/9/1 334/9/1 335/60/1
f 3/6/2 213/6/2 332/6/2 333/6/2
f 349/5/4 344/168/4 338/168/4 339/5/4
f 345/5/4 346/168/4 341/168/4 343/5/4
f 344/168/4 347/167/4 340/167/4 338/168/4
f 346/168/4 348/167/4 342/167/4 341/168/4
f 332/180/6 336/181/6 346/181/6 345/180/6
f 316/168/3 317/5/3 339/5/3 338/168/3
f 328/181/6 331/182/6 347/182/6 344/181/6
f 331/167/7 321/167/7 340/167/7 347/167/7
f 325/168/3 314/5/3 343/5/3 341/168/3
f 336/181/6 337/182/6 348/182/6 346/181/6
f 314/5/2 332/5/2 345/5/2 343/5/2
f 337/167/7 324/167/7 342/167/7 348/167/7
f 355/113/1 406/183/1 409/184/1 357/53/1
f 354/80/1 411/185/1 406/183/1 355/113/1
f 166/80/3 68/81/3 351/81/3 354/80/3
f 97/125/6 124/134/6 356/134/6 353/125/6
f 127/53/3 101/113/3 355/113/3 357/53/3
f 101/113/3 166/80/3 354/80/3 355/113/3
f 404/186/1 350/140/1 352/124/1 410/187/1
f 410/188/1 352/124/1 353/125/1 407/189/1
f 407/190/1 353/125/1 356/134/1 408/191/1
f 401/192/2 237/22/2 238/22/2 402/193/2
f 399/194/2 236/21/2 237/22/2 401/193/2
f 397/194/2 235/173/2 236/21/2 399/194/2
f 395/193/2 234/21/2 235/173/2 397/194/2
f 363/193/2 9/21/2 234/21/2 395/194/2
f 391/195/2 181/152/2 182/133/2 392/196/2
f 375/82/2 58/69/2 181/152/2 391/197/2
f 384/198/4 141/102/4 107/103/4 383/199/4
f 187/73/2 390/72/2 393/200/2 188/62/2
f 381/201/4 83/135/4 141/102/4 384/198/4
f 383/199/4 107/103/4 158/101/4 388/202/4
f 388/202/4 158/101/4 84/100/4 379/203/4
f 370/204/4 55/132/4 41/131/4 367/205/4
f 376/201/2 77/135/2 83/135/2 381/206/2
f 361/11/4 374/207/4 74/70/4 65/12/4
f 7/20/4 360/83/4 365/193/4 11/21/4
f 386/208/1 124/134/1 32/131/1 369/205/1
f 392/196/2 182/133/2 55/132/2 370/209/2
f 369/210/1 32/131/1 46/132/1 372/211/1
f 367/201/2 41/135/2 77/135/2 376/206/2
f 372/211/1 46/132/1 5/20/1 359/212/1
f 402/192/2 238/22/2 11/21/2 365/193/2
f 359/212/1 5/20/1 9/21/1 363/193/1
f 404/186/1 410/187/1 411/177/1 405/176/1
f 407/190/1 408/191/1 409/184/1 406/183/1
f 410/188/1 407/189/1 406/183/1 411/185/1
f 401/192/2 402/193/2 403/175/2 400/14/2
f 399/194/2 401/193/2 400/175/2 398/174/2
f 397/194/2 399/194/2 398/174/2 396/174/2
f 395/193/2 397/194/2 396/156/2 394/14/2
f 363/193/2 395/194/2 394/14/2 362/14/2
f 391/195/2 392/196/2 393/200/2 390/72/2
f 375/82/2 391/197/2 390/72/2 374/71/2
f 383/199/4 388/202/4 389/85/4 382/137/4
f 387/106/2 409/106/2 408/139/2 386/138/2
f 381/201/4 384/198/4 385/98/4 380/94/4
f 384/213/4 383/214/4 382/215/4 385/216/4
f 388/202/4 379/203/4 378/86/4 389/85/4
f 367/201/2 376/206/2 377/95/2 366/94/2
f 376/201/2 381/206/2 380/95/2 377/94/2
f 361/11/4 364/14/4 365/193/4 360/83/4
f 374/207/4 361/11/4 360/83/4 375/82/4
f 369/210/1 372/211/1 373/76/1 368/75/1
f 392/196/2 370/209/2 371/16/2 393/63/2
f 386/208/1 369/205/1 368/17/1 387/54/1
f 370/204/4 367/205/4 366/17/4 371/16/4
f 359/212/1 363/193/1 362/14/1 358/26/1
f 402/192/2 365/193/2 364/14/2 403/14/2
f 372/211/1 359/212/1 358/26/1 373/76/1
f 73/77/1 373/76/1 358/26/1 64/25/1
f 503/1/1 498/4/1 415/3/1 442/2/1
f 666/4/7 499/4/7 413/3/7 601/3/7
f 703/5/7 696/5/7 690/5/7 702/5/7
f 592/6/7 412/6/7 419/7/7 606/7/7
f 602/7/3 612/8/3 421/8/3 417/7/3
f 447/9/1 414/6/1 417/7/1 444/10/1
f 732/11/4 735/14/4 464/13/4 462/12/4
f 467/15/4 465/18/4 737/17/4 742/16/4
f 611/19/8 621/22/8 422/21/8 418/20/8
f 425/23/4 427/24/4 423/8/4 419/7/4
f 461/25/1 463/13/1 733/14/1 729/26/1
f 548/27/4 15/30/4 17/29/4 534/28/4
f 686/31/6 533/31/6 16/32/6 243/32/6
f 534/28/4 17/29/4 25/34/4 537/33/4
f 417/7/1 421/8/1 426/24/1 424/23/1
f 462/12/4 464/13/4 427/24/4 425/23/4
f 616/8/7 423/8/7 427/24/7 626/24/7
f 444/10/1 417/7/1 424/23/1 446/35/1
f 439/36/7 470/36/7 472/37/7 458/37/7
f 500/38/7 505/38/7 470/36/7 439/36/7
f 585/39/6 536/41/6 28/40/6 172/40/6
f 552/42/1 535/44/1 27/40/1 59/43/1
f 459/45/1 450/48/1 435/47/1 457/46/1
f 561/48/6 451/48/6 436/47/6 557/47/6
f 522/49/4 519/50/4 436/47/4 458/46/4
f 502/1/4 500/52/4 439/51/4 453/2/4
f 514/53/1 466/55/1 739/17/1 756/54/1
f 510/56/1 430/59/1 438/58/1 512/57/1
f 449/10/4 434/59/4 437/58/4 452/35/4
f 641/2/6 448/2/6 433/51/6 631/51/6
f 443/9/4 429/60/4 434/59/4 449/10/4
f 581/61/3 521/57/3 441/58/3 559/58/3
f 571/62/7 467/15/7 742/16/7 762/63/7
f 515/64/1 432/60/1 430/59/1 510/56/1
f 676/65/3 509/64/3 429/60/3 636/60/3
f 531/66/1 501/52/1 428/51/1 508/67/1
f 412/6/4 443/9/4 449/10/4 419/7/4
f 601/3/6 413/3/6 448/2/6 641/2/6
f 419/7/4 449/10/4 452/35/4 425/23/4
f 499/4/4 418/20/4 456/69/4 504/68/4
f 469/70/7 570/73/7 759/72/7 745/71/7
f 577/74/7 502/1/7 453/2/7 567/2/7
f 458/46/4 436/47/4 451/48/4 460/45/4
f 430/59/1 444/10/1 446/35/1 438/58/1
f 559/58/3 441/58/3 455/35/3 563/35/3
f 466/55/1 468/77/1 744/76/1 739/75/1
f 432/60/1 447/9/1 444/10/1 430/59/1
f 706/5/7 688/5/7 687/5/7 705/5/7
f 501/52/1 503/1/1 442/2/1 428/51/1
f 439/51/4 458/46/4 460/45/4 453/2/4
f 567/2/7 453/2/7 460/45/7 569/45/7
f 523/78/3 527/78/3 473/79/3 465/79/3
f 448/2/1 459/45/1 457/46/1 433/51/1
f 533/31/1 552/42/1 59/43/1 16/32/1
f 462/12/4 425/23/4 452/35/4 469/70/4
f 569/45/7 460/45/7 451/48/7 561/48/7
f 463/13/7 647/13/7 763/14/7 733/14/7
f 438/58/1 446/35/1 468/77/1 466/55/1
f 563/35/7 455/35/7 467/15/7 571/62/7
f 512/57/1 438/58/1 466/55/1 514/53/1
f 455/35/4 441/58/4 465/18/4 467/15/4
f 538/33/4 26/34/4 69/81/4 540/80/4
f 418/20/4 731/83/4 746/82/4 456/69/4
f 424/23/1 426/24/1 463/13/1 461/25/1
f 626/24/7 427/24/7 464/13/7 651/13/7
f 446/35/1 424/23/1 461/25/1 468/77/1
f 546/84/4 85/87/4 378/86/4 758/85/4
f 555/88/4 117/91/4 76/90/4 541/89/4
f 524/92/4 526/93/4 472/37/4 470/36/4
f 465/79/7 473/79/7 748/95/7 737/94/7
f 539/96/6 543/96/6 79/97/6 57/97/6
f 475/79/4 529/78/4 754/98/4 749/94/4
f 527/78/3 529/78/3 475/79/3 473/79/3
f 542/99/6 545/101/6 84/100/6 78/100/6
f 525/102/6 528/102/6 496/103/6 493/103/6
f 544/104/3 546/84/3 497/105/3 495/105/3
f 756/106/7 776/106/7 728/53/7 514/53/7
f 522/93/6 526/93/6 494/107/6 488/107/6
f 541/89/4 543/96/4 494/107/4 492/108/4
f 530/109/4 506/112/4 492/111/4 524/110/4
f 521/57/4 482/114/4 491/113/4 523/53/4
f 551/115/1 487/114/1 490/113/1 553/80/1
f 516/67/1 513/49/1 489/117/1 477/116/1
f 540/118/3 544/104/3 495/105/3 491/105/3
f 554/119/1 507/120/1 483/116/1 547/31/1
f 681/27/3 548/27/3 484/121/3 656/121/3
f 532/122/1 476/121/1 485/123/1 549/28/1
f 550/124/6 723/124/6 724/125/6 486/125/6
f 583/33/3 538/33/3 482/114/3 573/114/3
f 549/28/1 485/123/1 487/114/1 551/115/1
f 539/42/4 536/41/4 480/126/4 488/117/4
f 513/49/1 518/50/1 479/126/1 489/117/1
f 579/127/6 519/50/6 480/126/6 575/126/6
f 517/56/4 478/123/4 481/114/4 520/57/4
f 671/128/6 516/67/6 477/116/6 661/116/6
f 509/64/4 484/121/4 478/123/4 517/56/4
f 550/124/1 486/125/1 507/120/1 554/119/1
f 525/102/4 493/103/4 506/130/4 530/129/4
f 542/99/4 78/100/4 117/91/4 555/88/4
f 431/131/1 445/132/1 503/1/1 501/52/1
f 565/133/7 454/132/7 502/1/7 577/74/7
f 413/3/4 499/4/4 504/68/4 448/2/4
f 511/134/1 431/131/1 501/52/1 531/66/1
f 454/132/4 440/131/4 500/52/4 502/1/4
f 440/135/7 471/135/7 505/38/7 500/38/7
f 611/19/7 418/20/7 499/4/7 666/4/7
f 445/132/1 416/20/1 498/4/1 503/1/1
f 486/125/1 511/134/1 531/66/1 507/120/1
f 471/135/4 525/102/4 530/129/4 505/38/4
f 429/60/4 509/64/4 517/56/4 434/59/4
f 631/51/6 433/51/6 516/67/6 671/128/6
f 434/59/4 517/56/4 520/57/4 437/58/4
f 557/47/6 436/47/6 519/50/6 579/127/6
f 457/46/1 435/47/1 518/50/1 513/49/1
f 433/51/1 457/46/1 513/49/1 516/67/1
f 441/58/4 521/57/4 523/53/4 465/18/4
f 505/38/4 530/129/4 524/92/4 470/36/4
f 458/37/6 472/37/6 526/93/6 522/93/6
f 529/78/4 497/105/4 751/137/4 754/136/4
f 471/135/6 474/135/6 528/102/6 525/102/6
f 495/105/3 497/105/3 529/78/3 527/78/3
f 492/108/4 494/107/4 526/93/4 524/92/4
f 487/114/1 512/57/1 514/53/1 490/113/1
f 491/105/3 495/105/3 527/78/3 523/78/3
f 507/120/1 531/66/1 508/67/1 483/116/1
f 656/121/3 484/121/3 509/64/3 676/65/3
f 476/121/1 515/64/1 510/56/1 485/123/1
f 511/134/7 727/134/7 775/139/7 755/138/7
f 573/114/3 482/114/3 521/57/3 581/61/3
f 485/123/1 510/56/1 512/57/1 487/114/1
f 488/117/4 480/126/4 519/50/4 522/49/4
f 493/103/4 542/99/4 555/88/4 506/130/4
f 19/140/1 550/124/1 554/119/1 111/141/1
f 57/43/4 28/40/4 536/41/4 539/42/4
f 18/29/1 549/28/1 551/115/1 24/34/1
f 169/142/3 26/34/3 538/33/3 583/33/3
f 19/140/6 350/140/6 723/124/6 550/124/6
f 13/30/1 532/122/1 549/28/1 18/29/1
f 248/30/3 15/30/3 548/27/3 681/27/3
f 111/141/1 554/119/1 547/31/1 14/32/1
f 69/87/3 81/87/3 544/104/3 540/118/3
f 24/34/1 551/115/1 553/80/1 68/81/1
f 76/90/4 79/97/4 543/96/4 541/89/4
f 81/87/3 85/87/3 546/84/3 544/104/3
f 493/103/6 496/103/6 545/101/6 542/99/6
f 497/105/4 546/84/4 758/85/4 751/137/4
f 488/107/6 494/107/6 543/96/6 539/96/6
f 506/143/4 555/146/4 541/145/4 492/144/4
f 482/114/4 538/33/4 540/80/4 491/113/4
f 477/116/1 489/117/1 552/42/1 533/31/1
f 489/117/1 479/126/1 535/44/1 552/42/1
f 575/126/6 480/126/6 536/41/6 585/39/6
f 478/123/4 534/28/4 537/33/4 481/114/4
f 661/116/6 477/116/6 533/31/6 686/31/6
f 484/121/4 548/27/4 534/28/4 478/123/4
f 479/126/6 574/148/6 584/147/6 535/44/6
f 574/148/6 575/126/6 585/39/6 584/147/6
f 25/34/3 170/34/3 582/115/3 537/33/3
f 170/34/3 169/142/3 583/33/3 582/115/3
f 481/114/3 572/114/3 580/61/3 520/57/3
f 572/114/3 573/114/3 581/61/3 580/61/3
f 435/47/6 556/150/6 578/149/6 518/50/6
f 556/150/6 557/47/6 579/127/6 578/149/6
f 456/69/7 564/152/7 576/151/7 504/68/7
f 564/152/7 565/133/7 577/74/7 576/151/7
f 518/50/6 578/149/6 574/148/6 479/126/6
f 578/149/6 579/127/6 575/126/6 574/148/6
f 537/33/3 582/115/3 572/114/3 481/114/3
f 582/115/3 583/33/3 573/114/3 572/114/3
f 452/35/7 562/35/7 570/73/7 469/70/7
f 562/35/7 563/35/7 571/62/7 570/73/7
f 459/45/7 568/45/7 560/153/7 450/48/7
f 568/45/7 569/45/7 561/48/7 560/153/7
f 448/2/7 566/2/7 568/45/7 459/45/7
f 568/154/6 588/154/6 589/154/6 569/154/6
f 437/58/3 558/58/3 562/35/3 452/35/3
f 558/58/3 559/58/3 563/35/3 562/35/3
f 504/68/7 576/151/7 566/2/7 448/2/7
f 566/155/1 586/155/1 588/154/1 568/154/1
f 473/79/7 475/79/7 749/95/7 748/94/7
f 647/13/7 648/157/7 765/156/7 763/14/7
f 520/57/3 580/61/3 558/58/3 437/58/3
f 580/61/3 581/61/3 559/58/3 558/58/3
f 450/48/6 560/153/6 556/150/6 435/47/6
f 560/153/6 561/48/6 557/47/6 556/150/6
f 535/44/6 584/147/6 171/158/6 27/40/6
f 584/147/6 585/39/6 172/40/6 171/158/6
f 586/155/7 587/155/7 589/154/7 588/154/7
f 590/159/7 591/160/7 587/155/7 586/155/7
f 567/155/4 587/155/4 591/160/4 577/160/4
f 569/154/4 589/154/4 587/155/4 567/155/4
f 577/160/3 591/160/3 590/159/3 576/159/3
f 576/159/1 590/159/1 586/155/1 566/155/1
f 483/116/6 657/116/6 682/31/6 547/31/6
f 657/116/6 658/116/6 683/31/6 682/31/6
f 658/116/6 659/116/6 684/31/6 683/31/6
f 659/116/6 660/116/6 685/31/6 684/31/6
f 660/116/6 661/116/6 686/31/6 685/31/6
f 13/30/3 244/30/3 677/122/3 532/122/3
f 244/30/3 245/30/3 678/161/3 677/122/3
f 245/30/3 246/30/3 679/161/3 678/161/3
f 246/30/3 247/162/3 680/27/3 679/161/3
f 247/162/3 248/30/3 681/27/3 680/27/3
f 476/121/3 652/121/3 672/65/3 515/64/3
f 652/121/3 653/121/3 673/65/3 672/65/3
f 653/121/3 654/121/3 674/65/3 673/65/3
f 654/121/3 655/121/3 675/65/3 674/65/3
f 655/121/3 656/121/3 676/65/3 675/65/3
f 428/51/6 627/51/6 667/128/6 508/67/6
f 627/51/6 628/163/6 668/128/6 667/128/6
f 628/163/6 629/51/6 669/128/6 668/128/6
f 629/51/6 630/51/6 670/128/6 669/128/6
f 630/51/6 631/51/6 671/128/6 670/128/6
f 416/20/7 607/20/7 662/4/7 498/4/7
f 607/20/7 608/164/7 663/4/7 662/4/7
f 608/164/7 609/20/7 664/4/7 663/4/7
f 609/20/7 610/166/7 665/165/7 664/4/7
f 610/166/7 611/19/7 666/4/7 665/165/7
f 508/67/6 667/128/6 657/116/6 483/116/6
f 667/128/6 668/128/6 658/116/6 657/116/6
f 668/128/6 669/128/6 659/116/6 658/116/6
f 669/128/6 670/128/6 660/116/6 659/116/6
f 670/128/6 671/128/6 661/116/6 660/116/6
f 532/122/3 677/122/3 652/121/3 476/121/3
f 677/122/3 678/161/3 653/121/3 652/121/3
f 678/161/3 679/161/3 654/121/3 653/121/3
f 679/161/3 680/27/3 655/121/3 654/121/3
f 680/27/3 681/27/3 656/121/3 655/121/3
f 426/24/7 622/24/7 647/13/7 463/13/7
f 622/24/7 623/24/7 648/157/7 647/13/7
f 623/24/7 624/24/7 649/157/7 648/157/7
f 624/24/7 625/24/7 650/13/7 649/157/7
f 625/24/7 626/24/7 651/13/7 650/13/7
f 694/167/3 713/167/3 711/168/3 689/168/3
f 632/60/3 633/169/3 643/9/3 642/9/3
f 633/169/3 634/60/3 644/9/3 643/9/3
f 634/60/3 635/60/3 645/9/3 644/9/3
f 635/60/3 636/60/3 646/9/3 645/9/3
f 415/3/6 597/3/6 637/2/6 442/2/6
f 597/3/6 598/3/6 638/2/6 637/2/6
f 598/3/6 599/3/6 639/2/6 638/2/6
f 599/3/6 600/170/6 640/2/6 639/2/6
f 600/170/6 601/3/6 641/2/6 640/2/6
f 515/64/3 672/65/3 632/60/3 432/60/3
f 672/65/3 673/65/3 633/169/3 632/60/3
f 673/65/3 674/65/3 634/60/3 633/169/3
f 674/65/3 675/65/3 635/60/3 634/60/3
f 675/65/3 676/65/3 636/60/3 635/60/3
f 442/2/6 637/2/6 627/51/6 428/51/6
f 637/2/6 638/2/6 628/163/6 627/51/6
f 638/2/6 639/2/6 629/51/6 628/163/6
f 639/2/6 640/2/6 630/51/6 629/51/6
f 640/2/6 641/2/6 631/51/6 630/51/6
f 421/8/7 612/8/7 622/24/7 426/24/7
f 612/8/7 613/8/7 623/24/7 622/24/7
f 613/8/7 614/8/7 624/24/7 623/24/7
f 614/8/7 615/171/7 625/24/7 624/24/7
f 615/171/7 616/8/7 626/24/7 625/24/7
f 547/31/6 682/31/6 239/32/6 14/32/6
f 682/31/6 683/31/6 240/32/6 239/32/6
f 683/31/6 684/31/6 241/32/6 240/32/6
f 684/31/6 685/31/6 242/172/6 241/32/6
f 685/31/6 686/31/6 243/32/6 242/172/6
f 416/20/8 420/21/8 617/21/8 607/20/8
f 607/20/8 617/21/8 618/173/8 608/164/8
f 608/164/8 618/173/8 619/21/8 609/20/8
f 609/20/8 619/21/8 620/22/8 610/166/8
f 610/166/8 620/22/8 621/22/8 611/19/8
f 651/13/7 464/13/7 735/14/7 772/14/7
f 648/157/7 649/157/7 767/174/7 765/174/7
f 649/157/7 650/13/7 769/175/7 767/174/7
f 650/13/7 651/13/7 772/175/7 769/14/7
f 351/81/1 725/80/1 778/177/1 405/176/1
f 419/7/3 423/8/3 616/8/3 606/7/3
f 606/7/3 616/8/3 615/171/3 605/178/3
f 605/178/3 615/171/3 614/8/3 604/7/3
f 604/7/3 614/8/3 613/8/3 603/7/3
f 603/7/3 613/8/3 612/8/3 602/7/3
f 414/6/7 596/6/7 602/7/7 417/7/7
f 596/6/7 595/179/7 603/7/7 602/7/7
f 595/179/7 594/6/7 604/7/7 603/7/7
f 594/6/7 593/6/7 605/178/7 604/7/7
f 593/6/7 592/6/7 606/7/7 605/178/7
f 699/167/1 693/167/1 695/168/1 700/168/1
f 642/9/3 643/9/3 595/179/3 596/6/3
f 643/9/3 644/9/3 594/6/3 595/179/3
f 644/9/3 645/9/3 593/6/3 594/6/3
f 645/9/3 646/9/3 592/6/3 593/6/3
f 498/4/7 662/4/7 597/3/7 415/3/7
f 662/4/7 663/4/7 598/3/7 597/3/7
f 663/4/7 664/4/7 599/3/7 598/3/7
f 664/4/7 665/165/7 600/170/7 599/3/7
f 665/165/7 666/4/7 601/3/7 600/170/7
f 695/168/3 689/168/3 690/5/3 696/5/3
f 693/167/3 694/167/3 689/168/3 695/168/3
f 692/167/3 697/167/3 698/168/3 691/168/3
f 691/168/3 698/168/3 687/5/3 688/5/3
f 708/167/1 692/167/1 691/168/1 707/168/1
f 702/180/6 722/180/6 717/181/6 701/181/6
f 697/167/3 715/167/3 714/168/3 698/168/3
f 700/168/1 695/168/1 696/5/1 703/5/1
f 704/167/2 694/167/2 693/167/2 699/167/2
f 707/168/1 691/168/1 688/5/1 706/5/1
f 690/5/7 712/5/7 722/5/7 702/5/7
f 710/167/2 697/167/2 692/167/2 708/167/2
f 429/60/2 704/60/2 699/60/2 636/60/2
f 646/9/1 700/9/1 703/6/1 592/6/1
f 443/9/4 701/9/4 704/60/4 429/60/4
f 636/60/1 699/60/1 700/9/1 646/9/1
f 412/6/4 702/6/4 701/9/4 443/9/4
f 592/6/7 703/6/7 702/6/7 412/6/7
f 632/60/2 710/60/2 708/60/2 432/60/2
f 642/9/4 709/9/4 710/60/4 632/60/4
f 447/9/1 707/9/1 706/6/1 414/6/1
f 596/6/4 705/6/4 709/9/4 642/9/4
f 432/60/1 708/60/1 707/9/1 447/9/1
f 414/6/7 706/6/7 705/6/7 596/6/7
f 722/5/4 712/5/4 711/168/4 717/168/4
f 718/5/4 716/5/4 714/168/4 719/168/4
f 717/168/4 711/168/4 713/167/4 720/167/4
f 719/168/4 714/168/4 715/167/4 721/167/4
f 705/180/6 718/180/6 719/181/6 709/181/6
f 689/168/3 711/168/3 712/5/3 690/5/3
f 701/181/6 717/181/6 720/182/6 704/182/6
f 704/167/2 720/167/2 713/167/2 694/167/2
f 698/168/3 714/168/3 716/5/3 687/5/3
f 709/181/6 719/181/6 721/182/6 710/182/6
f 687/5/7 716/5/7 718/5/7 705/5/7
f 710/167/2 721/167/2 715/167/2 697/167/2
f 726/113/1 728/53/1 776/184/1 773/183/1
f 725/80/1 726/113/1 773/183/1 778/185/1
f 553/80/3 725/80/3 351/81/3 68/81/3
f 486/125/6 724/125/6 727/134/6 511/134/6
f 514/53/3 728/53/3 726/113/3 490/113/3
f 490/113/3 726/113/3 725/80/3 553/80/3
f 404/186/1 777/187/1 723/124/1 350/140/1
f 777/188/1 774/189/1 724/125/1 723/124/1
f 774/190/1 775/191/1 727/134/1 724/125/1
f 770/192/7 771/193/7 621/22/7 620/22/7
f 768/194/7 770/193/7 620/22/7 619/21/7
f 766/194/7 768/194/7 619/21/7 618/173/7
f 764/193/7 766/194/7 618/173/7 617/21/7
f 734/193/7 764/194/7 617/21/7 420/21/7
f 760/195/7 761/196/7 565/133/7 564/152/7
f 746/82/7 760/197/7 564/152/7 456/69/7
f 753/198/4 752/199/4 496/103/4 528/102/4
f 570/73/7 571/62/7 762/200/7 759/72/7
f 750/201/4 753/198/4 528/102/4 474/135/4
f 752/199/4 757/202/4 545/101/4 496/103/4
f 757/202/4 379/203/4 84/100/4 545/101/4
f 741/204/4 738/205/4 440/131/4 454/132/4
f 747/201/7 750/206/7 474/135/7 471/135/7
f 732/11/4 462/12/4 469/70/4 745/207/4
f 418/20/4 422/21/4 736/193/4 731/83/4
f 755/208/1 740/205/1 431/131/1 511/134/1
f 761/196/7 741/209/7 454/132/7 565/133/7
f 740/210/1 743/211/1 445/132/1 431/131/1
f 738/201/7 747/206/7 471/135/7 440/135/7
f 743/211/1 730/212/1 416/20/1 445/132/1
f 771/192/7 736/193/7 422/21/7 621/22/7
f 730/212/1 734/193/1 420/21/1 416/20/1
f 404/186/1 405/176/1 778/177/1 777/187/1
f 774/190/1 773/183/1 776/184/1 775/191/1
f 777/188/1 778/185/1 773/183/1 774/189/1
f 770/192/7 769/14/7 772/175/7 771/193/7
f 768/194/7 767/174/7 769/175/7 770/193/7
f 766/194/7 765/174/7 767/174/7 768/194/7
f 764/193/7 763/14/7 765/156/7 766/194/7
f 734/193/7 733/14/7 763/14/7 764/194/7
f 760/195/7 759/72/7 762/200/7 761/196/7
f 746/82/7 745/71/7 759/72/7 760/197/7
f 752/199/4 751/137/4 758/85/4 757/202/4
f 756/106/7 755/138/7 775/139/7 776/106/7
f 750/201/4 749/94/4 754/98/4 753/198/4
f 753/213/4 754/216/4 751/215/4 752/214/4
f 757/202/4 758/85/4 378/86/4 379/203/4
f 738/201/7 737/94/7 748/95/7 747/206/7
f 747/201/7 748/94/7 749/95/7 750/206/7
f 732/11/4 731/83/4 736/193/4 735/14/4
f 745/207/4 746/82/4 731/83/4 732/11/4
f 740/210/1 739/75/1 744/76/1 743/211/1
f 761/196/7 762/63/7 742/16/7 741/209/7
f 755/208/1 756/54/1 739/17/1 740/205/1
f 741/204/4 742/16/4 737/17/4 738/205/4
f 730/212/1 729/26/1 733/14/1 734/193/1
f 771/192/7 772/14/7 735/14/7 736/193/7
f 743/211/1 744/76/1 729/26/1 730/212/1
f 468/77/1 461/25/1 729/26/1 744/76/1
