# Blender 3.6.0
# www.blender.org
mtllib 6.mtl
o Cube.021
v 0.142587 0.077258 -0.235838
v 0.142587 0.111469 -0.235838
v 0.142587 0.077258 -0.269339
v 0.142587 0.111469 -0.269339
v 0.134769 0.077258 -0.269339
v 0.126794 0.077258 -0.269339
v 0.126794 0.111469 -0.270049
v 0.134769 0.111469 -0.269339
v 0.142587 0.104627 -0.269339
v 0.142587 0.097785 -0.269339
v 0.142587 0.090943 -0.269339
v 0.142587 0.084100 -0.269339
v 0.142587 0.077258 -0.239374
v 0.142587 0.077258 -0.253415
v 0.142587 0.077258 -0.256451
v 0.142587 0.077258 -0.262895
v 0.142587 0.111469 -0.262895
v 0.142587 0.111469 -0.256451
v 0.142587 0.111469 -0.253415
v 0.142587 0.111469 -0.239374
v 0.142587 0.104627 -0.235838
v 0.142587 0.097785 -0.235838
v 0.142587 0.090943 -0.235838
v 0.142587 0.084100 -0.235838
v 0.126794 0.077258 -0.235838
v 0.134769 0.077258 -0.235838
v 0.134769 0.111469 -0.235838
v 0.126794 0.111469 -0.235838
v 0.134769 0.111469 -0.262895
v 0.134769 0.111469 -0.256451
v 0.134769 0.111469 -0.253415
v 0.126794 0.111469 -0.263207
v 0.126794 0.111469 -0.256365
v 0.126794 0.077258 -0.262895
v 0.126794 0.077258 -0.256451
v 0.126794 0.077258 -0.253415
v 0.126794 0.077258 -0.239374
v 0.134769 0.077258 -0.262895
v 0.134769 0.077258 -0.256451
v 0.134769 0.077258 -0.253415
v 0.130781 0.054562 -0.243068
v 0.134769 0.084100 -0.235838
v 0.126794 0.084100 -0.235838
v 0.134769 0.090943 -0.235838
v 0.126794 0.090943 -0.235838
v 0.134769 0.097785 -0.235838
v 0.126794 0.097785 -0.235838
v 0.134769 0.104627 -0.235838
v 0.126794 0.104627 -0.235838
v 0.142587 0.084100 -0.262895
v 0.142587 0.084100 -0.256451
v 0.142587 0.084100 -0.253415
v 0.142587 0.084100 -0.239374
v 0.142587 0.090943 -0.262895
v 0.142587 0.090943 -0.256451
v 0.142587 0.090943 -0.253415
v 0.142587 0.090943 -0.239374
v 0.142587 0.097785 -0.262895
v 0.142587 0.097785 -0.256451
v 0.142587 0.097785 -0.253415
v 0.142587 0.097785 -0.239374
v 0.142587 0.104627 -0.262895
v 0.142587 0.104627 -0.256451
v 0.142587 0.104627 -0.253415
v 0.142587 0.104627 -0.239374
v 0.134769 0.111469 -0.299817
v 0.142587 0.111469 -0.299817
v 0.142587 0.084100 -0.299817
v 0.142587 0.077258 -0.299817
v 0.134769 0.077258 -0.299817
v 0.126794 0.077258 -0.299817
v 0.126794 0.111469 -0.299817
v 0.142587 0.104627 -0.299817
v 0.142587 0.097785 -0.299817
v 0.142587 0.090943 -0.299817
v 0.134769 0.084100 -0.299817
v 0.126794 0.084100 -0.299817
v 0.134769 0.090943 -0.299817
v 0.126794 0.097785 -0.306503
v 0.134769 0.097785 -0.299817
v 0.124226 0.097785 -0.306503
v 0.134769 0.104627 -0.299817
v 0.126794 0.084100 -0.309297
v 0.142587 0.090943 -0.276003
v 0.142587 0.090943 -0.281956
v 0.142587 0.090943 -0.287910
v 0.142587 0.090943 -0.293864
v 0.142587 0.097785 -0.276003
v 0.142587 0.097785 -0.281956
v 0.142587 0.097785 -0.287910
v 0.142587 0.097785 -0.293864
v 0.126794 0.077258 -0.276003
v 0.126794 0.077258 -0.281956
v 0.126794 0.077258 -0.287910
v 0.126794 0.077258 -0.293864
v 0.142587 0.104627 -0.276003
v 0.142587 0.104627 -0.281956
v 0.142587 0.104627 -0.287910
v 0.142587 0.104627 -0.293864
v 0.142587 0.084100 -0.293864
v 0.142587 0.084100 -0.287910
v 0.142587 0.084100 -0.281956
v 0.142587 0.084100 -0.276003
v 0.142587 0.077258 -0.293864
v 0.142587 0.077258 -0.287910
v 0.142587 0.077258 -0.281956
v 0.142587 0.077258 -0.276003
v 0.134769 0.077258 -0.276003
v 0.134769 0.077258 -0.281956
v 0.134769 0.077258 -0.287910
v 0.130781 0.054562 -0.239374
v 0.126794 0.111469 -0.293864
v 0.126794 0.111469 -0.287910
v 0.126794 0.111469 -0.281956
v 0.126794 0.111469 -0.276003
v 0.134769 0.111469 -0.293864
v 0.134769 0.111469 -0.287910
v 0.134769 0.111469 -0.281956
v 0.134769 0.111469 -0.276003
v 0.142587 0.111469 -0.276003
v 0.142587 0.111469 -0.281956
v 0.142587 0.111469 -0.287910
v 0.142587 0.111469 -0.293864
v 0.124226 0.077258 -0.269339
v 0.124226 0.111469 -0.270049
v 0.124226 0.077258 -0.235838
v 0.124226 0.111469 -0.235838
v 0.124226 0.111469 -0.263207
v 0.124226 0.111469 -0.256365
v 0.124226 0.077258 -0.262895
v 0.124226 0.077258 -0.256451
v 0.124226 0.077258 -0.253415
v 0.124226 0.077258 -0.239374
v 0.124226 0.084100 -0.235838
v 0.124226 0.090943 -0.235838
v 0.124226 0.097785 -0.235838
v 0.124226 0.104627 -0.235838
v 0.124226 0.077258 -0.299817
v 0.124226 0.111469 -0.299817
v 0.124226 0.084100 -0.299817
v 0.126794 0.090943 -0.309297
v 0.126794 0.084100 -0.306503
v 0.124226 0.084100 -0.306503
v 0.124226 0.077258 -0.276003
v 0.124226 0.077258 -0.281956
v 0.124226 0.077258 -0.287910
v 0.124226 0.077258 -0.293864
v 0.124226 0.111469 -0.276003
v 0.124226 0.111469 -0.281956
v 0.124226 0.111469 -0.287910
v 0.124226 0.111469 -0.293864
v 0.142587 0.138733 -0.239374
v 0.142587 0.138733 -0.235838
v 0.142587 0.138733 -0.253415
v 0.134769 0.138733 -0.235838
v 0.126794 0.138733 -0.235838
v 0.134769 0.138733 -0.239374
v 0.134769 0.138733 -0.253415
v 0.126794 0.138733 -0.239374
v 0.124226 0.138733 -0.239374
v 0.124226 0.138733 -0.235838
v 0.124226 0.127497 -0.235838
v 0.126794 0.127497 -0.235838
v 0.134769 0.127497 -0.253415
v 0.134769 0.127497 -0.235838
v 0.142587 0.127497 -0.235838
v 0.142587 0.127497 -0.239374
v 0.142587 0.127497 -0.253415
v 0.124226 0.112837 -0.235838
v 0.126794 0.112837 -0.235838
v 0.134769 0.112837 -0.235838
v 0.142587 0.112837 -0.239374
v 0.134769 0.112837 -0.253415
v 0.142587 0.112837 -0.235838
v 0.142587 0.112837 -0.253415
v 0.126794 0.127497 -0.219686
v 0.124226 0.127497 -0.219686
v 0.134769 0.127497 -0.219686
v 0.124226 0.112837 -0.219686
v 0.126794 0.112837 -0.219686
v 0.134769 0.112837 -0.219686
v 0.134769 0.119483 -0.253415
v 0.142587 0.119483 -0.235838
v 0.142587 0.119483 -0.253415
v 0.134769 0.119483 -0.235838
v 0.142587 0.119483 -0.239374
v 0.124226 0.119483 -0.219686
v 0.126794 0.119483 -0.219686
v 0.134769 0.119483 -0.219686
v 0.126794 0.127497 -0.214783
v 0.124226 0.127497 -0.214783
v 0.134769 0.127497 -0.214783
v 0.124226 0.119483 -0.214783
v 0.126794 0.119483 -0.214783
v 0.134769 0.119483 -0.214783
v 0.142587 0.077258 -0.250456
v 0.142587 0.111469 -0.250456
v 0.126794 0.077258 -0.250456
v 0.134769 0.077258 -0.250456
v 0.142587 0.084100 -0.250456
v 0.142587 0.090943 -0.250456
v 0.142587 0.097785 -0.250456
v 0.142587 0.104627 -0.250456
v 0.124226 0.077258 -0.250456
v 0.142587 0.138733 -0.250456
v 0.134769 0.138733 -0.250456
v 0.126794 0.138733 -0.250456
v 0.124226 0.138733 -0.250456
v 0.142587 0.127497 -0.250456
v 0.142587 0.112837 -0.250456
v 0.142587 0.119483 -0.250456
v 0.134769 0.134630 -0.253415
v 0.142587 0.134630 -0.235838
v 0.142587 0.134630 -0.253415
v 0.124226 0.134630 -0.235838
v 0.126794 0.134630 -0.235838
v 0.134769 0.134630 -0.235838
v 0.142587 0.134630 -0.239374
v 0.142587 0.134630 -0.250456
v 0.126794 0.155720 -0.239374
v 0.126794 0.155720 -0.235838
v 0.124226 0.155720 -0.239374
v 0.124226 0.155720 -0.235838
v 0.139955 0.111469 -0.269339
v 0.139955 0.077258 -0.235838
v 0.139955 0.077258 -0.269339
v 0.139955 0.111469 -0.235838
v 0.139955 0.111469 -0.262895
v 0.139955 0.111469 -0.256451
v 0.139955 0.111469 -0.253415
v 0.139955 0.077258 -0.262895
v 0.139955 0.077258 -0.256451
v 0.139955 0.077258 -0.253415
v 0.130781 0.054562 -0.235838
v 0.139955 0.084100 -0.235838
v 0.139955 0.090943 -0.235838
v 0.139955 0.097785 -0.235838
v 0.139955 0.104627 -0.235838
v 0.139955 0.111469 -0.299817
v 0.139955 0.077258 -0.299817
v 0.139955 0.084100 -0.299817
v 0.139955 0.090943 -0.299817
v 0.139955 0.097785 -0.299817
v 0.139955 0.104627 -0.299817
v 0.139955 0.111469 -0.276003
v 0.139955 0.111469 -0.281956
v 0.139955 0.111469 -0.287910
v 0.139955 0.111469 -0.293864
v 0.139955 0.077258 -0.276003
v 0.139955 0.077258 -0.281956
v 0.139955 0.077258 -0.287910
v 0.142587 0.054562 -0.235838
v 0.139955 0.138733 -0.235838
v 0.139955 0.138733 -0.253415
v 0.139955 0.138733 -0.239374
v 0.139955 0.127497 -0.235838
v 0.139955 0.127497 -0.253415
v 0.139955 0.112837 -0.253415
v 0.139955 0.112837 -0.235838
v 0.139955 0.119483 -0.253415
v 0.139955 0.119483 -0.235838
v 0.139955 0.138733 -0.250456
v 0.139955 0.077258 -0.250456
v 0.139955 0.134630 -0.235838
v 0.139955 0.134630 -0.253415
v 0.142587 0.111469 -0.246762
v 0.142587 0.111469 -0.243068
v 0.126794 0.077258 -0.246762
v 0.126794 0.077258 -0.243068
v 0.134769 0.077258 -0.246762
v 0.134769 0.077258 -0.243068
v 0.142587 0.084100 -0.246762
v 0.142587 0.084100 -0.243068
v 0.142587 0.090943 -0.246762
v 0.142587 0.090943 -0.243068
v 0.142587 0.097785 -0.246762
v 0.142587 0.097785 -0.243068
v 0.142587 0.104627 -0.246762
v 0.142587 0.104627 -0.243068
v 0.124226 0.077258 -0.246762
v 0.124226 0.077258 -0.243068
v 0.142587 0.138733 -0.246762
v 0.142587 0.138733 -0.243068
v 0.134769 0.138733 -0.246762
v 0.134769 0.138733 -0.243068
v 0.126794 0.138733 -0.246762
v 0.126794 0.138733 -0.243068
v 0.124226 0.138733 -0.246762
v 0.124226 0.138733 -0.243068
v 0.142587 0.112837 -0.246762
v 0.142587 0.112837 -0.243068
v 0.142587 0.119483 -0.246762
v 0.142587 0.119483 -0.243068
v 0.142587 0.077258 -0.243068
v 0.142587 0.077258 -0.246762
v 0.142587 0.134630 -0.246762
v 0.142587 0.134630 -0.243068
v 0.139955 0.138733 -0.246762
v 0.139955 0.138733 -0.243068
v 0.139955 0.077258 -0.246762
v 0.139955 0.077258 -0.243068
v 0.142587 0.147494 -0.243068
v 0.142587 0.147494 -0.239374
v 0.134769 0.147494 -0.243068
v 0.134769 0.147494 -0.239374
v 0.139955 0.147494 -0.239374
v 0.139955 0.147494 -0.243068
v 0.130781 0.077258 -0.269339
v 0.130781 0.111469 -0.269339
v 0.130781 0.077258 -0.235838
v 0.130781 0.111469 -0.235838
v 0.130781 0.111469 -0.262895
v 0.130781 0.111469 -0.256451
v 0.130781 0.111469 -0.253415
v 0.130781 0.077258 -0.262895
v 0.130781 0.077258 -0.256451
v 0.130781 0.077258 -0.253415
v 0.130781 0.077258 -0.239374
v 0.130781 0.084100 -0.235838
v 0.130781 0.090943 -0.235838
v 0.130781 0.097785 -0.235838
v 0.130781 0.104627 -0.235838
v 0.130781 0.077258 -0.299817
v 0.130781 0.111469 -0.299817
v 0.130781 0.084100 -0.299817
v 0.130781 0.090943 -0.299817
v 0.130781 0.097785 -0.299817
v 0.130781 0.104627 -0.299817
v 0.130781 0.111469 -0.276003
v 0.130781 0.111469 -0.281956
v 0.130781 0.111469 -0.287910
v 0.130781 0.111469 -0.293864
v 0.130781 0.077258 -0.276003
v 0.130781 0.077258 -0.281956
v 0.130781 0.077258 -0.287910
v 0.130781 0.077258 -0.293864
v 0.130781 0.138733 -0.235838
v 0.130781 0.138733 -0.253415
v 0.130781 0.138733 -0.239374
v 0.130781 0.127497 -0.253415
v 0.130781 0.127497 -0.235838
v 0.130781 0.112837 -0.235838
v 0.130781 0.112837 -0.253415
v 0.130781 0.127497 -0.219686
v 0.130781 0.112837 -0.219686
v 0.130781 0.119483 -0.219686
v 0.130781 0.119483 -0.253415
v 0.130781 0.127497 -0.214783
v 0.130781 0.119483 -0.214783
v 0.130781 0.138733 -0.250456
v 0.130781 0.077258 -0.250456
v 0.130781 0.134630 -0.253415
v 0.130781 0.134630 -0.235838
v 0.130781 0.138733 -0.246762
v 0.130781 0.138733 -0.243068
v 0.130781 0.077258 -0.246762
v 0.130781 0.077258 -0.243068
v 0.139955 0.049357 -0.235838
v 0.142587 0.049357 -0.235838
v 0.142587 0.049357 -0.239374
v 0.130781 0.049357 -0.235838
v 0.134769 0.049357 -0.235838
v 0.134769 0.049357 -0.239374
v 0.134769 0.049357 -0.243068
v 0.139955 0.049357 -0.239374
v 0.134769 0.049357 -0.293864
v 0.134769 0.049357 -0.299817
v 0.139955 0.049357 -0.299817
v 0.142587 0.049357 -0.299817
v 0.142587 0.049357 -0.293864
v 0.142587 0.049357 -0.287910
v 0.134769 0.049357 -0.287910
v 0.139955 0.049357 -0.287910
v 0.139955 0.049357 -0.293864
v 0.130781 0.049357 -0.287910
v 0.130781 0.049357 -0.293864
v 0.139955 0.049357 -0.243068
v 0.142587 0.049357 -0.243068
v 0.130781 0.049357 -0.239374
v 0.130781 0.049357 -0.299817
v 0.130781 0.049357 -0.243068
v 0.139955 0.054562 -0.235838
v 0.134769 0.054562 -0.235838
v 0.142587 0.054562 -0.243068
v 0.142587 0.054562 -0.239374
v 0.139955 0.054562 -0.243068
v 0.134769 0.054562 -0.243068
v 0.130781 0.054562 -0.293864
v 0.142587 0.054562 -0.293864
v 0.139955 0.054562 -0.299817
v 0.142587 0.054562 -0.299817
v 0.130781 0.054562 -0.299817
v 0.134769 0.054562 -0.299817
v 0.139955 0.054562 -0.287910
v 0.142587 0.054562 -0.287910
v 0.130781 0.054562 -0.287910
v 0.134769 0.054562 -0.287910
v 0.130781 0.054562 -0.232545
v 0.130781 0.049357 -0.232545
v 0.134769 0.054562 -0.232545
v 0.134769 0.049357 -0.232545
v 0.139955 0.049357 -0.232545
v 0.142587 0.049357 -0.232545
v 0.139955 0.049357 -0.284616
v 0.142587 0.049357 -0.284616
v 0.130781 0.049357 -0.284616
v 0.134769 0.049357 -0.284616
v 0.139955 0.054562 -0.284616
v 0.134769 0.054562 -0.284616
v 0.142587 0.054562 -0.232545
v 0.139955 0.054562 -0.232545
v 0.142587 0.054562 -0.284616
v 0.130781 0.054562 -0.284616
v 0.124226 0.111469 -0.304870
v 0.126794 0.111469 -0.304870
v 0.124226 0.084100 -0.304870
v 0.126794 0.084100 -0.304870
v 0.126794 0.090943 -0.307664
v 0.126794 0.097785 -0.307664
v 0.126794 0.084100 -0.307664
v 0.124226 0.097785 -0.307664
v 0.124226 0.104627 -0.304870
v 0.126794 0.104627 -0.304870
v 0.130781 0.111469 -0.304870
v 0.130781 0.084100 -0.304870
v 0.130781 0.090943 -0.304870
v 0.130781 0.097785 -0.304870
v 0.130781 0.104627 -0.304870
v 0.124226 0.104627 -0.306503
v 0.126794 0.104627 -0.306503
v 0.130781 0.084100 -0.306503
v 0.130781 0.090943 -0.306503
v 0.130781 0.097785 -0.306503
v 0.130781 0.104627 -0.306503
v 0.124226 0.090943 -0.307664
v 0.124226 0.084100 -0.307664
v 0.130781 0.084100 -0.307664
v 0.130781 0.090943 -0.307664
v 0.130781 0.097785 -0.307664
v 0.124226 0.090943 -0.309297
v 0.124226 0.084100 -0.309297
v 0.130781 0.084100 -0.309297
v 0.130781 0.090943 -0.309297
v 0.126794 0.090943 -0.311166
v 0.126794 0.084100 -0.311166
v 0.124226 0.090943 -0.311166
v 0.124226 0.084100 -0.311166
v 0.130781 0.084100 -0.311166
v 0.130781 0.090943 -0.311166
v 0.126794 0.090943 -0.315242
v 0.126794 0.084100 -0.315242
v 0.124226 0.090943 -0.315242
v 0.124226 0.084100 -0.315242
v 0.130781 0.084100 -0.315242
v 0.130781 0.090943 -0.315242
v 0.124226 0.096833 -0.311166
v 0.126794 0.096833 -0.311166
v 0.124226 0.096833 -0.315242
v 0.130781 0.096833 -0.311166
v 0.126794 0.096833 -0.315242
v 0.130781 0.096833 -0.315242
v 0.124226 0.093888 -0.311166
v 0.126794 0.093888 -0.315242
v 0.130781 0.093888 -0.315242
v 0.130781 0.093888 -0.311166
v 0.126794 0.093888 -0.311166
v 0.124226 0.093888 -0.315242
v 0.126794 0.093888 -0.320233
v 0.126794 0.096833 -0.320233
v 0.124226 0.096833 -0.320233
v 0.130781 0.096833 -0.320233
v 0.124226 0.093888 -0.320233
v 0.130781 0.093888 -0.320233
v 0.124226 0.102094 -0.315242
v 0.126794 0.102094 -0.315242
v 0.130781 0.102094 -0.315242
v 0.130781 0.102094 -0.320233
v 0.124226 0.102094 -0.320233
v 0.126794 0.102094 -0.320233
v 0.142587 0.127497 -0.246762
v 0.142587 0.127497 -0.243068
v 0.134769 0.134630 -0.234176
v 0.134769 0.127497 -0.234176
v 0.137927 0.128977 -0.234176
v 0.137927 0.133150 -0.234176
v 0.132809 0.128977 -0.234176
v 0.132809 0.133150 -0.234176
v 0.139955 0.127497 -0.234176
v 0.134769 0.128977 -0.234176
v 0.139955 0.134630 -0.234176
v 0.134769 0.133150 -0.234176
v 0.130781 0.127497 -0.234176
v 0.130781 0.134630 -0.234176
v 0.124226 0.119483 -0.276003
v 0.126794 0.119483 -0.276003
v 0.126790 0.134630 -0.256451
v 0.124226 0.112837 -0.276003
v 0.126794 0.112837 -0.276003
v 0.126790 0.134630 -0.262895
v 0.126790 0.127497 -0.262895
v 0.130781 0.112837 -0.276003
v 0.130781 0.119483 -0.276003
v 0.126790 0.127497 -0.269339
v 0.130781 0.138733 -0.256451
v 0.126790 0.119483 -0.269339
v 0.124226 0.119483 -0.269339
v 0.130781 0.112837 -0.256451
v 0.130781 0.112837 -0.262895
v 0.130781 0.112837 -0.269339
v 0.130781 0.119483 -0.256451
v 0.130781 0.119483 -0.262895
v 0.130781 0.119483 -0.269339
v 0.130781 0.134630 -0.256451
v 0.130781 0.134630 -0.262895
v 0.130781 0.127497 -0.269339
v 0.130781 0.127497 -0.262895
v 0.130781 0.127497 -0.256451
v 0.126794 0.138733 -0.253415
v 0.124226 0.138733 -0.253415
v 0.124226 0.138733 -0.256451
v 0.126794 0.138733 -0.256451
v 0.124226 0.127497 -0.262895
v 0.124226 0.127497 -0.269339
v 0.124226 0.134630 -0.262895
v 0.124226 0.134630 -0.256451
v 0.126794 0.112835 -0.281956
v 0.130781 0.112835 -0.281956
v 0.124226 0.112835 -0.281956
v 0.105865 0.077258 -0.235838
v 0.105865 0.111469 -0.235838
v 0.105865 0.077258 -0.269339
v 0.105865 0.111469 -0.269339
v 0.113683 0.077258 -0.269339
v 0.121658 0.077258 -0.269339
v 0.121658 0.111469 -0.270049
v 0.113683 0.111469 -0.269339
v 0.105865 0.104627 -0.269339
v 0.105865 0.097785 -0.269339
v 0.105865 0.090943 -0.269339
v 0.105865 0.084100 -0.269339
v 0.105865 0.077258 -0.239374
v 0.105865 0.077258 -0.253415
v 0.105865 0.077258 -0.256451
v 0.105865 0.077258 -0.262895
v 0.105865 0.111469 -0.262895
v 0.105865 0.111469 -0.256451
v 0.105865 0.111469 -0.253415
v 0.105865 0.111469 -0.239374
v 0.105865 0.104627 -0.235838
v 0.105865 0.097785 -0.235838
v 0.105865 0.090943 -0.235838
v 0.105865 0.084100 -0.235838
v 0.121658 0.077258 -0.235838
v 0.113683 0.077258 -0.235838
v 0.113683 0.111469 -0.235838
v 0.121658 0.111469 -0.235838
v 0.113683 0.111469 -0.262895
v 0.113683 0.111469 -0.256451
v 0.113683 0.111469 -0.253415
v 0.121658 0.111469 -0.263207
v 0.121658 0.111469 -0.256365
v 0.121658 0.077258 -0.262895
v 0.121658 0.077258 -0.256451
v 0.121658 0.077258 -0.253415
v 0.121658 0.077258 -0.239374
v 0.113683 0.077258 -0.262895
v 0.113683 0.077258 -0.256451
v 0.113683 0.077258 -0.253415
v 0.117670 0.054562 -0.243068
v 0.113683 0.084100 -0.235838
v 0.121658 0.084100 -0.235838
v 0.113683 0.090943 -0.235838
v 0.121658 0.090943 -0.235838
v 0.113683 0.097785 -0.235838
v 0.121658 0.097785 -0.235838
v 0.113683 0.104627 -0.235838
v 0.121658 0.104627 -0.235838
v 0.105865 0.084100 -0.262895
v 0.105865 0.084100 -0.256451
v 0.105865 0.084100 -0.253415
v 0.105865 0.084100 -0.239374
v 0.105865 0.090943 -0.262895
v 0.105865 0.090943 -0.256451
v 0.105865 0.090943 -0.253415
v 0.105865 0.090943 -0.239374
v 0.105865 0.097785 -0.262895
v 0.105865 0.097785 -0.256451
v 0.105865 0.097785 -0.253415
v 0.105865 0.097785 -0.239374
v 0.105865 0.104627 -0.262895
v 0.105865 0.104627 -0.256451
v 0.105865 0.104627 -0.253415
v 0.105865 0.104627 -0.239374
v 0.113683 0.111469 -0.299817
v 0.105865 0.111469 -0.299817
v 0.105865 0.084100 -0.299817
v 0.105865 0.077258 -0.299817
v 0.113683 0.077258 -0.299817
v 0.121658 0.077258 -0.299817
v 0.121658 0.111469 -0.299817
v 0.105865 0.104627 -0.299817
v 0.105865 0.097785 -0.299817
v 0.105865 0.090943 -0.299817
v 0.113683 0.084100 -0.299817
v 0.121658 0.084100 -0.299817
v 0.113683 0.090943 -0.299817
v 0.121658 0.097785 -0.306503
v 0.113683 0.097785 -0.299817
v 0.113683 0.104627 -0.299817
v 0.121658 0.084100 -0.309297
v 0.105865 0.090943 -0.276003
v 0.105865 0.090943 -0.281956
v 0.105865 0.090943 -0.287910
v 0.105865 0.090943 -0.293864
v 0.105865 0.097785 -0.276003
v 0.105865 0.097785 -0.281956
v 0.105865 0.097785 -0.287910
v 0.105865 0.097785 -0.293864
v 0.121658 0.077258 -0.276003
v 0.121658 0.077258 -0.281956
v 0.121658 0.077258 -0.287910
v 0.121658 0.077258 -0.293864
v 0.105865 0.104627 -0.276003
v 0.105865 0.104627 -0.281956
v 0.105865 0.104627 -0.287910
v 0.105865 0.104627 -0.293864
v 0.105865 0.084100 -0.293864
v 0.105865 0.084100 -0.287910
v 0.105865 0.084100 -0.281956
v 0.105865 0.084100 -0.276003
v 0.105865 0.077258 -0.293864
v 0.105865 0.077258 -0.287910
v 0.105865 0.077258 -0.281956
v 0.105865 0.077258 -0.276003
v 0.113683 0.077258 -0.276003
v 0.113683 0.077258 -0.281956
v 0.113683 0.077258 -0.287910
v 0.117670 0.054562 -0.239374
v 0.121658 0.111469 -0.293864
v 0.121658 0.111469 -0.287910
v 0.121658 0.111469 -0.281956
v 0.121658 0.111469 -0.276003
v 0.113683 0.111469 -0.293864
v 0.113683 0.111469 -0.287910
v 0.113683 0.111469 -0.281956
v 0.113683 0.111469 -0.276003
v 0.105865 0.111469 -0.276003
v 0.105865 0.111469 -0.281956
v 0.105865 0.111469 -0.287910
v 0.105865 0.111469 -0.293864
v 0.121658 0.090943 -0.309297
v 0.121658 0.084100 -0.306503
v 0.105865 0.138733 -0.239374
v 0.105865 0.138733 -0.235838
v 0.105865 0.138733 -0.253415
v 0.113683 0.138733 -0.235838
v 0.121658 0.138733 -0.235838
v 0.113683 0.138733 -0.239374
v 0.113683 0.138733 -0.253415
v 0.121658 0.138733 -0.239374
v 0.121658 0.127497 -0.235838
v 0.113683 0.127497 -0.253415
v 0.113683 0.127497 -0.235838
v 0.105865 0.127497 -0.235838
v 0.105865 0.127497 -0.239374
v 0.105865 0.127497 -0.253415
v 0.121658 0.112837 -0.235838
v 0.113683 0.112837 -0.235838
v 0.105865 0.112837 -0.239374
v 0.113683 0.112837 -0.253415
v 0.105865 0.112837 -0.235838
v 0.105865 0.112837 -0.253415
v 0.121658 0.127497 -0.219686
v 0.113683 0.127497 -0.219686
v 0.121658 0.112837 -0.219686
v 0.113683 0.112837 -0.219686
v 0.113683 0.119483 -0.253415
v 0.105865 0.119483 -0.235838
v 0.105865 0.119483 -0.253415
v 0.113683 0.119483 -0.235838
v 0.105865 0.119483 -0.239374
v 0.121658 0.119483 -0.219686
v 0.113683 0.119483 -0.219686
v 0.121658 0.127497 -0.214783
v 0.113683 0.127497 -0.214783
v 0.121658 0.119483 -0.214783
v 0.113683 0.119483 -0.214783
v 0.105865 0.077258 -0.250456
v 0.105865 0.111469 -0.250456
v 0.121658 0.077258 -0.250456
v 0.113683 0.077258 -0.250456
v 0.105865 0.084100 -0.250456
v 0.105865 0.090943 -0.250456
v 0.105865 0.097785 -0.250456
v 0.105865 0.104627 -0.250456
v 0.105865 0.138733 -0.250456
v 0.113683 0.138733 -0.250456
v 0.121658 0.138733 -0.250456
v 0.105865 0.127497 -0.250456
v 0.105865 0.112837 -0.250456
v 0.105865 0.119483 -0.250456
v 0.113683 0.134630 -0.253415
v 0.105865 0.134630 -0.235838
v 0.105865 0.134630 -0.253415
v 0.121658 0.134630 -0.235838
v 0.113683 0.134630 -0.235838
v 0.105865 0.134630 -0.239374
v 0.105865 0.134630 -0.250456
v 0.121658 0.155720 -0.239374
v 0.121658 0.155720 -0.235838
v 0.108497 0.111469 -0.269339
v 0.108497 0.077258 -0.235838
v 0.108497 0.077258 -0.269339
v 0.108497 0.111469 -0.235838
v 0.108497 0.111469 -0.262895
v 0.108497 0.111469 -0.256451
v 0.108497 0.111469 -0.253415
v 0.108497 0.077258 -0.262895
v 0.108497 0.077258 -0.256451
v 0.108497 0.077258 -0.253415
v 0.117670 0.054562 -0.235838
v 0.108497 0.084100 -0.235838
v 0.108497 0.090943 -0.235838
v 0.108497 0.097785 -0.235838
v 0.108497 0.104627 -0.235838
v 0.108497 0.111469 -0.299817
v 0.108497 0.077258 -0.299817
v 0.108497 0.084100 -0.299817
v 0.108497 0.090943 -0.299817
v 0.108497 0.097785 -0.299817
v 0.108497 0.104627 -0.299817
v 0.108497 0.111469 -0.276003
v 0.108497 0.111469 -0.281956
v 0.108497 0.111469 -0.287910
v 0.108497 0.111469 -0.293864
v 0.108497 0.077258 -0.276003
v 0.108497 0.077258 -0.281956
v 0.108497 0.077258 -0.287910
v 0.105865 0.054562 -0.235838
v 0.108497 0.138733 -0.235838
v 0.108497 0.138733 -0.253415
v 0.108497 0.138733 -0.239374
v 0.108497 0.127497 -0.235838
v 0.108497 0.127497 -0.253415
v 0.108497 0.112837 -0.253415
v 0.108497 0.112837 -0.235838
v 0.108497 0.119483 -0.253415
v 0.108497 0.119483 -0.235838
v 0.108497 0.138733 -0.250456
v 0.108497 0.077258 -0.250456
v 0.108497 0.134630 -0.235838
v 0.108497 0.134630 -0.253415
v 0.105865 0.111469 -0.246762
v 0.105865 0.111469 -0.243068
v 0.121658 0.077258 -0.246762
v 0.121658 0.077258 -0.243068
v 0.113683 0.077258 -0.246762
v 0.113683 0.077258 -0.243068
v 0.105865 0.084100 -0.246762
v 0.105865 0.084100 -0.243068
v 0.105865 0.090943 -0.246762
v 0.105865 0.090943 -0.243068
v 0.105865 0.097785 -0.246762
v 0.105865 0.097785 -0.243068
v 0.105865 0.104627 -0.246762
v 0.105865 0.104627 -0.243068
v 0.105865 0.138733 -0.246762
v 0.105865 0.138733 -0.243068
v 0.113683 0.138733 -0.246762
v 0.113683 0.138733 -0.243068
v 0.121658 0.138733 -0.246762
v 0.121658 0.138733 -0.243068
v 0.105865 0.112837 -0.246762
v 0.105865 0.112837 -0.243068
v 0.105865 0.119483 -0.246762
v 0.105865 0.119483 -0.243068
v 0.105865 0.077258 -0.243068
v 0.105865 0.077258 -0.246762
v 0.105865 0.134630 -0.246762
v 0.105865 0.134630 -0.243068
v 0.108497 0.138733 -0.246762
v 0.108497 0.138733 -0.243068
v 0.108497 0.077258 -0.246762
v 0.108497 0.077258 -0.243068
v 0.105865 0.147494 -0.243068
v 0.105865 0.147494 -0.239374
v 0.113683 0.147494 -0.243068
v 0.113683 0.147494 -0.239374
v 0.108497 0.147494 -0.239374
v 0.108497 0.147494 -0.243068
v 0.117670 0.077258 -0.269339
v 0.117670 0.111469 -0.269339
v 0.117670 0.077258 -0.235838
v 0.117670 0.111469 -0.235838
v 0.117670 0.111469 -0.262895
v 0.117670 0.111469 -0.256451
v 0.117670 0.111469 -0.253415
v 0.117670 0.077258 -0.262895
v 0.117670 0.077258 -0.256451
v 0.117670 0.077258 -0.253415
v 0.117670 0.077258 -0.239374
v 0.117670 0.084100 -0.235838
v 0.117670 0.090943 -0.235838
v 0.117670 0.097785 -0.235838
v 0.117670 0.104627 -0.235838
v 0.117670 0.077258 -0.299817
v 0.117670 0.111469 -0.299817
v 0.117670 0.084100 -0.299817
v 0.117670 0.090943 -0.299817
v 0.117670 0.097785 -0.299817
v 0.117670 0.104627 -0.299817
v 0.117670 0.111469 -0.276003
v 0.117670 0.111469 -0.281956
v 0.117670 0.111469 -0.287910
v 0.117670 0.111469 -0.293864
v 0.117670 0.077258 -0.276003
v 0.117670 0.077258 -0.281956
v 0.117670 0.077258 -0.287910
v 0.117670 0.077258 -0.293864
v 0.117670 0.138733 -0.235838
v 0.117670 0.138733 -0.253415
v 0.117670 0.138733 -0.239374
v 0.117670 0.127497 -0.253415
v 0.117670 0.127497 -0.235838
v 0.117670 0.112837 -0.235838
v 0.117670 0.112837 -0.253415
v 0.117670 0.127497 -0.219686
v 0.117670 0.112837 -0.219686
v 0.117670 0.119483 -0.219686
v 0.117670 0.119483 -0.253415
v 0.117670 0.127497 -0.214783
v 0.117670 0.119483 -0.214783
v 0.117670 0.138733 -0.250456
v 0.117670 0.077258 -0.250456
v 0.117670 0.134630 -0.253415
v 0.117670 0.134630 -0.235838
v 0.117670 0.138733 -0.246762
v 0.117670 0.138733 -0.243068
v 0.117670 0.077258 -0.246762
v 0.117670 0.077258 -0.243068
v 0.108497 0.049357 -0.235838
v 0.105865 0.049357 -0.235838
v 0.105865 0.049357 -0.239374
v 0.117670 0.049357 -0.235838
v 0.113683 0.049357 -0.235838
v 0.113683 0.049357 -0.239374
v 0.113683 0.049357 -0.243068
v 0.108497 0.049357 -0.239374
v 0.113683 0.049357 -0.293864
v 0.113683 0.049357 -0.299817
v 0.108497 0.049357 -0.299817
v 0.105865 0.049357 -0.299817
v 0.105865 0.049357 -0.293864
v 0.105865 0.049357 -0.287910
v 0.113683 0.049357 -0.287910
v 0.108497 0.049357 -0.287910
v 0.108497 0.049357 -0.293864
v 0.117670 0.049357 -0.287910
v 0.117670 0.049357 -0.293864
v 0.108497 0.049357 -0.243068
v 0.105865 0.049357 -0.243068
v 0.117670 0.049357 -0.239374
v 0.117670 0.049357 -0.299817
v 0.117670 0.049357 -0.243068
v 0.108497 0.054562 -0.235838
v 0.113683 0.054562 -0.235838
v 0.105865 0.054562 -0.243068
v 0.105865 0.054562 -0.239374
v 0.108497 0.054562 -0.243068
v 0.113683 0.054562 -0.243068
v 0.117670 0.054562 -0.293864
v 0.105865 0.054562 -0.293864
v 0.108497 0.054562 -0.299817
v 0.105865 0.054562 -0.299817
v 0.117670 0.054562 -0.299817
v 0.113683 0.054562 -0.299817
v 0.108497 0.054562 -0.287910
v 0.105865 0.054562 -0.287910
v 0.117670 0.054562 -0.287910
v 0.113683 0.054562 -0.287910
v 0.117670 0.054562 -0.232545
v 0.117670 0.049357 -0.232545
v 0.113683 0.054562 -0.232545
v 0.113683 0.049357 -0.232545
v 0.108497 0.049357 -0.232545
v 0.105865 0.049357 -0.232545
v 0.108497 0.049357 -0.284616
v 0.105865 0.049357 -0.284616
v 0.117670 0.049357 -0.284616
v 0.113683 0.049357 -0.284616
v 0.108497 0.054562 -0.284616
v 0.113683 0.054562 -0.284616
v 0.105865 0.054562 -0.232545
v 0.108497 0.054562 -0.232545
v 0.105865 0.054562 -0.284616
v 0.117670 0.054562 -0.284616
v 0.121658 0.111469 -0.304870
v 0.121658 0.084100 -0.304870
v 0.121658 0.090943 -0.307664
v 0.121658 0.097785 -0.307664
v 0.121658 0.084100 -0.307664
v 0.121658 0.104627 -0.304870
v 0.117670 0.111469 -0.304870
v 0.117670 0.084100 -0.304870
v 0.117670 0.090943 -0.304870
v 0.117670 0.097785 -0.304870
v 0.117670 0.104627 -0.304870
v 0.121658 0.104627 -0.306503
v 0.117670 0.084100 -0.306503
v 0.117670 0.090943 -0.306503
v 0.117670 0.097785 -0.306503
v 0.117670 0.104627 -0.306503
v 0.117670 0.084100 -0.307664
v 0.117670 0.090943 -0.307664
v 0.117670 0.097785 -0.307664
v 0.117670 0.084100 -0.309297
v 0.117670 0.090943 -0.309297
v 0.121658 0.090943 -0.311166
v 0.121658 0.084100 -0.311166
v 0.117670 0.084100 -0.311166
v 0.117670 0.090943 -0.311166
v 0.121658 0.090943 -0.315242
v 0.121658 0.084100 -0.315242
v 0.117670 0.084100 -0.315242
v 0.117670 0.090943 -0.315242
v 0.121658 0.096833 -0.311166
v 0.117670 0.096833 -0.311166
v 0.121658 0.096833 -0.315242
v 0.117670 0.096833 -0.315242
v 0.121658 0.093888 -0.315242
v 0.117670 0.093888 -0.315242
v 0.117670 0.093888 -0.311166
v 0.121658 0.093888 -0.311166
v 0.121658 0.093888 -0.320233
v 0.121658 0.096833 -0.320233
v 0.117670 0.096833 -0.320233
v 0.117670 0.093888 -0.320233
v 0.121658 0.102094 -0.315242
v 0.117670 0.102094 -0.315242
v 0.117670 0.102094 -0.320233
v 0.121658 0.102094 -0.320233
v 0.105865 0.127497 -0.246762
v 0.105865 0.127497 -0.243068
v 0.113683 0.134630 -0.234176
v 0.113683 0.127497 -0.234176
v 0.110525 0.128977 -0.234176
v 0.110525 0.133150 -0.234176
v 0.115643 0.128977 -0.234176
v 0.115643 0.133150 -0.234176
v 0.108497 0.127497 -0.234176
v 0.113683 0.128977 -0.234176
v 0.108497 0.134630 -0.234176
v 0.113683 0.133150 -0.234176
v 0.117670 0.127497 -0.234176
v 0.117670 0.134630 -0.234176
v 0.121658 0.119483 -0.276003
v 0.121661 0.134630 -0.256451
v 0.121658 0.112837 -0.276003
v 0.121661 0.134630 -0.262895
v 0.121661 0.127497 -0.262895
v 0.117670 0.112837 -0.276003
v 0.117670 0.119483 -0.276003
v 0.121661 0.127497 -0.269339
v 0.117670 0.138733 -0.256451
v 0.121661 0.119483 -0.269339
v 0.117670 0.112837 -0.256451
v 0.117670 0.112837 -0.262895
v 0.117670 0.112837 -0.269339
v 0.117670 0.119483 -0.256451
v 0.117670 0.119483 -0.262895
v 0.117670 0.119483 -0.269339
v 0.117670 0.134630 -0.256451
v 0.117670 0.134630 -0.262895
v 0.117670 0.127497 -0.269339
v 0.117670 0.127497 -0.262895
v 0.117670 0.127497 -0.256451
v 0.121658 0.138733 -0.253415
v 0.121658 0.138733 -0.256451
v 0.121658 0.112835 -0.281956
v 0.117670 0.112835 -0.281956
vn 1.0000 -0.0000 -0.0000
vn -1.0000 -0.0000 -0.0000
vn -0.0000 -0.0000 1.0000
vn -0.0000 1.0000 -0.0000
vn -0.0000 -1.0000 -0.0000
vn -0.0000 -0.0000 -1.0000
vn -0.0000 0.0001 1.0000
vn -0.0000 1.0000 -0.0004
vt 0.705320 0.287902
vt 0.705320 0.294818
vt 0.694419 0.303647
vt 0.692868 0.318226
vt 0.695810 0.318226
vt 0.695810 0.322373
vt 0.692868 0.322373
vt 0.703378 0.294818
vt 0.695810 0.294818
vt 0.692868 0.294818
vt 0.689927 0.294818
vt 0.703378 0.318225
vt 0.695810 0.318225
vt 0.703378 0.322373
vt 0.688032 0.260241
vt 0.689927 0.260241
vt 0.706870 0.303647
vt 0.688032 0.260241
vt 0.689927 0.260241
vt 0.692868 0.260241
vt 0.695810 0.260241
vt 0.695810 0.260241
vt 0.692868 0.260241
vt 0.706870 0.303647
vt 0.704928 0.303647
vt 0.703378 0.260241
vt 0.705320 0.260241
vt 0.705320 0.260241
vt 0.703378 0.260241
vt 0.703378 0.267156
vt 0.695810 0.267156
vt 0.692868 0.267156
vt 0.689927 0.267156
vt 0.703378 0.274072
vt 0.695810 0.274072
vt 0.692868 0.274072
vt 0.689927 0.274072
vt 0.703378 0.280987
vt 0.695810 0.280987
vt 0.692868 0.280987
vt 0.689927 0.280987
vt 0.703378 0.287902
vt 0.695810 0.287902
vt 0.692868 0.287902
vt 0.689927 0.287902
vt 0.705320 0.267156
vt 0.705320 0.274072
vt 0.705320 0.280987
vt 0.705320 0.267156
vt 0.705320 0.274072
vt 0.688032 0.294818
vt 0.703378 0.267156
vt 0.703378 0.274072
vt 0.688032 0.267156
vt 0.689927 0.267156
vt 0.692868 0.267156
vt 0.695810 0.267156
vt 0.692868 0.274072
vt 0.695810 0.274072
vt 0.697361 0.303647
vt 0.694419 0.303647
vt 0.689927 0.294818
vt 0.688032 0.287902
vt 0.688032 0.280987
vt 0.688032 0.274072
vt 0.688032 0.267156
vt 0.703378 0.318226
vt 0.705320 0.318226
vt 0.705320 0.322373
vt 0.705320 0.318225
vt 0.689927 0.322373
vt 0.705320 0.322373
vt 0.703378 0.322373
vt 0.692868 0.322373
vt 0.689927 0.322373
vt 0.688032 0.322373
vt 0.688032 0.322373
vt 0.689927 0.339541
vt 0.688032 0.339541
vt 0.688032 0.318226
vt 0.689927 0.318226
vt 0.705320 0.306522
vt 0.705320 0.314078
vt 0.692868 0.298966
vt 0.695810 0.298966
vt 0.703378 0.306522
vt 0.703378 0.314078
vt 0.695810 0.306522
vt 0.695810 0.314078
vt 0.692868 0.314078
vt 0.689927 0.314078
vt 0.703378 0.298966
vt 0.705320 0.298966
vt 0.689927 0.298966
vt 0.688032 0.298966
vt 0.692868 0.306522
vt 0.688032 0.314078
vt 0.689927 0.306522
vt 0.688032 0.306522
vt 0.695810 0.322373
vt 0.704928 0.303647
vt 0.697361 0.303647
vt 0.692868 0.318225
vt 0.688032 0.274072
vt 0.689927 0.274072
vt 0.694364 0.913315
vt 0.695810 0.913315
vt 0.695810 0.915741
vt 0.694364 0.915741
vt 0.700419 0.913315
vt 0.700419 0.915741
vt 0.700419 0.314939
vt 0.695810 0.314939
vt 0.695810 0.317365
vt 0.700419 0.317365
vt 0.694364 0.314939
vt 0.694364 0.317365
vt 0.689927 0.322373
s 0
usemtl Palitrs
f 65/1/1 20/2/1 2/2/1 21/1/1
f 396/3/2 388/3/2 376/3/2 375/3/2
f 353/4/3 217/5/3 155/6/3 337/7/3
f 224/8/4 8/9/4 29/9/4 228/8/4
f 228/8/4 29/9/4 30/9/4 229/8/4
f 229/8/4 30/9/4 31/9/4 230/8/4
f 309/10/5 7/11/5 115/11/5 329/10/5
f 309/10/4 7/11/4 32/11/4 312/10/4
f 312/10/4 32/11/4 33/11/4 313/10/4
f 265/12/6 212/13/6 158/6/6 254/14/6
f 133/15/5 37/16/5 25/16/5 126/15/5
f 389/17/1 395/17/1 371/17/1 370/17/1
f 124/18/5 6/19/5 34/16/5 130/15/5
f 130/15/5 34/16/5 35/16/5 131/15/5
f 131/15/5 35/16/5 36/16/5 132/15/5
f 281/15/5 269/16/5 37/16/5 133/15/5
f 308/20/5 5/21/5 38/22/5 315/23/5
f 315/23/5 38/22/5 39/22/5 316/23/5
f 316/23/5 39/22/5 40/22/5 317/23/5
f 252/24/4 382/25/4 411/25/4 410/24/4
f 226/26/5 3/27/5 16/28/5 231/29/5
f 231/29/5 16/28/5 15/28/5 232/29/5
f 232/29/5 15/28/5 14/28/5 233/29/5
f 388/3/2 392/3/2 380/3/2 376/3/2
f 225/29/3 235/30/3 42/31/3 26/22/3
f 310/23/3 319/32/3 43/33/3 25/16/3
f 235/30/3 236/34/3 44/35/3 42/31/3
f 319/32/3 320/36/3 45/37/3 43/33/3
f 236/34/3 237/38/3 46/39/3 44/35/3
f 320/36/3 321/40/3 47/41/3 45/37/3
f 237/38/3 238/42/3 48/43/3 46/39/3
f 321/40/3 322/44/3 49/45/3 47/41/3
f 238/42/3 227/8/3 27/9/3 48/43/3
f 322/44/3 311/10/3 28/11/3 49/45/3
f 13/28/1 53/46/1 24/46/1 1/28/1
f 53/46/1 57/47/1 23/47/1 24/46/1
f 57/47/1 61/48/1 22/48/1 23/47/1
f 61/48/1 65/1/1 21/1/1 22/48/1
f 3/27/1 12/49/1 50/46/1 16/28/1
f 16/28/1 50/46/1 51/46/1 15/28/1
f 15/28/1 51/46/1 52/46/1 14/28/1
f 294/28/1 273/46/1 53/46/1 13/28/1
f 12/49/1 11/50/1 54/47/1 50/46/1
f 50/46/1 54/47/1 55/47/1 51/46/1
f 51/46/1 55/47/1 56/47/1 52/46/1
f 273/46/1 275/47/1 57/47/1 53/46/1
f 11/50/1 10/48/1 58/48/1 54/47/1
f 54/47/1 58/48/1 59/48/1 55/47/1
f 55/47/1 59/48/1 60/48/1 56/47/1
f 275/47/1 277/48/1 61/48/1 57/47/1
f 10/48/1 9/1/1 62/1/1 58/48/1
f 58/48/1 62/1/1 63/1/1 59/48/1
f 59/48/1 63/1/1 64/1/1 60/48/1
f 277/48/1 279/1/1 65/1/1 61/48/1
f 9/1/1 4/2/1 17/2/1 62/1/1
f 62/1/1 17/2/1 18/2/1 63/1/1
f 63/1/1 18/2/1 19/2/1 64/1/1
f 279/1/1 267/2/1 20/2/1 65/1/1
f 151/51/4 112/11/4 72/11/4 139/51/4
f 87/50/1 100/49/1 68/49/1 75/50/1
f 91/48/1 87/50/1 75/50/1 74/48/1
f 99/1/1 91/48/1 74/48/1 73/1/1
f 336/20/5 95/19/5 71/19/5 323/20/5
f 123/2/1 99/1/1 73/1/1 67/2/1
f 100/49/1 104/27/1 69/27/1 68/49/1
f 391/17/1 389/17/1 370/17/1 369/17/1
f 332/10/4 116/9/4 66/9/4 324/10/4
f 248/8/4 123/2/4 67/2/4 239/8/4
f 244/42/6 239/8/6 67/2/6 73/1/6
f 240/26/6 241/52/6 68/49/6 69/27/6
f 241/52/6 242/53/6 75/50/6 68/49/6
f 242/53/6 243/38/6 74/48/6 75/50/6
f 243/38/6 244/42/6 73/1/6 74/48/6
f 138/18/6 140/54/6 77/55/6 71/19/6
f 323/20/6 325/56/6 76/57/6 70/21/6
f 327/40/1 326/58/1 426/58/1 427/40/1
f 325/56/6 326/58/6 78/59/6 76/57/6
f 77/55/5 140/54/5 416/54/5 417/55/5
f 326/58/6 327/40/6 80/39/6 78/59/6
f 139/51/4 72/11/4 415/11/4 414/51/4
f 327/40/6 328/44/6 82/43/6 80/39/6
f 328/44/1 327/40/1 427/40/1 428/44/1
f 328/44/6 324/10/6 66/9/6 82/43/6
f 224/8/4 4/2/4 120/2/4 245/8/4
f 245/8/4 120/2/4 121/2/4 246/8/4
f 246/8/4 121/2/4 122/2/4 247/8/4
f 247/8/4 122/2/4 123/2/4 248/8/4
f 309/10/4 8/9/4 119/9/4 329/10/4
f 329/10/4 119/9/4 118/9/4 330/10/4
f 330/10/4 118/9/4 117/9/4 331/10/4
f 331/10/4 117/9/4 116/9/4 332/10/4
f 226/26/5 5/21/5 108/21/5 249/26/5
f 249/26/5 108/21/5 109/21/5 250/26/5
f 250/26/5 109/21/5 110/21/5 251/26/5
f 383/60/4 234/61/4 398/61/4 400/60/4
f 12/49/1 3/27/1 107/27/1 103/49/1
f 103/49/1 107/27/1 106/27/1 102/49/1
f 102/49/1 106/27/1 105/27/1 101/49/1
f 101/49/1 105/27/1 104/27/1 100/49/1
f 4/2/1 9/1/1 96/1/1 120/2/1
f 120/2/1 96/1/1 97/1/1 121/2/1
f 121/2/1 97/1/1 98/1/1 122/2/1
f 122/2/1 98/1/1 99/1/1 123/2/1
f 308/20/5 6/19/5 92/19/5 333/20/5
f 333/20/5 92/19/5 93/19/5 334/20/5
f 334/20/5 93/19/5 94/19/5 335/20/5
f 335/20/5 94/19/5 95/19/5 336/20/5
f 9/1/1 10/48/1 88/48/1 96/1/1
f 96/1/1 88/48/1 89/48/1 97/1/1
f 97/1/1 89/48/1 90/48/1 98/1/1
f 98/1/1 90/48/1 91/48/1 99/1/1
f 10/48/1 11/50/1 84/50/1 88/48/1
f 88/48/1 84/50/1 85/50/1 89/48/1
f 89/48/1 85/50/1 86/50/1 90/48/1
f 90/48/1 86/50/1 87/50/1 91/48/1
f 11/50/1 12/49/1 103/49/1 84/50/1
f 84/50/1 103/49/1 102/49/1 85/50/1
f 85/50/1 102/49/1 101/49/1 86/50/1
f 86/50/1 101/49/1 100/49/1 87/50/1
f 125/51/4 7/11/4 115/62/4 148/51/4
f 329/10/1 330/10/1 527/10/1 501/10/1
f 149/51/4 114/11/4 113/11/4 150/51/4
f 150/51/4 113/11/4 112/11/4 151/51/4
f 94/19/5 146/18/5 147/18/5 95/19/5
f 93/19/5 145/18/5 146/18/5 94/19/5
f 92/19/5 144/18/5 145/18/5 93/19/5
f 95/19/5 147/18/5 138/18/5 71/19/5
f 47/41/3 49/45/3 137/63/3 136/64/3
f 45/37/3 47/41/3 136/64/3 135/65/3
f 43/33/3 45/37/3 135/65/3 134/66/3
f 264/67/3 213/68/3 153/69/3 253/14/3
f 32/11/4 128/51/4 129/51/4 33/11/4
f 219/70/1 214/70/1 154/69/1 205/69/1
f 49/45/3 28/11/3 127/51/3 137/63/3
f 25/16/3 43/33/3 134/66/3 126/15/3
f 7/11/4 125/51/4 128/51/4 32/11/4
f 6/19/5 124/18/5 144/18/5 92/19/5
f 339/7/4 159/71/4 156/71/4 337/7/4
f 283/72/6 299/73/6 307/73/6 302/72/6
f 355/74/4 287/75/4 159/71/4 339/7/4
f 287/75/4 289/76/4 160/77/4 159/71/4
f 215/80/3 216/81/3 156/71/3 161/77/3
f 213/68/1 218/68/1 152/69/1 153/69/1
f 183/82/1 186/82/1 167/83/1 166/83/1
f 342/84/5 171/85/5 181/85/5 345/84/5
f 211/82/1 184/82/1 168/83/1 209/83/1
f 261/86/3 183/82/3 166/83/3 256/87/3
f 260/86/6 182/88/6 164/89/6 257/87/6
f 341/90/4 163/91/4 176/91/4 344/90/4
f 311/10/3 27/9/3 171/85/3 342/84/3
f 509/84/1 309/10/1 329/10/1 501/84/1
f 230/8/6 31/9/6 173/85/6 258/92/6
f 227/8/3 2/2/3 174/93/3 259/92/3
f 197/2/1 19/2/1 175/93/1 210/93/1
f 127/51/3 28/11/3 170/94/3 169/95/3
f 2/2/1 20/2/1 172/93/1 174/93/1
f 344/90/4 176/91/4 190/91/4 348/90/4
f 346/96/5 189/88/5 195/88/5 349/96/5
f 169/95/5 170/94/5 180/94/5 179/95/5
f 163/91/4 162/97/4 177/97/4 176/91/4
f 185/88/1 165/89/1 178/89/1 189/88/1
f 171/85/1 185/88/1 189/88/1 181/85/1
f 345/84/3 181/85/3 189/88/3 346/96/3
f 179/95/3 180/94/3 188/98/3 187/99/3
f 258/92/6 173/85/6 182/88/6 260/86/6
f 259/92/3 174/93/3 183/82/3 261/86/3
f 210/93/1 175/93/1 184/82/1 211/82/1
f 174/93/1 172/93/1 186/82/1 183/82/1
f 193/99/3 194/98/3 190/91/3 191/97/3
f 349/96/3 195/88/3 192/89/3 348/90/3
f 189/88/1 178/89/1 192/89/1 195/88/1
f 187/99/5 188/98/5 194/98/5 193/99/5
f 176/91/4 177/97/4 191/97/4 190/91/4
f 290/93/1 210/93/1 211/82/1 292/82/1
f 266/2/1 197/2/1 210/93/1 290/93/1
f 254/14/4 158/6/4 206/6/4 262/14/4
f 296/70/1 219/70/1 205/69/1 282/72/1
f 64/1/1 19/2/1 197/2/1 203/1/1
f 60/48/1 64/1/1 203/1/1 202/48/1
f 56/47/1 60/48/1 202/48/1 201/47/1
f 52/46/1 56/47/1 201/47/1 200/46/1
f 14/28/1 52/46/1 200/46/1 196/28/1
f 233/29/5 14/28/5 196/28/5 263/29/5
f 317/23/5 40/22/5 199/22/5 351/23/5
f 132/15/5 36/16/5 198/16/5 204/15/5
f 166/83/1 167/83/1 218/68/1 213/68/1
f 162/97/3 163/91/3 216/81/3 215/80/3
f 209/83/1 168/83/1 214/70/1 219/70/1
f 256/87/3 166/83/3 213/68/3 264/67/3
f 257/87/6 164/89/6 212/13/6 265/12/6
f 512/96/1 509/84/1 501/84/1 502/96/1
f 168/83/6 257/87/6 265/12/6 214/70/6
f 40/22/5 233/29/5 263/29/5 199/22/5
f 154/69/4 254/14/4 262/14/4 205/69/4
f 171/85/3 259/92/3 261/86/3 185/88/3
f 175/93/6 258/92/6 260/86/6 184/82/6
f 27/9/3 227/8/3 259/92/3 171/85/3
f 19/2/6 230/8/6 258/92/6 175/93/6
f 184/82/6 260/86/6 257/87/6 168/83/6
f 185/88/3 261/86/3 256/87/3 165/89/3
f 299/73/6 285/100/6 304/100/6 307/73/6
f 152/69/4 255/14/4 253/14/4 153/69/4
f 217/5/3 264/67/3 253/14/3 155/6/3
f 375/20/5 372/21/5 407/21/5 406/20/5
f 106/27/5 250/26/5 251/26/5 105/27/5
f 107/27/5 249/26/5 250/26/5 106/27/5
f 3/27/5 226/26/5 249/26/5 107/27/5
f 117/9/4 247/8/4 248/8/4 116/9/4
f 118/9/4 246/8/4 247/8/4 117/9/4
f 119/9/4 245/8/4 246/8/4 118/9/4
f 8/9/4 224/8/4 245/8/4 119/9/4
f 80/39/6 82/43/6 244/42/6 243/38/6
f 78/59/6 80/39/6 243/38/6 242/53/6
f 76/57/6 78/59/6 242/53/6 241/52/6
f 70/21/6 76/57/6 241/52/6 240/26/6
f 82/43/6 66/9/6 239/8/6 244/42/6
f 116/9/4 248/8/4 239/8/4 66/9/4
f 111/61/2 41/61/2 381/61/2 379/61/2
f 21/1/3 2/2/3 227/8/3 238/42/3
f 22/48/3 21/1/3 238/42/3 237/38/3
f 23/47/3 22/48/3 237/38/3 236/34/3
f 24/46/3 23/47/3 236/34/3 235/30/3
f 1/28/3 24/46/3 235/30/3 225/29/3
f 390/101/6 391/17/6 369/17/6 368/101/6
f 39/22/5 232/29/5 233/29/5 40/22/5
f 38/22/5 231/29/5 232/29/5 39/22/5
f 5/21/5 226/26/5 231/29/5 38/22/5
f 214/70/6 265/12/6 254/14/6 154/69/6
f 18/2/4 229/8/4 230/8/4 19/2/4
f 17/2/4 228/8/4 229/8/4 18/2/4
f 4/2/4 224/8/4 228/8/4 17/2/4
f 392/3/6 393/102/6 367/102/6 380/3/6
f 253/14/4 255/14/4 157/6/4 155/6/4
f 199/22/5 263/29/5 300/29/5 270/22/5
f 270/22/5 300/29/5 301/29/5 271/22/5
f 205/69/4 262/14/4 298/73/4 282/72/4
f 282/72/4 298/73/4 299/73/4 283/72/4
f 218/68/1 297/68/1 283/72/1 152/69/1
f 297/68/1 296/70/1 282/72/1 283/72/1
f 20/2/1 267/2/1 291/93/1 172/93/1
f 267/2/1 266/2/1 290/93/1 291/93/1
f 172/93/1 291/93/1 293/82/1 186/82/1
f 291/93/1 290/93/1 292/82/1 293/82/1
f 207/71/4 208/77/4 288/76/4 286/75/4
f 286/75/4 288/76/4 289/76/4 287/75/4
f 350/7/4 207/71/4 286/75/4 354/74/4
f 354/74/4 286/75/4 287/75/4 355/74/4
f 262/14/4 206/6/4 284/100/4 298/73/4
f 298/73/4 284/100/4 285/100/4 299/73/4
f 203/1/1 197/2/1 266/2/1 278/1/1
f 278/1/1 266/2/1 267/2/1 279/1/1
f 202/48/1 203/1/1 278/1/1 276/48/1
f 276/48/1 278/1/1 279/1/1 277/48/1
f 201/47/1 202/48/1 276/48/1 274/47/1
f 274/47/1 276/48/1 277/48/1 275/47/1
f 200/46/1 201/47/1 274/47/1 272/46/1
f 272/46/1 274/47/1 275/47/1 273/46/1
f 196/28/1 200/46/1 272/46/1 295/28/1
f 295/28/1 272/46/1 273/46/1 294/28/1
f 263/29/5 196/28/5 295/28/5 300/29/5
f 300/29/5 295/28/5 294/28/5 301/29/5
f 351/23/5 199/22/5 270/22/5 356/23/5
f 356/23/5 270/22/5 271/22/5 357/23/5
f 204/15/5 198/16/5 268/16/5 280/15/5
f 280/15/5 268/16/5 269/16/5 281/15/5
f 307/73/4 304/100/4 305/6/4 306/14/4
f 302/72/4 307/73/4 306/14/4 303/69/4
f 255/14/3 152/69/3 303/69/3 306/14/3
f 285/100/2 157/6/2 305/6/2 304/100/2
f 152/69/1 283/72/1 302/72/1 303/69/1
f 157/6/3 255/14/3 306/14/3 305/6/3
f 268/16/5 356/23/5 357/23/5 269/16/5
f 198/16/5 351/23/5 356/23/5 268/16/5
f 284/100/4 354/74/4 355/74/4 285/100/4
f 206/6/4 350/7/4 354/74/4 284/100/4
f 163/91/3 341/90/3 353/4/3 216/81/3
f 164/89/6 340/90/6 352/103/6 212/13/6
f 36/16/5 317/23/5 351/23/5 198/16/5
f 158/6/4 338/7/4 350/7/4 206/6/4
f 194/98/3 349/96/3 348/90/3 190/91/3
f 173/85/6 343/84/6 347/96/6 182/88/6
f 180/94/3 345/84/3 346/96/3 188/98/3
f 188/98/5 346/96/5 349/96/5 194/98/5
f 178/89/4 344/90/4 348/90/4 192/89/4
f 31/9/6 314/10/6 343/84/6 173/85/6
f 28/11/3 311/10/3 342/84/3 170/94/3
f 165/89/4 341/90/4 344/90/4 178/89/4
f 182/88/6 347/96/6 340/90/6 164/89/6
f 170/94/5 342/84/5 345/84/5 180/94/5
f 285/100/4 355/74/4 339/7/4 157/6/4
f 157/6/4 339/7/4 337/7/4 155/6/4
f 394/101/4 397/102/4 409/102/4 408/101/4
f 109/21/5 334/20/5 335/20/5 110/21/5
f 108/21/5 333/20/5 334/20/5 109/21/5
f 5/21/5 308/20/5 333/20/5 108/21/5
f 113/11/4 331/10/4 332/10/4 112/11/4
f 114/11/4 330/10/4 331/10/4 113/11/4
f 115/11/7 329/10/7 501/10/7 498/11/7
f 325/56/5 77/55/5 417/55/5 425/56/5
f 324/10/1 328/44/1 428/44/1 424/10/1
f 326/58/1 325/56/1 425/56/1 426/58/1
f 72/11/4 324/10/4 424/10/4 415/11/4
f 71/19/6 77/55/6 325/56/6 323/20/6
f 112/11/4 332/10/4 324/10/4 72/11/4
f 384/24/1 385/24/1 360/24/1 378/24/1
f 48/43/3 27/9/3 311/10/3 322/44/3
f 46/39/3 48/43/3 322/44/3 321/40/3
f 44/35/3 46/39/3 321/40/3 320/36/3
f 42/31/3 44/35/3 320/36/3 319/32/3
f 26/22/3 42/31/3 319/32/3 310/23/3
f 269/16/5 357/23/5 318/23/5 37/16/5
f 35/16/5 316/23/5 317/23/5 36/16/5
f 34/16/5 315/23/5 316/23/5 35/16/5
f 6/19/5 308/20/5 315/23/5 34/16/5
f 37/16/5 318/23/5 310/23/5 25/16/5
f 30/9/4 313/10/4 314/10/4 31/9/4
f 29/9/4 312/10/4 313/10/4 30/9/4
f 8/9/4 309/10/4 312/10/4 29/9/4
f 212/13/6 352/103/6 338/7/6 158/6/6
f 216/81/3 353/4/3 337/7/3 156/71/3
f 365/29/5 360/28/5 359/28/5 358/29/5
f 379/23/5 363/22/5 362/22/5 361/23/5
f 381/23/5 364/22/5 363/22/5 379/23/5
f 377/29/5 378/28/5 360/28/5 365/29/5
f 374/26/5 366/21/5 367/21/5 368/26/5
f 373/26/5 372/21/5 366/21/5 374/26/5
f 371/27/5 373/26/5 374/26/5 370/27/5
f 370/27/5 374/26/5 368/26/5 369/27/5
f 364/22/5 377/29/5 365/29/5 363/22/5
f 363/22/5 365/29/5 358/29/5 362/22/5
f 372/21/5 375/20/5 376/20/5 366/21/5
f 366/21/5 376/20/5 380/20/5 367/21/5
f 382/25/4 383/60/4 400/60/4 411/25/4
f 385/24/1 252/24/1 359/24/1 360/24/1
f 393/102/6 390/101/6 368/101/6 367/102/6
f 387/60/6 386/25/6 377/25/6 364/60/6
f 41/61/6 387/60/6 364/60/6 381/61/6
f 234/61/2 111/61/2 379/61/2 361/61/2
f 386/25/6 384/24/6 378/24/6 377/25/6
f 373/26/5 371/27/5 405/27/5 404/26/5
f 301/29/6 294/28/6 384/28/6 386/29/6
f 310/23/2 318/23/2 111/23/2 234/23/2
f 357/23/6 271/22/6 387/22/6 41/23/6
f 271/22/6 301/29/6 386/29/6 387/22/6
f 13/28/1 1/28/1 252/28/1 385/28/1
f 294/28/1 13/28/1 385/28/1 384/28/1
f 225/29/3 26/22/3 383/22/3 382/29/3
f 318/23/2 357/23/2 41/23/2 111/23/2
f 26/22/3 310/23/3 234/23/3 383/22/3
f 1/28/3 225/29/3 382/29/3 252/28/3
f 110/21/3 335/20/3 396/20/3 397/21/3
f 70/21/6 240/26/6 390/26/6 393/21/6
f 251/26/3 110/21/3 397/21/3 394/26/3
f 323/20/6 70/21/6 393/21/6 392/20/6
f 240/26/6 69/27/6 391/27/6 390/26/6
f 69/27/1 104/27/1 389/27/1 391/27/1
f 336/20/2 323/20/2 392/20/2 388/20/2
f 105/27/3 251/26/3 394/26/3 395/27/3
f 104/27/1 105/27/1 395/27/1 389/27/1
f 335/20/2 336/20/2 388/20/2 396/20/2
f 412/17/3 408/101/3 404/101/3 405/17/3
f 410/24/3 411/25/3 402/25/3 403/24/3
f 400/60/3 398/61/3 399/61/3 401/60/3
f 411/25/3 400/60/3 401/60/3 402/25/3
f 408/101/3 409/102/3 407/102/3 404/101/3
f 409/102/3 413/3/3 406/3/3 407/102/3
f 358/29/5 359/28/5 403/28/5 402/29/5
f 362/22/5 358/29/5 402/29/5 401/22/5
f 371/17/1 395/17/1 412/17/1 405/17/1
f 396/3/2 375/3/2 406/3/2 413/3/2
f 234/61/2 361/61/2 399/61/2 398/61/2
f 361/23/5 362/22/5 401/22/5 399/23/5
f 395/17/4 394/101/4 408/101/4 412/17/4
f 359/24/1 252/24/1 410/24/1 403/24/1
f 372/21/5 373/26/5 404/26/5 407/21/5
f 397/102/4 396/3/4 413/3/4 409/102/4
f 426/58/1 425/56/1 431/56/1 432/58/1
f 425/56/5 417/55/5 142/55/5 431/56/5
f 423/45/4 428/44/4 434/44/4 430/45/4
f 422/63/6 414/51/6 415/11/6 423/45/6
f 423/45/6 415/11/6 424/10/6 428/44/6
f 427/40/1 426/58/1 432/58/1 433/40/1
f 428/44/1 427/40/1 433/40/1 434/44/1
f 417/55/5 416/54/5 143/54/5 142/55/5
f 79/41/4 433/40/4 439/40/4 419/41/4
f 432/58/1 431/56/1 437/56/1 438/58/1
f 81/64/6 429/63/6 430/45/6 79/41/6
f 79/41/6 430/45/6 434/44/6 433/40/6
f 433/40/1 432/58/1 438/58/1 439/40/1
f 142/55/5 143/54/5 436/54/5 420/55/5
f 422/63/4 423/45/4 430/45/4 429/63/4
f 438/58/1 437/56/1 442/56/1 443/58/1
f 435/104/6 421/64/6 419/41/6 418/105/6
f 418/105/6 419/41/6 439/40/6 438/58/6
f 435/104/4 418/105/4 141/105/4 440/104/4
f 81/64/4 79/41/4 419/41/4 421/64/4
f 431/56/5 142/55/5 420/55/5 437/56/5
f 141/105/4 443/58/4 449/58/4 444/105/4
f 83/55/5 441/54/5 447/54/5 445/55/5
f 437/56/5 420/55/5 83/55/5 442/56/5
f 420/55/5 436/54/5 441/54/5 83/55/5
f 418/105/4 438/58/4 443/58/4 141/105/4
f 466/105/3 465/58/3 459/58/3 457/105/3
f 445/55/5 447/54/5 453/54/5 451/55/5
f 440/104/4 141/105/4 444/105/4 446/104/4
f 443/58/1 442/56/1 448/56/1 449/58/1
f 442/56/5 83/55/5 445/55/5 448/56/5
f 453/54/6 452/104/6 450/105/6 451/55/6
f 451/55/6 450/105/6 455/58/6 454/56/6
f 463/105/5 467/104/5 472/104/5 468/105/5
f 449/58/1 448/56/1 454/56/1 455/58/1
f 448/56/5 445/55/5 451/55/5 454/56/5
f 457/105/4 459/58/4 461/58/4 460/105/4
f 456/104/4 457/105/4 460/105/4 458/104/4
f 462/104/3 466/105/3 457/105/3 456/104/3
f 464/58/5 463/105/5 468/105/5 473/58/5
f 465/58/1 464/58/1 461/58/1 459/58/1
f 449/58/1 455/58/1 464/58/1 465/58/1
f 450/105/6 452/104/6 467/104/6 463/105/6
f 446/104/3 444/105/3 466/105/3 462/104/3
f 455/58/6 450/105/6 463/105/6 464/58/6
f 444/105/3 449/58/3 465/58/3 466/105/3
f 473/58/6 468/105/6 469/105/6 471/58/6
f 468/105/6 472/104/6 470/104/6 469/105/6
f 469/105/6 470/104/6 478/104/6 479/105/6
f 458/104/3 460/105/3 475/105/3 474/104/3
f 461/58/1 464/58/1 473/58/1 471/58/1
f 474/104/4 475/105/4 479/105/4 478/104/4
f 475/105/4 476/58/4 477/58/4 479/105/4
f 461/58/1 471/58/1 477/58/1 476/58/1
f 460/105/3 461/58/3 476/58/3 475/105/3
f 471/58/6 469/105/6 479/105/6 477/58/6
f 167/83/1 186/82/1 293/82/1 481/83/1
f 481/83/1 480/83/1 296/70/1 297/68/1
f 209/83/1 219/70/1 296/70/1 480/83/1
f 293/82/1 292/82/1 480/83/1 481/83/1
f 211/82/1 209/83/1 480/83/1 292/82/1
f 218/68/1 167/83/1 481/83/1 297/68/1
f 486/106/3 489/107/3 491/108/3 487/109/3
f 489/107/3 484/110/3 485/111/3 491/108/3
f 513/103/6 496/103/6 521/118/6 504/7/6
f 514/103/6 516/90/6 500/90/6 499/103/6
f 515/90/6 512/96/6 505/96/6 503/90/6
f 498/94/6 497/95/6 494/99/6 495/98/6
f 501/84/6 498/94/6 495/98/6 502/96/6
f 512/96/4 502/96/4 495/96/4 505/96/4
f 516/90/4 515/90/4 503/90/4 500/90/4
f 340/90/1 347/96/1 510/96/1 517/90/1
f 517/90/1 510/96/1 511/96/1 516/90/1
f 516/90/1 511/96/1 512/96/1 515/90/1
f 347/96/1 343/84/1 507/84/1 510/96/1
f 510/96/1 507/84/1 508/84/1 511/96/1
f 511/96/1 508/84/1 509/84/1 512/96/1
f 338/7/1 352/103/1 513/103/1 504/7/1
f 513/103/4 514/103/4 499/103/4 496/103/4
f 499/103/6 500/90/6 522/90/6 524/103/6
f 352/103/1 340/90/1 517/90/1 513/103/1
f 513/103/1 517/90/1 516/90/1 514/103/1
f 503/90/6 505/96/6 506/96/6 523/90/6
f 343/84/1 314/10/1 313/10/1 507/84/1
f 338/7/4 518/71/4 207/71/4 350/7/4
f 518/71/4 519/77/4 208/77/4 207/71/4
f 504/7/4 521/118/4 518/71/4 338/7/4
f 521/118/4 520/77/4 519/77/4 518/71/4
f 505/96/4 495/96/4 494/96/4 506/96/4
f 500/90/4 503/90/4 523/90/4 522/90/4
f 496/103/6 525/103/6 520/77/6 521/118/6
f 496/103/4 499/103/4 524/103/4 525/103/4
f 507/84/1 313/10/1 312/10/1 508/84/1
f 508/84/1 312/10/1 309/10/1 509/84/1
f 497/51/8 498/11/8 526/11/8 528/51/8
f 498/11/8 501/10/8 527/10/8 526/11/8
f 148/51/7 115/62/7 498/62/7 497/51/7
f 330/10/6 114/11/6 526/11/6 527/10/6
f 114/11/6 149/51/6 528/51/6 526/11/6
f 593/1/2 549/1/2 530/2/2 548/2/2
f 879/3/1 858/3/1 859/3/1 871/3/1
f 836/4/3 820/7/3 656/6/3 706/5/3
f 711/8/4 715/8/4 557/9/4 536/9/4
f 715/8/4 716/8/4 558/9/4 557/9/4
f 716/8/4 717/8/4 559/9/4 558/9/4
f 792/10/5 812/10/5 642/11/5 535/11/5
f 792/10/4 795/10/4 560/11/4 535/11/4
f 795/10/4 796/10/4 561/11/4 560/11/4
f 752/12/6 741/14/6 659/6/6 702/13/6
f 133/15/5 126/15/5 553/16/5 565/16/5
f 872/17/2 853/17/2 854/17/2 878/17/2
f 124/18/5 130/15/5 562/16/5 534/19/5
f 130/15/5 131/15/5 563/16/5 562/16/5
f 131/15/5 132/15/5 564/16/5 563/16/5
f 281/15/5 133/15/5 565/16/5 756/16/5
f 791/20/5 798/23/5 566/22/5 533/21/5
f 798/23/5 799/23/5 567/22/5 566/22/5
f 799/23/5 800/23/5 568/22/5 567/22/5
f 739/24/4 893/24/4 894/25/4 865/25/4
f 713/26/5 718/29/5 544/28/5 531/27/5
f 718/29/5 719/29/5 543/28/5 544/28/5
f 719/29/5 720/29/5 542/28/5 543/28/5
f 871/3/1 859/3/1 863/3/1 875/3/1
f 712/29/3 554/22/3 570/31/3 722/30/3
f 793/23/3 553/16/3 571/33/3 802/32/3
f 722/30/3 570/31/3 572/35/3 723/34/3
f 802/32/3 571/33/3 573/37/3 803/36/3
f 723/34/3 572/35/3 574/39/3 724/38/3
f 803/36/3 573/37/3 575/41/3 804/40/3
f 724/38/3 574/39/3 576/43/3 725/42/3
f 804/40/3 575/41/3 577/45/3 805/44/3
f 725/42/3 576/43/3 555/9/3 714/8/3
f 805/44/3 577/45/3 556/11/3 794/10/3
f 541/28/2 529/28/2 552/46/2 581/46/2
f 581/46/2 552/46/2 551/47/2 585/47/2
f 585/47/2 551/47/2 550/48/2 589/48/2
f 589/48/2 550/48/2 549/1/2 593/1/2
f 531/27/2 544/28/2 578/46/2 540/49/2
f 544/28/2 543/28/2 579/46/2 578/46/2
f 543/28/2 542/28/2 580/46/2 579/46/2
f 777/28/2 541/28/2 581/46/2 760/46/2
f 540/49/2 578/46/2 582/47/2 539/50/2
f 578/46/2 579/46/2 583/47/2 582/47/2
f 579/46/2 580/46/2 584/47/2 583/47/2
f 760/46/2 581/46/2 585/47/2 762/47/2
f 539/50/2 582/47/2 586/48/2 538/48/2
f 582/47/2 583/47/2 587/48/2 586/48/2
f 583/47/2 584/47/2 588/48/2 587/48/2
f 762/47/2 585/47/2 589/48/2 764/48/2
f 538/48/2 586/48/2 590/1/2 537/1/2
f 586/48/2 587/48/2 591/1/2 590/1/2
f 587/48/2 588/48/2 592/1/2 591/1/2
f 764/48/2 589/48/2 593/1/2 766/1/2
f 537/1/2 590/1/2 545/2/2 532/2/2
f 590/1/2 591/1/2 546/2/2 545/2/2
f 591/1/2 592/1/2 547/2/2 546/2/2
f 766/1/2 593/1/2 548/2/2 754/2/2
f 151/51/4 139/51/4 600/11/4 639/11/4
f 614/50/2 603/50/2 596/49/2 627/49/2
f 618/48/2 602/48/2 603/50/2 614/50/2
f 626/1/2 601/1/2 602/48/2 618/48/2
f 819/20/5 806/20/5 599/19/5 622/19/5
f 650/2/2 595/2/2 601/1/2 626/1/2
f 627/49/2 596/49/2 597/27/2 631/27/2
f 874/17/2 852/17/2 853/17/2 872/17/2
f 815/10/4 807/10/4 594/9/4 643/9/4
f 735/8/4 726/8/4 595/2/4 650/2/4
f 731/42/6 601/1/6 595/2/6 726/8/6
f 727/26/6 597/27/6 596/49/6 728/52/6
f 728/52/6 596/49/6 603/50/6 729/53/6
f 729/53/6 603/50/6 602/48/6 730/38/6
f 730/38/6 602/48/6 601/1/6 731/42/6
f 138/18/6 599/19/6 605/55/6 140/54/6
f 806/20/6 598/21/6 604/57/6 808/56/6
f 810/40/2 906/40/2 905/58/2 809/58/2
f 808/56/6 604/57/6 606/59/6 809/58/6
f 605/55/5 898/55/5 416/54/5 140/54/5
f 809/58/6 606/59/6 608/39/6 810/40/6
f 139/51/4 414/51/4 897/11/4 600/11/4
f 810/40/6 608/39/6 609/43/6 811/44/6
f 811/44/2 907/44/2 906/40/2 810/40/2
f 811/44/6 609/43/6 594/9/6 807/10/6
f 711/8/4 732/8/4 647/2/4 532/2/4
f 732/8/4 733/8/4 648/2/4 647/2/4
f 733/8/4 734/8/4 649/2/4 648/2/4
f 734/8/4 735/8/4 650/2/4 649/2/4
f 792/10/4 812/10/4 646/9/4 536/9/4
f 812/10/4 813/10/4 645/9/4 646/9/4
f 813/10/4 814/10/4 644/9/4 645/9/4
f 814/10/4 815/10/4 643/9/4 644/9/4
f 713/26/5 736/26/5 635/21/5 533/21/5
f 736/26/5 737/26/5 636/21/5 635/21/5
f 737/26/5 738/26/5 637/21/5 636/21/5
f 866/60/4 883/60/4 881/61/4 721/61/4
f 540/49/2 630/49/2 634/27/2 531/27/2
f 630/49/2 629/49/2 633/27/2 634/27/2
f 629/49/2 628/49/2 632/27/2 633/27/2
f 628/49/2 627/49/2 631/27/2 632/27/2
f 532/2/2 647/2/2 623/1/2 537/1/2
f 647/2/2 648/2/2 624/1/2 623/1/2
f 648/2/2 649/2/2 625/1/2 624/1/2
f 649/2/2 650/2/2 626/1/2 625/1/2
f 791/20/5 816/20/5 619/19/5 534/19/5
f 816/20/5 817/20/5 620/19/5 619/19/5
f 817/20/5 818/20/5 621/19/5 620/19/5
f 818/20/5 819/20/5 622/19/5 621/19/5
f 537/1/2 623/1/2 615/48/2 538/48/2
f 623/1/2 624/1/2 616/48/2 615/48/2
f 624/1/2 625/1/2 617/48/2 616/48/2
f 625/1/2 626/1/2 618/48/2 617/48/2
f 538/48/2 615/48/2 611/50/2 539/50/2
f 615/48/2 616/48/2 612/50/2 611/50/2
f 616/48/2 617/48/2 613/50/2 612/50/2
f 617/48/2 618/48/2 614/50/2 613/50/2
f 539/50/2 611/50/2 630/49/2 540/49/2
f 611/50/2 612/50/2 629/49/2 630/49/2
f 612/50/2 613/50/2 628/49/2 629/49/2
f 613/50/2 614/50/2 627/49/2 628/49/2
f 125/51/4 148/51/4 642/62/4 535/11/4
f 812/10/2 961/10/2 980/10/2 813/10/2
f 149/51/4 150/51/4 640/11/4 641/11/4
f 150/51/4 151/51/4 639/11/4 640/11/4
f 621/19/5 622/19/5 147/18/5 146/18/5
f 620/19/5 621/19/5 146/18/5 145/18/5
f 619/19/5 620/19/5 145/18/5 144/18/5
f 622/19/5 599/19/5 138/18/5 147/18/5
f 575/41/3 136/64/3 137/63/3 577/45/3
f 573/37/3 135/65/3 136/64/3 575/41/3
f 571/33/3 134/66/3 135/65/3 573/37/3
f 751/67/3 740/14/3 654/69/3 703/68/3
f 560/11/4 561/11/4 129/51/4 128/51/4
f 708/70/2 696/69/2 655/69/2 704/70/2
f 577/45/3 137/63/3 127/51/3 556/11/3
f 553/16/3 126/15/3 134/66/3 571/33/3
f 535/11/4 560/11/4 128/51/4 125/51/4
f 534/19/5 619/19/5 144/18/5 124/18/5
f 822/7/4 820/7/4 657/71/4 660/71/4
f 768/72/6 785/72/6 790/73/6 782/73/6
f 838/74/4 822/7/4 660/71/4 772/75/4
f 772/75/4 660/71/4 160/77/4 289/76/4
f 215/80/3 161/77/3 657/71/3 705/81/3
f 703/68/2 654/69/2 653/69/2 707/68/2
f 678/82/2 664/83/2 665/83/2 681/82/2
f 825/84/5 828/84/5 676/85/5 668/85/5
f 701/82/2 699/83/2 666/83/2 679/82/2
f 748/86/3 743/87/3 664/83/3 678/82/3
f 747/86/6 744/87/6 662/89/6 677/88/6
f 824/90/4 827/90/4 673/91/4 661/91/4
f 794/10/3 825/84/3 668/85/3 555/9/3
f 968/84/2 961/84/2 812/10/2 792/10/2
f 717/8/6 745/92/6 670/85/6 559/9/6
f 714/8/3 746/92/3 671/93/3 530/2/3
f 689/2/2 700/93/2 672/93/2 547/2/2
f 127/51/3 169/95/3 667/94/3 556/11/3
f 530/2/2 671/93/2 669/93/2 548/2/2
f 827/90/4 831/90/4 684/91/4 673/91/4
f 829/96/5 832/96/5 687/88/5 683/88/5
f 169/95/5 179/95/5 675/94/5 667/94/5
f 661/91/4 673/91/4 177/97/4 162/97/4
f 680/88/2 683/88/2 674/89/2 663/89/2
f 668/85/2 676/85/2 683/88/2 680/88/2
f 828/84/3 829/96/3 683/88/3 676/85/3
f 179/95/3 187/99/3 682/98/3 675/94/3
f 745/92/6 747/86/6 677/88/6 670/85/6
f 746/92/3 748/86/3 678/82/3 671/93/3
f 700/93/2 701/82/2 679/82/2 672/93/2
f 671/93/2 678/82/2 681/82/2 669/93/2
f 193/99/3 191/97/3 684/91/3 686/98/3
f 832/96/3 831/90/3 685/89/3 687/88/3
f 683/88/2 687/88/2 685/89/2 674/89/2
f 187/99/5 193/99/5 686/98/5 682/98/5
f 673/91/4 684/91/4 191/97/4 177/97/4
f 773/93/2 775/82/2 701/82/2 700/93/2
f 753/2/2 773/93/2 700/93/2 689/2/2
f 741/14/4 749/14/4 697/6/4 659/6/4
f 779/70/2 767/72/2 696/69/2 708/70/2
f 592/1/2 695/1/2 689/2/2 547/2/2
f 588/48/2 694/48/2 695/1/2 592/1/2
f 584/47/2 693/47/2 694/48/2 588/48/2
f 580/46/2 692/46/2 693/47/2 584/47/2
f 542/28/2 688/28/2 692/46/2 580/46/2
f 720/29/5 750/29/5 688/28/5 542/28/5
f 800/23/5 834/23/5 691/22/5 568/22/5
f 132/15/5 204/15/5 690/16/5 564/16/5
f 664/83/2 703/68/2 707/68/2 665/83/2
f 162/97/3 215/80/3 705/81/3 661/91/3
f 699/83/2 708/70/2 704/70/2 666/83/2
f 743/87/3 751/67/3 703/68/3 664/83/3
f 744/87/6 752/12/6 702/13/6 662/89/6
f 971/96/2 962/96/2 961/84/2 968/84/2
f 666/83/6 704/70/6 752/12/6 744/87/6
f 568/22/5 691/22/5 750/29/5 720/29/5
f 655/69/4 696/69/4 749/14/4 741/14/4
f 668/85/3 680/88/3 748/86/3 746/92/3
f 672/93/6 679/82/6 747/86/6 745/92/6
f 555/9/3 668/85/3 746/92/3 714/8/3
f 547/2/6 672/93/6 745/92/6 717/8/6
f 679/82/6 666/83/6 744/87/6 747/86/6
f 680/88/3 663/89/3 743/87/3 748/86/3
f 782/73/6 790/73/6 787/100/6 770/100/6
f 653/69/4 654/69/4 740/14/4 742/14/4
f 706/5/3 656/6/3 740/14/3 751/67/3
f 858/20/5 889/20/5 890/21/5 855/21/5
f 633/27/5 632/27/5 738/26/5 737/26/5
f 634/27/5 633/27/5 737/26/5 736/26/5
f 531/27/5 634/27/5 736/26/5 713/26/5
f 644/9/4 643/9/4 735/8/4 734/8/4
f 645/9/4 644/9/4 734/8/4 733/8/4
f 646/9/4 645/9/4 733/8/4 732/8/4
f 536/9/4 646/9/4 732/8/4 711/8/4
f 608/39/6 730/38/6 731/42/6 609/43/6
f 606/59/6 729/53/6 730/38/6 608/39/6
f 604/57/6 728/52/6 729/53/6 606/59/6
f 598/21/6 727/26/6 728/52/6 604/57/6
f 609/43/6 731/42/6 726/8/6 594/9/6
f 643/9/4 594/9/4 726/8/4 735/8/4
f 638/61/1 862/61/1 864/61/1 569/61/1
f 549/1/3 725/42/3 714/8/3 530/2/3
f 550/48/3 724/38/3 725/42/3 549/1/3
f 551/47/3 723/34/3 724/38/3 550/48/3
f 552/46/3 722/30/3 723/34/3 551/47/3
f 529/28/3 712/29/3 722/30/3 552/46/3
f 873/101/6 851/101/6 852/17/6 874/17/6
f 567/22/5 568/22/5 720/29/5 719/29/5
f 566/22/5 567/22/5 719/29/5 718/29/5
f 533/21/5 566/22/5 718/29/5 713/26/5
f 704/70/6 655/69/6 741/14/6 752/12/6
f 546/2/4 547/2/4 717/8/4 716/8/4
f 545/2/4 546/2/4 716/8/4 715/8/4
f 532/2/4 545/2/4 715/8/4 711/8/4
f 875/3/6 863/3/6 850/102/6 876/102/6
f 740/14/4 656/6/4 658/6/4 742/14/4
f 691/22/5 757/22/5 783/29/5 750/29/5
f 757/22/5 758/22/5 784/29/5 783/29/5
f 696/69/4 767/72/4 781/73/4 749/14/4
f 767/72/4 768/72/4 782/73/4 781/73/4
f 707/68/2 653/69/2 768/72/2 780/68/2
f 780/68/2 768/72/2 767/72/2 779/70/2
f 548/2/2 669/93/2 774/93/2 754/2/2
f 754/2/2 774/93/2 773/93/2 753/2/2
f 669/93/2 681/82/2 776/82/2 774/93/2
f 774/93/2 776/82/2 775/82/2 773/93/2
f 698/71/4 771/75/4 288/76/4 208/77/4
f 771/75/4 772/75/4 289/76/4 288/76/4
f 833/7/4 837/74/4 771/75/4 698/71/4
f 837/74/4 838/74/4 772/75/4 771/75/4
f 749/14/4 781/73/4 769/100/4 697/6/4
f 781/73/4 782/73/4 770/100/4 769/100/4
f 695/1/2 765/1/2 753/2/2 689/2/2
f 765/1/2 766/1/2 754/2/2 753/2/2
f 694/48/2 763/48/2 765/1/2 695/1/2
f 763/48/2 764/48/2 766/1/2 765/1/2
f 693/47/2 761/47/2 763/48/2 694/48/2
f 761/47/2 762/47/2 764/48/2 763/48/2
f 692/46/2 759/46/2 761/47/2 693/47/2
f 759/46/2 760/46/2 762/47/2 761/47/2
f 688/28/2 778/28/2 759/46/2 692/46/2
f 778/28/2 777/28/2 760/46/2 759/46/2
f 750/29/5 783/29/5 778/28/5 688/28/5
f 783/29/5 784/29/5 777/28/5 778/28/5
f 834/23/5 839/23/5 757/22/5 691/22/5
f 839/23/5 840/23/5 758/22/5 757/22/5
f 204/15/5 280/15/5 755/16/5 690/16/5
f 280/15/5 281/15/5 756/16/5 755/16/5
f 790/73/4 789/14/4 788/6/4 787/100/4
f 785/72/4 786/69/4 789/14/4 790/73/4
f 742/14/3 789/14/3 786/69/3 653/69/3
f 770/100/1 787/100/1 788/6/1 658/6/1
f 653/69/2 786/69/2 785/72/2 768/72/2
f 658/6/3 788/6/3 789/14/3 742/14/3
f 755/16/5 756/16/5 840/23/5 839/23/5
f 690/16/5 755/16/5 839/23/5 834/23/5
f 769/100/4 770/100/4 838/74/4 837/74/4
f 697/6/4 769/100/4 837/74/4 833/7/4
f 661/91/3 705/81/3 836/4/3 824/90/3
f 662/89/6 702/13/6 835/103/6 823/90/6
f 564/16/5 690/16/5 834/23/5 800/23/5
f 659/6/4 697/6/4 833/7/4 821/7/4
f 686/98/3 684/91/3 831/90/3 832/96/3
f 670/85/6 677/88/6 830/96/6 826/84/6
f 675/94/3 682/98/3 829/96/3 828/84/3
f 682/98/5 686/98/5 832/96/5 829/96/5
f 674/89/4 685/89/4 831/90/4 827/90/4
f 559/9/6 670/85/6 826/84/6 797/10/6
f 556/11/3 667/94/3 825/84/3 794/10/3
f 663/89/4 674/89/4 827/90/4 824/90/4
f 677/88/6 662/89/6 823/90/6 830/96/6
f 667/94/5 675/94/5 828/84/5 825/84/5
f 770/100/4 658/6/4 822/7/4 838/74/4
f 658/6/4 656/6/4 820/7/4 822/7/4
f 877/101/4 891/101/4 892/102/4 880/102/4
f 636/21/5 637/21/5 818/20/5 817/20/5
f 635/21/5 636/21/5 817/20/5 816/20/5
f 533/21/5 635/21/5 816/20/5 791/20/5
f 640/11/4 639/11/4 815/10/4 814/10/4
f 641/11/4 640/11/4 814/10/4 813/10/4
f 642/11/7 958/11/7 961/10/7 812/10/7
f 808/56/5 904/56/5 898/55/5 605/55/5
f 807/10/2 903/10/2 907/44/2 811/44/2
f 809/58/2 905/58/2 904/56/2 808/56/2
f 600/11/4 897/11/4 903/10/4 807/10/4
f 599/19/6 806/20/6 808/56/6 605/55/6
f 639/11/4 600/11/4 807/10/4 815/10/4
f 867/24/2 861/24/2 843/24/2 868/24/2
f 576/43/3 805/44/3 794/10/3 555/9/3
f 574/39/3 804/40/3 805/44/3 576/43/3
f 572/35/3 803/36/3 804/40/3 574/39/3
f 570/31/3 802/32/3 803/36/3 572/35/3
f 554/22/3 793/23/3 802/32/3 570/31/3
f 756/16/5 565/16/5 801/23/5 840/23/5
f 563/16/5 564/16/5 800/23/5 799/23/5
f 562/16/5 563/16/5 799/23/5 798/23/5
f 534/19/5 562/16/5 798/23/5 791/20/5
f 565/16/5 553/16/5 793/23/5 801/23/5
f 558/9/4 559/9/4 797/10/4 796/10/4
f 557/9/4 558/9/4 796/10/4 795/10/4
f 536/9/4 557/9/4 795/10/4 792/10/4
f 702/13/6 659/6/6 821/7/6 835/103/6
f 705/81/3 657/71/3 820/7/3 836/4/3
f 848/29/5 841/29/5 842/28/5 843/28/5
f 862/23/5 844/23/5 845/22/5 846/22/5
f 864/23/5 862/23/5 846/22/5 847/22/5
f 860/29/5 848/29/5 843/28/5 861/28/5
f 857/26/5 851/26/5 850/21/5 849/21/5
f 856/26/5 857/26/5 849/21/5 855/21/5
f 854/27/5 853/27/5 857/26/5 856/26/5
f 853/27/5 852/27/5 851/26/5 857/26/5
f 847/22/5 846/22/5 848/29/5 860/29/5
f 846/22/5 845/22/5 841/29/5 848/29/5
f 855/21/5 849/21/5 859/20/5 858/20/5
f 849/21/5 850/21/5 863/20/5 859/20/5
f 865/25/4 894/25/4 883/60/4 866/60/4
f 868/24/2 843/24/2 842/24/2 739/24/2
f 876/102/6 850/102/6 851/101/6 873/101/6
f 870/60/6 847/60/6 860/25/6 869/25/6
f 569/61/6 864/61/6 847/60/6 870/60/6
f 721/61/1 844/61/1 862/61/1 638/61/1
f 869/25/6 860/25/6 861/24/6 867/24/6
f 856/26/5 887/26/5 888/27/5 854/27/5
f 784/29/6 869/29/6 867/28/6 777/28/6
f 793/23/1 721/23/1 638/23/1 801/23/1
f 840/23/6 569/23/6 870/22/6 758/22/6
f 758/22/6 870/22/6 869/29/6 784/29/6
f 541/28/2 868/28/2 739/28/2 529/28/2
f 777/28/2 867/28/2 868/28/2 541/28/2
f 712/29/3 865/29/3 866/22/3 554/22/3
f 801/23/1 638/23/1 569/23/1 840/23/1
f 554/22/3 866/22/3 721/23/3 793/23/3
f 529/28/3 739/28/3 865/29/3 712/29/3
f 637/21/3 880/21/3 879/20/3 818/20/3
f 598/21/6 876/21/6 873/26/6 727/26/6
f 738/26/3 877/26/3 880/21/3 637/21/3
f 806/20/6 875/20/6 876/21/6 598/21/6
f 727/26/6 873/26/6 874/27/6 597/27/6
f 597/27/2 874/27/2 872/27/2 631/27/2
f 819/20/1 871/20/1 875/20/1 806/20/1
f 632/27/3 878/27/3 877/26/3 738/26/3
f 631/27/2 872/27/2 878/27/2 632/27/2
f 818/20/1 879/20/1 871/20/1 819/20/1
f 895/17/3 888/17/3 887/101/3 891/101/3
f 893/24/3 886/24/3 885/25/3 894/25/3
f 883/60/3 884/60/3 882/61/3 881/61/3
f 894/25/3 885/25/3 884/60/3 883/60/3
f 891/101/3 887/101/3 890/102/3 892/102/3
f 892/102/3 890/102/3 889/3/3 896/3/3
f 841/29/5 885/29/5 886/28/5 842/28/5
f 845/22/5 884/22/5 885/29/5 841/29/5
f 854/17/2 888/17/2 895/17/2 878/17/2
f 879/3/1 896/3/1 889/3/1 858/3/1
f 721/61/1 881/61/1 882/61/1 844/61/1
f 844/23/5 882/23/5 884/22/5 845/22/5
f 878/17/4 895/17/4 891/101/4 877/101/4
f 842/24/2 886/24/2 893/24/2 739/24/2
f 855/21/5 890/21/5 887/26/5 856/26/5
f 880/102/4 892/102/4 896/3/4 879/3/4
f 905/58/2 910/58/2 909/56/2 904/56/2
f 904/56/5 909/56/5 652/55/5 898/55/5
f 902/45/4 908/45/4 912/44/4 907/44/4
f 422/63/6 902/45/6 897/11/6 414/51/6
f 902/45/6 907/44/6 903/10/6 897/11/6
f 906/40/2 911/40/2 910/58/2 905/58/2
f 907/44/2 912/44/2 911/40/2 906/40/2
f 898/55/5 652/55/5 143/54/5 416/54/5
f 607/41/4 900/41/4 915/40/4 911/40/4
f 910/58/2 914/58/2 913/56/2 909/56/2
f 81/64/6 607/41/6 908/45/6 429/63/6
f 607/41/6 911/40/6 912/44/6 908/45/6
f 911/40/2 915/40/2 914/58/2 910/58/2
f 652/55/5 901/55/5 436/54/5 143/54/5
f 422/63/4 429/63/4 908/45/4 902/45/4
f 914/58/2 917/58/2 916/56/2 913/56/2
f 435/104/6 899/105/6 900/41/6 421/64/6
f 899/105/6 914/58/6 915/40/6 900/41/6
f 435/104/4 440/104/4 651/105/4 899/105/4
f 81/64/4 421/64/4 900/41/4 607/41/4
f 909/56/5 913/56/5 901/55/5 652/55/5
f 651/105/4 918/105/4 921/58/4 917/58/4
f 610/55/5 919/55/5 447/54/5 441/54/5
f 913/56/5 916/56/5 610/55/5 901/55/5
f 901/55/5 610/55/5 441/54/5 436/54/5
f 899/105/4 651/105/4 917/58/4 914/58/4
f 933/105/3 926/105/3 927/58/3 932/58/3
f 919/55/5 923/55/5 453/54/5 447/54/5
f 440/104/4 446/104/4 918/105/4 651/105/4
f 917/58/2 921/58/2 920/56/2 916/56/2
f 916/56/5 920/56/5 919/55/5 610/55/5
f 453/54/6 923/55/6 922/105/6 452/104/6
f 923/55/6 924/56/6 925/58/6 922/105/6
f 930/105/5 934/105/5 472/104/5 467/104/5
f 921/58/2 925/58/2 924/56/2 920/56/2
f 920/56/5 924/56/5 923/55/5 919/55/5
f 926/105/4 928/105/4 929/58/4 927/58/4
f 456/104/4 458/104/4 928/105/4 926/105/4
f 462/104/3 456/104/3 926/105/3 933/105/3
f 931/58/5 937/58/5 934/105/5 930/105/5
f 932/58/2 927/58/2 929/58/2 931/58/2
f 921/58/2 932/58/2 931/58/2 925/58/2
f 922/105/6 930/105/6 467/104/6 452/104/6
f 446/104/3 462/104/3 933/105/3 918/105/3
f 925/58/6 931/58/6 930/105/6 922/105/6
f 918/105/3 933/105/3 932/58/3 921/58/3
f 937/58/6 936/58/6 935/105/6 934/105/6
f 934/105/6 935/105/6 470/104/6 472/104/6
f 935/105/6 941/105/6 478/104/6 470/104/6
f 458/104/3 474/104/3 938/105/3 928/105/3
f 929/58/2 936/58/2 937/58/2 931/58/2
f 474/104/4 478/104/4 941/105/4 938/105/4
f 938/105/4 941/105/4 940/58/4 939/58/4
f 929/58/2 939/58/2 940/58/2 936/58/2
f 928/105/3 938/105/3 939/58/3 929/58/3
f 936/58/6 940/58/6 941/105/6 935/105/6
f 665/83/2 943/83/2 776/82/2 681/82/2
f 943/83/2 780/68/2 779/70/2 942/83/2
f 699/83/2 942/83/2 779/70/2 708/70/2
f 776/82/2 943/83/2 942/83/2 775/82/2
f 701/82/2 775/82/2 942/83/2 699/83/2
f 707/68/2 780/68/2 943/83/2 665/83/2
f 948/106/3 949/109/3 953/108/3 951/107/3
f 951/107/3 953/108/3 947/111/3 946/110/3
f 972/103/6 964/7/6 978/118/6 957/103/6
f 973/103/6 959/103/6 960/90/6 975/90/6
f 974/90/6 963/90/6 965/96/6 971/96/6
f 958/94/6 956/98/6 494/99/6 497/95/6
f 961/84/6 962/96/6 956/98/6 958/94/6
f 971/96/4 965/96/4 956/96/4 962/96/4
f 975/90/4 960/90/4 963/90/4 974/90/4
f 823/90/2 976/90/2 969/96/2 830/96/2
f 976/90/2 975/90/2 970/96/2 969/96/2
f 975/90/2 974/90/2 971/96/2 970/96/2
f 830/96/2 969/96/2 966/84/2 826/84/2
f 969/96/2 970/96/2 967/84/2 966/84/2
f 970/96/2 971/96/2 968/84/2 967/84/2
f 821/7/2 964/7/2 972/103/2 835/103/2
f 972/103/4 957/103/4 959/103/4 973/103/4
f 959/103/6 524/103/6 522/90/6 960/90/6
f 835/103/2 972/103/2 976/90/2 823/90/2
f 972/103/2 973/103/2 975/90/2 976/90/2
f 963/90/6 523/90/6 506/96/6 965/96/6
f 826/84/2 966/84/2 796/10/2 797/10/2
f 821/7/4 833/7/4 698/71/4 977/71/4
f 977/71/4 698/71/4 208/77/4 519/77/4
f 964/7/4 821/7/4 977/71/4 978/118/4
f 978/118/4 977/71/4 519/77/4 520/77/4
f 965/96/4 506/96/4 494/96/4 956/96/4
f 960/90/4 522/90/4 523/90/4 963/90/4
f 957/103/6 978/118/6 520/77/6 525/103/6
f 957/103/4 525/103/4 524/103/4 959/103/4
f 966/84/2 967/84/2 795/10/2 796/10/2
f 967/84/2 968/84/2 792/10/2 795/10/2
f 497/51/8 528/51/8 979/11/8 958/11/8
f 958/11/8 979/11/8 980/10/8 961/10/8
f 148/51/7 497/51/7 958/62/7 642/62/7
f 813/10/6 980/10/6 979/11/6 641/11/6
f 641/11/6 979/11/6 528/51/6 149/51/6
usemtl Material.004
f 161/77/3 156/71/3 221/78/3 223/79/3
f 341/90/5 165/89/5 483/89/5 492/90/5
f 220/78/4 222/79/4 223/79/4 221/78/4
f 156/71/1 159/71/1 220/78/1 221/78/1
f 159/71/6 160/77/6 222/79/6 220/78/6
f 256/87/1 264/67/1 490/67/1 488/87/1
f 217/5/4 353/4/4 493/4/4 482/5/4
f 165/89/5 256/87/5 488/87/5 483/89/5
f 353/4/2 341/90/2 492/90/2 493/4/2
f 264/67/4 217/5/4 482/5/4 490/67/4
f 484/112/3 489/113/3 483/89/3 488/87/3
f 491/114/3 485/115/3 490/67/3 482/5/3
f 485/115/3 484/112/3 488/87/3 490/67/3
f 489/113/3 486/116/3 492/90/3 483/89/3
f 487/117/3 491/114/3 482/5/3 493/4/3
f 486/116/3 487/117/3 493/4/3 492/90/3
f 161/77/3 223/79/3 710/78/3 657/71/3
f 824/90/5 954/90/5 945/89/5 663/89/5
f 709/78/4 710/78/4 223/79/4 222/79/4
f 657/71/2 710/78/2 709/78/2 660/71/2
f 660/71/6 709/78/6 222/79/6 160/77/6
f 743/87/2 950/87/2 952/67/2 751/67/2
f 706/5/4 944/5/4 955/4/4 836/4/4
f 663/89/5 945/89/5 950/87/5 743/87/5
f 836/4/1 955/4/1 954/90/1 824/90/1
f 751/67/4 952/67/4 944/5/4 706/5/4
f 946/112/3 950/87/3 945/89/3 951/113/3
f 953/114/3 944/5/3 952/67/3 947/115/3
f 947/115/3 952/67/3 950/87/3 946/112/3
f 951/113/3 945/89/3 954/90/3 948/116/3
f 949/117/3 955/4/3 944/5/3 953/114/3
f 948/116/3 954/90/3 955/4/3 949/117/3
