# Blender 3.6.0
# www.blender.org
mtllib 7.mtl
o Cube.026
v 0.252337 0.069386 -0.118128
v 0.252337 0.103511 -0.118128
v 0.252337 0.069386 -0.170581
v 0.252337 0.103511 -0.170581
v 0.246342 0.069386 -0.170581
v 0.240346 0.069386 -0.170581
v 0.235265 0.069386 -0.170581
v 0.235265 0.103511 -0.170581
v 0.240346 0.103511 -0.170581
v 0.246342 0.103511 -0.170581
v 0.252337 0.097823 -0.170581
v 0.252337 0.092136 -0.170581
v 0.252337 0.086448 -0.170581
v 0.252337 0.081140 -0.170581
v 0.252337 0.075476 -0.170581
v 0.252337 0.069386 -0.127178
v 0.252337 0.069386 -0.135613
v 0.252337 0.069386 -0.144355
v 0.252337 0.069386 -0.153097
v 0.252337 0.069386 -0.161839
v 0.252337 0.103511 -0.161839
v 0.252337 0.103511 -0.153097
v 0.252337 0.103511 -0.144355
v 0.252337 0.103511 -0.135613
v 0.252337 0.103511 -0.127178
v 0.252337 0.097823 -0.118128
v 0.252337 0.092136 -0.118128
v 0.252337 0.086448 -0.118128
v 0.252337 0.081140 -0.118128
v 0.252337 0.075476 -0.118128
v 0.240346 0.069386 -0.118128
v 0.246342 0.069386 -0.118128
v 0.246342 0.103511 -0.118128
v 0.240346 0.103511 -0.118128
v 0.235265 0.103511 -0.118128
v 0.246342 0.103511 -0.161839
v 0.246342 0.103511 -0.153097
v 0.246342 0.103511 -0.144355
v 0.240346 0.103511 -0.161839
v 0.240346 0.103511 -0.153097
v 0.240346 0.103511 -0.144355
v 0.235265 0.103511 -0.161839
v 0.235265 0.103511 -0.153097
v 0.235265 0.103511 -0.144355
v 0.235265 0.069386 -0.161839
v 0.235265 0.069386 -0.153097
v 0.235265 0.069386 -0.144355
v 0.235265 0.069386 -0.135613
v 0.235265 0.069386 -0.127178
v 0.240346 0.069386 -0.161839
v 0.240346 0.069386 -0.153097
v 0.240346 0.069386 -0.144355
v 0.240346 0.069386 -0.135613
v 0.240346 0.069386 -0.127178
v 0.246342 0.069386 -0.161839
v 0.246342 0.069386 -0.153097
v 0.246342 0.069386 -0.144355
v 0.246342 0.069386 -0.135613
v 0.246342 0.069386 -0.127178
v 0.246342 0.075476 -0.118128
v 0.240346 0.075476 -0.118128
v 0.246342 0.081140 -0.118128
v 0.240346 0.081140 -0.118128
v 0.235265 0.081140 -0.118128
v 0.246342 0.086448 -0.118128
v 0.240346 0.086448 -0.118128
v 0.235265 0.086448 -0.118128
v 0.246342 0.092136 -0.118128
v 0.240346 0.092136 -0.118128
v 0.235265 0.092136 -0.118128
v 0.246342 0.097823 -0.118128
v 0.240346 0.097823 -0.118128
v 0.235265 0.097823 -0.118128
v 0.252337 0.075476 -0.161839
v 0.252337 0.075476 -0.153097
v 0.252337 0.075476 -0.144355
v 0.252337 0.075476 -0.135613
v 0.252337 0.075476 -0.127178
v 0.252337 0.081140 -0.161839
v 0.252337 0.081140 -0.153097
v 0.252337 0.081140 -0.144355
v 0.252337 0.081140 -0.135613
v 0.252337 0.081140 -0.127178
v 0.252337 0.086448 -0.161839
v 0.252337 0.086448 -0.153097
v 0.252337 0.086448 -0.144355
v 0.252337 0.086448 -0.135613
v 0.252337 0.086448 -0.127178
v 0.252337 0.092136 -0.161839
v 0.252337 0.092136 -0.153097
v 0.252337 0.092136 -0.144355
v 0.252337 0.092136 -0.135613
v 0.252337 0.092136 -0.127178
v 0.252337 0.097823 -0.161839
v 0.252337 0.097823 -0.153097
v 0.252337 0.097823 -0.144355
v 0.252337 0.097823 -0.135613
v 0.252337 0.097823 -0.127178
v 0.252337 0.069386 -0.180497
v 0.246342 0.081140 -0.180497
v 0.240346 0.075476 -0.180497
v 0.246342 0.069386 -0.180497
v 0.235265 0.069386 -0.182191
v 0.246342 0.075476 -0.180497
v 0.240346 0.069386 -0.180497
v 0.252337 0.081140 -0.180497
v 0.252337 0.086448 -0.180497
v 0.252337 0.075476 -0.180497
v 0.252337 0.092136 -0.180497
v 0.235265 0.069386 -0.180497
v 0.235265 0.097823 -0.170581
v 0.240346 0.097823 -0.170581
v 0.246342 0.097823 -0.170581
v 0.252337 0.075476 -0.175111
v 0.252337 0.069386 -0.175111
v 0.240346 0.055091 -0.127178
v 0.240346 0.069386 -0.175111
v 0.235265 0.069386 -0.175111
v 0.252337 0.097823 -0.175111
v 0.252337 0.092136 -0.175111
v 0.252337 0.086448 -0.175111
v 0.252337 0.081140 -0.175111
v 0.246342 0.092136 -0.175111
v 0.235265 0.092136 -0.175111
v 0.240346 0.092136 -0.175111
v 0.246342 0.097823 -0.175111
v 0.235265 0.097823 -0.175111
v 0.240346 0.097823 -0.175111
v 0.235265 0.081140 -0.180497
v 0.240346 0.081140 -0.180497
v 0.246342 0.086448 -0.180497
v 0.235265 0.086448 -0.180497
v 0.240346 0.086448 -0.180497
v 0.246342 0.092136 -0.180497
v 0.235265 0.092136 -0.180497
v 0.240346 0.092136 -0.180497
v 0.235265 0.072609 -0.121511
v 0.240346 0.072609 -0.121511
v 0.235265 0.072609 -0.127178
v 0.240346 0.072609 -0.127178
v 0.240346 0.075476 -0.121511
v 0.235265 0.075476 -0.121511
v 0.240346 0.081140 -0.121511
v 0.235265 0.081140 -0.121511
v 0.252337 0.128090 -0.127178
v 0.252337 0.128090 -0.118128
v 0.252337 0.128090 -0.144355
v 0.252337 0.128090 -0.135613
v 0.246342 0.128090 -0.118128
v 0.240346 0.128090 -0.118128
v 0.235265 0.128090 -0.118128
v 0.246342 0.128090 -0.144355
v 0.240346 0.128090 -0.144355
v 0.235265 0.128090 -0.144355
v 0.252337 0.103511 -0.122499
v 0.252337 0.069386 -0.122499
v 0.240346 0.069386 -0.123345
v 0.240346 0.055091 -0.118128
v 0.252337 0.075476 -0.122499
v 0.252337 0.081140 -0.122499
v 0.252337 0.086448 -0.122499
v 0.252337 0.092136 -0.122499
v 0.252337 0.097823 -0.122499
v 0.235265 0.072609 -0.125036
v 0.240346 0.072609 -0.125036
v 0.252337 0.128090 -0.122499
v 0.246342 0.128090 -0.122499
v 0.240346 0.128090 -0.122499
v 0.235265 0.128090 -0.122499
v 0.252337 0.069386 -0.139984
v 0.252337 0.103511 -0.139984
v 0.235265 0.069386 -0.139984
v 0.240346 0.069386 -0.139984
v 0.246342 0.069386 -0.139984
v 0.252337 0.075476 -0.139984
v 0.252337 0.081140 -0.139984
v 0.252337 0.086448 -0.139984
v 0.252337 0.092136 -0.139984
v 0.252337 0.097823 -0.139984
v 0.252337 0.128090 -0.139984
v 0.246342 0.128090 -0.139984
v 0.240346 0.128090 -0.139984
v 0.235265 0.128090 -0.139984
v 0.249339 0.103511 -0.170581
v 0.249339 0.069386 -0.118128
v 0.249339 0.069386 -0.170581
v 0.249339 0.103511 -0.118128
v 0.249339 0.103511 -0.161839
v 0.249339 0.103511 -0.153097
v 0.249339 0.103511 -0.144355
v 0.249339 0.069386 -0.161839
v 0.249339 0.069386 -0.153097
v 0.249339 0.069386 -0.144355
v 0.249339 0.069386 -0.135613
v 0.249339 0.069386 -0.127178
v 0.249339 0.075476 -0.118128
v 0.249339 0.081140 -0.118128
v 0.249339 0.086448 -0.118128
v 0.249339 0.092136 -0.118128
v 0.249339 0.097823 -0.118128
v 0.249339 0.086448 -0.180497
v 0.249339 0.081140 -0.180497
v 0.249339 0.075476 -0.180497
v 0.249339 0.097823 -0.170581
v 0.249339 0.069386 -0.180497
v 0.246342 0.055091 -0.118128
v 0.249339 0.092136 -0.175111
v 0.249339 0.097823 -0.175111
v 0.249339 0.092136 -0.180497
v 0.249339 0.128090 -0.118128
v 0.249339 0.128090 -0.144355
v 0.249339 0.128090 -0.135613
v 0.249339 0.128090 -0.127178
v 0.249339 0.128090 -0.122499
v 0.240346 0.055091 -0.123345
v 0.249339 0.128090 -0.139984
v 0.249339 0.069386 -0.139984
v 0.246342 0.133015 -0.139984
v 0.246342 0.133015 -0.135613
v 0.246342 0.133015 -0.127178
v 0.240346 0.133015 -0.139984
v 0.240346 0.133015 -0.135613
v 0.240346 0.133015 -0.127178
v 0.235265 0.133015 -0.139984
v 0.235265 0.133015 -0.135613
v 0.235265 0.133015 -0.127178
v 0.246342 0.133015 -0.122499
v 0.240346 0.133015 -0.122499
v 0.235265 0.133015 -0.122499
v 0.249339 0.133015 -0.135613
v 0.249339 0.133015 -0.127178
v 0.249339 0.133015 -0.122499
v 0.249339 0.133015 -0.139984
v 0.252337 0.123994 -0.135613
v 0.235265 0.123994 -0.118128
v 0.235265 0.119897 -0.118128
v 0.235265 0.115800 -0.118128
v 0.235265 0.115800 -0.106937
v 0.235265 0.107607 -0.118128
v 0.235265 0.107607 -0.144355
v 0.235265 0.111704 -0.144355
v 0.235265 0.115800 -0.144355
v 0.235265 0.119897 -0.144355
v 0.235265 0.123994 -0.144355
v 0.252337 0.107607 -0.118128
v 0.252337 0.111704 -0.118128
v 0.252337 0.115800 -0.118128
v 0.252337 0.119897 -0.118128
v 0.252337 0.123994 -0.118128
v 0.252337 0.107607 -0.144355
v 0.252337 0.111704 -0.144355
v 0.252337 0.115800 -0.144355
v 0.252337 0.119897 -0.144355
v 0.252337 0.123994 -0.144355
v 0.240346 0.123994 -0.118128
v 0.240346 0.119897 -0.118128
v 0.240346 0.115800 -0.118128
v 0.240346 0.111704 -0.118128
v 0.240346 0.107607 -0.118128
v 0.246342 0.123994 -0.144355
v 0.246342 0.119897 -0.144355
v 0.246342 0.115800 -0.144355
v 0.246342 0.111704 -0.144355
v 0.246342 0.107607 -0.144355
v 0.240346 0.107607 -0.144355
v 0.240346 0.111704 -0.144355
v 0.240346 0.115800 -0.144355
v 0.240346 0.119897 -0.144355
v 0.240346 0.123994 -0.144355
v 0.252337 0.107607 -0.127178
v 0.252337 0.111704 -0.127178
v 0.252337 0.115800 -0.127178
v 0.252337 0.119897 -0.127178
v 0.252337 0.123994 -0.127178
v 0.246342 0.123994 -0.118128
v 0.246342 0.119897 -0.118128
v 0.246342 0.115800 -0.118128
v 0.246342 0.111704 -0.118128
v 0.246342 0.107607 -0.118128
v 0.252337 0.107607 -0.122499
v 0.252337 0.111704 -0.122499
v 0.252337 0.115800 -0.122499
v 0.252337 0.119897 -0.122499
v 0.252337 0.123994 -0.122499
v 0.252337 0.107607 -0.139984
v 0.252337 0.111704 -0.139984
v 0.252337 0.115800 -0.139984
v 0.252337 0.119897 -0.139984
v 0.252337 0.123994 -0.139984
v 0.249339 0.107607 -0.118128
v 0.249339 0.111704 -0.118128
v 0.249339 0.115800 -0.118128
v 0.249339 0.119897 -0.118128
v 0.249339 0.123994 -0.118128
v 0.249339 0.107607 -0.144355
v 0.249339 0.111704 -0.144355
v 0.249339 0.115800 -0.144355
v 0.249339 0.119897 -0.144355
v 0.249339 0.123994 -0.144355
v 0.237348 0.069386 -0.170581
v 0.237348 0.103511 -0.170581
v 0.237348 0.103511 -0.118128
v 0.237348 0.103511 -0.161839
v 0.237348 0.103511 -0.153097
v 0.237348 0.103511 -0.144355
v 0.237348 0.069386 -0.161839
v 0.237348 0.069386 -0.153097
v 0.237348 0.069386 -0.144355
v 0.237348 0.069386 -0.135613
v 0.237348 0.069386 -0.127178
v 0.237348 0.081140 -0.118128
v 0.237348 0.086448 -0.118128
v 0.237348 0.092136 -0.118128
v 0.237348 0.097823 -0.118128
v 0.237348 0.086448 -0.180497
v 0.237348 0.081140 -0.180497
v 0.237348 0.081140 -0.182191
v 0.237348 0.069386 -0.180497
v 0.237348 0.097823 -0.170581
v 0.237348 0.069386 -0.175111
v 0.237348 0.092136 -0.175111
v 0.237348 0.097823 -0.175111
v 0.237348 0.092136 -0.180497
v 0.237348 0.072609 -0.121511
v 0.237348 0.072609 -0.127178
v 0.237348 0.075476 -0.121511
v 0.237348 0.081140 -0.121511
v 0.237348 0.128090 -0.118128
v 0.237348 0.128090 -0.144355
v 0.237348 0.128090 -0.122499
v 0.237348 0.072609 -0.125036
v 0.237348 0.128090 -0.139984
v 0.237348 0.069386 -0.139984
v 0.237348 0.133015 -0.135613
v 0.237348 0.133015 -0.127178
v 0.237348 0.133015 -0.122499
v 0.237348 0.133015 -0.139984
v 0.237348 0.107607 -0.118128
v 0.235265 0.111704 -0.106937
v 0.237348 0.115800 -0.118128
v 0.237348 0.119897 -0.118128
v 0.237348 0.123994 -0.118128
v 0.237348 0.107607 -0.144355
v 0.237348 0.111704 -0.144355
v 0.237348 0.115800 -0.144355
v 0.237348 0.119897 -0.144355
v 0.237348 0.123994 -0.144355
v 0.235265 0.115800 -0.109236
v 0.235265 0.111704 -0.109236
v 0.235265 0.107607 -0.109236
v 0.240346 0.115800 -0.109236
v 0.240346 0.111704 -0.109236
v 0.240346 0.107607 -0.109236
v 0.237348 0.107607 -0.109236
v 0.237348 0.111704 -0.109236
v 0.237348 0.115800 -0.109236
v 0.237348 0.111704 -0.106937
v 0.237348 0.115800 -0.106937
v 0.257341 0.103511 -0.139984
v 0.257341 0.103511 -0.135613
v 0.257341 0.103511 -0.127178
v 0.257341 0.107607 -0.135613
v 0.257341 0.123994 -0.135613
v 0.257341 0.119897 -0.135613
v 0.257341 0.115800 -0.135613
v 0.257341 0.111704 -0.135613
v 0.257341 0.107607 -0.127178
v 0.257341 0.111704 -0.127178
v 0.257341 0.115800 -0.127178
v 0.257341 0.119897 -0.127178
v 0.257341 0.123994 -0.127178
v 0.257341 0.107607 -0.139984
v 0.257341 0.111704 -0.139984
v 0.257341 0.115800 -0.139984
v 0.257341 0.119897 -0.139984
v 0.257341 0.123994 -0.139984
v 0.237348 0.081140 -0.186791
v 0.240346 0.081140 -0.186791
v 0.237348 0.075476 -0.186791
v 0.240346 0.075476 -0.186791
v 0.237348 0.069386 -0.186791
v 0.235265 0.069386 -0.186791
v 0.235265 0.075476 -0.186791
v 0.240346 0.069386 -0.186791
v 0.235265 0.081140 -0.186791
v 0.235265 0.081140 -0.182191
v 0.240346 0.069386 -0.182191
v 0.237348 0.069386 -0.182191
v 0.240346 0.075476 -0.182191
v 0.240346 0.081140 -0.182191
v 0.237348 0.116643 -0.182191
v 0.237348 0.116643 -0.186791
v 0.240346 0.116643 -0.186791
v 0.235265 0.116643 -0.186791
v 0.235265 0.116643 -0.182191
v 0.240346 0.116643 -0.182191
v 0.240346 0.110389 -0.186791
v 0.237348 0.110389 -0.186791
v 0.240346 0.110389 -0.182191
v 0.237348 0.110389 -0.182191
v 0.235265 0.110389 -0.186791
v 0.235265 0.110389 -0.182191
v 0.240346 0.110389 -0.192016
v 0.240346 0.116643 -0.192016
v 0.237348 0.110389 -0.192016
v 0.237348 0.116643 -0.192016
v 0.235265 0.116643 -0.192016
v 0.235265 0.110389 -0.192016
v 0.249339 0.048271 -0.118128
v 0.252337 0.048271 -0.118128
v 0.249339 0.048271 -0.170581
v 0.246342 0.048271 -0.170581
v 0.240346 0.048271 -0.170581
v 0.252337 0.048271 -0.122499
v 0.252337 0.048271 -0.127178
v 0.240346 0.048271 -0.118128
v 0.246342 0.048271 -0.118128
v 0.240346 0.048271 -0.123345
v 0.246342 0.048271 -0.122499
v 0.246342 0.048271 -0.127178
v 0.240346 0.048271 -0.127178
v 0.249339 0.048271 -0.127178
v 0.246342 0.048271 -0.180497
v 0.240346 0.048271 -0.180497
v 0.249339 0.048271 -0.180497
v 0.246342 0.048271 -0.175111
v 0.240346 0.048271 -0.175111
v 0.252337 0.048271 -0.175111
v 0.252337 0.048271 -0.170581
v 0.249339 0.048271 -0.175111
v 0.252337 0.048271 -0.180497
v 0.249339 0.048271 -0.122499
v 0.246342 0.055091 -0.127178
v 0.252337 0.055091 -0.118128
v 0.249339 0.055091 -0.127178
v 0.252337 0.055091 -0.127178
v 0.252337 0.055091 -0.122499
v 0.249339 0.055091 -0.118128
v 0.240346 0.055091 -0.175111
v 0.240346 0.055091 -0.180497
v 0.252337 0.055091 -0.170581
v 0.252337 0.055091 -0.180497
v 0.252337 0.055091 -0.175111
v 0.249339 0.055091 -0.180497
v 0.240346 0.055091 -0.170581
v 0.246342 0.055091 -0.180497
v 0.246342 0.055091 -0.170581
v 0.249339 0.055091 -0.170581
v 0.240346 0.055091 -0.112717
v 0.240346 0.048271 -0.112717
v 0.252337 0.055091 -0.112717
v 0.252337 0.048271 -0.112717
v 0.252337 0.055091 -0.165170
v 0.252337 0.048271 -0.165170
v 0.249339 0.048271 -0.112717
v 0.249339 0.048271 -0.165170
v 0.246342 0.048271 -0.165170
v 0.240346 0.048271 -0.165170
v 0.246342 0.048271 -0.112717
v 0.249339 0.055091 -0.112717
v 0.246342 0.055091 -0.165170
v 0.246342 0.055091 -0.112717
v 0.240346 0.055091 -0.165170
v 0.249339 0.055091 -0.165170
v 0.218193 0.069386 -0.118128
v 0.218193 0.103511 -0.118128
v 0.218193 0.069386 -0.170581
v 0.218193 0.103511 -0.170581
v 0.224189 0.069386 -0.170581
v 0.230184 0.069386 -0.170581
v 0.230184 0.103511 -0.170581
v 0.224189 0.103511 -0.170581
v 0.218193 0.097823 -0.170581
v 0.218193 0.092136 -0.170581
v 0.218193 0.086448 -0.170581
v 0.218193 0.081140 -0.170581
v 0.218193 0.075476 -0.170581
v 0.218193 0.069386 -0.127178
v 0.218193 0.069386 -0.135613
v 0.218193 0.069386 -0.144355
v 0.218193 0.069386 -0.153097
v 0.218193 0.069386 -0.161839
v 0.218193 0.103511 -0.161839
v 0.218193 0.103511 -0.153097
v 0.218193 0.103511 -0.144355
v 0.218193 0.103511 -0.135613
v 0.218193 0.103511 -0.127178
v 0.218193 0.097823 -0.118128
v 0.218193 0.092136 -0.118128
v 0.218193 0.086448 -0.118128
v 0.218193 0.081140 -0.118128
v 0.218193 0.075476 -0.118128
v 0.230184 0.069386 -0.118128
v 0.224189 0.069386 -0.118128
v 0.224189 0.103511 -0.118128
v 0.230184 0.103511 -0.118128
v 0.224189 0.103511 -0.161839
v 0.224189 0.103511 -0.153097
v 0.224189 0.103511 -0.144355
v 0.230184 0.103511 -0.161839
v 0.230184 0.103511 -0.153097
v 0.230184 0.103511 -0.144355
v 0.230184 0.069386 -0.161839
v 0.230184 0.069386 -0.153097
v 0.230184 0.069386 -0.144355
v 0.230184 0.069386 -0.135613
v 0.230184 0.069386 -0.127178
v 0.224189 0.069386 -0.161839
v 0.224189 0.069386 -0.153097
v 0.224189 0.069386 -0.144355
v 0.224189 0.069386 -0.135613
v 0.224189 0.069386 -0.127178
v 0.224189 0.075476 -0.118128
v 0.230184 0.075476 -0.118128
v 0.224189 0.081140 -0.118128
v 0.230184 0.081140 -0.118128
v 0.224189 0.086448 -0.118128
v 0.230184 0.086448 -0.118128
v 0.224189 0.092136 -0.118128
v 0.230184 0.092136 -0.118128
v 0.224189 0.097823 -0.118128
v 0.230184 0.097823 -0.118128
v 0.218193 0.075476 -0.161839
v 0.218193 0.075476 -0.153097
v 0.218193 0.075476 -0.144355
v 0.218193 0.075476 -0.135613
v 0.218193 0.075476 -0.127178
v 0.218193 0.081140 -0.161839
v 0.218193 0.081140 -0.153097
v 0.218193 0.081140 -0.144355
v 0.218193 0.081140 -0.135613
v 0.218193 0.081140 -0.127178
v 0.218193 0.086448 -0.161839
v 0.218193 0.086448 -0.153097
v 0.218193 0.086448 -0.144355
v 0.218193 0.086448 -0.135613
v 0.218193 0.086448 -0.127178
v 0.218193 0.092136 -0.161839
v 0.218193 0.092136 -0.153097
v 0.218193 0.092136 -0.144355
v 0.218193 0.092136 -0.135613
v 0.218193 0.092136 -0.127178
v 0.218193 0.097823 -0.161839
v 0.218193 0.097823 -0.153097
v 0.218193 0.097823 -0.144355
v 0.218193 0.097823 -0.135613
v 0.218193 0.097823 -0.127178
v 0.218193 0.069386 -0.180497
v 0.224189 0.081140 -0.180497
v 0.230184 0.075476 -0.180497
v 0.224189 0.069386 -0.180497
v 0.224189 0.075476 -0.180497
v 0.230184 0.069386 -0.180497
v 0.218193 0.081140 -0.180497
v 0.218193 0.086448 -0.180497
v 0.218193 0.075476 -0.180497
v 0.218193 0.092136 -0.180497
v 0.230184 0.097823 -0.170581
v 0.224189 0.097823 -0.170581
v 0.218193 0.075476 -0.175111
v 0.218193 0.069386 -0.175111
v 0.230184 0.055091 -0.127178
v 0.230184 0.069386 -0.175111
v 0.218193 0.097823 -0.175111
v 0.218193 0.092136 -0.175111
v 0.218193 0.086448 -0.175111
v 0.218193 0.081140 -0.175111
v 0.224189 0.092136 -0.175111
v 0.230184 0.092136 -0.175111
v 0.224189 0.097823 -0.175111
v 0.230184 0.097823 -0.175111
v 0.230184 0.081140 -0.180497
v 0.224189 0.086448 -0.180497
v 0.230184 0.086448 -0.180497
v 0.224189 0.092136 -0.180497
v 0.230184 0.092136 -0.180497
v 0.230184 0.072609 -0.121511
v 0.230184 0.072609 -0.127178
v 0.230184 0.075476 -0.121511
v 0.230184 0.081140 -0.121511
v 0.218193 0.128090 -0.127178
v 0.218193 0.128090 -0.118128
v 0.218193 0.128090 -0.144355
v 0.218193 0.128090 -0.135613
v 0.224189 0.128090 -0.118128
v 0.230184 0.128090 -0.118128
v 0.224189 0.128090 -0.144355
v 0.230184 0.128090 -0.144355
v 0.218193 0.103511 -0.122499
v 0.218193 0.069386 -0.122499
v 0.230184 0.069386 -0.123345
v 0.230184 0.055091 -0.118128
v 0.218193 0.075476 -0.122499
v 0.218193 0.081140 -0.122499
v 0.218193 0.086448 -0.122499
v 0.218193 0.092136 -0.122499
v 0.218193 0.097823 -0.122499
v 0.230184 0.072609 -0.125036
v 0.218193 0.128090 -0.122499
v 0.224189 0.128090 -0.122499
v 0.230184 0.128090 -0.122499
v 0.218193 0.069386 -0.139984
v 0.218193 0.103511 -0.139984
v 0.230184 0.069386 -0.139984
v 0.224189 0.069386 -0.139984
v 0.218193 0.075476 -0.139984
v 0.218193 0.081140 -0.139984
v 0.218193 0.086448 -0.139984
v 0.218193 0.092136 -0.139984
v 0.218193 0.097823 -0.139984
v 0.218193 0.128090 -0.139984
v 0.224189 0.128090 -0.139984
v 0.230184 0.128090 -0.139984
v 0.221191 0.103511 -0.170581
v 0.221191 0.069386 -0.118128
v 0.221191 0.069386 -0.170581
v 0.221191 0.103511 -0.118128
v 0.221191 0.103511 -0.161839
v 0.221191 0.103511 -0.153097
v 0.221191 0.103511 -0.144355
v 0.221191 0.069386 -0.161839
v 0.221191 0.069386 -0.153097
v 0.221191 0.069386 -0.144355
v 0.221191 0.069386 -0.135613
v 0.221191 0.069386 -0.127178
v 0.221191 0.075476 -0.118128
v 0.221191 0.081140 -0.118128
v 0.221191 0.086448 -0.118128
v 0.221191 0.092136 -0.118128
v 0.221191 0.097823 -0.118128
v 0.221191 0.086448 -0.180497
v 0.221191 0.081140 -0.180497
v 0.221191 0.075476 -0.180497
v 0.221191 0.097823 -0.170581
v 0.221191 0.069386 -0.180497
v 0.224189 0.055091 -0.118128
v 0.221191 0.092136 -0.175111
v 0.221191 0.097823 -0.175111
v 0.221191 0.092136 -0.180497
v 0.221191 0.128090 -0.118128
v 0.221191 0.128090 -0.144355
v 0.221191 0.128090 -0.135613
v 0.221191 0.128090 -0.127178
v 0.221191 0.128090 -0.122499
v 0.230184 0.055091 -0.123345
v 0.221191 0.128090 -0.139984
v 0.221191 0.069386 -0.139984
v 0.224189 0.133015 -0.139984
v 0.224189 0.133015 -0.135613
v 0.224189 0.133015 -0.127178
v 0.230184 0.133015 -0.139984
v 0.230184 0.133015 -0.135613
v 0.230184 0.133015 -0.127178
v 0.224189 0.133015 -0.122499
v 0.230184 0.133015 -0.122499
v 0.221191 0.133015 -0.135613
v 0.221191 0.133015 -0.127178
v 0.221191 0.133015 -0.122499
v 0.221191 0.133015 -0.139984
v 0.218193 0.123994 -0.135613
v 0.218193 0.107607 -0.118128
v 0.218193 0.111704 -0.118128
v 0.218193 0.115800 -0.118128
v 0.218193 0.119897 -0.118128
v 0.218193 0.123994 -0.118128
v 0.218193 0.107607 -0.144355
v 0.218193 0.111704 -0.144355
v 0.218193 0.115800 -0.144355
v 0.218193 0.119897 -0.144355
v 0.218193 0.123994 -0.144355
v 0.230184 0.123994 -0.118128
v 0.230184 0.119897 -0.118128
v 0.230184 0.115800 -0.118128
v 0.230184 0.111704 -0.118128
v 0.230184 0.107607 -0.118128
v 0.224189 0.123994 -0.144355
v 0.224189 0.119897 -0.144355
v 0.224189 0.115800 -0.144355
v 0.224189 0.111704 -0.144355
v 0.224189 0.107607 -0.144355
v 0.230184 0.107607 -0.144355
v 0.230184 0.111704 -0.144355
v 0.230184 0.115800 -0.144355
v 0.230184 0.119897 -0.144355
v 0.230184 0.123994 -0.144355
v 0.218193 0.107607 -0.127178
v 0.218193 0.111704 -0.127178
v 0.218193 0.115800 -0.127178
v 0.218193 0.119897 -0.127178
v 0.218193 0.123994 -0.127178
v 0.224189 0.123994 -0.118128
v 0.224189 0.119897 -0.118128
v 0.224189 0.115800 -0.118128
v 0.224189 0.111704 -0.118128
v 0.224189 0.107607 -0.118128
v 0.218193 0.107607 -0.122499
v 0.218193 0.111704 -0.122499
v 0.218193 0.115800 -0.122499
v 0.218193 0.119897 -0.122499
v 0.218193 0.123994 -0.122499
v 0.218193 0.107607 -0.139984
v 0.218193 0.111704 -0.139984
v 0.218193 0.115800 -0.139984
v 0.218193 0.119897 -0.139984
v 0.218193 0.123994 -0.139984
v 0.221191 0.107607 -0.118128
v 0.221191 0.111704 -0.118128
v 0.221191 0.115800 -0.118128
v 0.221191 0.119897 -0.118128
v 0.221191 0.123994 -0.118128
v 0.221191 0.107607 -0.144355
v 0.221191 0.111704 -0.144355
v 0.221191 0.115800 -0.144355
v 0.221191 0.119897 -0.144355
v 0.221191 0.123994 -0.144355
v 0.233182 0.069386 -0.170581
v 0.233182 0.103511 -0.170581
v 0.233182 0.103511 -0.118128
v 0.233182 0.103511 -0.161839
v 0.233182 0.103511 -0.153097
v 0.233182 0.103511 -0.144355
v 0.233182 0.069386 -0.161839
v 0.233182 0.069386 -0.153097
v 0.233182 0.069386 -0.144355
v 0.233182 0.069386 -0.135613
v 0.233182 0.069386 -0.127178
v 0.233182 0.081140 -0.118128
v 0.233182 0.086448 -0.118128
v 0.233182 0.092136 -0.118128
v 0.233182 0.097823 -0.118128
v 0.233182 0.086448 -0.180497
v 0.233182 0.081140 -0.180497
v 0.233182 0.081140 -0.182191
v 0.233182 0.069386 -0.180497
v 0.233182 0.097823 -0.170581
v 0.233182 0.069386 -0.175111
v 0.233182 0.092136 -0.175111
v 0.233182 0.097823 -0.175111
v 0.233182 0.092136 -0.180497
v 0.233182 0.072609 -0.121511
v 0.233182 0.072609 -0.127178
v 0.233182 0.075476 -0.121511
v 0.233182 0.081140 -0.121511
v 0.233182 0.128090 -0.118128
v 0.233182 0.128090 -0.144355
v 0.233182 0.128090 -0.122499
v 0.233182 0.072609 -0.125036
v 0.233182 0.128090 -0.139984
v 0.233182 0.069386 -0.139984
v 0.233182 0.133015 -0.135613
v 0.233182 0.133015 -0.127178
v 0.233182 0.133015 -0.122499
v 0.233182 0.133015 -0.139984
v 0.233182 0.107607 -0.118128
v 0.233182 0.115800 -0.118128
v 0.233182 0.119897 -0.118128
v 0.233182 0.123994 -0.118128
v 0.233182 0.107607 -0.144355
v 0.233182 0.111704 -0.144355
v 0.233182 0.115800 -0.144355
v 0.233182 0.119897 -0.144355
v 0.233182 0.123994 -0.144355
v 0.230184 0.115800 -0.109236
v 0.230184 0.111704 -0.109236
v 0.230184 0.107607 -0.109236
v 0.233182 0.107607 -0.109236
v 0.233182 0.111704 -0.109236
v 0.233182 0.115800 -0.109236
v 0.233182 0.111704 -0.106937
v 0.233182 0.115800 -0.106937
v 0.213189 0.103511 -0.139984
v 0.213189 0.103511 -0.135613
v 0.213189 0.103511 -0.127178
v 0.213189 0.107607 -0.135613
v 0.213189 0.123994 -0.135613
v 0.213189 0.119897 -0.135613
v 0.213189 0.115800 -0.135613
v 0.213189 0.111704 -0.135613
v 0.213189 0.107607 -0.127178
v 0.213189 0.111704 -0.127178
v 0.213189 0.115800 -0.127178
v 0.213189 0.119897 -0.127178
v 0.213189 0.123994 -0.127178
v 0.213189 0.107607 -0.139984
v 0.213189 0.111704 -0.139984
v 0.213189 0.115800 -0.139984
v 0.213189 0.119897 -0.139984
v 0.213189 0.123994 -0.139984
v 0.233182 0.081140 -0.186791
v 0.230184 0.081140 -0.186791
v 0.233182 0.075476 -0.186791
v 0.230184 0.075476 -0.186791
v 0.233182 0.069386 -0.186791
v 0.230184 0.069386 -0.186791
v 0.230184 0.069386 -0.182191
v 0.233182 0.069386 -0.182191
v 0.230184 0.075476 -0.182191
v 0.230184 0.081140 -0.182191
v 0.233182 0.116643 -0.182191
v 0.233182 0.116643 -0.186791
v 0.230184 0.116643 -0.186791
v 0.230184 0.116643 -0.182191
v 0.230184 0.110389 -0.186791
v 0.233182 0.110389 -0.186791
v 0.230184 0.110389 -0.182191
v 0.233182 0.110389 -0.182191
v 0.230184 0.110389 -0.192016
v 0.230184 0.116643 -0.192016
v 0.233182 0.110389 -0.192016
v 0.233182 0.116643 -0.192016
v 0.221191 0.048271 -0.118128
v 0.218193 0.048271 -0.118128
v 0.221191 0.048271 -0.170581
v 0.224189 0.048271 -0.170581
v 0.230184 0.048271 -0.170581
v 0.218193 0.048271 -0.122499
v 0.218193 0.048271 -0.127178
v 0.230184 0.048271 -0.118128
v 0.224189 0.048271 -0.118128
v 0.230184 0.048271 -0.123345
v 0.224189 0.048271 -0.122499
v 0.224189 0.048271 -0.127178
v 0.230184 0.048271 -0.127178
v 0.221191 0.048271 -0.127178
v 0.224189 0.048271 -0.180497
v 0.230184 0.048271 -0.180497
v 0.221191 0.048271 -0.180497
v 0.224189 0.048271 -0.175111
v 0.230184 0.048271 -0.175111
v 0.218193 0.048271 -0.175111
v 0.218193 0.048271 -0.170581
v 0.221191 0.048271 -0.175111
v 0.218193 0.048271 -0.180497
v 0.221191 0.048271 -0.122499
v 0.224189 0.055091 -0.127178
v 0.218193 0.055091 -0.118128
v 0.221191 0.055091 -0.127178
v 0.218193 0.055091 -0.127178
v 0.218193 0.055091 -0.122499
v 0.221191 0.055091 -0.118128
v 0.230184 0.055091 -0.175111
v 0.230184 0.055091 -0.180497
v 0.218193 0.055091 -0.170581
v 0.218193 0.055091 -0.180497
v 0.218193 0.055091 -0.175111
v 0.221191 0.055091 -0.180497
v 0.230184 0.055091 -0.170581
v 0.224189 0.055091 -0.180497
v 0.224189 0.055091 -0.170581
v 0.221191 0.055091 -0.170581
v 0.230184 0.055091 -0.112717
v 0.230184 0.048271 -0.112717
v 0.218193 0.055091 -0.112717
v 0.218193 0.048271 -0.112717
v 0.218193 0.055091 -0.165170
v 0.218193 0.048271 -0.165170
v 0.221191 0.048271 -0.112717
v 0.221191 0.048271 -0.165170
v 0.224189 0.048271 -0.165170
v 0.230184 0.048271 -0.165170
v 0.224189 0.048271 -0.112717
v 0.221191 0.055091 -0.112717
v 0.224189 0.055091 -0.165170
v 0.224189 0.055091 -0.112717
v 0.230184 0.055091 -0.165170
v 0.221191 0.055091 -0.165170
vn -0.0000 -0.0000 -1.0000
vn 1.0000 -0.0000 -0.0000
vn -1.0000 -0.0000 -0.0000
vn -0.0000 1.0000 -0.0000
vn -0.0000 -0.0000 1.0000
vn -0.0000 -1.0000 -0.0000
vt 0.315735 0.389418
vt 0.315735 0.391513
vt 0.316839 0.391513
vt 0.316839 0.389418
vt 0.317344 0.430619
vt 0.315735 0.399058
vt 0.314631 0.399058
vt 0.314631 0.400567
vt 0.315735 0.400567
vt 0.311318 0.399058
vt 0.310214 0.399058
vt 0.310214 0.400567
vt 0.311318 0.400567
vt 0.316839 0.399058
vt 0.316839 0.400567
vt 0.314631 0.391513
vt 0.420934 0.390898
vt 0.419829 0.390898
vt 0.312422 0.399058
vt 0.312422 0.400567
vt 0.312422 0.391513
vt 0.417621 0.390898
vt 0.311318 0.391513
vt 0.310214 0.391513
vt 0.416517 0.390898
vt 0.415412 0.390898
vt 0.312422 0.381186
vt 0.312422 0.383273
vt 0.320657 0.430619
vt 0.321761 0.430619
vt 0.311318 0.378943
vt 0.312422 0.378943
vt 0.314631 0.378943
vt 0.315735 0.378943
vt 0.316839 0.378943
vt 0.315735 0.381186
vt 0.314631 0.381186
vt 0.313779 0.439871
vt 0.312675 0.439871
vt 0.315735 0.383273
vt 0.314631 0.383273
vt 0.312422 0.380130
vt 0.315735 0.385228
vt 0.314631 0.385228
vt 0.312422 0.385228
vt 0.313779 0.441826
vt 0.312675 0.441826
vt 0.315735 0.387323
vt 0.314631 0.387323
vt 0.312422 0.387323
vt 0.313779 0.443921
vt 0.312675 0.443921
vt 0.314631 0.389418
vt 0.312422 0.389418
vt 0.313779 0.446016
vt 0.312675 0.446016
vt 0.313779 0.448111
vt 0.312675 0.448111
vt 0.316839 0.381186
vt 0.316839 0.383273
vt 0.316839 0.385228
vt 0.316839 0.387323
vt 0.316839 0.381186
vt 0.422038 0.384613
vt 0.422038 0.386708
vt 0.422038 0.388803
vt 0.422038 0.390898
vt 0.315735 0.381186
vt 0.311318 0.389418
vt 0.310214 0.378943
vt 0.319552 0.430619
vt 0.311318 0.387323
vt 0.312422 0.381186
vt 0.312422 0.378943
vt 0.312422 0.381186
vt 0.314631 0.381186
vt 0.311318 0.378943
vt 0.311318 0.383273
vt 0.311318 0.385228
vt 0.313779 0.436728
vt 0.314883 0.436728
vt 0.313779 0.437784
vt 0.312675 0.437784
vt 0.312675 0.436728
vt 0.311318 0.380130
vt 0.310830 0.440117
vt 0.309726 0.440117
vt 0.312422 0.402381
vt 0.311318 0.402381
vt 0.315735 0.402381
vt 0.314631 0.402381
vt 0.310214 0.402381
vt 0.315735 0.393022
vt 0.316839 0.393022
vt 0.315735 0.394531
vt 0.316839 0.394531
vt 0.315735 0.396040
vt 0.316839 0.396040
vt 0.315735 0.397549
vt 0.316839 0.397549
vt 0.314631 0.393022
vt 0.314631 0.394531
vt 0.314631 0.396040
vt 0.314631 0.397549
vt 0.437418 0.391513
vt 0.437418 0.397549
vt 0.437418 0.399058
vt 0.437418 0.396040
vt 0.312422 0.393022
vt 0.312422 0.394531
vt 0.312422 0.396040
vt 0.312422 0.397549
vt 0.303633 0.454633
vt 0.305842 0.454633
vt 0.305842 0.456142
vt 0.303633 0.456142
vt 0.305842 0.457651
vt 0.303633 0.457651
vt 0.314883 0.448111
vt 0.314883 0.449620
vt 0.313779 0.449620
vt 0.198122 0.907882
vt 0.197018 0.907882
vt 0.199226 0.906374
vt 0.199226 0.907882
vt 0.803350 0.421713
vt 0.804454 0.421713
vt 0.804454 0.423222
vt 0.803350 0.423222
vt 0.302529 0.456142
vt 0.302529 0.457651
vt 0.437418 0.394531
vt 0.437418 0.393022
vt 0.310214 0.393022
vt 0.311318 0.393022
vt 0.310214 0.394531
vt 0.311318 0.394531
vt 0.310214 0.396040
vt 0.311318 0.396040
vt 0.310214 0.397549
vt 0.311318 0.397549
vt 0.312675 0.459068
vt 0.313779 0.459068
vt 0.313779 0.460577
vt 0.312675 0.460577
vt 0.312675 0.457559
vt 0.313779 0.457559
vt 0.198122 0.904865
vt 0.199226 0.904865
vt 0.223709 0.901566
vt 0.222605 0.901566
vt 0.312675 0.449620
vt 0.310214 0.380130
vt 0.314883 0.437784
vt 0.314883 0.439871
vt 0.310214 0.385228
vt 0.310214 0.387323
vt 0.310214 0.383273
vt 0.310214 0.389418
vt 0.314883 0.446016
vt 0.314883 0.443921
vt 0.314883 0.441826
vt 0.309726 0.438608
vt 0.310830 0.438608
vt 0.198122 0.906374
vt 0.985573 0.965432
vt 0.985573 0.966941
vt 0.197018 0.904865
vt 0.197018 0.906374
vt 0.984469 0.965432
vt 0.984469 0.966941
vt 0.311318 0.381186
vt 0.310214 0.381186
vt 0.312422 0.383273
vt 0.312422 0.383273
vt 0.310214 0.383273
s 0
usemtl Palitrs
f 204/1/1 184/2/1 4/3/1 11/4/1
f 163/4/2 155/3/2 2/3/2 26/4/2
f 445/5/3 439/5/3 427/5/3 413/5/3
f 299/6/1 260/7/1 152/8/1 211/9/1
f 347/10/1 244/11/1 154/12/1 329/13/1
f 274/14/2 234/14/2 148/15/2 145/15/2
f 184/2/4 10/16/4 36/16/4 188/2/4
f 188/17/4 36/18/4 37/18/4 189/17/4
f 189/2/4 37/16/4 38/16/4 190/2/4
f 342/10/5 255/19/5 150/20/5 328/13/5
f 289/14/2 254/14/2 147/15/2 180/15/2
f 10/16/4 9/21/4 39/21/4 36/16/4
f 36/18/4 39/22/4 40/22/4 37/18/4
f 37/16/4 40/21/4 41/21/4 38/16/4
f 255/19/5 275/7/5 149/8/5 150/20/5
f 260/7/1 269/19/1 153/20/1 152/8/1
f 301/23/4 8/24/4 42/24/4 303/23/4
f 303/25/4 42/26/4 43/26/4 304/25/4
f 304/23/4 43/24/4 44/24/4 305/23/4
f 284/14/2 274/14/2 145/15/2 166/15/2
f 294/6/5 249/14/5 146/15/5 210/9/5
f 61/27/3 63/28/3 143/28/3 141/27/3
f 444/29/1 442/30/1 431/30/1 425/29/1
f 300/31/6 6/32/6 50/32/6 306/31/6
f 306/31/6 50/32/6 51/32/6 307/31/6
f 307/31/6 51/32/6 52/32/6 308/31/6
f 333/31/6 173/32/6 53/32/6 309/31/6
f 309/31/6 53/32/6 54/32/6 310/31/6
f 6/32/6 5/33/6 55/33/6 50/32/6
f 50/32/6 55/33/6 56/33/6 51/32/6
f 51/32/6 56/33/6 57/33/6 52/32/6
f 173/32/6 174/33/6 58/33/6 53/32/6
f 53/32/6 58/33/6 59/33/6 54/32/6
f 186/34/6 3/35/6 20/35/6 191/34/6
f 191/34/6 20/35/6 19/35/6 192/34/6
f 192/34/6 19/35/6 18/35/6 193/34/6
f 217/34/6 170/35/6 17/35/6 194/34/6
f 194/34/6 17/35/6 16/35/6 195/34/6
f 185/34/5 196/36/5 60/37/5 32/33/5
f 32/33/5 60/37/5 61/27/5 31/32/5
f 311/38/6 64/39/6 144/39/6 327/38/6
f 196/36/5 197/40/5 62/41/5 60/37/5
f 60/37/5 62/41/5 63/28/5 61/27/5
f 31/32/3 61/27/3 141/27/3 138/42/3
f 197/40/5 198/43/5 65/44/5 62/41/5
f 62/41/5 65/44/5 66/45/5 63/28/5
f 311/38/5 312/46/5 67/47/5 64/39/5
f 198/43/5 199/48/5 68/49/5 65/44/5
f 65/44/5 68/49/5 69/50/5 66/45/5
f 312/46/5 313/51/5 70/52/5 67/47/5
f 199/48/5 200/1/5 71/53/5 68/49/5
f 68/49/5 71/53/5 72/54/5 69/50/5
f 313/51/5 314/55/5 73/56/5 70/52/5
f 200/1/5 187/2/5 33/16/5 71/53/5
f 71/53/5 33/16/5 34/21/5 72/54/5
f 314/55/5 302/57/5 35/58/5 73/56/5
f 156/35/2 159/59/2 30/59/2 1/35/2
f 159/59/2 160/60/2 29/60/2 30/59/2
f 160/60/2 161/61/2 28/61/2 29/60/2
f 161/61/2 162/62/2 27/62/2 28/61/2
f 162/62/2 163/4/2 26/4/2 27/62/2
f 3/35/2 15/63/2 74/63/2 20/35/2
f 20/35/2 74/63/2 75/63/2 19/35/2
f 19/35/2 75/63/2 76/63/2 18/35/2
f 170/35/2 175/63/2 77/59/2 17/35/2
f 17/35/2 77/59/2 78/59/2 16/35/2
f 15/63/2 14/60/2 79/60/2 74/63/2
f 74/63/2 79/60/2 80/60/2 75/63/2
f 75/63/2 80/60/2 81/60/2 76/63/2
f 175/63/2 176/60/2 82/60/2 77/59/2
f 77/59/2 82/60/2 83/60/2 78/59/2
f 14/60/2 13/61/2 84/61/2 79/60/2
f 79/60/2 84/61/2 85/61/2 80/60/2
f 80/60/2 85/61/2 86/61/2 81/60/2
f 176/60/2 177/61/2 87/61/2 82/60/2
f 82/60/2 87/61/2 88/61/2 83/60/2
f 13/61/2 12/62/2 89/62/2 84/61/2
f 84/64/2 89/65/2 90/65/2 85/64/2
f 85/61/2 90/62/2 91/62/2 86/61/2
f 177/61/2 178/62/2 92/62/2 87/61/2
f 87/61/2 92/62/2 93/62/2 88/61/2
f 12/62/2 11/4/2 94/4/2 89/62/2
f 89/65/2 94/66/2 95/66/2 90/65/2
f 90/62/2 95/4/2 96/4/2 91/62/2
f 178/62/2 179/4/2 97/4/2 92/62/2
f 92/62/2 97/4/2 98/4/2 93/62/2
f 11/4/2 4/3/2 21/3/2 94/4/2
f 94/66/2 21/67/2 22/67/2 95/66/2
f 95/4/2 22/3/2 23/3/2 96/4/2
f 179/4/2 171/3/2 24/3/2 97/4/2
f 97/4/2 24/3/2 25/3/2 98/4/2
f 201/43/1 209/48/1 109/62/1 107/61/1
f 202/40/1 201/43/1 107/61/1 106/60/1
f 203/68/1 202/40/1 106/60/1 108/63/1
f 205/34/1 203/68/1 108/63/1 99/35/1
f 15/63/2 3/35/2 115/35/2 114/63/2
f 319/69/4 112/54/4 128/54/4 322/69/4
f 300/31/6 7/70/6 118/70/6 320/31/6
f 14/60/2 15/63/2 114/63/2 122/60/2
f 204/1/4 11/4/4 119/4/4 208/1/4
f 158/5/3 215/5/3 418/5/3 416/5/3
f 13/61/2 14/60/2 122/60/2 121/61/2
f 215/5/3 116/5/3 421/5/3 418/5/3
f 12/62/2 13/61/2 121/61/2 120/62/2
f 11/4/2 12/62/2 120/62/2 119/4/2
f 112/54/4 113/53/4 126/53/4 128/54/4
f 319/69/1 301/23/1 9/21/1 112/54/1
f 112/54/1 9/21/1 10/16/1 113/53/1
f 207/48/4 120/62/4 109/62/4 209/48/4
f 441/30/4 448/29/4 464/29/4 453/30/4
f 207/48/1 208/1/1 119/4/1 120/62/1
f 116/5/1 433/71/1 420/71/1 421/5/1
f 114/63/2 115/35/2 99/35/2 108/63/2
f 122/60/2 114/63/2 108/63/2 106/60/2
f 121/61/2 122/60/2 106/60/2 107/61/2
f 120/62/2 121/61/2 107/61/2 109/62/2
f 125/50/4 123/49/4 134/49/4 136/50/4
f 321/72/4 125/50/4 136/50/4 323/72/4
f 320/31/6 118/70/6 110/70/6 318/31/6
f 321/72/1 322/69/1 128/54/1 125/50/1
f 125/50/1 128/54/1 126/53/1 123/49/1
f 389/73/2 387/74/2 384/32/2 380/75/2
f 105/32/1 101/75/1 104/76/1 102/33/1
f 388/77/6 103/70/6 382/70/6 381/31/6
f 101/75/1 130/28/1 100/41/1 104/76/1
f 316/78/1 315/79/1 133/45/1 130/28/1
f 130/28/1 133/45/1 131/44/1 100/41/1
f 315/79/1 323/72/1 136/50/1 133/45/1
f 133/45/1 136/50/1 134/49/1 131/44/1
f 331/80/6 165/81/6 138/81/6 324/80/6
f 324/80/5 326/82/5 142/83/5 137/84/5
f 326/82/5 327/38/5 144/39/5 142/83/5
f 157/32/3 31/32/3 138/42/3 165/42/3
f 310/31/5 54/32/5 140/42/5 325/85/5
f 214/9/4 167/8/4 149/8/4 210/9/4
f 167/8/4 168/20/4 150/20/4 149/8/4
f 330/86/4 169/87/4 151/87/4 328/86/4
f 330/13/5 168/20/5 228/88/5 336/89/5
f 214/9/2 213/9/2 231/90/2 232/90/2
f 167/8/5 214/9/5 232/90/5 227/91/5
f 181/8/1 182/20/1 221/88/1 218/91/1
f 212/9/2 216/9/2 233/90/2 230/90/2
f 216/9/1 181/8/1 218/91/1 233/90/1
f 168/20/5 167/8/5 227/91/5 228/88/5
f 332/13/1 183/12/1 224/92/1 337/89/1
f 213/9/2 212/9/2 230/90/2 231/90/2
f 54/32/3 157/32/3 165/42/3 140/42/3
f 325/80/6 140/81/6 165/81/6 331/80/6
f 93/62/2 98/4/2 163/4/2 162/62/2
f 88/61/2 93/62/2 162/62/2 161/61/2
f 83/60/2 88/61/2 161/61/2 160/60/2
f 78/59/2 83/60/2 160/60/2 159/59/2
f 16/35/2 78/59/2 159/59/2 156/35/2
f 437/30/2 434/30/2 410/30/2 414/30/2
f 249/14/2 284/14/2 166/15/2 146/15/2
f 435/29/1 436/30/1 415/30/1 422/29/1
f 98/4/2 25/3/2 155/3/2 163/4/2
f 329/13/4 154/12/4 183/12/4 332/13/4
f 152/8/4 153/20/4 182/20/4 181/8/4
f 211/9/4 152/8/4 181/8/4 216/9/4
f 96/4/2 23/3/2 171/3/2 179/4/2
f 91/62/2 96/4/2 179/4/2 178/62/2
f 86/61/2 91/62/2 178/62/2 177/61/2
f 81/60/2 86/61/2 177/61/2 176/60/2
f 76/63/2 81/60/2 176/60/2 175/63/2
f 18/35/2 76/63/2 175/63/2 170/35/2
f 193/34/6 18/35/6 170/35/6 217/34/6
f 52/32/6 57/33/6 174/33/6 173/32/6
f 308/31/6 52/32/6 173/32/6 333/31/6
f 234/14/2 289/14/2 180/15/2 148/15/2
f 57/33/6 193/34/6 217/34/6 174/33/6
f 147/15/4 211/9/4 216/9/4 180/15/4
f 436/30/2 437/30/2 414/30/2 415/30/2
f 145/15/4 213/9/4 214/9/4 166/15/4
f 148/15/4 212/9/4 213/9/4 145/15/4
f 180/15/4 216/9/4 212/9/4 148/15/4
f 166/15/4 214/9/4 210/9/4 146/15/4
f 439/5/3 440/5/3 424/5/3 427/5/3
f 123/49/1 126/53/1 208/1/1 207/48/1
f 123/49/4 207/48/4 209/48/4 134/49/4
f 443/30/2 441/30/2 429/30/2 428/30/2
f 113/53/4 204/1/4 208/1/4 126/53/4
f 102/33/1 104/76/1 203/68/1 205/34/1
f 104/76/1 100/41/1 202/40/1 203/68/1
f 100/41/1 131/44/1 201/43/1 202/40/1
f 131/44/1 134/49/1 209/48/1 201/43/1
f 26/4/5 2/3/5 187/2/5 200/1/5
f 27/62/5 26/4/5 200/1/5 199/48/5
f 28/61/5 27/62/5 199/48/5 198/43/5
f 29/60/5 28/61/5 198/43/5 197/40/5
f 30/59/5 29/60/5 197/40/5 196/36/5
f 1/35/5 30/59/5 196/36/5 185/34/5
f 58/33/6 194/34/6 195/34/6 59/33/6
f 174/33/6 217/34/6 194/34/6 58/33/6
f 56/33/6 192/34/6 193/34/6 57/33/6
f 55/33/6 191/34/6 192/34/6 56/33/6
f 5/33/6 186/34/6 191/34/6 55/33/6
f 275/7/5 294/6/5 210/9/5 149/8/5
f 22/3/4 189/2/4 190/2/4 23/3/4
f 21/67/4 188/17/4 189/17/4 22/67/4
f 4/3/4 184/2/4 188/2/4 21/3/4
f 254/14/1 299/6/1 211/9/1 147/15/1
f 442/30/2 443/30/2 428/30/2 431/30/2
f 113/53/1 10/16/1 184/2/1 204/1/1
f 233/90/4 218/91/4 219/91/4 230/90/4
f 230/90/4 219/91/4 220/91/4 231/90/4
f 218/91/4 221/88/4 222/88/4 219/91/4
f 219/91/4 222/88/4 223/88/4 220/91/4
f 337/89/4 224/92/4 225/92/4 334/89/4
f 334/89/4 225/92/4 226/92/4 335/89/4
f 335/89/4 226/92/4 229/92/4 336/89/4
f 220/91/4 223/88/4 228/88/4 227/91/4
f 231/90/4 220/91/4 227/91/4 232/90/4
f 23/3/1 190/2/1 295/93/1 250/94/1
f 250/94/1 295/93/1 296/95/1 251/96/1
f 251/96/1 296/95/1 297/97/1 252/98/1
f 252/98/1 297/97/1 298/99/1 253/100/1
f 253/100/1 298/99/1 299/6/1 254/14/1
f 33/16/5 187/2/5 290/93/5 279/101/5
f 279/101/5 290/93/5 291/95/5 278/102/5
f 278/102/5 291/95/5 292/97/5 277/103/5
f 277/103/5 292/97/5 293/99/5 276/104/5
f 276/104/5 293/99/5 294/6/5 275/7/5
f 24/105/6 171/105/6 359/105/6 360/105/6
f 288/106/1 289/107/1 376/107/1 375/106/1
f 274/107/5 273/106/5 370/106/5 371/107/5
f 287/108/1 288/106/1 375/106/1 374/108/1
f 273/106/5 272/108/5 369/108/5 370/106/5
f 2/3/2 155/3/2 280/94/2 245/94/2
f 245/94/2 280/94/2 281/96/2 246/96/2
f 246/96/2 281/96/2 282/98/2 247/98/2
f 247/98/2 282/98/2 283/100/2 248/100/2
f 248/100/2 283/100/2 284/14/2 249/14/2
f 187/2/5 2/3/5 245/94/5 290/93/5
f 290/93/5 245/94/5 246/96/5 291/95/5
f 291/95/5 246/96/5 247/98/5 292/97/5
f 292/97/5 247/98/5 248/100/5 293/99/5
f 293/99/5 248/100/5 249/14/5 294/6/5
f 155/3/2 25/3/2 270/94/2 280/94/2
f 280/94/2 270/94/2 271/96/2 281/96/2
f 281/96/2 271/96/2 272/98/2 282/98/2
f 282/98/2 272/98/2 273/100/2 283/100/2
f 283/100/2 273/100/2 274/14/2 284/14/2
f 38/16/1 41/21/1 265/109/1 264/101/1
f 264/101/1 265/109/1 266/110/1 263/102/1
f 263/102/1 266/110/1 267/111/1 262/103/1
f 262/103/1 267/111/1 268/112/1 261/104/1
f 261/104/1 268/112/1 269/19/1 260/7/1
f 34/21/5 33/16/5 279/101/5 259/109/5
f 259/109/5 279/101/5 278/102/5 258/110/5
f 258/110/5 278/102/5 277/103/5 257/111/5
f 257/113/5 277/114/5 276/115/5 256/116/5
f 256/116/5 276/115/5 275/117/5 255/118/5
f 171/3/2 23/3/2 250/94/2 285/94/2
f 285/94/2 250/94/2 251/96/2 286/96/2
f 286/96/2 251/96/2 252/98/2 287/98/2
f 287/98/2 252/98/2 253/100/2 288/100/2
f 288/100/2 253/100/2 254/14/2 289/14/2
f 302/57/5 34/119/5 259/120/5 338/121/5
f 340/122/4 237/123/4 348/123/4 356/122/4
f 258/124/2 257/125/2 351/125/2 352/124/2
f 340/126/5 257/127/5 256/128/5 341/129/5
f 341/130/5 256/116/5 255/118/5 342/131/5
f 234/107/4 274/107/4 371/107/4 363/107/4
f 286/132/1 287/108/1 374/108/1 373/132/1
f 272/108/5 271/132/5 368/132/5 369/108/5
f 285/133/1 286/132/1 373/132/1 372/133/1
f 271/132/5 270/133/5 367/133/5 368/132/5
f 305/23/1 44/24/1 240/134/1 343/135/1
f 343/135/1 240/134/1 241/136/1 344/137/1
f 344/137/1 241/136/1 242/138/1 345/139/1
f 345/139/1 242/138/1 243/140/1 346/141/1
f 346/141/1 243/140/1 244/11/1 347/10/1
f 190/2/1 38/16/1 264/101/1 295/93/1
f 295/93/1 264/101/1 263/102/1 296/95/1
f 296/95/1 263/102/1 262/103/1 297/97/1
f 297/97/1 262/103/1 261/104/1 298/99/1
f 298/99/1 261/104/1 260/7/1 299/6/1
f 268/112/1 346/141/1 347/10/1 269/19/1
f 267/111/1 345/139/1 346/141/1 268/112/1
f 266/110/1 344/137/1 345/139/1 267/111/1
f 265/109/1 343/135/1 344/137/1 266/110/1
f 41/21/1 305/23/1 343/135/1 265/109/1
f 236/142/5 341/143/5 342/144/5 235/145/5
f 237/146/5 340/147/5 341/143/5 236/142/5
f 338/148/6 259/149/6 353/149/6 354/148/6
f 257/150/4 340/151/4 356/151/4 351/150/4
f 35/58/5 302/57/5 338/121/5 239/152/5
f 223/88/4 335/89/4 336/89/4 228/88/4
f 222/88/4 334/89/4 335/89/4 223/88/4
f 221/88/4 337/89/4 334/89/4 222/88/4
f 47/70/6 308/31/6 333/31/6 172/70/6
f 153/20/4 329/13/4 332/13/4 182/20/4
f 139/84/6 325/80/6 331/80/6 164/84/6
f 182/20/1 332/13/1 337/89/1 221/88/1
f 169/12/5 330/13/5 336/89/5 229/92/5
f 168/20/4 330/13/4 328/13/4 150/20/4
f 49/70/5 310/31/5 325/85/5 139/153/5
f 141/154/5 143/155/5 327/38/5 326/82/5
f 138/81/5 141/154/5 326/82/5 324/80/5
f 164/84/6 331/80/6 324/80/6 137/84/6
f 132/156/1 135/157/1 323/72/1 315/79/1
f 129/158/1 132/156/1 315/79/1 316/78/1
f 394/158/4 392/78/4 406/78/4 407/158/4
f 387/74/6 388/77/6 381/31/6 384/32/6
f 124/157/1 127/159/1 322/69/1 321/72/1
f 117/32/6 320/31/6 318/31/6 105/32/6
f 124/157/4 321/72/4 323/72/4 135/157/4
f 111/159/1 8/24/1 301/23/1 319/69/1
f 6/32/6 300/31/6 320/31/6 117/32/6
f 111/159/4 319/69/4 322/69/4 127/159/4
f 72/160/5 34/119/5 302/57/5 314/55/5
f 69/161/5 72/160/5 314/55/5 313/51/5
f 66/162/5 69/161/5 313/51/5 312/46/5
f 63/155/5 66/162/5 312/46/5 311/38/5
f 63/155/6 311/38/6 327/38/6 143/155/6
f 48/70/6 309/31/6 310/31/6 49/70/6
f 172/70/6 333/31/6 309/31/6 48/70/6
f 46/70/6 307/31/6 308/31/6 47/70/6
f 45/70/6 306/31/6 307/31/6 46/70/6
f 7/70/6 300/31/6 306/31/6 45/70/6
f 40/21/4 304/23/4 305/23/4 41/21/4
f 39/22/4 303/25/4 304/25/4 40/22/4
f 9/21/4 301/23/4 303/23/4 39/21/4
f 235/163/5 342/164/5 328/86/5 151/87/5
f 269/19/1 347/10/1 329/13/1 153/20/1
f 354/148/5 353/149/5 352/124/5 355/165/5
f 355/165/5 352/124/5 351/125/5 356/122/5
f 355/166/2 356/167/2 358/167/2 357/166/2
f 350/168/5 354/148/5 355/165/5 349/169/5
f 259/149/2 258/124/2 352/124/2 353/149/2
f 239/168/6 338/148/6 354/148/6 350/168/6
f 339/170/5 357/166/5 358/167/5 238/171/5
f 356/167/4 348/171/4 238/171/4 358/167/4
f 349/170/6 355/166/6 357/166/6 339/170/6
f 360/105/2 359/105/2 372/133/2 362/133/2
f 362/133/2 372/133/2 373/132/2 366/132/2
f 366/132/2 373/132/2 374/108/2 365/108/2
f 365/108/2 374/108/2 375/106/2 364/106/2
f 364/106/2 375/106/2 376/107/2 363/107/2
f 361/105/2 360/105/2 362/133/2 367/133/2
f 367/133/2 362/133/2 366/132/2 368/132/2
f 368/132/2 366/132/2 365/108/2 369/108/2
f 369/108/2 365/108/2 364/106/2 370/106/2
f 370/106/2 364/106/2 363/107/2 371/107/2
f 25/105/6 24/105/6 360/105/6 361/105/6
f 289/107/4 234/107/4 363/107/4 376/107/4
f 270/133/5 25/105/5 361/105/5 367/133/5
f 171/105/1 285/133/1 372/133/1 359/105/1
f 381/31/1 379/172/1 380/75/1 384/32/1
f 379/172/1 377/78/1 378/28/1 380/75/1
f 383/173/1 385/158/1 377/78/1 379/172/1
f 382/70/1 383/173/1 379/172/1 381/31/1
f 390/174/2 389/73/2 380/75/2 378/28/2
f 399/174/2 397/175/2 393/28/2 396/174/2
f 316/78/4 130/28/4 390/174/4 317/78/4
f 130/28/2 101/75/2 389/73/2 390/174/2
f 105/32/6 318/31/6 388/77/6 387/74/6
f 129/158/4 316/78/4 317/78/4 386/176/4
f 318/31/6 110/70/6 103/70/6 388/77/6
f 101/75/2 105/32/2 387/74/2 389/73/2
f 395/176/4 391/78/4 392/78/4 394/158/4
f 391/78/4 396/174/4 393/28/4 392/78/4
f 400/78/5 399/174/5 396/174/5 391/78/5
f 393/28/2 397/175/2 403/175/2 404/28/2
f 402/176/5 400/78/5 391/78/5 395/176/5
f 386/176/5 317/78/5 400/78/5 402/176/5
f 377/78/1 385/158/1 401/158/1 398/78/1
f 317/78/5 390/174/5 399/174/5 400/78/5
f 390/174/2 378/28/2 397/175/2 399/174/2
f 378/28/1 377/78/1 398/78/1 397/175/1
f 403/175/1 405/78/1 406/78/1 404/28/1
f 405/78/1 408/158/1 407/158/1 406/78/1
f 398/78/6 401/158/6 408/158/6 405/78/6
f 392/78/4 393/28/4 404/28/4 406/78/4
f 397/175/6 398/78/6 405/78/6 403/175/6
f 432/29/6 414/30/6 410/30/6 409/29/6
f 418/5/6 419/71/6 417/71/6 416/5/6
f 412/71/6 413/5/6 427/5/6 426/71/6
f 411/29/6 412/71/6 426/71/6 430/29/6
f 426/71/6 427/5/6 424/5/6 423/71/6
f 430/29/6 426/71/6 423/71/6 425/29/6
f 421/5/6 420/71/6 419/71/6 418/5/6
f 422/29/6 415/30/6 414/30/6 432/29/6
f 420/71/6 422/29/6 432/29/6 419/71/6
f 428/30/6 430/29/6 425/29/6 431/30/6
f 429/30/6 411/29/6 430/29/6 428/30/6
f 419/71/6 432/29/6 409/29/6 417/71/6
f 429/30/2 441/30/2 453/30/2 454/30/2
f 440/5/1 446/71/1 423/71/1 424/5/1
f 411/29/6 429/30/6 454/30/6 456/29/6
f 158/5/3 416/5/3 450/5/3 449/5/3
f 446/71/1 444/29/1 425/29/1 423/71/1
f 413/5/6 412/71/6 457/71/6 458/5/6
f 417/71/6 409/29/6 455/29/6 459/71/6
f 433/71/1 435/29/1 422/29/1 420/71/1
f 59/33/1 195/34/1 435/34/1 433/33/1
f 185/34/5 32/33/5 206/33/5 438/34/5
f 1/35/5 185/34/5 438/34/5 434/35/5
f 16/35/2 156/35/2 437/35/2 436/35/2
f 195/34/1 16/35/1 436/35/1 435/34/1
f 156/35/2 1/35/2 434/35/2 437/35/2
f 54/32/1 59/33/1 433/33/1 116/32/1
f 32/33/5 31/32/5 158/32/5 206/33/5
f 157/32/3 54/32/3 116/32/3 215/32/3
f 31/32/3 157/32/3 215/32/3 158/32/3
f 3/35/5 186/34/5 448/34/5 441/35/5
f 5/33/5 6/32/5 445/32/5 447/33/5
f 102/33/1 205/34/1 444/34/1 446/33/1
f 186/34/5 5/33/5 447/33/5 448/34/5
f 105/32/1 102/33/1 446/33/1 440/32/1
f 99/35/2 115/35/2 443/35/2 442/35/2
f 115/35/2 3/35/2 441/35/2 443/35/2
f 117/32/3 105/32/3 440/32/3 439/32/3
f 205/34/1 99/35/1 442/35/1 444/34/1
f 6/32/3 117/32/3 439/32/3 445/32/3
f 462/71/5 449/5/5 450/5/5 459/71/5
f 451/30/5 460/29/5 455/29/5 452/30/5
f 464/29/5 461/71/5 457/71/5 456/29/5
f 460/29/5 462/71/5 459/71/5 455/29/5
f 461/71/5 463/5/5 458/5/5 457/71/5
f 453/30/5 464/29/5 456/29/5 454/30/5
f 416/5/6 417/71/6 459/71/6 450/5/6
f 447/71/4 445/5/4 463/5/4 461/71/4
f 206/71/4 158/5/4 449/5/4 462/71/4
f 410/30/2 434/30/2 451/30/2 452/30/2
f 448/29/4 447/71/4 461/71/4 464/29/4
f 438/29/4 206/71/4 462/71/4 460/29/4
f 445/5/3 413/5/3 458/5/3 463/5/3
f 409/29/6 410/30/6 452/30/6 455/29/6
f 434/30/4 438/29/4 460/29/4 451/30/4
f 412/71/6 411/29/6 456/29/6 457/71/6
f 634/1/1 473/4/1 468/3/1 614/2/1
f 597/4/3 488/4/3 466/3/3 589/3/3
f 847/5/2 815/5/2 829/5/2 841/5/2
f 715/6/1 641/9/1 587/8/1 676/7/1
f 762/10/1 745/13/1 154/12/1 244/11/1
f 690/14/3 581/15/3 584/15/3 660/14/3
f 614/2/4 618/2/4 497/16/4 472/16/4
f 618/17/4 619/17/4 498/18/4 497/18/4
f 619/2/4 620/2/4 499/16/4 498/16/4
f 757/10/5 744/13/5 586/20/5 671/19/5
f 705/14/3 611/15/3 583/15/3 670/14/3
f 472/16/4 497/16/4 500/21/4 471/21/4
f 497/18/4 498/18/4 501/22/4 500/22/4
f 498/16/4 499/16/4 502/21/4 501/21/4
f 671/19/5 586/20/5 585/8/5 691/7/5
f 676/7/1 587/8/1 588/20/1 685/19/1
f 717/23/4 719/23/4 42/24/4 8/24/4
f 719/25/4 720/25/4 43/26/4 42/26/4
f 720/23/4 721/23/4 44/24/4 43/24/4
f 700/14/3 599/15/3 581/15/3 690/14/3
f 710/6/5 640/9/5 582/15/5 665/14/5
f 514/27/2 579/27/2 580/28/2 516/28/2
f 846/29/1 827/29/1 833/30/1 844/30/1
f 716/31/6 722/31/6 503/32/6 470/32/6
f 722/31/6 723/31/6 504/32/6 503/32/6
f 723/31/6 724/31/6 505/32/6 504/32/6
f 749/31/6 725/31/6 506/32/6 604/32/6
f 725/31/6 726/31/6 507/32/6 506/32/6
f 470/32/6 503/32/6 508/33/6 469/33/6
f 503/32/6 504/32/6 509/33/6 508/33/6
f 504/32/6 505/32/6 510/33/6 509/33/6
f 604/32/6 506/32/6 511/33/6 605/33/6
f 506/32/6 507/32/6 512/33/6 511/33/6
f 616/34/6 621/34/6 482/35/6 467/35/6
f 621/34/6 622/34/6 481/35/6 482/35/6
f 622/34/6 623/34/6 480/35/6 481/35/6
f 647/34/6 624/34/6 479/35/6 602/35/6
f 624/34/6 625/34/6 478/35/6 479/35/6
f 615/34/5 494/33/5 513/37/5 626/36/5
f 494/33/5 493/32/5 514/27/5 513/37/5
f 727/38/6 743/38/6 144/39/6 64/39/6
f 626/36/5 513/37/5 515/41/5 627/40/5
f 513/37/5 514/27/5 516/28/5 515/41/5
f 493/32/2 577/42/2 579/27/2 514/27/2
f 627/40/5 515/41/5 517/44/5 628/43/5
f 515/41/5 516/28/5 518/45/5 517/44/5
f 727/38/5 64/39/5 67/47/5 728/46/5
f 628/43/5 517/44/5 519/49/5 629/48/5
f 517/44/5 518/45/5 520/50/5 519/49/5
f 728/46/5 67/47/5 70/52/5 729/51/5
f 629/48/5 519/49/5 521/53/5 630/1/5
f 519/49/5 520/50/5 522/54/5 521/53/5
f 729/51/5 70/52/5 73/56/5 730/55/5
f 630/1/5 521/53/5 495/16/5 617/2/5
f 521/53/5 522/54/5 496/21/5 495/16/5
f 730/55/5 73/56/5 35/58/5 718/57/5
f 590/35/3 465/35/3 492/59/3 593/59/3
f 593/59/3 492/59/3 491/60/3 594/60/3
f 594/60/3 491/60/3 490/61/3 595/61/3
f 595/61/3 490/61/3 489/62/3 596/62/3
f 596/62/3 489/62/3 488/4/3 597/4/3
f 467/35/3 482/35/3 523/63/3 477/63/3
f 482/35/3 481/35/3 524/63/3 523/63/3
f 481/35/3 480/35/3 525/63/3 524/63/3
f 602/35/3 479/35/3 526/59/3 606/63/3
f 479/35/3 478/35/3 527/59/3 526/59/3
f 477/63/3 523/63/3 528/60/3 476/60/3
f 523/63/3 524/63/3 529/60/3 528/60/3
f 524/63/3 525/63/3 530/60/3 529/60/3
f 606/63/3 526/59/3 531/60/3 607/60/3
f 526/59/3 527/59/3 532/60/3 531/60/3
f 476/60/3 528/60/3 533/61/3 475/61/3
f 528/60/3 529/60/3 534/61/3 533/61/3
f 529/60/3 530/60/3 535/61/3 534/61/3
f 607/60/3 531/60/3 536/61/3 608/61/3
f 531/60/3 532/60/3 537/61/3 536/61/3
f 475/61/3 533/61/3 538/62/3 474/62/3
f 533/64/3 534/64/3 539/65/3 538/65/3
f 534/61/3 535/61/3 540/62/3 539/62/3
f 608/61/3 536/61/3 541/62/3 609/62/3
f 536/61/3 537/61/3 542/62/3 541/62/3
f 474/62/3 538/62/3 543/4/3 473/4/3
f 538/65/3 539/65/3 544/66/3 543/66/3
f 539/62/3 540/62/3 545/4/3 544/4/3
f 609/62/3 541/62/3 546/4/3 610/4/3
f 541/62/3 542/62/3 547/4/3 546/4/3
f 473/4/3 543/4/3 483/3/3 468/3/3
f 543/66/3 544/66/3 484/67/3 483/67/3
f 544/4/3 545/4/3 485/3/3 484/3/3
f 610/4/3 546/4/3 486/3/3 603/3/3
f 546/4/3 547/4/3 487/3/3 486/3/3
f 631/43/1 555/61/1 557/62/1 639/48/1
f 632/40/1 554/60/1 555/61/1 631/43/1
f 633/68/1 556/63/1 554/60/1 632/40/1
f 635/34/1 548/35/1 556/63/1 633/68/1
f 477/63/3 560/63/3 561/35/3 467/35/3
f 735/69/4 738/69/4 571/54/4 558/54/4
f 716/31/6 736/31/6 118/70/6 7/70/6
f 476/60/3 567/60/3 560/63/3 477/63/3
f 634/1/4 638/1/4 564/4/4 473/4/4
f 592/5/2 818/5/2 820/5/2 645/5/2
f 475/61/3 566/61/3 567/60/3 476/60/3
f 645/5/2 820/5/2 823/5/2 562/5/2
f 474/62/3 565/62/3 566/61/3 475/61/3
f 473/4/3 564/4/3 565/62/3 474/62/3
f 558/54/4 571/54/4 570/53/4 559/53/4
f 735/69/1 558/54/1 471/21/1 717/23/1
f 558/54/1 559/53/1 472/16/1 471/21/1
f 637/48/4 639/48/4 557/62/4 565/62/4
f 843/30/4 855/30/4 866/29/4 850/29/4
f 637/48/1 565/62/1 564/4/1 638/1/1
f 562/5/1 823/5/1 822/71/1 835/71/1
f 560/63/3 556/63/3 548/35/3 561/35/3
f 567/60/3 554/60/3 556/63/3 560/63/3
f 566/61/3 555/61/3 554/60/3 567/60/3
f 565/62/3 557/62/3 555/61/3 566/61/3
f 569/50/4 576/50/4 575/49/4 568/49/4
f 737/72/4 739/72/4 576/50/4 569/50/4
f 736/31/6 734/31/6 110/70/6 118/70/6
f 737/72/1 569/50/1 571/54/1 738/69/1
f 569/50/1 568/49/1 570/53/1 571/54/1
f 797/73/3 792/75/3 794/32/3 795/74/3
f 553/32/1 551/33/1 552/76/1 550/75/1
f 796/77/6 793/31/6 382/70/6 103/70/6
f 550/75/1 552/76/1 549/41/1 572/28/1
f 732/78/1 572/28/1 574/45/1 731/79/1
f 572/28/1 549/41/1 573/44/1 574/45/1
f 731/79/1 574/45/1 576/50/1 739/72/1
f 574/45/1 573/44/1 575/49/1 576/50/1
f 747/80/6 740/80/6 577/81/6 598/81/6
f 740/80/5 137/84/5 142/83/5 742/82/5
f 742/82/5 142/83/5 144/39/5 743/38/5
f 591/32/2 598/42/2 577/42/2 493/32/2
f 726/31/5 741/85/5 578/42/5 507/32/5
f 644/9/4 640/9/4 585/8/4 600/8/4
f 600/8/4 585/8/4 586/20/4 601/20/4
f 746/86/4 744/86/4 151/87/4 169/87/4
f 746/13/5 752/89/5 655/88/5 601/20/5
f 644/9/3 658/90/3 657/90/3 643/9/3
f 600/8/5 654/91/5 658/90/5 644/9/5
f 612/8/1 648/91/1 651/88/1 613/20/1
f 642/9/3 656/90/3 659/90/3 646/9/3
f 646/9/1 659/90/1 648/91/1 612/8/1
f 601/20/5 655/88/5 654/91/5 600/8/5
f 748/13/1 753/89/1 224/92/1 183/12/1
f 643/9/3 657/90/3 656/90/3 642/9/3
f 507/32/2 578/42/2 598/42/2 591/32/2
f 741/80/6 747/80/6 598/81/6 578/81/6
f 542/62/3 596/62/3 597/4/3 547/4/3
f 537/61/3 595/61/3 596/62/3 542/62/3
f 532/60/3 594/60/3 595/61/3 537/61/3
f 527/59/3 593/59/3 594/60/3 532/60/3
f 478/35/3 590/35/3 593/59/3 527/59/3
f 839/30/3 816/30/3 812/30/3 836/30/3
f 665/14/3 582/15/3 599/15/3 700/14/3
f 837/29/1 824/29/1 817/30/1 838/30/1
f 547/4/3 597/4/3 589/3/3 487/3/3
f 745/13/4 748/13/4 183/12/4 154/12/4
f 587/8/4 612/8/4 613/20/4 588/20/4
f 641/9/4 646/9/4 612/8/4 587/8/4
f 545/4/3 610/4/3 603/3/3 485/3/3
f 540/62/3 609/62/3 610/4/3 545/4/3
f 535/61/3 608/61/3 609/62/3 540/62/3
f 530/60/3 607/60/3 608/61/3 535/61/3
f 525/63/3 606/63/3 607/60/3 530/60/3
f 480/35/3 602/35/3 606/63/3 525/63/3
f 623/34/6 647/34/6 602/35/6 480/35/6
f 505/32/6 604/32/6 605/33/6 510/33/6
f 724/31/6 749/31/6 604/32/6 505/32/6
f 660/14/3 584/15/3 611/15/3 705/14/3
f 510/33/6 605/33/6 647/34/6 623/34/6
f 583/15/4 611/15/4 646/9/4 641/9/4
f 838/30/3 817/30/3 816/30/3 839/30/3
f 581/15/4 599/15/4 644/9/4 643/9/4
f 584/15/4 581/15/4 643/9/4 642/9/4
f 611/15/4 584/15/4 642/9/4 646/9/4
f 599/15/4 582/15/4 640/9/4 644/9/4
f 841/5/2 829/5/2 826/5/2 842/5/2
f 568/49/1 637/48/1 638/1/1 570/53/1
f 568/49/4 575/49/4 639/48/4 637/48/4
f 845/30/3 830/30/3 831/30/3 843/30/3
f 559/53/4 570/53/4 638/1/4 634/1/4
f 551/33/1 635/34/1 633/68/1 552/76/1
f 552/76/1 633/68/1 632/40/1 549/41/1
f 549/41/1 632/40/1 631/43/1 573/44/1
f 573/44/1 631/43/1 639/48/1 575/49/1
f 488/4/5 630/1/5 617/2/5 466/3/5
f 489/62/5 629/48/5 630/1/5 488/4/5
f 490/61/5 628/43/5 629/48/5 489/62/5
f 491/60/5 627/40/5 628/43/5 490/61/5
f 492/59/5 626/36/5 627/40/5 491/60/5
f 465/35/5 615/34/5 626/36/5 492/59/5
f 511/33/6 512/33/6 625/34/6 624/34/6
f 605/33/6 511/33/6 624/34/6 647/34/6
f 509/33/6 510/33/6 623/34/6 622/34/6
f 508/33/6 509/33/6 622/34/6 621/34/6
f 469/33/6 508/33/6 621/34/6 616/34/6
f 691/7/5 585/8/5 640/9/5 710/6/5
f 484/3/4 485/3/4 620/2/4 619/2/4
f 483/67/4 484/67/4 619/17/4 618/17/4
f 468/3/4 483/3/4 618/2/4 614/2/4
f 670/14/1 583/15/1 641/9/1 715/6/1
f 844/30/3 833/30/3 830/30/3 845/30/3
f 559/53/1 634/1/1 614/2/1 472/16/1
f 659/90/4 656/90/4 649/91/4 648/91/4
f 656/90/4 657/90/4 650/91/4 649/91/4
f 648/91/4 649/91/4 652/88/4 651/88/4
f 649/91/4 650/91/4 653/88/4 652/88/4
f 753/89/4 750/89/4 225/92/4 224/92/4
f 750/89/4 751/89/4 226/92/4 225/92/4
f 751/89/4 752/89/4 229/92/4 226/92/4
f 650/91/4 654/91/4 655/88/4 653/88/4
f 657/90/4 658/90/4 654/91/4 650/91/4
f 485/3/1 666/94/1 711/93/1 620/2/1
f 666/94/1 667/96/1 712/95/1 711/93/1
f 667/96/1 668/98/1 713/97/1 712/95/1
f 668/98/1 669/100/1 714/99/1 713/97/1
f 669/100/1 670/14/1 715/6/1 714/99/1
f 495/16/5 695/101/5 706/93/5 617/2/5
f 695/101/5 694/102/5 707/95/5 706/93/5
f 694/102/5 693/103/5 708/97/5 707/95/5
f 693/103/5 692/104/5 709/99/5 708/97/5
f 692/104/5 691/7/5 710/6/5 709/99/5
f 486/105/6 772/105/6 771/105/6 603/105/6
f 704/106/1 787/106/1 788/107/1 705/107/1
f 690/107/5 783/107/5 782/106/5 689/106/5
f 703/108/1 786/108/1 787/106/1 704/106/1
f 689/106/5 782/106/5 781/108/5 688/108/5
f 466/3/3 661/94/3 696/94/3 589/3/3
f 661/94/3 662/96/3 697/96/3 696/94/3
f 662/96/3 663/98/3 698/98/3 697/96/3
f 663/98/3 664/100/3 699/100/3 698/98/3
f 664/100/3 665/14/3 700/14/3 699/100/3
f 617/2/5 706/93/5 661/94/5 466/3/5
f 706/93/5 707/95/5 662/96/5 661/94/5
f 707/95/5 708/97/5 663/98/5 662/96/5
f 708/97/5 709/99/5 664/100/5 663/98/5
f 709/99/5 710/6/5 665/14/5 664/100/5
f 589/3/3 696/94/3 686/94/3 487/3/3
f 696/94/3 697/96/3 687/96/3 686/94/3
f 697/96/3 698/98/3 688/98/3 687/96/3
f 698/98/3 699/100/3 689/100/3 688/98/3
f 699/100/3 700/14/3 690/14/3 689/100/3
f 499/16/1 680/101/1 681/109/1 502/21/1
f 680/101/1 679/102/1 682/110/1 681/109/1
f 679/102/1 678/103/1 683/111/1 682/110/1
f 678/103/1 677/104/1 684/112/1 683/111/1
f 677/104/1 676/7/1 685/19/1 684/112/1
f 496/21/5 675/109/5 695/101/5 495/16/5
f 675/109/5 674/110/5 694/102/5 695/101/5
f 674/110/5 673/111/5 693/103/5 694/102/5
f 673/113/5 672/116/5 692/115/5 693/114/5
f 672/116/5 671/118/5 691/117/5 692/115/5
f 603/3/3 701/94/3 666/94/3 485/3/3
f 701/94/3 702/96/3 667/96/3 666/94/3
f 702/96/3 703/98/3 668/98/3 667/96/3
f 703/98/3 704/100/3 669/100/3 668/98/3
f 704/100/3 705/14/3 670/14/3 669/100/3
f 718/57/5 754/121/5 675/120/5 496/119/5
f 755/122/4 768/122/4 348/123/4 237/123/4
f 674/124/3 764/124/3 763/125/3 673/125/3
f 755/126/5 756/129/5 672/128/5 673/127/5
f 756/130/5 757/131/5 671/118/5 672/116/5
f 660/107/4 775/107/4 783/107/4 690/107/4
f 702/132/1 785/132/1 786/108/1 703/108/1
f 688/108/5 781/108/5 780/132/5 687/132/5
f 701/133/1 784/133/1 785/132/1 702/132/1
f 687/132/5 780/132/5 779/133/5 686/133/5
f 721/23/1 758/135/1 240/134/1 44/24/1
f 758/135/1 759/137/1 241/136/1 240/134/1
f 759/137/1 760/139/1 242/138/1 241/136/1
f 760/139/1 761/141/1 243/140/1 242/138/1
f 761/141/1 762/10/1 244/11/1 243/140/1
f 620/2/1 711/93/1 680/101/1 499/16/1
f 711/93/1 712/95/1 679/102/1 680/101/1
f 712/95/1 713/97/1 678/103/1 679/102/1
f 713/97/1 714/99/1 677/104/1 678/103/1
f 714/99/1 715/6/1 676/7/1 677/104/1
f 684/112/1 685/19/1 762/10/1 761/141/1
f 683/111/1 684/112/1 761/141/1 760/139/1
f 682/110/1 683/111/1 760/139/1 759/137/1
f 681/109/1 682/110/1 759/137/1 758/135/1
f 502/21/1 681/109/1 758/135/1 721/23/1
f 236/142/5 235/145/5 757/144/5 756/143/5
f 237/146/5 236/142/5 756/143/5 755/147/5
f 754/148/6 766/148/6 765/149/6 675/149/6
f 673/150/4 763/150/4 768/151/4 755/151/4
f 35/58/5 239/152/5 754/121/5 718/57/5
f 653/88/4 655/88/4 752/89/4 751/89/4
f 652/88/4 653/88/4 751/89/4 750/89/4
f 651/88/4 652/88/4 750/89/4 753/89/4
f 47/70/6 172/70/6 749/31/6 724/31/6
f 588/20/4 613/20/4 748/13/4 745/13/4
f 139/84/6 164/84/6 747/80/6 741/80/6
f 613/20/1 651/88/1 753/89/1 748/13/1
f 169/12/5 229/92/5 752/89/5 746/13/5
f 601/20/4 586/20/4 744/13/4 746/13/4
f 49/70/5 139/153/5 741/85/5 726/31/5
f 579/154/5 742/82/5 743/38/5 580/155/5
f 577/81/5 740/80/5 742/82/5 579/154/5
f 164/84/6 137/84/6 740/80/6 747/80/6
f 132/156/1 731/79/1 739/72/1 135/157/1
f 129/158/1 732/78/1 731/79/1 132/156/1
f 394/158/4 407/158/4 810/78/4 800/78/4
f 795/74/6 794/32/6 793/31/6 796/77/6
f 124/157/1 737/72/1 738/69/1 127/159/1
f 563/32/6 553/32/6 734/31/6 736/31/6
f 124/157/4 135/157/4 739/72/4 737/72/4
f 111/159/1 735/69/1 717/23/1 8/24/1
f 470/32/6 563/32/6 736/31/6 716/31/6
f 111/159/4 127/159/4 738/69/4 735/69/4
f 522/160/5 730/55/5 718/57/5 496/119/5
f 520/161/5 729/51/5 730/55/5 522/160/5
f 518/162/5 728/46/5 729/51/5 520/161/5
f 516/155/5 727/38/5 728/46/5 518/162/5
f 516/155/6 580/155/6 743/38/6 727/38/6
f 48/70/6 49/70/6 726/31/6 725/31/6
f 172/70/6 48/70/6 725/31/6 749/31/6
f 46/70/6 47/70/6 724/31/6 723/31/6
f 45/70/6 46/70/6 723/31/6 722/31/6
f 7/70/6 45/70/6 722/31/6 716/31/6
f 501/21/4 502/21/4 721/23/4 720/23/4
f 500/22/4 501/22/4 720/25/4 719/25/4
f 471/21/4 500/21/4 719/23/4 717/23/4
f 235/163/5 151/87/5 744/86/5 757/164/5
f 685/19/1 588/20/1 745/13/1 762/10/1
f 766/148/5 767/165/5 764/124/5 765/149/5
f 767/165/5 768/122/5 763/125/5 764/124/5
f 767/166/3 769/166/3 770/167/3 768/167/3
f 350/168/5 349/169/5 767/165/5 766/148/5
f 675/149/3 765/149/3 764/124/3 674/124/3
f 239/168/6 350/168/6 766/148/6 754/148/6
f 339/170/5 238/171/5 770/167/5 769/166/5
f 768/167/4 770/167/4 238/171/4 348/171/4
f 349/170/6 339/170/6 769/166/6 767/166/6
f 772/105/3 774/133/3 784/133/3 771/105/3
f 774/133/3 778/132/3 785/132/3 784/133/3
f 778/132/3 777/108/3 786/108/3 785/132/3
f 777/108/3 776/106/3 787/106/3 786/108/3
f 776/106/3 775/107/3 788/107/3 787/106/3
f 773/105/3 779/133/3 774/133/3 772/105/3
f 779/133/3 780/132/3 778/132/3 774/133/3
f 780/132/3 781/108/3 777/108/3 778/132/3
f 781/108/3 782/106/3 776/106/3 777/108/3
f 782/106/3 783/107/3 775/107/3 776/106/3
f 487/105/6 773/105/6 772/105/6 486/105/6
f 705/107/4 788/107/4 775/107/4 660/107/4
f 686/133/5 779/133/5 773/105/5 487/105/5
f 603/105/1 771/105/1 784/133/1 701/133/1
f 793/31/1 794/32/1 792/75/1 791/172/1
f 791/172/1 792/75/1 790/28/1 789/78/1
f 383/173/1 791/172/1 789/78/1 385/158/1
f 382/70/1 793/31/1 791/172/1 383/173/1
f 798/174/3 790/28/3 792/75/3 797/73/3
f 805/174/3 802/174/3 801/28/3 803/175/3
f 732/78/4 733/78/4 798/174/4 572/28/4
f 572/28/3 798/174/3 797/73/3 550/75/3
f 553/32/6 795/74/6 796/77/6 734/31/6
f 129/158/4 386/176/4 733/78/4 732/78/4
f 734/31/6 796/77/6 103/70/6 110/70/6
f 550/75/3 797/73/3 795/74/3 553/32/3
f 395/176/4 394/158/4 800/78/4 799/78/4
f 799/78/4 800/78/4 801/28/4 802/174/4
f 806/78/5 799/78/5 802/174/5 805/174/5
f 801/28/3 808/28/3 807/175/3 803/175/3
f 402/176/5 395/176/5 799/78/5 806/78/5
f 386/176/5 402/176/5 806/78/5 733/78/5
f 789/78/1 804/78/1 401/158/1 385/158/1
f 733/78/5 806/78/5 805/174/5 798/174/5
f 798/174/3 805/174/3 803/175/3 790/28/3
f 790/28/1 803/175/1 804/78/1 789/78/1
f 807/175/1 808/28/1 810/78/1 809/78/1
f 809/78/1 810/78/1 407/158/1 408/158/1
f 804/78/6 809/78/6 408/158/6 401/158/6
f 800/78/4 810/78/4 808/28/4 801/28/4
f 803/175/6 807/175/6 809/78/6 804/78/6
f 834/29/6 811/29/6 812/30/6 816/30/6
f 820/5/6 818/5/6 819/71/6 821/71/6
f 814/71/6 828/71/6 829/5/6 815/5/6
f 813/29/6 832/29/6 828/71/6 814/71/6
f 828/71/6 825/71/6 826/5/6 829/5/6
f 832/29/6 827/29/6 825/71/6 828/71/6
f 823/5/6 820/5/6 821/71/6 822/71/6
f 824/29/6 834/29/6 816/30/6 817/30/6
f 822/71/6 821/71/6 834/29/6 824/29/6
f 830/30/6 833/30/6 827/29/6 832/29/6
f 831/30/6 830/30/6 832/29/6 813/29/6
f 821/71/6 819/71/6 811/29/6 834/29/6
f 831/30/3 856/30/3 855/30/3 843/30/3
f 842/5/1 826/5/1 825/71/1 848/71/1
f 813/29/6 858/29/6 856/30/6 831/30/6
f 592/5/2 851/5/2 852/5/2 818/5/2
f 848/71/1 825/71/1 827/29/1 846/29/1
f 815/5/6 860/5/6 859/71/6 814/71/6
f 819/71/6 861/71/6 857/29/6 811/29/6
f 835/71/1 822/71/1 824/29/1 837/29/1
f 512/33/1 835/33/1 837/34/1 625/34/1
f 615/34/5 840/34/5 636/33/5 494/33/5
f 465/35/5 836/35/5 840/34/5 615/34/5
f 478/35/3 838/35/3 839/35/3 590/35/3
f 625/34/1 837/34/1 838/35/1 478/35/1
f 590/35/3 839/35/3 836/35/3 465/35/3
f 507/32/1 562/32/1 835/33/1 512/33/1
f 494/33/5 636/33/5 592/32/5 493/32/5
f 591/32/2 645/32/2 562/32/2 507/32/2
f 493/32/2 592/32/2 645/32/2 591/32/2
f 467/35/5 843/35/5 850/34/5 616/34/5
f 469/33/5 849/33/5 847/32/5 470/32/5
f 551/33/1 848/33/1 846/34/1 635/34/1
f 616/34/5 850/34/5 849/33/5 469/33/5
f 553/32/1 842/32/1 848/33/1 551/33/1
f 548/35/3 844/35/3 845/35/3 561/35/3
f 561/35/3 845/35/3 843/35/3 467/35/3
f 563/32/2 841/32/2 842/32/2 553/32/2
f 635/34/1 846/34/1 844/35/1 548/35/1
f 470/32/2 847/32/2 841/32/2 563/32/2
f 864/71/5 861/71/5 852/5/5 851/5/5
f 853/30/5 854/30/5 857/29/5 862/29/5
f 866/29/5 858/29/5 859/71/5 863/71/5
f 862/29/5 857/29/5 861/71/5 864/71/5
f 863/71/5 859/71/5 860/5/5 865/5/5
f 855/30/5 856/30/5 858/29/5 866/29/5
f 818/5/6 852/5/6 861/71/6 819/71/6
f 849/71/4 863/71/4 865/5/4 847/5/4
f 636/71/4 864/71/4 851/5/4 592/5/4
f 812/30/3 854/30/3 853/30/3 836/30/3
f 850/29/4 866/29/4 863/71/4 849/71/4
f 840/29/4 862/29/4 864/71/4 636/71/4
f 847/5/2 865/5/2 860/5/2 815/5/2
f 811/29/6 857/29/6 854/30/6 812/30/6
f 836/30/4 853/30/4 862/29/4 840/29/4
f 814/71/6 859/71/6 858/29/6 813/29/6
