# Blender 3.6.0
# www.blender.org
mtllib 8.mtl
o Cube.022
v 0.232361 0.125818 -0.232770
v 0.232361 0.097748 -0.260841
v 0.232361 0.125818 -0.260841
v 0.227683 0.097748 -0.260841
v 0.223004 0.097748 -0.260841
v 0.218326 0.097748 -0.260841
v 0.218326 0.125818 -0.260841
v 0.223004 0.125818 -0.260841
v 0.227683 0.125818 -0.260841
v 0.232361 0.121140 -0.260841
v 0.232361 0.116461 -0.260841
v 0.232361 0.111783 -0.260841
v 0.232361 0.107104 -0.260841
v 0.232361 0.102426 -0.260841
v 0.232361 0.097748 -0.237448
v 0.232361 0.097748 -0.242127
v 0.232361 0.097748 -0.246805
v 0.232361 0.097748 -0.251484
v 0.232361 0.097748 -0.256162
v 0.232361 0.125818 -0.256162
v 0.232361 0.125818 -0.251484
v 0.232361 0.125818 -0.246805
v 0.232361 0.125818 -0.242127
v 0.232361 0.125818 -0.237448
v 0.232361 0.121140 -0.232770
v 0.232361 0.116461 -0.232770
v 0.232361 0.111783 -0.232770
v 0.232361 0.107104 -0.232770
v 0.232361 0.102426 -0.232770
v 0.227683 0.125818 -0.232770
v 0.223004 0.125818 -0.232770
v 0.218326 0.125818 -0.232770
v 0.227683 0.125818 -0.256162
v 0.227683 0.125818 -0.251484
v 0.227683 0.125818 -0.246805
v 0.227683 0.125818 -0.242127
v 0.227683 0.125818 -0.237448
v 0.223004 0.125818 -0.256162
v 0.223004 0.125818 -0.251484
v 0.223004 0.125818 -0.246805
v 0.223004 0.125818 -0.242127
v 0.223004 0.125818 -0.237448
v 0.218326 0.125818 -0.256162
v 0.218326 0.125818 -0.251484
v 0.218326 0.125818 -0.246805
v 0.218326 0.125818 -0.242127
v 0.218326 0.125818 -0.237448
v 0.227683 0.102426 -0.232770
v 0.218326 0.102426 -0.232770
v 0.227683 0.107104 -0.232770
v 0.223004 0.107104 -0.232770
v 0.218326 0.107104 -0.232770
v 0.227683 0.111783 -0.232770
v 0.223004 0.111783 -0.232770
v 0.218326 0.107104 -0.229697
v 0.227683 0.116461 -0.232770
v 0.223004 0.116461 -0.232770
v 0.220665 0.107104 -0.229697
v 0.227683 0.121140 -0.232770
v 0.223004 0.121140 -0.232770
v 0.232361 0.102426 -0.256162
v 0.232361 0.102426 -0.251484
v 0.232361 0.102426 -0.246805
v 0.232361 0.102426 -0.242127
v 0.232361 0.102426 -0.237448
v 0.232361 0.107104 -0.256162
v 0.232361 0.107104 -0.251484
v 0.232361 0.107104 -0.246805
v 0.232361 0.107104 -0.242127
v 0.232361 0.107104 -0.237448
v 0.232361 0.111783 -0.256162
v 0.232361 0.111783 -0.251484
v 0.232361 0.111783 -0.246805
v 0.232361 0.111783 -0.242127
v 0.232361 0.111783 -0.237448
v 0.232361 0.116461 -0.256162
v 0.232361 0.116461 -0.251484
v 0.232361 0.116461 -0.246805
v 0.232361 0.116461 -0.242127
v 0.232361 0.116461 -0.237448
v 0.232361 0.121140 -0.256162
v 0.232361 0.121140 -0.251484
v 0.232361 0.121140 -0.246805
v 0.232361 0.121140 -0.242127
v 0.232361 0.121140 -0.237448
v 0.218326 0.102426 -0.260841
v 0.223004 0.102426 -0.260841
v 0.227683 0.102426 -0.260841
v 0.218326 0.107104 -0.260841
v 0.223004 0.107104 -0.260841
v 0.227683 0.107104 -0.260841
v 0.218326 0.111783 -0.260841
v 0.223004 0.111783 -0.260841
v 0.227683 0.111783 -0.260841
v 0.218326 0.116461 -0.260841
v 0.223004 0.116461 -0.260841
v 0.227683 0.116461 -0.260841
v 0.218326 0.121140 -0.260841
v 0.223004 0.121140 -0.260841
v 0.227683 0.121140 -0.260841
v 0.227683 0.125818 -0.228094
v 0.223004 0.125818 -0.228094
v 0.218326 0.125818 -0.228094
v 0.223004 0.116461 -0.228094
v 0.218326 0.116461 -0.228094
v 0.227683 0.121140 -0.228094
v 0.223004 0.121140 -0.228094
v 0.218326 0.121140 -0.228094
v 0.234986 0.121140 -0.232770
v 0.234986 0.116461 -0.232770
v 0.234986 0.111783 -0.232770
v 0.234986 0.107104 -0.232770
v 0.234986 0.107104 -0.237448
v 0.234986 0.111783 -0.237448
v 0.234986 0.116461 -0.237448
v 0.234986 0.121140 -0.237448
v 0.237770 0.116461 -0.232770
v 0.237770 0.111783 -0.232770
v 0.237770 0.111783 -0.237448
v 0.237770 0.116461 -0.237448
v 0.220665 0.097748 -0.260841
v 0.220665 0.125818 -0.260841
v 0.220665 0.125818 -0.232770
v 0.220665 0.125818 -0.256162
v 0.220665 0.125818 -0.251484
v 0.220665 0.125818 -0.246805
v 0.220665 0.125818 -0.242127
v 0.220665 0.125818 -0.237448
v 0.220665 0.102426 -0.232770
v 0.220665 0.107104 -0.232770
v 0.220665 0.111783 -0.232770
v 0.220665 0.116461 -0.232770
v 0.220665 0.102426 -0.260841
v 0.220665 0.107104 -0.260841
v 0.220665 0.111783 -0.260841
v 0.220665 0.116461 -0.260841
v 0.220665 0.121140 -0.260841
v 0.220665 0.125818 -0.228094
v 0.220665 0.121140 -0.228094
v 0.220665 0.116461 -0.228140
v 0.220665 0.111783 -0.229697
v 0.218326 0.111783 -0.229697
v 0.220665 0.116461 -0.229697
v 0.218326 0.116461 -0.229697
v 0.232361 0.114122 -0.260841
v 0.232361 0.114122 -0.232770
v 0.227683 0.114122 -0.232770
v 0.223004 0.114122 -0.232770
v 0.232361 0.114122 -0.256162
v 0.232361 0.114122 -0.251484
v 0.232361 0.114122 -0.246805
v 0.232361 0.114122 -0.242127
v 0.232361 0.114122 -0.237448
v 0.218326 0.114122 -0.260841
v 0.223004 0.114122 -0.260841
v 0.227683 0.114122 -0.260841
v 0.234986 0.114122 -0.232770
v 0.234986 0.114122 -0.237448
v 0.237770 0.114122 -0.232770
v 0.237770 0.114122 -0.237448
v 0.220665 0.114122 -0.260841
v 0.220665 0.114122 -0.232770
v 0.218326 0.114122 -0.229697
v 0.220665 0.114122 -0.229697
v 0.232361 0.102426 -0.236770
v 0.232361 0.097748 -0.236770
v 0.227683 0.097748 -0.236770
v 0.220665 0.097748 -0.236770
v 0.223004 0.097748 -0.236770
v 0.227683 0.102426 -0.236770
v 0.220665 0.102426 -0.236770
v 0.218326 0.102426 -0.236770
v 0.218326 0.097748 -0.236770
v 0.227683 0.099803 -0.232770
v 0.223004 0.099803 -0.232770
v 0.223004 0.099803 -0.236770
v 0.220665 0.099803 -0.232770
v 0.220665 0.099803 -0.236770
v 0.227683 0.099803 -0.236770
v 0.223004 0.102426 -0.232770
v 0.231750 0.097748 -0.255487
v 0.231750 0.097748 -0.259806
v 0.227431 0.097748 -0.259806
v 0.223112 0.097748 -0.259806
v 0.220953 0.097748 -0.259806
v 0.218326 0.097748 -0.259806
v 0.231750 0.097748 -0.237585
v 0.231750 0.097748 -0.238211
v 0.231750 0.097748 -0.242530
v 0.231750 0.097748 -0.246849
v 0.231750 0.097748 -0.251168
v 0.218326 0.097748 -0.237585
v 0.223112 0.097748 -0.237585
v 0.227431 0.097748 -0.237585
v 0.220953 0.097748 -0.237585
v 0.231750 0.096264 -0.255487
v 0.231750 0.096264 -0.259806
v 0.227431 0.096264 -0.259806
v 0.223112 0.096264 -0.259806
v 0.220953 0.096264 -0.259806
v 0.218326 0.096264 -0.259806
v 0.231750 0.096264 -0.237585
v 0.231750 0.096264 -0.238211
v 0.231750 0.096264 -0.242530
v 0.231750 0.096264 -0.246849
v 0.231750 0.096264 -0.251168
v 0.218326 0.096264 -0.237585
v 0.223112 0.096264 -0.237585
v 0.227431 0.096264 -0.237585
v 0.220953 0.096264 -0.237585
v 0.233638 0.096264 -0.257546
v 0.233638 0.096264 -0.262962
v 0.228222 0.096264 -0.262962
v 0.222807 0.096264 -0.262962
v 0.220099 0.096264 -0.262962
v 0.218326 0.096264 -0.262962
v 0.233638 0.096264 -0.235099
v 0.233638 0.096264 -0.235885
v 0.233638 0.096264 -0.241300
v 0.233638 0.096264 -0.246715
v 0.233638 0.096264 -0.252131
v 0.218326 0.096264 -0.235099
v 0.222807 0.096264 -0.235099
v 0.228222 0.096264 -0.235099
v 0.220099 0.096264 -0.235099
v 0.233638 0.061859 -0.257546
v 0.233638 0.061859 -0.262962
v 0.228222 0.061859 -0.262962
v 0.222807 0.061859 -0.262962
v 0.220099 0.061859 -0.262962
v 0.218326 0.061859 -0.262962
v 0.233638 0.061859 -0.235099
v 0.233638 0.061859 -0.235885
v 0.233638 0.061859 -0.241300
v 0.233638 0.061859 -0.246715
v 0.233638 0.061859 -0.252131
v 0.218326 0.061859 -0.235885
v 0.218326 0.061859 -0.235099
v 0.218326 0.061859 -0.257546
v 0.218326 0.061859 -0.252131
v 0.218326 0.061859 -0.246715
v 0.218326 0.061859 -0.241300
v 0.222807 0.061859 -0.235885
v 0.222807 0.061859 -0.235099
v 0.222807 0.061859 -0.257546
v 0.222807 0.052822 -0.246715
v 0.222807 0.052822 -0.252131
v 0.222807 0.061859 -0.241300
v 0.228222 0.061859 -0.235885
v 0.228222 0.061859 -0.235099
v 0.228222 0.061859 -0.257546
v 0.233638 0.052822 -0.252131
v 0.233638 0.052822 -0.246715
v 0.228222 0.061859 -0.241300
v 0.220099 0.061859 -0.257546
v 0.220099 0.061859 -0.252131
v 0.220099 0.061859 -0.246715
v 0.220099 0.061859 -0.241300
v 0.220099 0.061859 -0.235885
v 0.220099 0.061859 -0.235099
v 0.222807 0.067594 -0.267715
v 0.218326 0.061859 -0.267715
v 0.222807 0.079062 -0.262962
v 0.222807 0.084796 -0.262962
v 0.222807 0.090530 -0.262962
v 0.220099 0.090530 -0.262962
v 0.220099 0.084796 -0.262962
v 0.220099 0.079062 -0.262962
v 0.222807 0.061859 -0.267715
v 0.228222 0.061859 -0.267715
v 0.233638 0.067594 -0.235885
v 0.233638 0.073328 -0.235885
v 0.233638 0.079062 -0.235885
v 0.233638 0.084796 -0.235885
v 0.233638 0.090530 -0.235885
v 0.233638 0.067594 -0.241300
v 0.233638 0.073328 -0.241300
v 0.233638 0.079062 -0.241300
v 0.233638 0.084796 -0.241300
v 0.233638 0.090530 -0.241300
v 0.233638 0.090530 -0.246715
v 0.233638 0.084796 -0.246715
v 0.233638 0.079062 -0.246715
v 0.233638 0.073328 -0.246715
v 0.233638 0.067594 -0.246715
v 0.218326 0.090530 -0.235099
v 0.218326 0.084796 -0.235099
v 0.218326 0.079062 -0.235099
v 0.218326 0.073328 -0.235099
v 0.218326 0.067594 -0.235099
v 0.222807 0.067594 -0.235099
v 0.222807 0.073328 -0.235099
v 0.222807 0.079062 -0.235099
v 0.222807 0.084796 -0.235099
v 0.222807 0.090530 -0.235099
v 0.220099 0.090530 -0.235099
v 0.220099 0.084796 -0.235099
v 0.220099 0.079062 -0.235099
v 0.220099 0.073328 -0.235099
v 0.220099 0.067594 -0.235099
v 0.220099 0.061859 -0.267715
v 0.220099 0.067594 -0.267715
v 0.218326 0.079062 -0.262962
v 0.218326 0.084796 -0.262962
v 0.218326 0.090530 -0.262962
v 0.233638 0.067594 -0.235099
v 0.233638 0.073328 -0.235099
v 0.233638 0.079062 -0.235099
v 0.233638 0.084796 -0.235099
v 0.233638 0.090530 -0.235099
v 0.228222 0.090530 -0.235099
v 0.228222 0.084796 -0.235099
v 0.228222 0.079062 -0.235099
v 0.228222 0.073328 -0.235099
v 0.228222 0.067594 -0.235099
v 0.228222 0.067594 -0.262962
v 0.228222 0.073328 -0.262962
v 0.228222 0.079062 -0.262962
v 0.228222 0.084796 -0.262962
v 0.228222 0.090530 -0.262962
v 0.233638 0.067594 -0.262962
v 0.233638 0.073328 -0.262962
v 0.233638 0.079062 -0.262962
v 0.233638 0.084796 -0.262962
v 0.233638 0.090530 -0.262962
v 0.233638 0.090530 -0.257546
v 0.233638 0.067594 -0.257546
v 0.233638 0.067594 -0.252131
v 0.233638 0.073328 -0.252131
v 0.233638 0.090530 -0.252131
v 0.238887 0.067594 -0.257546
v 0.238887 0.061859 -0.257546
v 0.238887 0.061859 -0.262962
v 0.238887 0.084796 -0.241300
v 0.238887 0.090530 -0.241300
v 0.238887 0.090530 -0.246715
v 0.238887 0.084796 -0.246715
v 0.238887 0.079062 -0.246715
v 0.238887 0.073328 -0.246715
v 0.238887 0.067594 -0.262962
v 0.238887 0.073328 -0.262962
v 0.238887 0.079062 -0.262962
v 0.238887 0.084796 -0.262962
v 0.238887 0.090530 -0.262962
v 0.238887 0.090530 -0.257546
v 0.238887 0.084796 -0.257546
v 0.238887 0.079062 -0.257546
v 0.238887 0.073328 -0.257546
v 0.238887 0.067594 -0.252131
v 0.238887 0.073328 -0.252131
v 0.238887 0.079062 -0.252131
v 0.238887 0.084796 -0.252131
v 0.238887 0.090530 -0.252131
v 0.232361 0.128921 -0.242127
v 0.232361 0.128921 -0.237448
v 0.227683 0.128921 -0.242127
v 0.227683 0.128921 -0.237448
v 0.235543 0.125818 -0.242127
v 0.235543 0.125818 -0.237448
v 0.235543 0.128921 -0.242127
v 0.235543 0.128921 -0.237448
v 0.232361 0.131497 -0.242127
v 0.232361 0.131497 -0.237448
v 0.235543 0.131497 -0.242127
v 0.235543 0.131497 -0.237448
v 0.233638 0.057482 -0.241300
v 0.233638 0.057482 -0.246715
v 0.233638 0.057482 -0.252131
v 0.233638 0.057482 -0.257546
v 0.222807 0.057482 -0.257546
v 0.222807 0.057482 -0.252131
v 0.222807 0.057482 -0.246715
v 0.222807 0.057482 -0.241300
v 0.228222 0.057482 -0.257546
v 0.228222 0.057482 -0.252131
v 0.228222 0.057482 -0.246715
v 0.228222 0.057482 -0.241300
v 0.220099 0.057482 -0.257546
v 0.220099 0.057482 -0.252131
v 0.220099 0.057482 -0.246715
v 0.220099 0.057482 -0.241300
v 0.228222 0.052822 -0.252131
v 0.228222 0.052822 -0.246715
v 0.220099 0.052822 -0.252131
v 0.220099 0.052822 -0.246715
v 0.228222 0.055152 -0.252131
v 0.233638 0.055152 -0.252131
v 0.233638 0.055152 -0.246715
v 0.222807 0.055152 -0.252131
v 0.220099 0.055152 -0.246715
v 0.222807 0.055152 -0.246715
v 0.228222 0.055152 -0.246715
v 0.220099 0.055152 -0.252131
v 0.228222 0.052822 -0.234900
v 0.222807 0.052822 -0.234900
v 0.233638 0.052822 -0.234900
v 0.220099 0.052822 -0.234900
v 0.233638 0.055152 -0.234900
v 0.220099 0.055152 -0.234900
v 0.228222 0.055152 -0.234900
v 0.222807 0.055152 -0.234900
v 0.220099 0.061859 -0.269507
v 0.220099 0.061859 -0.264857
v 0.228222 0.061859 -0.264857
v 0.222807 0.061859 -0.264857
v 0.218326 0.061859 -0.264857
v 0.222807 0.067594 -0.269507
v 0.222807 0.073328 -0.264857
v 0.222807 0.079062 -0.264857
v 0.220099 0.079062 -0.264857
v 0.220099 0.073328 -0.264857
v 0.222807 0.061859 -0.269507
v 0.218326 0.073328 -0.264857
v 0.218326 0.079062 -0.264857
v 0.228222 0.067594 -0.264857
v 0.228222 0.073328 -0.264857
v 0.228222 0.079062 -0.264857
v 0.222807 0.073328 -0.267715
v 0.220099 0.073328 -0.267715
v 0.218326 0.067594 -0.267715
v 0.218326 0.073328 -0.267715
v 0.228222 0.067594 -0.267715
v 0.228222 0.073328 -0.267715
v 0.218326 0.061859 -0.269507
v 0.228222 0.061859 -0.269507
v 0.220099 0.067594 -0.269507
v 0.218326 0.067594 -0.269507
v 0.228222 0.067594 -0.269507
v 0.222807 0.059015 -0.267715
v 0.220099 0.059015 -0.267715
v 0.218326 0.059015 -0.267715
v 0.228222 0.059015 -0.267715
v 0.228222 0.059015 -0.269507
v 0.222807 0.059015 -0.269507
v 0.220099 0.059015 -0.269507
v 0.218326 0.059015 -0.269507
v 0.222807 0.061859 -0.271690
v 0.220099 0.061859 -0.271690
v 0.218326 0.061859 -0.271690
v 0.228222 0.061859 -0.271690
v 0.228222 0.059015 -0.271690
v 0.222807 0.059015 -0.271690
v 0.220099 0.059015 -0.271690
v 0.218326 0.059015 -0.271690
v 0.222807 0.061859 -0.275861
v 0.220099 0.061859 -0.275861
v 0.218326 0.061859 -0.275861
v 0.222807 0.059015 -0.275861
v 0.220099 0.059015 -0.275861
v 0.218326 0.059015 -0.275861
v 0.220099 0.061859 -0.279036
v 0.218326 0.061859 -0.279036
v 0.220099 0.059015 -0.279036
v 0.218326 0.059015 -0.279036
v 0.204291 0.125818 -0.232770
v 0.204291 0.097748 -0.260841
v 0.204291 0.125818 -0.260841
v 0.208969 0.097748 -0.260841
v 0.213647 0.097748 -0.260841
v 0.213647 0.125818 -0.260841
v 0.208969 0.125818 -0.260841
v 0.204291 0.121140 -0.260841
v 0.204291 0.116461 -0.260841
v 0.204291 0.111783 -0.260841
v 0.204291 0.107104 -0.260841
v 0.204291 0.102426 -0.260841
v 0.204291 0.097748 -0.237448
v 0.204291 0.097748 -0.242127
v 0.204291 0.097748 -0.246805
v 0.204291 0.097748 -0.251484
v 0.204291 0.097748 -0.256162
v 0.204291 0.125818 -0.256162
v 0.204291 0.125818 -0.251484
v 0.204291 0.125818 -0.246805
v 0.204291 0.125818 -0.242127
v 0.204291 0.125818 -0.237448
v 0.204291 0.121140 -0.232770
v 0.204291 0.116461 -0.232770
v 0.204291 0.111783 -0.232770
v 0.204291 0.107104 -0.232770
v 0.204291 0.102426 -0.232770
v 0.208969 0.125818 -0.232770
v 0.213647 0.125818 -0.232770
v 0.208969 0.125818 -0.256162
v 0.208969 0.125818 -0.251484
v 0.208969 0.125818 -0.246805
v 0.208969 0.125818 -0.242127
v 0.208969 0.125818 -0.237448
v 0.213647 0.125818 -0.256162
v 0.213647 0.125818 -0.251484
v 0.213647 0.125818 -0.246805
v 0.213647 0.125818 -0.242127
v 0.213647 0.125818 -0.237448
v 0.208969 0.102426 -0.232770
v 0.208969 0.107104 -0.232770
v 0.213647 0.107104 -0.232770
v 0.208969 0.111783 -0.232770
v 0.213647 0.111783 -0.232770
v 0.208969 0.116461 -0.232770
v 0.213647 0.116461 -0.232770
v 0.215987 0.107104 -0.229697
v 0.208969 0.121140 -0.232770
v 0.213647 0.121140 -0.232770
v 0.204291 0.102426 -0.256162
v 0.204291 0.102426 -0.251484
v 0.204291 0.102426 -0.246805
v 0.204291 0.102426 -0.242127
v 0.204291 0.102426 -0.237448
v 0.204291 0.107104 -0.256162
v 0.204291 0.107104 -0.251484
v 0.204291 0.107104 -0.246805
v 0.204291 0.107104 -0.242127
v 0.204291 0.107104 -0.237448
v 0.204291 0.111783 -0.256162
v 0.204291 0.111783 -0.251484
v 0.204291 0.111783 -0.246805
v 0.204291 0.111783 -0.242127
v 0.204291 0.111783 -0.237448
v 0.204291 0.116461 -0.256162
v 0.204291 0.116461 -0.251484
v 0.204291 0.116461 -0.246805
v 0.204291 0.116461 -0.242127
v 0.204291 0.116461 -0.237448
v 0.204291 0.121140 -0.256162
v 0.204291 0.121140 -0.251484
v 0.204291 0.121140 -0.246805
v 0.204291 0.121140 -0.242127
v 0.204291 0.121140 -0.237448
v 0.213647 0.102426 -0.260841
v 0.208969 0.102426 -0.260841
v 0.213647 0.107104 -0.260841
v 0.208969 0.107104 -0.260841
v 0.213647 0.111783 -0.260841
v 0.208969 0.111783 -0.260841
v 0.213647 0.116461 -0.260841
v 0.208969 0.116461 -0.260841
v 0.213647 0.121140 -0.260841
v 0.208969 0.121140 -0.260841
v 0.208969 0.125818 -0.228094
v 0.213647 0.125818 -0.228094
v 0.213647 0.116461 -0.228094
v 0.208969 0.121140 -0.228094
v 0.213647 0.121140 -0.228094
v 0.201666 0.121140 -0.232770
v 0.201666 0.116461 -0.232770
v 0.201666 0.111783 -0.232770
v 0.201666 0.107104 -0.232770
v 0.201666 0.107104 -0.237448
v 0.201666 0.111783 -0.237448
v 0.201666 0.116461 -0.237448
v 0.201666 0.121140 -0.237448
v 0.198882 0.116461 -0.232770
v 0.198882 0.111783 -0.232770
v 0.198882 0.111783 -0.237448
v 0.198882 0.116461 -0.237448
v 0.215987 0.097748 -0.260841
v 0.215987 0.125818 -0.260841
v 0.215987 0.125818 -0.232770
v 0.215987 0.125818 -0.256162
v 0.215987 0.125818 -0.251484
v 0.215987 0.125818 -0.246805
v 0.215987 0.125818 -0.242127
v 0.215987 0.125818 -0.237448
v 0.215987 0.102426 -0.232770
v 0.215987 0.107104 -0.232770
v 0.215987 0.111783 -0.232770
v 0.215987 0.116461 -0.232770
v 0.215987 0.102426 -0.260841
v 0.215987 0.107104 -0.260841
v 0.215987 0.111783 -0.260841
v 0.215987 0.116461 -0.260841
v 0.215987 0.121140 -0.260841
v 0.215987 0.125818 -0.228094
v 0.215987 0.121140 -0.228094
v 0.215987 0.116461 -0.228140
v 0.215987 0.111783 -0.229697
v 0.215987 0.116461 -0.229697
v 0.204291 0.114122 -0.260841
v 0.204291 0.114122 -0.232770
v 0.208969 0.114122 -0.232770
v 0.213647 0.114122 -0.232770
v 0.204291 0.114122 -0.256162
v 0.204291 0.114122 -0.251484
v 0.204291 0.114122 -0.246805
v 0.204291 0.114122 -0.242127
v 0.204291 0.114122 -0.237448
v 0.213647 0.114122 -0.260841
v 0.208969 0.114122 -0.260841
v 0.201666 0.114122 -0.232770
v 0.201666 0.114122 -0.237448
v 0.198882 0.114122 -0.232770
v 0.198882 0.114122 -0.237448
v 0.215987 0.114122 -0.260841
v 0.215987 0.114122 -0.232770
v 0.215987 0.114122 -0.229697
v 0.204291 0.102426 -0.236770
v 0.204291 0.097748 -0.236770
v 0.208969 0.097748 -0.236770
v 0.215987 0.097748 -0.236770
v 0.213647 0.097748 -0.236770
v 0.208969 0.102426 -0.236770
v 0.215987 0.102426 -0.236770
v 0.208969 0.099803 -0.232770
v 0.213647 0.099803 -0.232770
v 0.213647 0.099803 -0.236770
v 0.215987 0.099803 -0.232770
v 0.215987 0.099803 -0.236770
v 0.208969 0.099803 -0.236770
v 0.213647 0.102426 -0.232770
v 0.204902 0.097748 -0.255487
v 0.204902 0.097748 -0.259806
v 0.209221 0.097748 -0.259806
v 0.213540 0.097748 -0.259806
v 0.215699 0.097748 -0.259806
v 0.204902 0.097748 -0.237585
v 0.204902 0.097748 -0.238211
v 0.204902 0.097748 -0.242530
v 0.204902 0.097748 -0.246849
v 0.204902 0.097748 -0.251168
v 0.213540 0.097748 -0.237585
v 0.209221 0.097748 -0.237585
v 0.215699 0.097748 -0.237585
v 0.204902 0.096264 -0.255487
v 0.204902 0.096264 -0.259806
v 0.209221 0.096264 -0.259806
v 0.213540 0.096264 -0.259806
v 0.215699 0.096264 -0.259806
v 0.204902 0.096264 -0.237585
v 0.204902 0.096264 -0.238211
v 0.204902 0.096264 -0.242530
v 0.204902 0.096264 -0.246849
v 0.204902 0.096264 -0.251168
v 0.213540 0.096264 -0.237585
v 0.209221 0.096264 -0.237585
v 0.215699 0.096264 -0.237585
v 0.203014 0.096264 -0.257546
v 0.203014 0.096264 -0.262962
v 0.208429 0.096264 -0.262962
v 0.213845 0.096264 -0.262962
v 0.216553 0.096264 -0.262962
v 0.203014 0.096264 -0.235099
v 0.203014 0.096264 -0.235885
v 0.203014 0.096264 -0.241300
v 0.203014 0.096264 -0.246715
v 0.203014 0.096264 -0.252131
v 0.213845 0.096264 -0.235099
v 0.208429 0.096264 -0.235099
v 0.216553 0.096264 -0.235099
v 0.203014 0.061859 -0.257546
v 0.203014 0.061859 -0.262962
v 0.208429 0.061859 -0.262962
v 0.213845 0.061859 -0.262962
v 0.216553 0.061859 -0.262962
v 0.203014 0.061859 -0.235099
v 0.203014 0.061859 -0.235885
v 0.203014 0.061859 -0.241300
v 0.203014 0.061859 -0.246715
v 0.203014 0.061859 -0.252131
v 0.213845 0.061859 -0.235885
v 0.213845 0.061859 -0.235099
v 0.213845 0.061859 -0.257546
v 0.213845 0.052822 -0.246715
v 0.213845 0.052822 -0.252131
v 0.213845 0.061859 -0.241300
v 0.208429 0.061859 -0.235885
v 0.208429 0.061859 -0.235099
v 0.208429 0.061859 -0.257546
v 0.203014 0.052822 -0.252131
v 0.203014 0.052822 -0.246715
v 0.208429 0.061859 -0.241300
v 0.216553 0.061859 -0.257546
v 0.216553 0.061859 -0.252131
v 0.216553 0.061859 -0.246715
v 0.216553 0.061859 -0.241300
v 0.216553 0.061859 -0.235885
v 0.216553 0.061859 -0.235099
v 0.213845 0.067594 -0.267715
v 0.213845 0.079062 -0.262962
v 0.213845 0.084796 -0.262962
v 0.213845 0.090530 -0.262962
v 0.216553 0.090530 -0.262962
v 0.216553 0.084796 -0.262962
v 0.216553 0.079062 -0.262962
v 0.213845 0.061859 -0.267715
v 0.208429 0.061859 -0.267715
v 0.203014 0.067594 -0.235885
v 0.203014 0.073328 -0.235885
v 0.203014 0.079062 -0.235885
v 0.203014 0.084796 -0.235885
v 0.203014 0.090530 -0.235885
v 0.203014 0.067594 -0.241300
v 0.203014 0.073328 -0.241300
v 0.203014 0.079062 -0.241300
v 0.203014 0.084796 -0.241300
v 0.203014 0.090530 -0.241300
v 0.203014 0.090530 -0.246715
v 0.203014 0.084796 -0.246715
v 0.203014 0.079062 -0.246715
v 0.203014 0.073328 -0.246715
v 0.203014 0.067594 -0.246715
v 0.213845 0.067594 -0.235099
v 0.213845 0.073328 -0.235099
v 0.213845 0.079062 -0.235099
v 0.213845 0.084796 -0.235099
v 0.213845 0.090530 -0.235099
v 0.216553 0.090530 -0.235099
v 0.216553 0.084796 -0.235099
v 0.216553 0.079062 -0.235099
v 0.216553 0.073328 -0.235099
v 0.216553 0.067594 -0.235099
v 0.216553 0.061859 -0.267715
v 0.216553 0.067594 -0.267715
v 0.203014 0.067594 -0.235099
v 0.203014 0.073328 -0.235099
v 0.203014 0.079062 -0.235099
v 0.203014 0.084796 -0.235099
v 0.203014 0.090530 -0.235099
v 0.208429 0.090530 -0.235099
v 0.208429 0.084796 -0.235099
v 0.208429 0.079062 -0.235099
v 0.208429 0.073328 -0.235099
v 0.208429 0.067594 -0.235099
v 0.208429 0.067594 -0.262962
v 0.208429 0.073328 -0.262962
v 0.208429 0.079062 -0.262962
v 0.208429 0.084796 -0.262962
v 0.208429 0.090530 -0.262962
v 0.203014 0.067594 -0.262962
v 0.203014 0.073328 -0.262962
v 0.203014 0.079062 -0.262962
v 0.203014 0.084796 -0.262962
v 0.203014 0.090530 -0.262962
v 0.203014 0.090530 -0.257546
v 0.203014 0.067594 -0.257546
v 0.203014 0.067594 -0.252131
v 0.203014 0.073328 -0.252131
v 0.203014 0.090530 -0.252131
v 0.197765 0.067594 -0.257546
v 0.197765 0.061859 -0.257546
v 0.197765 0.061859 -0.262962
v 0.197765 0.084796 -0.241300
v 0.197765 0.090530 -0.241300
v 0.197765 0.090530 -0.246715
v 0.197765 0.084796 -0.246715
v 0.197765 0.079062 -0.246715
v 0.197765 0.073328 -0.246715
v 0.197765 0.067594 -0.262962
v 0.197765 0.073328 -0.262962
v 0.197765 0.079062 -0.262962
v 0.197765 0.084796 -0.262962
v 0.197765 0.090530 -0.262962
v 0.197765 0.090530 -0.257546
v 0.197765 0.084796 -0.257546
v 0.197765 0.079062 -0.257546
v 0.197765 0.073328 -0.257546
v 0.197765 0.067594 -0.252131
v 0.197765 0.073328 -0.252131
v 0.197765 0.079062 -0.252131
v 0.197765 0.084796 -0.252131
v 0.197765 0.090530 -0.252131
v 0.204291 0.128921 -0.242127
v 0.204291 0.128921 -0.237448
v 0.208969 0.128921 -0.242127
v 0.208969 0.128921 -0.237448
v 0.201109 0.125818 -0.242127
v 0.201109 0.125818 -0.237448
v 0.201109 0.128921 -0.242127
v 0.201109 0.128921 -0.237448
v 0.204291 0.131497 -0.242127
v 0.204291 0.131497 -0.237448
v 0.201109 0.131497 -0.242127
v 0.201109 0.131497 -0.237448
v 0.203014 0.057482 -0.241300
v 0.203014 0.057482 -0.246715
v 0.203014 0.057482 -0.252131
v 0.203014 0.057482 -0.257546
v 0.213845 0.057482 -0.257546
v 0.213845 0.057482 -0.252131
v 0.213845 0.057482 -0.246715
v 0.213845 0.057482 -0.241300
v 0.208429 0.057482 -0.257546
v 0.208429 0.057482 -0.252131
v 0.208429 0.057482 -0.246715
v 0.208429 0.057482 -0.241300
v 0.216553 0.057482 -0.257546
v 0.216553 0.057482 -0.252131
v 0.216553 0.057482 -0.246715
v 0.216553 0.057482 -0.241300
v 0.208429 0.052822 -0.252131
v 0.208429 0.052822 -0.246715
v 0.216553 0.052822 -0.252131
v 0.216553 0.052822 -0.246715
v 0.208429 0.055152 -0.252131
v 0.203014 0.055152 -0.252131
v 0.203014 0.055152 -0.246715
v 0.213845 0.055152 -0.252131
v 0.216553 0.055152 -0.246715
v 0.213845 0.055152 -0.246715
v 0.208429 0.055152 -0.246715
v 0.216553 0.055152 -0.252131
v 0.208429 0.052822 -0.234900
v 0.213845 0.052822 -0.234900
v 0.203014 0.052822 -0.234900
v 0.216553 0.052822 -0.234900
v 0.203014 0.055152 -0.234900
v 0.216553 0.055152 -0.234900
v 0.208429 0.055152 -0.234900
v 0.213845 0.055152 -0.234900
v 0.216553 0.061859 -0.269507
v 0.216553 0.061859 -0.264857
v 0.208429 0.061859 -0.264857
v 0.213845 0.061859 -0.264857
v 0.213845 0.067594 -0.269507
v 0.213845 0.073328 -0.264857
v 0.213845 0.079062 -0.264857
v 0.216553 0.079062 -0.264857
v 0.216553 0.073328 -0.264857
v 0.213845 0.061859 -0.269507
v 0.208429 0.067594 -0.264857
v 0.208429 0.073328 -0.264857
v 0.208429 0.079062 -0.264857
v 0.213845 0.073328 -0.267715
v 0.216553 0.073328 -0.267715
v 0.208429 0.067594 -0.267715
v 0.208429 0.073328 -0.267715
v 0.208429 0.061859 -0.269507
v 0.216553 0.067594 -0.269507
v 0.208429 0.067594 -0.269507
v 0.213845 0.059015 -0.267715
v 0.216553 0.059015 -0.267715
v 0.208429 0.059015 -0.267715
v 0.208429 0.059015 -0.269507
v 0.213845 0.059015 -0.269507
v 0.216553 0.059015 -0.269507
v 0.213845 0.061859 -0.271690
v 0.216553 0.061859 -0.271690
v 0.208429 0.061859 -0.271690
v 0.208429 0.059015 -0.271690
v 0.213845 0.059015 -0.271690
v 0.216553 0.059015 -0.271690
v 0.213845 0.061859 -0.275861
v 0.216553 0.061859 -0.275861
v 0.213845 0.059015 -0.275861
v 0.216553 0.059015 -0.275861
v 0.216553 0.061859 -0.279036
v 0.216553 0.059015 -0.279036
vn -0.0000 -0.0000 -1.0000
vn 1.0000 -0.0000 -0.0000
vn -0.0000 1.0000 -0.0000
vn -0.0000 -1.0000 -0.0000
vn -1.0000 -0.0000 -0.0000
vn -0.0000 -0.0000 1.0000
vn 0.0096 -0.0048 0.9999
vn -0.0096 -0.0048 0.9999
vt 0.423656 0.101016
vt 0.423656 0.103656
vt 0.426296 0.103656
vt 0.426296 0.101016
vt 0.421016 0.103656
vt 0.419697 0.103656
vt 0.418377 0.103656
vt 0.426296 0.087818
vt 0.419697 0.087818
vt 0.421016 0.087818
vt 0.418377 0.087818
vt 0.423656 0.087818
vt 0.419697 0.090458
vt 0.418377 0.090458
vt 0.427087 0.101130
vt 0.423127 0.101130
vt 0.426296 0.090458
vt 0.426296 0.093097
vt 0.423656 0.093097
vt 0.423656 0.090458
vt 0.420931 0.095909
vt 0.420931 0.098549
vt 0.418291 0.098549
vt 0.418291 0.096857
vt 0.332010 0.093956
vt 0.332010 0.096596
vt 0.330690 0.096596
vt 0.330690 0.093956
vt 0.426296 0.095737
vt 0.423656 0.095737
vt 0.421016 0.095737
vt 0.421016 0.093097
vt 0.710950 0.648731
vt 0.716318 0.648731
vt 0.583487 0.643132
vt 0.583487 0.648499
vt 0.572751 0.648499
vt 0.572751 0.643132
vt 0.805281 0.926818
vt 0.805281 0.932185
vt 0.794545 0.932185
vt 0.794545 0.926818
vt 0.716318 0.659467
vt 0.583487 0.659235
vt 0.572751 0.659235
vt 0.562016 0.659235
vt 0.562016 0.648499
vt 0.341572 0.090564
vt 0.342891 0.090564
vt 0.421016 0.101016
vt 0.426296 0.097057
vt 0.427777 0.095737
vt 0.427777 0.097057
vt 0.427777 0.093097
vt 0.426296 0.098377
vt 0.427777 0.101016
vt 0.427777 0.098377
vt 0.423656 0.097057
vt 0.423656 0.098377
vt 0.421016 0.090458
vt 0.419697 0.093097
vt 0.419697 0.095737
vt 0.419697 0.097057
vt 0.419697 0.098377
vt 0.421016 0.098377
vt 0.421016 0.097057
vt 0.419697 0.101016
vt 0.418377 0.101016
vt 0.418377 0.098377
vt 0.342891 0.093204
vt 0.429347 0.095737
vt 0.429347 0.097057
vt 0.429347 0.098377
vt 0.341572 0.093204
vt 0.418377 0.097057
vt 0.418377 0.093097
vt 0.418377 0.095737
vt 0.354610 0.094127
vt 0.354610 0.095447
vt 0.353290 0.095447
vt 0.353290 0.094127
vt 0.354610 0.090168
vt 0.354610 0.092807
vt 0.353290 0.092807
vt 0.353290 0.090168
vt 0.333330 0.094904
vt 0.333330 0.096596
vt 0.710950 0.659467
vt 0.682214 0.650165
vt 0.682214 0.655533
vt 0.676846 0.655533
vt 0.676846 0.650165
vt 0.805281 0.921450
vt 0.794545 0.921450
vt 0.583487 0.637764
vt 0.572751 0.637764
vt 0.423656 0.088978
vt 0.419697 0.106898
vt 0.419697 0.108057
vt 0.419697 0.109537
vt 0.418377 0.109537
vt 0.418377 0.106898
vt 0.421016 0.106898
vt 0.421016 0.109537
vt 0.342126 0.099177
vt 0.339486 0.099177
vt 0.338166 0.099177
vt 0.423656 0.106898
vt 0.423656 0.109537
vt 0.339486 0.100125
vt 0.419697 0.087818
vt 0.423656 0.087818
vt 0.423353 0.095216
vt 0.422033 0.095216
vt 0.422033 0.095216
vt 0.427464 0.103393
vt 0.425992 0.095216
s 0
usemtl Palitrs
f 100/1/1 9/2/1 3/3/1 10/4/1
f 85/4/2 24/3/2 1/3/2 25/4/2
f 24/3/3 37/2/3 30/2/3 1/3/3
f 37/2/3 42/5/3 31/5/3 30/2/3
f 128/6/3 47/7/3 32/7/3 123/6/3
f 3/3/3 9/2/3 33/2/3 20/3/3
f 20/3/3 33/2/3 34/2/3 21/3/3
f 21/3/3 34/2/3 35/2/3 22/3/3
f 22/3/3 35/2/3 36/2/3 23/3/3
f 24/3/4 23/3/4 358/3/4 359/3/4
f 9/2/3 8/5/3 38/5/3 33/2/3
f 33/2/3 38/5/3 39/5/3 34/2/3
f 34/2/3 39/5/3 40/5/3 35/2/3
f 35/2/3 40/5/3 41/5/3 36/2/3
f 36/2/3 41/5/3 42/5/3 37/2/3
f 122/6/3 7/7/3 43/7/3 124/6/3
f 124/6/3 43/7/3 44/7/3 125/6/3
f 125/6/3 44/7/3 45/7/3 126/6/3
f 126/6/3 45/7/3 46/7/3 127/6/3
f 127/6/3 46/7/3 47/7/3 128/6/3
f 16/8/4 15/8/4 188/8/4 189/8/4
f 121/9/4 5/10/4 184/10/4 185/9/4
f 15/8/4 166/8/4 187/8/4 188/8/4
f 6/11/4 121/9/4 185/9/4 186/11/4
f 167/12/4 169/10/4 193/10/4 194/12/4
f 5/10/4 4/12/4 183/12/4 184/10/4
f 169/10/4 168/9/4 195/9/4 193/10/4
f 4/12/4 2/8/4 182/8/4 183/12/4
f 129/13/4 49/14/4 172/14/4 171/13/4
f 170/15/2 48/15/2 174/15/2 179/15/2
f 129/16/5 171/16/5 178/16/5 177/16/5
f 29/17/6 28/18/6 50/19/6 48/20/6
f 48/21/6 50/22/6 51/23/6 180/24/6
f 129/25/6 130/26/6 52/27/6 49/28/6
f 28/18/6 27/29/6 53/30/6 50/19/6
f 50/19/6 53/30/6 54/31/6 51/32/6
f 52/33/4 130/34/4 58/34/4 55/33/4
f 146/35/6 26/36/6 56/37/6 147/38/6
f 147/39/6 56/40/6 57/41/6 148/42/6
f 130/34/2 131/43/2 141/43/2 58/34/2
f 26/36/6 25/44/6 59/45/6 56/37/6
f 56/37/6 59/45/6 60/46/6 57/47/6
f 30/2/3 31/5/3 102/5/3 101/2/3
f 25/4/6 1/3/6 30/2/6 59/1/6
f 132/48/4 57/49/4 104/49/4 140/48/4 143/48/4
f 60/50/4 59/1/4 106/1/4 107/50/4
f 65/17/2 70/18/2 28/18/2 29/17/2 165/17/2
f 146/51/6 27/29/6 111/52/6 157/53/6
f 28/18/4 70/18/4 113/54/4 112/54/4
f 80/55/1 85/4/1 116/56/1 115/57/1
f 2/8/2 14/17/2 61/17/2 19/8/2
f 19/8/2 61/17/2 62/17/2 18/8/2
f 18/8/2 62/17/2 63/17/2 17/8/2
f 17/8/2 63/17/2 64/17/2 16/8/2
f 16/8/2 64/17/2 65/17/2 15/8/2
f 14/17/2 13/18/2 66/18/2 61/17/2
f 61/17/2 66/18/2 67/18/2 62/17/2
f 62/17/2 67/18/2 68/18/2 63/17/2
f 63/17/2 68/18/2 69/18/2 64/17/2
f 64/17/2 69/18/2 70/18/2 65/17/2
f 13/18/2 12/29/2 71/29/2 66/18/2
f 66/18/2 71/29/2 72/29/2 67/18/2
f 67/18/2 72/29/2 73/29/2 68/18/2
f 68/18/2 73/29/2 74/29/2 69/18/2
f 69/18/2 74/29/2 75/29/2 70/18/2
f 145/51/2 11/55/2 76/55/2 149/51/2
f 149/51/2 76/55/2 77/55/2 150/51/2
f 150/51/2 77/55/2 78/55/2 151/51/2
f 151/51/2 78/55/2 79/55/2 152/51/2
f 152/51/2 79/55/2 80/55/2 153/51/2
f 11/55/2 10/4/2 81/4/2 76/55/2
f 76/55/2 81/4/2 82/4/2 77/55/2
f 77/55/2 82/4/2 83/4/2 78/55/2
f 78/55/2 83/4/2 84/4/2 79/55/2
f 79/55/2 84/4/2 85/4/2 80/55/2
f 10/4/2 3/3/2 20/3/2 81/4/2
f 81/4/2 20/3/2 21/3/2 82/4/2
f 82/4/2 21/3/2 22/3/2 83/4/2
f 83/4/2 22/3/2 23/3/2 84/4/2
f 84/4/2 23/3/2 24/3/2 85/4/2
f 4/12/1 88/20/1 14/17/1 2/8/1
f 88/20/1 91/19/1 13/18/1 14/17/1
f 91/19/1 94/30/1 12/29/1 13/18/1
f 156/58/1 97/59/1 11/55/1 145/51/1
f 97/59/1 100/1/1 10/4/1 11/55/1
f 121/9/1 133/13/1 87/60/1 5/10/1
f 5/10/1 87/60/1 88/20/1 4/12/1
f 133/13/1 134/61/1 90/32/1 87/60/1
f 87/60/1 90/32/1 91/19/1 88/20/1
f 134/61/1 135/62/1 93/31/1 90/32/1
f 90/32/1 93/31/1 94/30/1 91/19/1
f 161/63/1 136/64/1 96/65/1 155/66/1
f 155/66/1 96/65/1 97/59/1 156/58/1
f 136/64/1 137/67/1 99/50/1 96/65/1
f 96/65/1 99/50/1 100/1/1 97/59/1
f 137/67/1 122/6/1 8/5/1 99/50/1
f 99/50/1 8/5/1 9/2/1 100/1/1
f 140/64/7 139/67/7 108/68/7 105/69/7
f 106/1/6 101/2/6 102/5/6 107/50/6
f 139/67/6 138/6/6 103/7/6 108/68/6
f 123/6/3 32/7/3 103/7/3 138/6/3
f 59/1/2 30/2/2 101/2/2 106/1/2
f 57/49/2 60/70/2 107/70/2 104/49/2
f 113/54/2 114/52/2 111/52/2 112/54/2
f 111/52/4 114/52/4 119/71/4 118/71/4
f 115/57/2 116/56/2 109/56/2 110/57/2
f 85/4/3 25/4/3 109/56/3 116/56/3
f 70/18/1 75/29/1 114/52/1 113/54/1
f 153/51/1 80/55/1 115/57/1 158/53/1
f 27/29/6 28/18/6 112/54/6 111/52/6
f 25/4/6 26/55/6 110/57/6 109/56/6
f 160/72/2 120/73/2 117/73/2 159/72/2
f 115/57/3 110/57/3 117/73/3 120/73/3
f 157/53/6 111/52/6 118/71/6 159/72/6
f 158/53/1 115/57/1 120/73/1 160/72/1
f 31/5/3 123/6/3 138/6/3 102/5/3
f 107/50/6 102/5/6 138/6/6 139/67/6
f 104/49/8 107/70/8 139/74/8 140/48/8
f 98/68/1 7/7/1 122/6/1 137/67/1
f 95/69/1 98/68/1 137/67/1 136/64/1
f 154/75/1 95/69/1 136/64/1 161/63/1
f 89/76/1 92/77/1 135/62/1 134/61/1
f 86/14/1 89/76/1 134/61/1 133/13/1
f 6/11/1 86/14/1 133/13/1 121/9/1
f 140/64/4 105/69/4 144/69/4 143/64/4
f 148/78/6 57/79/6 132/80/6 162/81/6
f 51/82/6 54/83/6 131/84/6 130/85/6
f 180/86/6 51/87/6 130/26/6 129/25/6
f 29/17/4 48/20/4 170/20/4 165/17/4
f 166/8/4 167/12/4 194/12/4 187/8/4
f 168/9/4 173/11/4 192/11/4 195/9/4
f 19/8/4 18/8/4 191/8/4 181/8/4
f 18/8/4 17/8/4 190/8/4 191/8/4
f 2/8/4 19/8/4 181/8/4 182/8/4
f 17/8/4 16/8/4 189/8/4 190/8/4
f 41/5/3 127/6/3 128/6/3 42/5/3
f 40/5/3 126/6/3 127/6/3 41/5/3
f 39/5/3 125/6/3 126/6/3 40/5/3
f 38/5/3 124/6/3 125/6/3 39/5/3
f 8/5/3 122/6/3 124/6/3 38/5/3
f 42/5/3 128/6/3 123/6/3 31/5/3
f 162/63/2 132/64/2 143/64/2 164/63/2
f 58/34/6 141/43/6 142/88/6 55/33/6
f 164/63/6 143/64/6 144/69/6 163/75/6
f 141/89/6 164/90/6 163/91/6 142/92/6
f 131/89/2 162/90/2 164/90/2 141/89/2
f 54/83/6 148/78/6 162/81/6 131/84/6
f 92/77/1 154/75/1 161/63/1 135/62/1
f 114/52/1 158/53/1 160/72/1 119/71/1
f 110/57/6 157/53/6 159/72/6 117/73/6
f 119/71/2 160/72/2 159/72/2 118/71/2
f 75/29/1 153/51/1 158/53/1 114/52/1
f 93/31/1 155/66/1 156/58/1 94/30/1
f 135/62/1 161/63/1 155/66/1 93/31/1
f 94/30/1 156/58/1 145/51/1 12/29/1
f 74/29/2 152/51/2 153/51/2 75/29/2
f 73/29/2 151/51/2 152/51/2 74/29/2
f 72/29/2 150/51/2 151/51/2 73/29/2
f 71/29/2 149/51/2 150/51/2 72/29/2
f 12/29/2 145/51/2 149/51/2 71/29/2
f 26/55/6 146/51/6 157/53/6 110/57/6
f 53/93/6 147/39/6 148/42/6 54/94/6
f 27/95/6 146/35/6 147/38/6 53/96/6
f 166/8/6 165/17/6 170/20/6 179/97/6 167/12/6
f 168/98/6 178/99/6 171/100/6 172/101/6 173/102/6
f 169/103/6 176/104/6 178/99/6 168/98/6
f 15/8/2 65/17/2 165/17/2 166/8/2
f 174/105/4 175/106/4 176/106/4 179/105/4
f 175/106/4 177/107/4 178/107/4 176/106/4
f 167/108/6 179/109/6 176/104/6 169/103/6
f 175/106/6 180/110/6 129/107/6 177/107/6
f 174/105/6 48/105/6 180/110/6 175/106/6
f 187/8/6 194/12/6 209/12/6 202/8/6
f 184/10/1 183/12/1 198/12/1 199/10/1
f 183/12/1 182/8/1 197/8/1 198/12/1
f 181/8/2 191/8/2 206/8/2 196/8/2
f 182/8/2 181/8/2 196/8/2 197/8/2
f 191/8/2 190/8/2 205/8/2 206/8/2
f 190/8/2 189/8/2 204/8/2 205/8/2
f 195/9/6 192/11/6 207/11/6 210/9/6
f 189/8/2 188/8/2 203/8/2 204/8/2
f 185/9/1 184/10/1 199/10/1 200/9/1
f 194/12/6 193/10/6 208/10/6 209/12/6
f 188/8/2 187/8/2 202/8/2 203/8/2
f 193/10/6 195/9/6 210/9/6 208/10/6
f 186/11/1 185/9/1 200/9/1 201/11/1
f 197/8/3 196/8/3 211/8/3 212/8/3
f 206/8/3 205/8/3 220/8/3 221/8/3
f 205/8/3 204/8/3 219/8/3 220/8/3
f 210/9/3 207/11/3 222/11/3 225/9/3
f 204/8/3 203/8/3 218/8/3 219/8/3
f 200/9/3 199/10/3 214/10/3 215/9/3
f 209/12/3 208/10/3 223/10/3 224/12/3
f 203/8/3 202/8/3 217/8/3 218/8/3
f 208/10/3 210/9/3 225/9/3 223/10/3
f 201/11/3 200/9/3 215/9/3 216/11/3
f 202/8/3 209/12/3 224/12/3 217/8/3
f 199/10/3 198/12/3 213/12/3 214/10/3
f 198/12/3 197/8/3 212/8/3 213/12/3
f 196/8/3 206/8/3 221/8/3 211/8/3
f 285/8/2 276/8/2 234/8/2 235/8/2
f 300/111/6 290/11/6 238/11/6 260/9/6
f 276/8/2 271/8/2 233/8/2 234/8/2
f 317/12/2 316/12/2 415/12/2 416/12/2
f 315/112/6 291/10/6 244/10/6 250/12/6
f 271/8/2 306/8/2 232/8/2 233/8/2
f 291/113/6 300/114/6 260/115/6 244/113/6
f 303/11/3 268/9/3 410/9/3 414/11/3
f 306/8/6 315/112/6 250/12/6 232/8/6
f 268/9/3 263/10/3 409/10/3 410/9/3
f 316/12/1 321/8/1 227/8/1 228/12/1
f 327/8/2 328/8/2 236/8/2 226/8/2
f 279/116/4 282/116/4 337/116/4 334/116/4
f 328/8/2 285/8/2 235/8/2 236/8/2
f 249/12/4 233/8/4 232/8/4 250/12/4
f 259/9/4 243/10/4 244/10/4 260/9/4
f 243/10/4 249/12/4 250/12/4 244/10/4
f 230/9/4 229/10/4 245/10/4 255/9/4
f 251/12/1 226/8/1 369/8/1 374/12/1
f 234/8/6 254/12/6 377/12/6 366/8/6
f 235/8/2 234/8/2 366/8/2 367/8/2
f 258/9/4 248/10/4 243/10/4 259/9/4
f 229/10/4 228/12/4 251/12/4 245/10/4
f 257/9/5 256/9/5 379/9/5 380/9/5
f 255/9/1 245/10/1 370/10/1 378/9/1
f 248/10/6 258/9/6 381/9/6 373/10/6
f 248/10/4 254/12/4 249/12/4 243/10/4
f 228/12/4 227/8/4 226/8/4 251/12/4
f 245/10/1 251/12/1 374/12/1 370/10/1
f 258/9/5 257/9/5 380/9/5 381/9/5
f 226/8/2 236/8/2 368/8/2 369/8/2
f 254/12/4 234/8/4 233/8/4 249/12/4
f 242/11/4 258/9/4 259/9/4 237/11/4
f 241/11/4 257/9/4 258/9/4 242/11/4
f 240/11/4 256/9/4 257/9/4 241/11/4
f 239/11/4 255/9/4 256/9/4 240/11/4
f 231/11/4 230/9/4 255/9/4 239/11/4
f 237/11/4 259/9/4 260/9/4 238/11/4
f 221/8/2 220/8/2 281/8/2 330/8/2
f 328/116/4 327/116/4 331/116/4 349/116/4
f 282/116/6 283/116/6 338/116/6 337/116/6
f 281/116/3 280/116/3 335/116/3 336/116/3
f 329/8/2 284/8/2 285/8/2 328/8/2
f 212/8/2 211/8/2 326/8/2 325/8/2
f 325/116/3 326/116/3 345/116/3 344/116/3
f 324/116/1 325/116/1 344/116/1 343/116/1
f 329/116/6 328/116/6 349/116/6 350/116/6
f 280/116/6 279/116/6 334/116/6 335/116/6
f 211/8/2 221/8/2 330/8/2 326/8/2
f 284/116/4 329/116/4 350/116/4 339/116/4
f 323/116/1 324/116/1 343/116/1 342/116/1
f 326/116/3 330/116/3 353/116/3 345/116/3
f 322/116/1 323/116/1 342/116/1 341/116/1
f 213/12/1 212/8/1 325/8/1 320/112/1
f 320/112/1 325/8/1 324/8/1 319/112/1
f 319/112/1 324/8/1 323/8/1 318/12/1
f 318/12/1 323/8/1 322/8/1 317/12/1
f 317/12/1 322/8/1 321/8/1 316/12/1
f 214/10/1 213/12/1 320/112/1 265/10/1
f 265/10/1 320/112/1 319/112/1 264/10/1
f 264/10/1 319/112/1 318/12/1 263/10/1
f 229/10/4 230/9/4 403/9/4 405/10/4
f 316/12/2 228/12/2 404/12/2 415/12/2
f 217/8/6 224/12/6 311/12/6 310/8/6
f 310/8/6 311/12/6 312/12/6 309/8/6
f 309/8/6 312/12/6 313/12/6 308/8/6
f 308/8/6 313/12/6 314/112/6 307/8/6
f 307/8/6 314/112/6 315/112/6 306/8/6
f 216/11/1 215/9/1 266/111/1 305/11/1
f 305/11/1 266/111/1 267/9/1 304/11/1
f 304/11/1 267/9/1 268/9/1 303/11/1
f 230/9/4 231/11/4 406/11/4 403/9/4
f 318/12/2 317/12/2 416/12/2 417/12/2
f 223/10/6 225/9/6 296/111/6 295/10/6
f 295/10/6 296/111/6 297/9/6 294/10/6
f 294/113/6 297/115/6 298/115/6 293/113/6
f 293/113/6 298/115/6 299/114/6 292/113/6
f 292/113/6 299/114/6 300/114/6 291/113/6
f 218/8/2 217/8/2 310/8/2 275/8/2
f 275/8/2 310/8/2 309/8/2 274/8/2
f 274/8/2 309/8/2 308/8/2 273/8/2
f 273/8/2 308/8/2 307/8/2 272/8/2
f 272/8/2 307/8/2 306/8/2 271/8/2
f 224/12/6 223/10/6 295/10/6 311/12/6
f 311/117/6 295/113/6 294/113/6 312/117/6
f 312/12/6 294/10/6 293/10/6 313/12/6
f 313/12/6 293/10/6 292/10/6 314/112/6
f 314/112/6 292/10/6 291/10/6 315/112/6
f 215/9/1 214/10/1 265/10/1 266/111/1
f 266/111/1 265/10/1 264/10/1 267/9/1
f 267/9/1 264/10/1 263/10/1 268/9/1
f 228/12/4 229/10/4 405/10/4 404/12/4
f 263/10/3 318/12/3 417/12/3 409/10/3
f 219/8/2 218/8/2 275/8/2 280/8/2
f 280/8/2 275/8/2 274/8/2 279/8/2
f 279/8/2 274/8/2 273/8/2 278/8/2
f 278/8/2 273/8/2 272/8/2 277/8/2
f 277/8/2 272/8/2 271/8/2 276/8/2
f 225/9/6 222/11/6 286/11/6 296/111/6
f 296/111/6 286/11/6 287/11/6 297/9/6
f 297/9/6 287/11/6 288/11/6 298/9/6
f 298/9/6 288/11/6 289/11/6 299/111/6
f 299/111/6 289/11/6 290/11/6 300/111/6
f 220/8/2 219/8/2 280/8/2 281/8/2
f 327/116/6 226/116/6 332/116/6 331/116/6
f 282/8/2 279/8/2 278/8/2 283/8/2
f 283/8/2 278/8/2 277/8/2 284/8/2
f 284/8/2 277/8/2 276/8/2 285/8/2
f 340/116/2 331/116/2 332/116/2 333/116/2
f 353/116/2 336/116/2 337/116/2 352/116/2
f 352/116/2 337/116/2 338/116/2 351/116/2
f 351/116/2 338/116/2 339/116/2 350/116/2
f 344/116/2 345/116/2 346/116/2 343/116/2
f 343/116/2 346/116/2 347/116/2 342/116/2
f 342/116/2 347/116/2 348/116/2 341/116/2
f 341/116/2 348/116/2 331/116/2 340/116/2
f 345/116/2 353/116/2 352/116/2 346/116/2
f 346/116/2 352/116/2 351/116/2 347/116/2
f 347/116/2 351/116/2 350/116/2 348/116/2
f 348/116/2 350/116/2 349/116/2 331/116/2
f 336/116/2 335/116/2 334/116/2 337/116/2
f 283/116/6 284/116/6 339/116/6 338/116/6
f 227/116/1 321/116/1 340/116/1 333/116/1
f 330/116/3 281/116/3 336/116/3 353/116/3
f 226/116/4 227/116/4 333/116/4 332/116/4
f 321/116/1 322/116/1 341/116/1 340/116/1
f 354/3/3 356/2/3 357/2/3 355/3/3
f 23/3/1 36/2/1 356/2/1 354/3/1
f 37/2/6 24/3/6 355/3/6 357/2/6
f 36/2/5 37/2/5 357/2/5 356/2/5
f 359/3/2 358/3/2 360/3/2 361/3/2
f 23/3/1 354/3/1 360/3/1 358/3/1
f 355/3/6 361/3/6 365/3/6 363/3/6
f 355/3/6 24/3/6 359/3/6 361/3/6
f 362/3/3 363/3/3 365/3/3 364/3/3
f 354/3/5 355/3/5 363/3/5 362/3/5
f 361/3/2 360/3/2 364/3/2 365/3/2
f 360/3/1 354/3/1 362/3/1 364/3/1
f 378/9/4 370/10/4 371/10/4 379/9/4
f 389/10/1 386/12/1 382/12/1 247/10/1
f 380/9/4 372/10/4 373/10/4 381/9/4
f 370/10/4 374/12/4 375/12/4 371/10/4
f 387/8/2 388/8/2 253/8/2 252/8/2
f 372/10/4 376/12/4 377/12/4 373/10/4
f 374/12/4 369/8/4 368/8/4 375/12/4
f 386/12/1 387/8/1 252/8/1 382/12/1
f 376/12/4 367/8/4 366/8/4 377/12/4
f 256/9/5 255/9/5 378/9/5 379/9/5
f 236/8/2 235/8/2 367/8/2 368/8/2
f 254/12/6 248/10/6 373/10/6 377/12/6
f 384/9/4 247/10/4 246/10/4 385/9/4
f 247/10/4 382/12/4 383/12/4 246/10/4
f 382/12/4 252/8/4 253/8/4 383/12/4
f 390/9/5 385/9/5 397/9/5 399/9/5
f 392/12/3 391/10/3 401/10/3 400/12/3
f 390/9/5 393/9/5 384/9/5 385/9/5
f 388/8/3 392/12/3 400/12/3 398/8/3
f 393/9/1 389/10/1 247/10/1 384/9/1
f 379/9/1 371/10/1 389/10/1 393/9/1
f 376/12/6 372/10/6 391/10/6 392/12/6
f 380/9/5 379/9/5 393/9/5 390/9/5
f 367/8/6 376/12/6 392/12/6 388/8/6
f 372/10/6 380/9/6 390/9/6 391/10/6
f 375/12/1 368/8/1 387/8/1 386/12/1
f 368/8/2 367/8/2 388/8/2 387/8/2
f 371/10/1 375/12/1 386/12/1 389/10/1
f 401/10/6 399/9/6 397/9/6 395/10/6
f 398/8/6 400/12/6 394/12/6 396/8/6
f 400/12/6 401/10/6 395/10/6 394/12/6
f 253/8/2 388/8/2 398/8/2 396/8/2
f 385/9/4 246/10/4 395/10/4 397/9/4
f 391/10/3 390/9/3 399/9/3 401/10/3
f 383/12/4 253/8/4 396/8/4 394/12/4
f 246/10/4 383/12/4 394/12/4 395/10/4
f 408/10/3 416/12/3 423/12/3 418/10/3
f 403/9/4 406/11/4 262/11/4 301/9/4
f 413/11/3 411/111/3 419/111/3 421/11/3
f 409/10/1 417/12/1 416/12/1 408/10/1
f 415/12/2 404/12/2 270/12/2 422/12/2
f 414/11/1 410/9/1 411/111/1 413/11/1
f 411/111/3 408/10/3 418/10/3 419/111/3
f 410/9/1 409/10/1 408/10/1 411/111/1
f 404/12/4 405/10/4 269/10/4 270/12/4
f 420/11/3 302/111/3 426/111/3 427/11/3
f 302/111/3 261/10/3 407/10/3 426/111/3
f 422/12/2 270/12/2 425/12/2 428/12/2
f 418/10/1 423/12/1 422/12/1 261/10/1
f 421/11/1 419/111/1 302/111/1 420/11/1
f 419/111/1 418/10/1 261/10/1 302/111/1
f 416/12/2 415/12/2 422/12/2 423/12/2
f 405/10/4 403/9/4 301/9/4 269/10/4
f 426/111/1 407/10/1 412/10/1 402/9/1
f 427/11/1 426/111/1 402/9/1 424/11/1
f 407/10/1 428/12/1 425/12/1 412/10/1
f 435/9/4 436/11/4 444/11/4 443/9/4
f 261/10/3 422/12/3 428/12/3 407/10/3
f 269/10/6 301/9/6 430/9/6 429/10/6
f 270/12/6 269/10/6 429/10/6 432/12/6
f 432/12/4 429/10/4 434/10/4 433/12/4
f 429/10/4 430/9/4 435/9/4 434/10/4
f 430/9/4 431/11/4 436/11/4 435/9/4
f 301/9/6 262/11/6 431/11/6 430/9/6
f 424/11/3 402/9/3 438/9/3 439/11/3
f 425/12/2 270/12/2 432/12/2 433/12/2
f 434/10/4 435/9/4 443/9/4 442/10/4
f 437/10/2 442/10/2 448/10/2 445/10/2
f 437/10/1 440/12/1 441/12/1 442/10/1
f 438/9/3 437/10/3 445/10/3 446/9/3
f 412/10/3 425/12/3 440/12/3 437/10/3
f 425/12/2 433/12/2 441/12/2 440/12/2
f 402/9/3 412/10/3 437/10/3 438/9/3
f 433/12/4 434/10/4 442/10/4 441/12/4
f 449/9/4 450/11/4 454/11/4 453/9/4
f 446/9/1 445/10/1 448/10/1 449/9/1
f 443/9/4 444/11/4 450/11/4 449/9/4
f 439/11/3 438/9/3 446/9/3 447/11/3
f 442/10/4 443/9/4 449/9/4 448/10/4
f 452/11/1 451/9/1 453/9/1 454/11/1
f 447/11/3 446/9/3 451/9/3 452/11/3
f 446/9/2 449/9/2 453/9/2 451/9/2
f 538/1/1 462/4/1 457/3/1 461/2/1
f 528/4/5 477/4/5 455/3/5 476/3/5
f 476/3/3 455/3/3 482/2/3 488/2/3
f 488/2/3 482/2/3 483/5/3 493/5/3
f 563/6/3 558/6/3 32/7/3 47/7/3
f 457/3/3 472/3/3 484/2/3 461/2/3
f 472/3/3 473/3/3 485/2/3 484/2/3
f 473/3/3 474/3/3 486/2/3 485/2/3
f 474/3/3 475/3/3 487/2/3 486/2/3
f 476/3/4 766/3/4 765/3/4 475/3/4
f 461/2/3 484/2/3 489/5/3 460/5/3
f 484/2/3 485/2/3 490/5/3 489/5/3
f 485/2/3 486/2/3 491/5/3 490/5/3
f 486/2/3 487/2/3 492/5/3 491/5/3
f 487/2/3 488/2/3 493/5/3 492/5/3
f 557/6/3 559/6/3 43/7/3 7/7/3
f 559/6/3 560/6/3 44/7/3 43/7/3
f 560/6/3 561/6/3 45/7/3 44/7/3
f 561/6/3 562/6/3 46/7/3 45/7/3
f 562/6/3 563/6/3 47/7/3 46/7/3
f 468/8/4 617/8/4 616/8/4 467/8/4
f 556/9/4 614/9/4 613/10/4 459/10/4
f 467/8/4 616/8/4 615/8/4 597/8/4
f 6/11/4 186/11/4 614/9/4 556/9/4
f 598/12/4 621/12/4 620/10/4 600/10/4
f 459/10/4 613/10/4 612/12/4 458/12/4
f 600/10/4 620/10/4 622/9/4 599/9/4
f 458/12/4 612/12/4 611/8/4 456/8/4
f 564/13/4 602/13/4 172/14/4 49/14/4
f 601/15/5 608/15/5 603/15/5 494/15/5
f 564/16/2 606/16/2 607/16/2 602/16/2
f 481/17/6 494/20/6 495/19/6 480/18/6
f 494/21/6 609/24/6 496/23/6 495/22/6
f 564/25/6 49/28/6 52/27/6 565/26/6
f 480/18/6 495/19/6 497/30/6 479/29/6
f 495/19/6 496/32/6 498/31/6 497/30/6
f 52/33/4 55/33/4 501/34/4 565/34/4
f 579/35/6 580/38/6 499/37/6 478/36/6
f 580/39/6 581/42/6 500/41/6 499/40/6
f 565/34/5 501/34/5 576/43/5 566/43/5
f 478/36/6 499/37/6 502/45/6 477/44/6
f 499/37/6 500/47/6 503/46/6 502/45/6
f 482/2/3 539/2/3 540/5/3 483/5/3
f 477/4/6 502/1/6 482/2/6 455/3/6
f 567/48/4 577/48/4 575/48/4 541/49/4 500/49/4
f 503/50/4 543/50/4 542/1/4 502/1/4
f 508/17/5 596/17/5 481/17/5 480/18/5 513/18/5
f 579/51/6 589/53/6 546/52/6 479/29/6
f 480/18/4 547/54/4 548/54/4 513/18/4
f 523/55/1 550/57/1 551/56/1 528/4/1
f 456/8/5 471/8/5 504/17/5 466/17/5
f 471/8/5 470/8/5 505/17/5 504/17/5
f 470/8/5 469/8/5 506/17/5 505/17/5
f 469/8/5 468/8/5 507/17/5 506/17/5
f 468/8/5 467/8/5 508/17/5 507/17/5
f 466/17/5 504/17/5 509/18/5 465/18/5
f 504/17/5 505/17/5 510/18/5 509/18/5
f 505/17/5 506/17/5 511/18/5 510/18/5
f 506/17/5 507/17/5 512/18/5 511/18/5
f 507/17/5 508/17/5 513/18/5 512/18/5
f 465/18/5 509/18/5 514/29/5 464/29/5
f 509/18/5 510/18/5 515/29/5 514/29/5
f 510/18/5 511/18/5 516/29/5 515/29/5
f 511/18/5 512/18/5 517/29/5 516/29/5
f 512/18/5 513/18/5 518/29/5 517/29/5
f 578/51/5 582/51/5 519/55/5 463/55/5
f 582/51/5 583/51/5 520/55/5 519/55/5
f 583/51/5 584/51/5 521/55/5 520/55/5
f 584/51/5 585/51/5 522/55/5 521/55/5
f 585/51/5 586/51/5 523/55/5 522/55/5
f 463/55/5 519/55/5 524/4/5 462/4/5
f 519/55/5 520/55/5 525/4/5 524/4/5
f 520/55/5 521/55/5 526/4/5 525/4/5
f 521/55/5 522/55/5 527/4/5 526/4/5
f 522/55/5 523/55/5 528/4/5 527/4/5
f 462/4/5 524/4/5 472/3/5 457/3/5
f 524/4/5 525/4/5 473/3/5 472/3/5
f 525/4/5 526/4/5 474/3/5 473/3/5
f 526/4/5 527/4/5 475/3/5 474/3/5
f 527/4/5 528/4/5 476/3/5 475/3/5
f 458/12/1 456/8/1 466/17/1 530/20/1
f 530/20/1 466/17/1 465/18/1 532/19/1
f 532/19/1 465/18/1 464/29/1 534/30/1
f 588/58/1 578/51/1 463/55/1 536/59/1
f 536/59/1 463/55/1 462/4/1 538/1/1
f 556/9/1 459/10/1 529/60/1 568/13/1
f 459/10/1 458/12/1 530/20/1 529/60/1
f 568/13/1 529/60/1 531/32/1 569/61/1
f 529/60/1 530/20/1 532/19/1 531/32/1
f 569/61/1 531/32/1 533/31/1 570/62/1
f 531/32/1 532/19/1 534/30/1 533/31/1
f 593/63/1 587/66/1 535/65/1 571/64/1
f 587/66/1 588/58/1 536/59/1 535/65/1
f 571/64/1 535/65/1 537/50/1 572/67/1
f 535/65/1 536/59/1 538/1/1 537/50/1
f 572/67/1 537/50/1 460/5/1 557/6/1
f 537/50/1 538/1/1 461/2/1 460/5/1
f 575/64/8 105/69/8 108/68/8 574/67/8
f 542/1/6 543/50/6 540/5/6 539/2/6
f 574/67/6 108/68/6 103/7/6 573/6/6
f 558/6/3 573/6/3 103/7/3 32/7/3
f 502/1/5 542/1/5 539/2/5 482/2/5
f 500/49/5 541/49/5 543/70/5 503/70/5
f 548/54/5 547/54/5 546/52/5 549/52/5
f 546/52/4 553/71/4 554/71/4 549/52/4
f 550/57/5 545/57/5 544/56/5 551/56/5
f 528/4/3 551/56/3 544/56/3 477/4/3
f 513/18/1 548/54/1 549/52/1 518/29/1
f 586/51/1 590/53/1 550/57/1 523/55/1
f 479/29/6 546/52/6 547/54/6 480/18/6
f 477/4/6 544/56/6 545/57/6 478/55/6
f 592/72/5 591/72/5 552/73/5 555/73/5
f 550/57/3 555/73/3 552/73/3 545/57/3
f 589/53/6 591/72/6 553/71/6 546/52/6
f 590/53/1 592/72/1 555/73/1 550/57/1
f 483/5/3 540/5/3 573/6/3 558/6/3
f 543/50/6 574/67/6 573/6/6 540/5/6
f 541/49/7 575/48/7 574/74/7 543/70/7
f 98/68/1 572/67/1 557/6/1 7/7/1
f 95/69/1 571/64/1 572/67/1 98/68/1
f 154/75/1 593/63/1 571/64/1 95/69/1
f 89/76/1 569/61/1 570/62/1 92/77/1
f 86/14/1 568/13/1 569/61/1 89/76/1
f 6/11/1 556/9/1 568/13/1 86/14/1
f 575/64/4 577/64/4 144/69/4 105/69/4
f 581/78/6 594/81/6 567/80/6 500/79/6
f 496/82/6 565/85/6 566/84/6 498/83/6
f 609/86/6 564/25/6 565/26/6 496/87/6
f 481/17/4 596/17/4 601/20/4 494/20/4
f 597/8/4 615/8/4 621/12/4 598/12/4
f 599/9/4 622/9/4 192/11/4 173/11/4
f 471/8/4 610/8/4 619/8/4 470/8/4
f 470/8/4 619/8/4 618/8/4 469/8/4
f 456/8/4 611/8/4 610/8/4 471/8/4
f 469/8/4 618/8/4 617/8/4 468/8/4
f 492/5/3 493/5/3 563/6/3 562/6/3
f 491/5/3 492/5/3 562/6/3 561/6/3
f 490/5/3 491/5/3 561/6/3 560/6/3
f 489/5/3 490/5/3 560/6/3 559/6/3
f 460/5/3 489/5/3 559/6/3 557/6/3
f 493/5/3 483/5/3 558/6/3 563/6/3
f 594/63/5 595/63/5 577/64/5 567/64/5
f 501/34/6 55/33/6 142/88/6 576/43/6
f 595/63/6 163/75/6 144/69/6 577/64/6
f 576/89/6 142/92/6 163/91/6 595/90/6
f 566/89/5 576/89/5 595/90/5 594/90/5
f 498/83/6 566/84/6 594/81/6 581/78/6
f 92/77/1 570/62/1 593/63/1 154/75/1
f 549/52/1 554/71/1 592/72/1 590/53/1
f 545/57/6 552/73/6 591/72/6 589/53/6
f 554/71/5 553/71/5 591/72/5 592/72/5
f 518/29/1 549/52/1 590/53/1 586/51/1
f 533/31/1 534/30/1 588/58/1 587/66/1
f 570/62/1 533/31/1 587/66/1 593/63/1
f 534/30/1 464/29/1 578/51/1 588/58/1
f 517/29/5 518/29/5 586/51/5 585/51/5
f 516/29/5 517/29/5 585/51/5 584/51/5
f 515/29/5 516/29/5 584/51/5 583/51/5
f 514/29/5 515/29/5 583/51/5 582/51/5
f 464/29/5 514/29/5 582/51/5 578/51/5
f 478/55/6 545/57/6 589/53/6 579/51/6
f 497/93/6 498/94/6 581/42/6 580/39/6
f 479/95/6 497/96/6 580/38/6 579/35/6
f 597/8/6 598/12/6 608/97/6 601/20/6 596/17/6
f 599/98/6 173/102/6 172/101/6 602/100/6 607/99/6
f 600/103/6 599/98/6 607/99/6 605/104/6
f 467/8/5 597/8/5 596/17/5 508/17/5
f 603/105/4 608/105/4 605/106/4 604/106/4
f 604/106/4 605/106/4 607/107/4 606/107/4
f 598/108/6 600/103/6 605/104/6 608/109/6
f 604/106/6 606/107/6 564/107/6 609/110/6
f 603/105/6 604/106/6 609/110/6 494/105/6
f 615/8/6 628/8/6 634/12/6 621/12/6
f 613/10/1 626/10/1 625/12/1 612/12/1
f 612/12/1 625/12/1 624/8/1 611/8/1
f 610/8/5 623/8/5 632/8/5 619/8/5
f 611/8/5 624/8/5 623/8/5 610/8/5
f 619/8/5 632/8/5 631/8/5 618/8/5
f 618/8/5 631/8/5 630/8/5 617/8/5
f 622/9/6 635/9/6 207/11/6 192/11/6
f 617/8/5 630/8/5 629/8/5 616/8/5
f 614/9/1 627/9/1 626/10/1 613/10/1
f 621/12/6 634/12/6 633/10/6 620/10/6
f 616/8/5 629/8/5 628/8/5 615/8/5
f 620/10/6 633/10/6 635/9/6 622/9/6
f 186/11/1 201/11/1 627/9/1 614/9/1
f 624/8/3 637/8/3 636/8/3 623/8/3
f 632/8/3 645/8/3 644/8/3 631/8/3
f 631/8/3 644/8/3 643/8/3 630/8/3
f 635/9/3 648/9/3 222/11/3 207/11/3
f 630/8/3 643/8/3 642/8/3 629/8/3
f 627/9/3 640/9/3 639/10/3 626/10/3
f 634/12/3 647/12/3 646/10/3 633/10/3
f 629/8/3 642/8/3 641/8/3 628/8/3
f 633/10/3 646/10/3 648/9/3 635/9/3
f 201/11/3 216/11/3 640/9/3 627/9/3
f 628/8/3 641/8/3 647/12/3 634/12/3
f 626/10/3 639/10/3 638/12/3 625/12/3
f 625/12/3 638/12/3 637/8/3 624/8/3
f 623/8/3 636/8/3 645/8/3 632/8/3
f 700/8/5 657/8/5 656/8/5 691/8/5
f 710/111/6 676/9/6 238/11/6 290/11/6
f 691/8/5 656/8/5 655/8/5 686/8/5
f 724/12/5 820/12/5 819/12/5 723/12/5
f 722/112/6 666/12/6 660/10/6 701/10/6
f 686/8/5 655/8/5 654/8/5 713/8/5
f 701/113/6 660/113/6 676/115/6 710/114/6
f 303/11/3 414/11/3 816/9/3 683/9/3
f 713/8/6 654/8/6 666/12/6 722/112/6
f 683/9/3 816/9/3 815/10/3 678/10/3
f 723/12/1 651/12/1 650/8/1 728/8/1
f 734/8/5 649/8/5 658/8/5 735/8/5
f 694/116/4 741/116/4 744/116/4 697/116/4
f 735/8/5 658/8/5 657/8/5 700/8/5
f 665/12/4 666/12/4 654/8/4 655/8/4
f 675/9/4 676/9/4 660/10/4 659/10/4
f 659/10/4 660/10/4 666/12/4 665/12/4
f 653/9/4 671/9/4 661/10/4 652/10/4
f 667/12/1 781/12/1 776/8/1 649/8/1
f 656/8/6 773/8/6 784/12/6 670/12/6
f 657/8/5 774/8/5 773/8/5 656/8/5
f 674/9/4 675/9/4 659/10/4 664/10/4
f 652/10/4 661/10/4 667/12/4 651/12/4
f 673/9/2 787/9/2 786/9/2 672/9/2
f 671/9/1 785/9/1 777/10/1 661/10/1
f 664/10/6 780/10/6 788/9/6 674/9/6
f 664/10/4 659/10/4 665/12/4 670/12/4
f 651/12/4 667/12/4 649/8/4 650/8/4
f 661/10/1 777/10/1 781/12/1 667/12/1
f 674/9/2 788/9/2 787/9/2 673/9/2
f 649/8/5 776/8/5 775/8/5 658/8/5
f 670/12/4 665/12/4 655/8/4 656/8/4
f 242/11/4 237/11/4 675/9/4 674/9/4
f 241/11/4 242/11/4 674/9/4 673/9/4
f 240/11/4 241/11/4 673/9/4 672/9/4
f 239/11/4 240/11/4 672/9/4 671/9/4
f 231/11/4 239/11/4 671/9/4 653/9/4
f 237/11/4 238/11/4 676/9/4 675/9/4
f 645/8/5 737/8/5 696/8/5 644/8/5
f 735/116/4 756/116/4 738/116/4 734/116/4
f 697/116/6 744/116/6 745/116/6 698/116/6
f 696/116/3 743/116/3 742/116/3 695/116/3
f 736/8/5 735/8/5 700/8/5 699/8/5
f 637/8/5 732/8/5 733/8/5 636/8/5
f 732/116/3 751/116/3 752/116/3 733/116/3
f 731/116/1 750/116/1 751/116/1 732/116/1
f 736/116/6 757/116/6 756/116/6 735/116/6
f 695/116/6 742/116/6 741/116/6 694/116/6
f 636/8/5 733/8/5 737/8/5 645/8/5
f 699/116/4 746/116/4 757/116/4 736/116/4
f 730/116/1 749/116/1 750/116/1 731/116/1
f 733/116/3 752/116/3 760/116/3 737/116/3
f 729/116/1 748/116/1 749/116/1 730/116/1
f 638/12/1 727/112/1 732/8/1 637/8/1
f 727/112/1 726/112/1 731/8/1 732/8/1
f 726/112/1 725/12/1 730/8/1 731/8/1
f 725/12/1 724/12/1 729/8/1 730/8/1
f 724/12/1 723/12/1 728/8/1 729/8/1
f 639/10/1 680/10/1 727/112/1 638/12/1
f 680/10/1 679/10/1 726/112/1 727/112/1
f 679/10/1 678/10/1 725/12/1 726/112/1
f 652/10/4 812/10/4 810/9/4 653/9/4
f 723/12/5 819/12/5 811/12/5 651/12/5
f 641/8/6 717/8/6 718/12/6 647/12/6
f 717/8/6 716/8/6 719/12/6 718/12/6
f 716/8/6 715/8/6 720/12/6 719/12/6
f 715/8/6 714/8/6 721/112/6 720/12/6
f 714/8/6 713/8/6 722/112/6 721/112/6
f 216/11/1 305/11/1 681/111/1 640/9/1
f 305/11/1 304/11/1 682/9/1 681/111/1
f 304/11/1 303/11/1 683/9/1 682/9/1
f 653/9/4 810/9/4 406/11/4 231/11/4
f 725/12/5 821/12/5 820/12/5 724/12/5
f 646/10/6 705/10/6 706/111/6 648/9/6
f 705/10/6 704/10/6 707/9/6 706/111/6
f 704/113/6 703/113/6 708/115/6 707/115/6
f 703/113/6 702/113/6 709/114/6 708/115/6
f 702/113/6 701/113/6 710/114/6 709/114/6
f 642/8/5 690/8/5 717/8/5 641/8/5
f 690/8/5 689/8/5 716/8/5 717/8/5
f 689/8/5 688/8/5 715/8/5 716/8/5
f 688/8/5 687/8/5 714/8/5 715/8/5
f 687/8/5 686/8/5 713/8/5 714/8/5
f 647/12/6 718/12/6 705/10/6 646/10/6
f 718/117/6 719/117/6 704/113/6 705/113/6
f 719/12/6 720/12/6 703/10/6 704/10/6
f 720/12/6 721/112/6 702/10/6 703/10/6
f 721/112/6 722/112/6 701/10/6 702/10/6
f 640/9/1 681/111/1 680/10/1 639/10/1
f 681/111/1 682/9/1 679/10/1 680/10/1
f 682/9/1 683/9/1 678/10/1 679/10/1
f 651/12/4 811/12/4 812/10/4 652/10/4
f 678/10/3 815/10/3 821/12/3 725/12/3
f 643/8/5 695/8/5 690/8/5 642/8/5
f 695/8/5 694/8/5 689/8/5 690/8/5
f 694/8/5 693/8/5 688/8/5 689/8/5
f 693/8/5 692/8/5 687/8/5 688/8/5
f 692/8/5 691/8/5 686/8/5 687/8/5
f 648/9/6 706/111/6 286/11/6 222/11/6
f 706/111/6 707/9/6 287/11/6 286/11/6
f 707/9/6 708/9/6 288/11/6 287/11/6
f 708/9/6 709/111/6 289/11/6 288/11/6
f 709/111/6 710/111/6 290/11/6 289/11/6
f 644/8/5 696/8/5 695/8/5 643/8/5
f 734/116/6 738/116/6 739/116/6 649/116/6
f 697/8/5 698/8/5 693/8/5 694/8/5
f 698/8/5 699/8/5 692/8/5 693/8/5
f 699/8/5 700/8/5 691/8/5 692/8/5
f 747/116/5 740/116/5 739/116/5 738/116/5
f 760/116/5 759/116/5 744/116/5 743/116/5
f 759/116/5 758/116/5 745/116/5 744/116/5
f 758/116/5 757/116/5 746/116/5 745/116/5
f 751/116/5 750/116/5 753/116/5 752/116/5
f 750/116/5 749/116/5 754/116/5 753/116/5
f 749/116/5 748/116/5 755/116/5 754/116/5
f 748/116/5 747/116/5 738/116/5 755/116/5
f 752/116/5 753/116/5 759/116/5 760/116/5
f 753/116/5 754/116/5 758/116/5 759/116/5
f 754/116/5 755/116/5 757/116/5 758/116/5
f 755/116/5 738/116/5 756/116/5 757/116/5
f 743/116/5 744/116/5 741/116/5 742/116/5
f 698/116/6 745/116/6 746/116/6 699/116/6
f 650/116/1 740/116/1 747/116/1 728/116/1
f 737/116/3 760/116/3 743/116/3 696/116/3
f 649/116/4 739/116/4 740/116/4 650/116/4
f 728/116/1 747/116/1 748/116/1 729/116/1
f 761/3/3 762/3/3 764/2/3 763/2/3
f 475/3/1 761/3/1 763/2/1 487/2/1
f 488/2/6 764/2/6 762/3/6 476/3/6
f 487/2/2 763/2/2 764/2/2 488/2/2
f 766/3/5 768/3/5 767/3/5 765/3/5
f 475/3/1 765/3/1 767/3/1 761/3/1
f 762/3/6 770/3/6 772/3/6 768/3/6
f 762/3/6 768/3/6 766/3/6 476/3/6
f 769/3/3 771/3/3 772/3/3 770/3/3
f 761/3/2 769/3/2 770/3/2 762/3/2
f 768/3/5 772/3/5 771/3/5 767/3/5
f 767/3/1 771/3/1 769/3/1 761/3/1
f 785/9/4 786/9/4 778/10/4 777/10/4
f 796/10/1 663/10/1 789/12/1 793/12/1
f 787/9/4 788/9/4 780/10/4 779/10/4
f 777/10/4 778/10/4 782/12/4 781/12/4
f 794/8/5 668/8/5 669/8/5 795/8/5
f 779/10/4 780/10/4 784/12/4 783/12/4
f 781/12/4 782/12/4 775/8/4 776/8/4
f 793/12/1 789/12/1 668/8/1 794/8/1
f 783/12/4 784/12/4 773/8/4 774/8/4
f 672/9/2 786/9/2 785/9/2 671/9/2
f 658/8/5 775/8/5 774/8/5 657/8/5
f 670/12/6 784/12/6 780/10/6 664/10/6
f 791/9/4 792/9/4 662/10/4 663/10/4
f 663/10/4 662/10/4 790/12/4 789/12/4
f 789/12/4 790/12/4 669/8/4 668/8/4
f 797/9/2 806/9/2 804/9/2 792/9/2
f 799/12/3 807/12/3 808/10/3 798/10/3
f 797/9/2 792/9/2 791/9/2 800/9/2
f 795/8/3 805/8/3 807/12/3 799/12/3
f 800/9/1 791/9/1 663/10/1 796/10/1
f 786/9/1 800/9/1 796/10/1 778/10/1
f 783/12/6 799/12/6 798/10/6 779/10/6
f 787/9/2 797/9/2 800/9/2 786/9/2
f 774/8/6 795/8/6 799/12/6 783/12/6
f 779/10/6 798/10/6 797/9/6 787/9/6
f 782/12/1 793/12/1 794/8/1 775/8/1
f 775/8/5 794/8/5 795/8/5 774/8/5
f 778/10/1 796/10/1 793/12/1 782/12/1
f 808/10/6 802/10/6 804/9/6 806/9/6
f 805/8/6 803/8/6 801/12/6 807/12/6
f 807/12/6 801/12/6 802/10/6 808/10/6
f 669/8/5 803/8/5 805/8/5 795/8/5
f 792/9/4 804/9/4 802/10/4 662/10/4
f 798/10/3 808/10/3 806/9/3 797/9/3
f 790/12/4 801/12/4 803/8/4 669/8/4
f 662/10/4 802/10/4 801/12/4 790/12/4
f 814/10/3 822/10/3 825/12/3 820/12/3
f 810/9/4 711/9/4 262/11/4 406/11/4
f 413/11/3 421/11/3 823/111/3 817/111/3
f 815/10/1 814/10/1 820/12/1 821/12/1
f 819/12/5 824/12/5 685/12/5 811/12/5
f 414/11/1 413/11/1 817/111/1 816/9/1
f 817/111/3 823/111/3 822/10/3 814/10/3
f 816/9/1 817/111/1 814/10/1 815/10/1
f 811/12/4 685/12/4 684/10/4 812/10/4
f 420/11/3 427/11/3 827/111/3 712/111/3
f 712/111/3 827/111/3 813/10/3 677/10/3
f 824/12/5 828/12/5 826/12/5 685/12/5
f 822/10/1 677/10/1 824/12/1 825/12/1
f 421/11/1 420/11/1 712/111/1 823/111/1
f 823/111/1 712/111/1 677/10/1 822/10/1
f 820/12/5 825/12/5 824/12/5 819/12/5
f 812/10/4 684/10/4 711/9/4 810/9/4
f 827/111/1 809/9/1 818/10/1 813/10/1
f 427/11/1 424/11/1 809/9/1 827/111/1
f 813/10/1 818/10/1 826/12/1 828/12/1
f 834/9/4 840/9/4 444/11/4 436/11/4
f 677/10/3 813/10/3 828/12/3 824/12/3
f 684/10/6 829/10/6 830/9/6 711/9/6
f 685/12/6 831/12/6 829/10/6 684/10/6
f 831/12/4 832/12/4 833/10/4 829/10/4
f 829/10/4 833/10/4 834/9/4 830/9/4
f 830/9/4 834/9/4 436/11/4 431/11/4
f 711/9/6 830/9/6 431/11/6 262/11/6
f 424/11/3 439/11/3 836/9/3 809/9/3
f 826/12/5 832/12/5 831/12/5 685/12/5
f 833/10/4 839/10/4 840/9/4 834/9/4
f 835/10/5 841/10/5 843/10/5 839/10/5
f 835/10/1 839/10/1 838/12/1 837/12/1
f 836/9/3 842/9/3 841/10/3 835/10/3
f 818/10/3 835/10/3 837/12/3 826/12/3
f 826/12/5 837/12/5 838/12/5 832/12/5
f 809/9/3 836/9/3 835/10/3 818/10/3
f 832/12/4 838/12/4 839/10/4 833/10/4
f 844/9/4 846/9/4 454/11/4 450/11/4
f 842/9/1 844/9/1 843/10/1 841/10/1
f 840/9/4 844/9/4 450/11/4 444/11/4
f 439/11/3 447/11/3 842/9/3 836/9/3
f 839/10/4 843/10/4 844/9/4 840/9/4
f 452/11/1 454/11/1 846/9/1 845/9/1
f 447/11/3 452/11/3 845/9/3 842/9/3
f 842/9/5 845/9/5 846/9/5 844/9/5
